<svg xmlns="http://www.w3.org/2000/svg" width="187.265" height="91.29" viewBox="0 0 187.265 91.29"><path d="M253.84,257.236l3.178,2.159-161.292.017-6.564-4.579L71.072,242.213l-.776-.537a2.084,2.084,0,0,1-.517-1.735l.2-1.265,6.59-41.454,3.493-21.975.558-3.517.212-1.328a2.1,2.1,0,0,1,1.961-1.766,1.909,1.909,0,0,1,.448.019l2.687.424,9.363,1.473,5.963.939.99-1.38,3.68.578a3.059,3.059,0,0,1,6.043.953l-1.24-.2a1.8,1.8,0,0,0-3.562-.558l1.78.279,3.023.476,3.68.58.514,1.618,18.01,2.836a2.116,2.116,0,0,1,.855.337.283.283,0,0,1,.03.022l19.325,13.438.25-.58h.033v-1.207a.469.469,0,0,1,.47-.468l.44.3Z" transform="translate(-69.753 -168.122)" fill="#1b1b1b" opacity="0.3" style="mix-blend-mode:multiply;isolation:isolate"/><path d="M135.925,180.426l-11.054,69.54a2.1,2.1,0,0,1-2.409,1.744l-46.12-7.259-4.811-.758a1.964,1.964,0,0,1-.459-.129,2.055,2.055,0,0,1-.776-.536,2.084,2.084,0,0,1-.517-1.735l.2-1.265,6.59-41.455L80.064,176.6l.558-3.518.212-1.328a2.1,2.1,0,0,1,1.961-1.766,1.907,1.907,0,0,1,.448.019l2.687.424,9.363,1.473,5.963.939,7.451,1.174,7.456,1.174,18.01,2.836a2.116,2.116,0,0,1,.855.337.287.287,0,0,1,.03.022A2.092,2.092,0,0,1,135.925,180.426Z" transform="translate(-69.753 -169.472)" fill="#85d9fe" style="isolation:isolate"/><path d="M140.726,191.244l-9.74,61.274-5.541,4.01-43.215-6.8a2.131,2.131,0,0,1-1.778-2.438l10.162-63.932a2.138,2.138,0,0,1,2.447-1.77l45.885,7.224A2.131,2.131,0,0,1,140.726,191.244Z" transform="translate(-77.49 -177.88)" fill="#fff" style="isolation:isolate"/><g transform="translate(28.656)" style="isolation:isolate"><path d="M184.477,176.444l-.239,1.5-.44,2.773-.242,1.533-9.616-1.514,1.015-1.412,1.832-2.554.99-1.38,3.68.578,1.24.2Z" transform="translate(-173.94 -173.4)" fill="#c1c1c0"/><path d="M204.769,168.16l-.2,1.235a1.8,1.8,0,0,0-2.063,1.492l-1.24-.2A3.059,3.059,0,0,1,204.769,168.16Z" transform="translate(-193.753 -168.122)" fill="#c1c1c0"/></g><g transform="translate(38.272 0.038)" style="isolation:isolate"><path d="M218.513,186.56l-9.613-1.514.242-1.533.44-2.773.239-1.5,3.023.476,3.68.58.514,1.618.949,2.992Z" transform="translate(-208.9 -176.234)" fill="#a4a4a5"/><path d="M216.019,171.742l-1.24-.2a1.8,1.8,0,0,0-1.5-2.05l.2-1.235A3.047,3.047,0,0,1,216.019,171.742Z" transform="translate(-212.075 -168.26)" fill="#a4a4a5"/></g><path d="M249.648,438.79l-5.54,4.01.757-4.763Z" transform="translate(-196.152 -364.152)" fill="#a4a4a5" style="isolation:isolate"/><g transform="translate(11.904 20.58)"><g transform="translate(6.969 0)" style="isolation:isolate"><path d="M0,0,2.988,0l0,2.973L0,2.975Z" transform="translate(0.465 0) rotate(8.99)" fill="#3d4655"/><path d="M0,.02,27.523,0V1.883L0,1.9Z" transform="translate(5.348 1.302) rotate(8.99)" fill="#3d4655"/></g><g transform="translate(5.973 6.263)" style="isolation:isolate"><path d="M0,0,2.988,0l0,2.973L0,2.975Z" transform="translate(0.465 0) rotate(8.99)" fill="#3d4655"/><path d="M0,.02,27.523,0V1.883L0,1.9Z" transform="translate(5.348 1.302) rotate(8.99)" fill="#3d4655"/></g><g transform="translate(4.978 12.525)" style="isolation:isolate"><path d="M0,0,2.988,0l0,2.973L0,2.975Z" transform="translate(0.465 0) rotate(8.99)" fill="#3d4655"/><path d="M0,.02,27.523,0V1.883L0,1.9Z" transform="translate(5.348 1.302) rotate(8.99)" fill="#3d4655"/></g><g transform="translate(3.982 18.788)" style="isolation:isolate"><path d="M0,0,2.988,0l0,2.973L0,2.975Z" transform="translate(0.465 0) rotate(8.99)" fill="#3d4655"/><path d="M0,.02,27.523,0V1.883L0,1.9Z" transform="translate(5.348 1.302) rotate(8.99)" fill="#3d4655"/></g><g transform="translate(2.987 25.051)" style="isolation:isolate"><path d="M0,0,2.988,0l0,2.973L0,2.975Z" transform="translate(0.465 0) rotate(8.99)" fill="#3d4655"/><path d="M0,.02,27.523,0V1.883L0,1.9Z" transform="translate(5.348 1.302) rotate(8.99)" fill="#3d4655"/></g><g transform="translate(1.991 31.314)" style="isolation:isolate"><path d="M0,0,2.988,0l0,2.973L0,2.975Z" transform="translate(0.465 0) rotate(8.99)" fill="#3d4655"/><path d="M0,.02,27.523,0V1.883L0,1.9Z" transform="translate(5.348 1.302) rotate(8.99)" fill="#3d4655"/></g><g transform="translate(0.996 37.576)" style="isolation:isolate"><path d="M0,0,2.988,0l0,2.973L0,2.975Z" transform="translate(0.465 0) rotate(8.99)" fill="#3d4655"/><path d="M0,.02,27.523,0V1.883L0,1.9Z" transform="translate(5.348 1.302) rotate(8.99)" fill="#3d4655"/></g><g transform="translate(0 43.839)" style="isolation:isolate"><path d="M0,0,2.988,0l0,2.973L0,2.975Z" transform="translate(0.465 0) rotate(8.99)" fill="#3d4655"/><path d="M0,.02,27.523,0V1.883L0,1.9Z" transform="translate(5.348 1.302) rotate(8.99)" fill="#3d4655"/></g></g><rect width="2.904" height="45.613" transform="translate(71.433 26.893)" fill="#099dc4" style="isolation:isolate"/><path d="M383.092,367.725v19.624a2.9,2.9,0,0,1-2.9,2.891V367.725Z" transform="translate(-294.804 -313.087)" fill="#465061" style="isolation:isolate"/><path d="M372.532,367.725V390.24a2.9,2.9,0,0,1-2.9-2.891V367.725Z" transform="translate(-287.149 -313.087)" fill="#3d4655" style="isolation:isolate"/><rect width="2.2" height="18.329" transform="translate(85.384 36.309)" fill="#c1b6a1" style="isolation:isolate"/><rect width="2.2" height="18.329" transform="translate(83.183 36.309)" fill="#e9ddbd" style="isolation:isolate"/><rect width="2.904" height="1.886" transform="translate(71.433 70.619)" fill="#ec4832" style="isolation:isolate"/><g transform="translate(83.183 20.094)"><rect width="2.2" height="9.433" transform="translate(2.2 5.61)" fill="#c1b6a1" style="isolation:isolate"/><rect width="2.2" height="9.433" transform="translate(0 5.61)" fill="#e9ddbd" style="isolation:isolate"/><path d="M382.389,251.588h-2.2v-3.934h.5l.415.966Z" transform="translate(-377.988 -245.978)" fill="#98a090" style="isolation:isolate"/><path d="M374.39,247.65v3.934h-2.2l1.282-2.967.165-.386.25-.58Z" transform="translate(-372.189 -245.975)" fill="#b4b7ae" style="isolation:isolate"/><path d="M380.692,242v1.207h-.5v-1.675A.487.487,0,0,1,380.692,242Z" transform="translate(-377.988 -241.533)" fill="#928e95" style="isolation:isolate"/><path d="M378.984,241.53v1.675h-.5V242A.487.487,0,0,1,378.984,241.53Z" transform="translate(-376.783 -241.53)" fill="#928e95" style="isolation:isolate"/></g><rect width="2.2" height="1.172" transform="translate(85.384 35.137)" fill="#bb3227" style="isolation:isolate"/><rect width="2.2" height="1.172" transform="translate(83.183 35.137)" fill="#ec4832" style="isolation:isolate"/><rect width="1.978" height="1.968" transform="translate(88.288 70.742)" fill="#465061" style="isolation:isolate"/><rect width="0.614" height="12.554" transform="translate(89.652 58.188)" fill="#465061" style="isolation:isolate"/><rect width="2.904" height="43.727" transform="translate(74.338 26.893)" fill="#077893" style="isolation:isolate"/><rect width="2.904" height="1.886" transform="translate(74.338 70.619)" fill="#bb3227" style="isolation:isolate"/><path d="M342.932,432.995v1.757a2.9,2.9,0,0,1-2.9,2.891v-4.648Z" transform="translate(-265.69 -360.49)" fill="#e9ddbd" style="isolation:isolate"/><path d="M332.372,432.995v4.648a2.9,2.9,0,0,1-2.9-2.891v-1.757Z" transform="translate(-258.035 -360.49)" fill="#e9ddbd" style="isolation:isolate"/><g transform="translate(82.479 73.384)"><path d="M375.437,436.2v.879a2.9,2.9,0,0,1-5.809,0V436.2Z" transform="translate(-369.628 -436.205)" fill="#e9ddbd" style="isolation:isolate"/></g><path d="M335.277,255.972h-5.809l1.692-3.917h2.426Z" transform="translate(-258.035 -229.079)" fill="#ffe6be" style="isolation:isolate"/><path d="M338.044,244.589h-2.426l1.213-2.814Z" transform="translate(-262.493 -221.613)" fill="#2e2b27" style="isolation:isolate"/><path d="M1.171,2.063H.652V3.216H0L0,.069H1.177a1.331,1.331,0,0,1,.864.248.855.855,0,0,1,.3.7.966.966,0,0,1-.14.537A.956.956,0,0,1,1.78,1.9l.683,1.286v.03h-.7ZM.653,1.539h.526a.54.54,0,0,0,.38-.125.444.444,0,0,0,.135-.343.474.474,0,0,0-.127-.35.529.529,0,0,0-.39-.127H.653Zm4.979.31H4.381v.843H5.848v.521l-2.12,0,0-3.148,2.115,0V.59H4.381v.75H5.632Zm3.99.963a1.133,1.133,0,0,1-.5.326,2.093,2.093,0,0,1-.712.116,1.415,1.415,0,0,1-.72-.178,1.189,1.189,0,0,1-.477-.517,1.814,1.814,0,0,1-.172-.8V1.547A1.929,1.929,0,0,1,7.2.731,1.18,1.18,0,0,1,7.663.2a1.332,1.332,0,0,1,.7-.183,1.323,1.323,0,0,1,.879.266,1.137,1.137,0,0,1,.375.777H8.989A.626.626,0,0,0,8.8.668.615.615,0,0,0,8.387.543a.579.579,0,0,0-.506.249,1.3,1.3,0,0,0-.176.739v.2a1.239,1.239,0,0,0,.188.748.647.647,0,0,0,.554.253.726.726,0,0,0,.524-.156V2.034H8.378V1.557H9.622Zm2.11.4H11.08l0-3.148h.652Zm3.134-.828a.332.332,0,0,0-.13-.282,1.71,1.71,0,0,0-.469-.207,3.329,3.329,0,0,1-.536-.215A.871.871,0,0,1,13.191.9a.759.759,0,0,1,.145-.455.944.944,0,0,1,.415-.313,1.569,1.569,0,0,1,.607-.113,1.425,1.425,0,0,1,.6.122.958.958,0,0,1,.411.345.9.9,0,0,1,.146.506h-.652a.423.423,0,0,0-.137-.336.563.563,0,0,0-.384-.12.6.6,0,0,0-.371.1A.317.317,0,0,0,13.843.9.3.3,0,0,0,14,1.155a1.756,1.756,0,0,0,.457.194,1.975,1.975,0,0,1,.81.412.819.819,0,0,1,.254.614.758.758,0,0,1-.311.641,1.366,1.366,0,0,1-.836.233,1.62,1.62,0,0,1-.664-.132,1.048,1.048,0,0,1-.457-.364.929.929,0,0,1-.157-.536h.654q0,.521.625.521a.611.611,0,0,0,.363-.094A.306.306,0,0,0,14.865,2.38ZM19.23.58h-.969l0,2.622h-.652l0-2.622h-.956V.057l2.576,0Zm2.43,1.468h-.519V3.2h-.652l0-3.148h1.175A1.331,1.331,0,0,1,22.531.3a.855.855,0,0,1,.3.7.966.966,0,0,1-.14.537.956.956,0,0,1-.425.343l.683,1.286V3.2h-.7Zm-.519-.525h.526a.54.54,0,0,0,.38-.125.444.444,0,0,0,.135-.343.474.474,0,0,0-.127-.35.529.529,0,0,0-.39-.127h-.523ZM26,2.549H24.861l-.218.649H23.95L25.13.05h.6L26.915,3.2h-.693Zm-.966-.525h.791l-.4-1.178ZM30.221.572h-.969l0,2.622H28.6l0-2.622h-.956V.049l2.576,0Zm1.952,2.621h-.652l0-3.148h.652Zm4.092-1.506A1.9,1.9,0,0,1,36.1,2.5a1.242,1.242,0,0,1-.473.541,1.4,1.4,0,0,1-1.406,0,1.249,1.249,0,0,1-.477-.537,1.837,1.837,0,0,1-.171-.8V1.551a1.885,1.885,0,0,1,.169-.818A1.252,1.252,0,0,1,34.217.19a1.4,1.4,0,0,1,1.405,0A1.247,1.247,0,0,1,36.1.731a1.876,1.876,0,0,1,.168.816Zm-.66-.142a1.319,1.319,0,0,0-.178-.752.631.631,0,0,0-1.014,0,1.306,1.306,0,0,0-.181.745v.153a1.335,1.335,0,0,0,.178.748.625.625,0,0,0,1.016.009A1.33,1.33,0,0,0,35.6,1.7ZM40.2,3.187h-.652l-1.267-2.07,0,2.071h-.652l0-3.148h.652l1.269,2.074,0-2.075H40.2Z" transform="translate(17.598 12.267) rotate(9)" fill="#1b1b1b"/></svg>