<svg xmlns="http://www.w3.org/2000/svg" width="46" height="46" viewBox="0 0 46 46">
    <g transform="translate(10941.5 3608.5)">
        <rect width="45" height="45" transform="translate(-10941 -3608)" fill="#1b1b1b" stroke="#707070" stroke-width="1" opacity="0"/>
        <path d="M-1461.122,1739.879v-15.132l13.107-7.568,13.107,7.568v15.131l-13.107,7.569Zm14.858,5.071,9.436-5.443-4.713-2.721Zm-12.921-5.448,9.415,5.438-4.7-8.135Zm11.81,4.809,4.711-8.167-4.715-2.721Zm-5.995-8.157,4.708,8.155v-10.849Zm-6.469,2.248,4.717-2.706-4.717-8.171Zm18.94-2.728,4.7,2.722V1727.51Zm-13.109-.631,4.73-2.714-9.457-5.466Zm7.271-2.731,4.717,2.723,4.713-8.164Zm-1.925-1.113v-5.442h-9.422Zm1.287,0,9.426-5.442h-9.426Zm0-7,.062.181.206.094h9.158l-9.426-5.443Zm-10.708.266h9.424v-5.434Z" transform="translate(-9470.378 -5317.679)" fill="#1b1b1b"/>
    </g>
</svg>