<svg xmlns="http://www.w3.org/2000/svg" width="46" height="46" viewBox="0 0 46 46">
    <g transform="translate(10941.5 3788.5)">
        <rect width="45" height="45" transform="translate(-10941 -3788)" fill="#1b1b1b" stroke="#707070" stroke-width="1" opacity="0"/>
        <g transform="translate(-10930.5 -3780.5)">
            <g transform="translate(0 0)">
                <path d="M-1895.328,985.723h.18a5.2,5.2,0,0,0,3.971-1.718c2.169-2.445,1.808-6.636,1.769-7.036-.141-3-1.56-4.439-2.732-5.109a6.262,6.262,0,0,0-3.031-.794h-.1a6.272,6.272,0,0,0-3.031.772c-1.183.67-2.625,2.107-2.766,5.132-.039.4-.4,4.591,1.769,7.036A5.178,5.178,0,0,0-1895.328,985.723Zm-4.231-8.613c0-.017.006-.034.006-.045.186-4.039,3.053-4.473,4.281-4.473h.068c1.521.034,4.107.654,4.281,4.473a.106.106,0,0,0,.006.045c.006.039.4,3.87-1.392,5.887a3.692,3.692,0,0,1-2.9,1.206h-.056a3.681,3.681,0,0,1-2.9-1.206C-1899.947,980.991-1899.564,977.143-1899.558,977.11Z" transform="translate(1906.799 -971.065)" fill="#1b1b1b"/>
                <path d="M-1993.768,1239.628a.76.76,0,0,1-.186,1.059,17.71,17.71,0,0,1-5.143,2.349c-1.313.468-1.459,1.871-1.5,3.155,0,.051-.006.1-.006.141a9.643,9.643,0,0,0,.118,1.741,17.549,17.549,0,0,0,4.06,1.572,5.8,5.8,0,0,0,.344,1.652,17.917,17.917,0,0,1-5.458-2.087.723.723,0,0,1-.293-.355,8.64,8.64,0,0,1-.287-2.552v-.017a1.142,1.142,0,0,0,.006-.141c.034-1.11.107-3.718,2.552-4.557.017-.006.034-.011.056-.017a16.083,16.083,0,0,0,4.676-2.129A.759.759,0,0,1-1993.768,1239.628Z" transform="translate(2002.118 -1224.193)" fill="#1b1b1b"/>
                <path d="M-1733.831,1248.95a.755.755,0,0,1-.293.355,18.075,18.075,0,0,1-5.475,2.089,5.812,5.812,0,0,0,.345-1.648,17.308,17.308,0,0,0,4.06-1.573,10.231,10.231,0,0,0,.118-1.74,1.139,1.139,0,0,1-.006-.141c-.04-1.284-.186-2.687-1.5-3.155a17.548,17.548,0,0,1-5.143-2.349.76.76,0,0,1-.186-1.059.76.76,0,0,1,1.059-.186,16.246,16.246,0,0,0,4.676,2.13l.057.017c2.445.834,2.518,3.442,2.552,4.557,0,.051.006.1.006.141v.017A9.064,9.064,0,0,1-1733.831,1248.95Z" transform="translate(1756.698 -1224.288)" fill="#1b1b1b"/>
            </g>
            <g transform="translate(6.415 19.932)">
                <path d="M-1883.084,1335.189a5.16,5.16,0,0,1-5.154-5.154,5.16,5.16,0,0,1,5.154-5.154,5.16,5.16,0,0,1,5.155,5.154A5.16,5.16,0,0,1-1883.084,1335.189Zm0-9.066a3.916,3.916,0,0,0-3.911,3.911,3.916,3.916,0,0,0,3.911,3.911,3.916,3.916,0,0,0,3.912-3.911A3.916,3.916,0,0,0-1883.084,1326.123Z" transform="translate(1888.238 -1324.88)" fill="#1b1b1b"/>
                <path d="M-1843.859,1383.34a.563.563,0,0,1-.8,0l-1.478-1.477a.622.622,0,0,1,0-.879.621.621,0,0,1,.879,0l1,1,2.467-2.467a.622.622,0,0,1,.879,0,.622.622,0,0,1,0,.879Z" transform="translate(1848.676 -1376.263)" fill="#1b1b1b"/>
            </g>
        </g>
    </g>
</svg>