<svg xmlns="http://www.w3.org/2000/svg" width="46" height="46" viewBox="0 0 46 46">
    <g transform="translate(10941.5 3383.5)">
        <rect width="45" height="45" transform="translate(-10941 -3383)" fill="#1b1b1b" stroke="#707070" stroke-width="1" opacity="0"/>
        <g transform="translate(-10930.5 -3374.5)">
            <g transform="translate(0 0)">
                <path d="M-1748.619,2549.6a12.088,12.088,0,0,0-12.074,12.075v6.547a2.417,2.417,0,0,0,2.415,2.415h.943a2.418,2.418,0,0,0,2.276,1.61,2.418,2.418,0,0,0,2.415-2.414v-6.548a2.418,2.418,0,0,0-2.415-2.415,2.42,2.42,0,0,0-2.276,1.611h-.943a2.407,2.407,0,0,0-.8.138v-.943a10.477,10.477,0,0,1,10.464-10.465,10.477,10.477,0,0,1,10.465,10.465v.943a2.41,2.41,0,0,0-.805-.138h-.943a2.42,2.42,0,0,0-2.276-1.611,2.419,2.419,0,0,0-2.415,2.415v6.548a2.418,2.418,0,0,0,2.415,2.414,2.415,2.415,0,0,0,.7-.1,2.419,2.419,0,0,1-2.311,1.714h-2.553a2.419,2.419,0,0,0-2.277-1.61,2.418,2.418,0,0,0-2.415,2.416,2.417,2.417,0,0,0,2.415,2.414,2.419,2.419,0,0,0,2.277-1.609h2.553a4.03,4.03,0,0,0,4.025-4.025v-.805h.805a2.417,2.417,0,0,0,2.415-2.415v-6.547A12.088,12.088,0,0,0-1748.619,2549.6Zm-7.245,13.685a.806.806,0,0,1,.805-.8.806.806,0,0,1,.805.8v6.548a.806.806,0,0,1-.805.8.806.806,0,0,1-.805-.8Zm-2.415.805h.8v4.938h-.8a.806.806,0,0,1-.8-.805V2564.9A.806.806,0,0,1-1758.278,2564.094Zm9.66,11.377a.806.806,0,0,1-.8-.8.806.806,0,0,1,.8-.805.806.806,0,0,1,.805.805A.806.806,0,0,1-1748.619,2575.471Zm7.245-5.635a.805.805,0,0,1-.8.8.806.806,0,0,1-.805-.8v-6.548a.806.806,0,0,1,.805-.8.805.805,0,0,1,.8.8Zm3.22-1.61a.807.807,0,0,1-.805.805h-.805v-4.937h.805a.806.806,0,0,1,.805.805Z" transform="translate(1760.693 -2549.604)" fill="#1b1b1b"/>
            </g>
        </g>
    </g>
</svg>