<svg xmlns="http://www.w3.org/2000/svg" width="46" height="46" viewBox="0 0 46 46">
    <g transform="translate(10941.5 3743.5)">
        <rect width="45" height="45" transform="translate(-10941 -3743)" fill="#1b1b1b" stroke="#707070" stroke-width="1" opacity="0"/>
        <g transform="translate(-11273.839 -4114.09)">
            <path d="M360.067,385.2a5.431,5.431,0,0,0-2.59-4.854,5.861,5.861,0,0,0-2.883-.755h-.09a5.84,5.84,0,0,0-2.883.732A5.438,5.438,0,0,0,349,385.2c-.045.383-.383,4.359,1.678,6.69a4.984,4.984,0,0,0,1.138.935.041.041,0,0,1,.034.011.413.413,0,0,0,.169.09.154.154,0,0,0,.045.034,4.82,4.82,0,0,0,2.388.563h.169a4.917,4.917,0,0,0,3.773-1.633C360.45,389.558,360.112,385.582,360.067,385.2Zm-2.759,5.733a3.507,3.507,0,0,1-2.759,1.138h-.056a3.469,3.469,0,0,1-2.748-1.138c-1.689-1.915-1.329-5.564-1.318-5.6v-.045c.169-3.841,2.895-4.257,4.066-4.257h.068c1.442.034,3.9.631,4.066,4.257v.045C358.625,385.368,359.008,389.006,357.307,390.932Z" transform="translate(1.087)" fill="#1b1b1b"/>
            <path d="M345.3,391.821a2.439,2.439,0,0,1-1.871-.812,4.731,4.731,0,0,1-.822-3.231,2.691,2.691,0,0,1,1.3-2.4,2.931,2.931,0,0,1,1.418-.362h.043a2.934,2.934,0,0,1,1.418.372,2.686,2.686,0,0,1,1.286,2.384,4.729,4.729,0,0,1-.822,3.234,2.446,2.446,0,0,1-1.87.812h-.08Zm.025-5.832c-.624,0-1.683.239-1.759,1.846v.034a3.827,3.827,0,0,0,.585,2.5,1.5,1.5,0,0,0,1.179.487h.024a1.5,1.5,0,0,0,1.179-.487,3.77,3.77,0,0,0,.583-2.489v0a.245.245,0,0,1,0-.041,1.68,1.68,0,0,0-1.759-1.846Z" transform="translate(0.283 0.686)" fill="#1b1b1b"/>
            <path d="M344.192,392.139l-.011.011a7.988,7.988,0,0,1-2.32,1.047c-.439.169-.541.608-.563,1.273v.056a6.574,6.574,0,0,0,.034.664v.011l.023.011a9.011,9.011,0,0,0,2.455.822,8.185,8.185,0,0,0-.3.935,9.9,9.9,0,0,1-2.838-1.047.461.461,0,0,1-.191-.225,4.273,4.273,0,0,1-.135-1.194v-.079a2.12,2.12,0,0,1,1.228-2.151l.045-.011a7.075,7.075,0,0,0,2.016-.912.521.521,0,0,1,.282-.09.491.491,0,0,1,.394.2A.485.485,0,0,1,344.192,392.139Z" transform="translate(0 1.474)" fill="#1b1b1b"/>
            <path d="M345.592,398.884v.135a8.964,8.964,0,0,0,.113,1.656,15.514,15.514,0,0,0,3.2,1.307,5.685,5.685,0,0,0,.237,1.577,16.7,16.7,0,0,1-4.438-1.8.7.7,0,0,1-.282-.338,8.33,8.33,0,0,1-.27-2.422v-.146a7.987,7.987,0,0,1,.225-1.87,4.369,4.369,0,0,1,.372-.935,3.136,3.136,0,0,1,1.836-1.532l.045-.011a15.609,15.609,0,0,0,4.449-2.027.714.714,0,0,1,.7-.079,1.069,1.069,0,0,1,.191.113,1.43,1.43,0,0,1,.113.135.734.734,0,0,1-.169,1.014,16.768,16.768,0,0,1-4.9,2.23,1.835,1.835,0,0,0-.867.642,2.184,2.184,0,0,0-.248.451A5.576,5.576,0,0,0,345.592,398.884Z" transform="translate(0.481 1.61)" fill="#1b1b1b"/>
            <path d="M348.768,392.251a9.829,9.829,0,0,1-1.216.552,7.624,7.624,0,0,1-1.228-.664.534.534,0,0,1-.2-.315.506.506,0,0,1,.079-.36.482.482,0,0,1,.405-.2.473.473,0,0,1,.27.079,6.582,6.582,0,0,0,1.07.586C348.047,391.97,348.4,392.116,348.768,392.251Z" transform="translate(0.729 1.474)" fill="#1b1b1b"/>
            <g transform="translate(358.559 385.705)">
                <path d="M363.149,391.821a2.441,2.441,0,0,0,1.871-.812,4.731,4.731,0,0,0,.822-3.231,2.7,2.7,0,0,0-1.3-2.4,2.923,2.923,0,0,0-1.417-.362h-.043a2.938,2.938,0,0,0-1.419.372,2.688,2.688,0,0,0-1.286,2.384,4.729,4.729,0,0,0,.822,3.234,2.443,2.443,0,0,0,1.871.812h.08Zm-.025-5.832c.624,0,1.683.239,1.759,1.846a.068.068,0,0,0,0,.021v.012a3.81,3.81,0,0,1-.586,2.5,1.5,1.5,0,0,1-1.178.487H363.1a1.5,1.5,0,0,1-1.18-.487,3.777,3.777,0,0,1-.585-2.489v0a.167.167,0,0,0,.006-.041,1.68,1.68,0,0,1,1.759-1.846Z" transform="translate(-356.031 -385.019)" fill="#1b1b1b"/>
                <path d="M364.348,396.979a3.854,3.854,0,0,0-.372-.935,3.1,3.1,0,0,0-1.825-1.521l-.056-.022a15.38,15.38,0,0,1-4.438-2.027.7.7,0,0,0-.417-.124.731.731,0,0,0-.6.3.721.721,0,0,0,.18,1,17.031,17.031,0,0,0,4.888,2.241,1.85,1.85,0,0,1,.879.642,2.767,2.767,0,0,1,.248.439,5.834,5.834,0,0,1,.3,1.915.274.274,0,0,0,0,.135,11.687,11.687,0,0,1-.113,1.656,15.83,15.83,0,0,1-3.21,1.3,5.781,5.781,0,0,1-.237,1.6,17.7,17.7,0,0,0,4.46-1.825.7.7,0,0,0,.282-.338,9.145,9.145,0,0,0,.259-2.41v-.158A8.093,8.093,0,0,0,364.348,396.979Z" transform="translate(-356.516 -384.093)" fill="#1b1b1b"/>
                <path d="M367.945,394.425v.079a4.273,4.273,0,0,1-.135,1.194.529.529,0,0,1-.191.225,9.974,9.974,0,0,1-2.849,1.047,5.312,5.312,0,0,0-.3-.935,9.085,9.085,0,0,0,2.467-.822l.011-.011v-.011a4.393,4.393,0,0,0,.045-.664v-.056c-.023-.665-.124-1.1-.574-1.273a7.924,7.924,0,0,1-2.309-1.047l-.011-.011a.485.485,0,0,1-.113-.676.491.491,0,0,1,.394-.2.458.458,0,0,1,.27.09,7.141,7.141,0,0,0,2.027.912l.034.011A2.115,2.115,0,0,1,367.945,394.425Z" transform="translate(-355.585 -384.231)" fill="#1b1b1b"/>
                <path d="M364.585,398.849v.158a9.145,9.145,0,0,1-.259,2.41.7.7,0,0,1-.282.338,17.7,17.7,0,0,1-4.46,1.825,5.781,5.781,0,0,0,.237-1.6,15.83,15.83,0,0,0,3.21-1.3,11.687,11.687,0,0,0,.113-1.656.274.274,0,0,1,0-.135,5.834,5.834,0,0,0-.3-1.915,2.767,2.767,0,0,0-.248-.439,1.85,1.85,0,0,0-.879-.642,17.031,17.031,0,0,1-4.888-2.241.721.721,0,0,1-.18-1,.731.731,0,0,1,.6-.3.7.7,0,0,1,.417.124A15.38,15.38,0,0,0,362.1,394.5l.056.022a3.1,3.1,0,0,1,1.825,1.521,3.854,3.854,0,0,1,.372.935A8.093,8.093,0,0,1,364.585,398.849Z" transform="translate(-356.516 -384.093)" fill="#1b1b1b"/>
                <path d="M362,391.823a.517.517,0,0,1-.191.315,8.11,8.11,0,0,1-1.228.676,10.056,10.056,0,0,1-1.228-.563c.383-.135.732-.282.833-.327a6.042,6.042,0,0,0,1.059-.586.509.509,0,0,1,.282-.079.462.462,0,0,1,.394.2A.456.456,0,0,1,362,391.823Z" transform="translate(-356.158 -384.231)" fill="#1b1b1b"/>
            </g>
            <g transform="translate(350.723 398.534)">
                <path d="M354.46,406.211a4.9,4.9,0,1,1,4.9-4.9A4.906,4.906,0,0,1,354.46,406.211Zm0-8.618a3.717,3.717,0,1,0,3.717,3.717,3.722,3.722,0,0,0-3.717-3.717Z" transform="translate(-349.559 -396.41)" fill="#1b1b1b"/>
                <path d="M353.887,402.81a.537.537,0,0,1-.756,0l-1.406-1.4a.591.591,0,0,1,.836-.836l.947.947,2.346-2.346a.591.591,0,0,1,.836.836Z" transform="translate(-349.307 -396.083)" fill="#1b1b1b"/>
            </g>
        </g>
    </g>
</svg>