<svg xmlns="http://www.w3.org/2000/svg" width="46" height="46" viewBox="0 0 46 46">
    <g transform="translate(10941.5 3338.5)">
        <rect width="45" height="45" transform="translate(-10941 -3338)" fill="#1b1b1b" stroke="#707070" stroke-width="1" opacity="0"/>
        <g transform="translate(-10927.5 -3329.5)">
            <path d="M-3110.017,2929.023h-11.873a2.575,2.575,0,0,0-2.566,2.567v22.6a2.573,2.573,0,0,0,2.566,2.565h11.908a2.577,2.577,0,0,0,1.829-.773,2.477,2.477,0,0,0,.7-1.792v-22.6A2.575,2.575,0,0,0-3110.017,2929.023Zm-11.878,1.467h11.874a1.1,1.1,0,0,1,1.1,1.1v1.008h-14.068v-1.008A1.1,1.1,0,0,1-3121.9,2930.49Zm12.971,3.575v16.21h-14.068v-16.21Zm-.286,20.891a1.075,1.075,0,0,1-.775.327h-11.91a1.1,1.1,0,0,1-1.1-1.1v-2.443h14.068v2.465A1.04,1.04,0,0,1-3109.21,2954.956Z" transform="translate(3124.456 -2929.023)" fill="#1b1b1b"/>
            <path d="M-3116.4,2948.6h-1.529a.736.736,0,0,0-.734.732.728.728,0,0,0,.214.52.728.728,0,0,0,.523.216h1.532a.734.734,0,0,0,.733-.732.726.726,0,0,0-.214-.519A.73.73,0,0,0-3116.4,2948.6Z" transform="translate(3125.681 -2924.88)" fill="#1b1b1b"/>
        </g>
    </g>
</svg>