<svg xmlns="http://www.w3.org/2000/svg" width="46" height="46" viewBox="0 0 46 46">
    <g transform="translate(10941.5 3698.5)">
        <rect width="45" height="45" transform="translate(-10941 -3698)" fill="#1b1b1b" stroke="#707070" stroke-width="1" opacity="0"/>
        <g transform="translate(-10933.5 -3689.5)">
            <path d="M122.82,304.64a.571.571,0,1,0-.779-.209A.571.571,0,0,0,122.82,304.64Z" transform="translate(-115.004 -287.052)" fill="#1b1b1b"/>
            <path d="M5.477,56.606l2.874,4.977A2.282,2.282,0,1,0,12.3,59.3l-1.712-2.965,1.482-.856a.571.571,0,0,0,.209-.78l-.742-1.285,10.929-2.144a1.712,1.712,0,0,0,1.387-2.565l-1.9-3.285,1.212-1.836a.571.571,0,0,0,.018-.6L22.05,41.01a.572.572,0,0,0-.528-.284l-2.2.132-2.105-3.647a1.7,1.7,0,0,0-1.461-.856h-.022a1.7,1.7,0,0,0-1.441.789l-7.454,9.5L2,49.438a3.994,3.994,0,0,0,3.48,7.168Zm5.839,3.266a1.141,1.141,0,0,1-1.977,1.141L6.486,56.071,8.463,54.93Zm-1.294-4.525-.571-.988.988-.571.571.988ZM21.238,41.886l.789,1.366-.7,1.065-1.359-2.354ZM15.252,37.77a.57.57,0,0,1,.981.011l6.637,11.5a.57.57,0,0,1-.48.856,2.1,2.1,0,0,0-.313.053l-7.02-12.16C15.2,37.836,15.223,37.818,15.252,37.77ZM14.3,38.993l6.6,11.425-9.955,1.953L7.911,47.128ZM1.524,54.324a2.851,2.851,0,0,1,1.044-3.9l4.447-2.568L9.868,52.8,5.421,55.368A2.857,2.857,0,0,1,1.524,54.324Z" transform="translate(0 -35.079)" fill="#1b1b1b"/>
            <path d="M46.294,323.858a.571.571,0,0,0-.779-.209l-.988.571a.571.571,0,0,1-.779-.209.571.571,0,0,0-.988.571,1.714,1.714,0,0,0,2.338.627l.988-.571A.571.571,0,0,0,46.294,323.858Z" transform="translate(-40.247 -305.908)" fill="#1b1b1b"/>
            <path d="M439.748,56.553l-3.18,1.769a.571.571,0,1,0,.555,1l3.179-1.769a.571.571,0,0,0-.555-1Z" transform="translate(-411.381 -54.057)" fill="#1b1b1b"/>
            <path d="M442.986,151.232l-2.2-.591a.571.571,0,1,0-.3,1.1l2.2.591a.571.571,0,1,0,.3-1.1Z" transform="translate(-414.953 -142.826)" fill="#1b1b1b"/>
            <path d="M384.1,14.423l-.591,2.2a.571.571,0,1,0,1.1.3l.591-2.2a.571.571,0,1,0-1.1-.3Z" transform="translate(-361.61 -14)" fill="#1b1b1b"/>
        </g>
    </g>
</svg>