<svg xmlns="http://www.w3.org/2000/svg" width="46" height="46" viewBox="0 0 46 46">
    <g transform="translate(10941.5 3518.5)">
        <rect width="45" height="45" transform="translate(-10941 -3518)" fill="#1b1b1b" stroke="#707070" stroke-width="1" opacity="0"/>
        <g transform="translate(-10932.5 -3509.5)">
            <g transform="translate(0 0)">
                <path d="M-3003.22,1677.669l-6.413-9.162a1.487,1.487,0,0,1-.1-1.545,1.486,1.486,0,0,1,1.323-.8h5.991a2.336,2.336,0,0,1,2.019,1.143l4.206,7.011-.923.144a10.51,10.51,0,0,0-5.573,2.716Zm-5.191-10.251a.226.226,0,0,0-.208.126.226.226,0,0,0,.016.243l5.595,7.993a11.739,11.739,0,0,1,4.792-2.387l-3.265-5.442a1.088,1.088,0,0,0-.941-.533Zm20.678,10.25-.529-.494a10.509,10.509,0,0,0-5.573-2.715l-.923-.144,4.206-7.011a2.367,2.367,0,0,1,2.019-1.143h5.991a1.488,1.488,0,0,1,1.323.8,1.489,1.489,0,0,1-.1,1.545Zm-5.005-4.276a11.738,11.738,0,0,1,4.793,2.386l5.6-7.993a.227.227,0,0,0,.016-.243.226.226,0,0,0-.208-.126h-5.991a1.1,1.1,0,0,0-.94.533Z" transform="translate(3009.904 -1666.16)" fill="#1b1b1b"/>
                <path d="M-2889.947,1880.709a8.848,8.848,0,0,1-8.838-8.837,8.848,8.848,0,0,1,8.838-8.838,8.848,8.848,0,0,1,8.838,8.838A8.847,8.847,0,0,1-2889.947,1880.709Zm0-16.418a7.589,7.589,0,0,0-7.58,7.58,7.589,7.589,0,0,0,7.58,7.58,7.588,7.588,0,0,0,7.58-7.58A7.589,7.589,0,0,0-2889.947,1864.291Z" transform="translate(2904.374 -1853.131)" fill="#1b1b1b"/>
            </g>
            <path d="M-2805.715,1953.668l-1.757,1.712.415,2.419a.532.532,0,0,1-.771.561l-2.173-1.142-2.173,1.142a.532.532,0,0,1-.771-.561l.416-2.419-1.757-1.712a.532.532,0,0,1,.293-.907l2.429-.354,1.085-2.2a.524.524,0,0,1,.476-.3.53.53,0,0,1,.479.3l1.085,2.2,2.428.354A.532.532,0,0,1-2805.715,1953.668Z" transform="translate(2824.277 -1935.638)" fill="#1b1b1b"/>
        </g>
    </g>
</svg>