<svg xmlns="http://www.w3.org/2000/svg" width="20.658" height="17.508" viewBox="0 0 20.658 17.508">
    <line x2="11.542" transform="translate(0.525 4.902)" fill="#fff"/>
        <path d="M3.162,3.507" transform="translate(-0.394 -0.437)" fill="#fff"/>
        <path d="M5.209,3.507" transform="translate(-0.65 -0.437)" fill="#fff"/>
        <path d="M7.256,3.507" transform="translate(-0.906 -0.437)" fill="#fff"/>
    <g transform="translate(2.242)"><g transform="translate(0 2.545)">
        <path d="M3.087,3.96a.538.538,0,0,1-.525-.525.519.519,0,0,1,.044-.2.522.522,0,0,1,.858-.175.715.715,0,0,1,.105.175.519.519,0,0,1,.044.2.49.49,0,0,1-.158.368.435.435,0,0,1-.166.114.519.519,0,0,1-.2.044" transform="translate(-2.562 -2.908)" fill="#009fe3"/>
        <path d="M5.137,3.959A.523.523,0,0,1,4.761,3.8a.549.549,0,0,1-.114-.569.751.751,0,0,1,.114-.175.521.521,0,0,1,.744,0,.547.547,0,0,1,.114.175A.5.5,0,0,1,5.5,3.8a.513.513,0,0,1-.166.114.556.556,0,0,1-.2.044" transform="translate(-2.818 -2.907)" fill="#009fe3"/>
        <path d="M7.177,3.959a.556.556,0,0,1-.2-.044A.513.513,0,0,1,6.81,3.8.5.5,0,0,1,6.7,3.233a.547.547,0,0,1,.114-.175.7.7,0,0,1,.166-.114.556.556,0,0,1,.578.114.751.751,0,0,1,.114.175.549.549,0,0,1-.114.569.5.5,0,0,1-.376.158" transform="translate(-3.073 -2.907)" fill="#009fe3"/></g>
        <path d="M14.509,13.666a.526.526,0,0,1-.523-.486L13.777,10.4a.523.523,0,0,1,.055-.277L18.809.288a.526.526,0,0,1,.705-.232l2.575,1.3a.525.525,0,0,1,.231.705L17.343,11.9a.527.527,0,0,1-.191.208l-2.365,1.478a.526.526,0,0,1-.278.08m.326-3.2.133,1.769,1.5-.94,4.674-9.236L19.509,1.23Z" transform="translate(-3.962 0)" fill="#009fe3"/>
        <rect width="1.05" height="2.886" transform="matrix(0.452, -0.892, 0.892, 0.452, 14.207, 2.717)" fill="#009fe3"/>
    </g>
    <g transform="translate(0 0.478)">
        <path d="M18.174,17.575H1.983A1.985,1.985,0,0,1,0,15.592V2.529A1.985,1.985,0,0,1,1.983.546H13.531a.525.525,0,1,1,0,1.05H1.983a.934.934,0,0,0-.933.933V15.592a.934.934,0,0,0,.933.933H18.174a.934.934,0,0,0,.933-.933V7.457a.525.525,0,0,1,1.05,0v8.135a1.985,1.985,0,0,1-1.983,1.983" transform="translate(0 -0.546)" fill="#1b1b1b"/>
        <path d="M12.068,6.051H.526A.525.525,0,1,1,.526,5H12.068a.525.525,0,0,1,0,1.05" transform="translate(0 -1.102)" fill="#1b1b1b"/>
        <path d="M7.75,16.024H6.2a.524.524,0,0,1-.525-.525v-.915a3.152,3.152,0,0,1-.582-.333l-.79.456a.523.523,0,0,1-.717-.193l-.773-1.339a.524.524,0,0,1,.193-.717l.784-.453a2.86,2.86,0,0,1,0-.677l-.784-.453a.524.524,0,0,1-.193-.717L3.59,8.819a.523.523,0,0,1,.717-.192l.79.456a3.1,3.1,0,0,1,.582-.333V7.835A.524.524,0,0,1,6.2,7.31H7.75a.524.524,0,0,1,.525.525v.915a3.1,3.1,0,0,1,.582.333l.789-.456a.525.525,0,0,1,.718.192l.773,1.339a.524.524,0,0,1-.193.717l-.784.453a2.86,2.86,0,0,1,0,.677l.784.453a.524.524,0,0,1,.193.717l-.773,1.339a.526.526,0,0,1-.718.193l-.789-.456a3.152,3.152,0,0,1-.582.333V15.5a.524.524,0,0,1-.525.525m-1.02-1.05h.5v-.756a.525.525,0,0,1,.373-.5,2.121,2.121,0,0,0,.848-.484.526.526,0,0,1,.621-.072l.65.375.248-.429-.649-.375a.523.523,0,0,1-.249-.574,1.96,1.96,0,0,0,0-.979.525.525,0,0,1,.249-.575l.649-.375L9.717,9.8l-.65.375a.522.522,0,0,1-.621-.072A2.121,2.121,0,0,0,7.6,9.618a.525.525,0,0,1-.373-.5V8.36h-.5v.755a.525.525,0,0,1-.373.5,2.131,2.131,0,0,0-.848.484.522.522,0,0,1-.621.072L4.237,9.8l-.248.429.649.375a.525.525,0,0,1,.249.575,1.96,1.96,0,0,0,0,.979.523.523,0,0,1-.249.574l-.649.375.248.429.65-.375a.526.526,0,0,1,.621.072,2.121,2.121,0,0,0,.848.484.525.525,0,0,1,.373.5Z" transform="translate(-0.343 -1.39)" fill="#1b1b1b"/>
        <path d="M7.378,13.512A1.427,1.427,0,1,1,8.8,12.086a1.428,1.428,0,0,1-1.427,1.427m0-1.8a.376.376,0,1,0,.376.376.377.377,0,0,0-.376-.376" transform="translate(-0.743 -1.808)" fill="#1b1b1b"/>
    </g>
    <rect width="20.658" height="17.507" transform="translate(0 0)" fill="none"/>
</svg>