<svg xmlns="http://www.w3.org/2000/svg" width="16.345" height="18.999" viewBox="0 0 16.345 18.999">
  <g transform="translate(0 0)">
    <path d="M.722,17.944l1.413-5.655,8.6-8.6L14.98,7.926l-8.6,8.6L.722,17.944Zm2.387-5.1L2.2,16.462l3.621-.906,7.63-7.63L10.739,5.21l-7.63,7.63Z" transform="translate(-0.722 -1.598)" fill="#1b1b1b" fill-rule="evenodd"/>
    <path d="M6.692,22.369A4.08,4.08,0,0,0,3.713,19.39l.261-1.046a5.157,5.157,0,0,1,3.764,3.764l-1.046.261" transform="translate(-1.979 -7.758)" fill="#1b1b1b" fill-rule="evenodd"/>
    <path d="M8.1,15.642l-.763-.763,7.537-7.537.763.763L8.1,15.642" transform="translate(-3.504 -3.135)" fill="#1b1b1b" fill-rule="evenodd"/>
    <path d="M2,25.781l1.682-.42A1.737,1.737,0,0,0,2.42,24.1L2,25.781" transform="translate(-1.259 -10.176)" fill="#1b1b1b" fill-rule="evenodd"/>
    <path d="M22.926,6.017,18.685,1.775,20.374.086l.264.035A4.6,4.6,0,0,1,24.58,4.063l.035.264L22.926,6.017ZM20.21,1.775l2.716,2.716.542-.542a3.521,3.521,0,0,0-2.716-2.716l-.542.542Z" transform="translate(-8.271 -0.086)" fill="#1b1b1b" fill-rule="evenodd"/>
  </g>
  <rect width="15.955" height="1.14" transform="translate(0 17.859)" fill="#1b1b1b"/>
</svg>