<svg xmlns="http://www.w3.org/2000/svg" width="21.012" height="16.068" viewBox="0 0 21.012 16.068">
  <path d="M20.931,3.155l-.813-.813-7.7,7.7a2.518,2.518,0,0,1-3.557,0l-7.7-7.7-.813.813L6.094,8.906.342,14.658l.813.813L6.906,9.72l1.139,1.138a3.664,3.664,0,0,0,5.182,0L14.367,9.72l5.751,5.751.813-.813L15.179,8.906l5.752-5.751" transform="translate(-0.131 -0.895)" fill="#1b1b1b" fill-rule="evenodd"/>
  <path d="M19.158,16.068H1.854A1.856,1.856,0,0,1,0,14.214V1.854A1.856,1.856,0,0,1,1.854,0h17.3a1.856,1.856,0,0,1,1.854,1.854v12.36a1.856,1.856,0,0,1-1.854,1.854ZM1.854,1.236a.619.619,0,0,0-.618.618v12.36a.619.619,0,0,0,.618.618h17.3a.619.619,0,0,0,.618-.618V1.854a.619.619,0,0,0-.618-.618Z" fill="#1b1b1b" fill-rule="evenodd"/>
</svg>