<svg xmlns="http://www.w3.org/2000/svg" width="118.928" height="126.982" viewBox="0 0 118.928 126.982"><g transform="translate(1072.802 306.986)"><g transform="translate(-1072.193 -193.279)"><line x2="34.154" fill="none" stroke="#646464" stroke-width="1.75"/><line x2="23.176" transform="translate(95.143)" fill="none" stroke="#646464" stroke-width="1.75"/></g><g transform="translate(-1072.802 -306.111)"><path d="M-994.74-251.069v-6.741h61.533" transform="translate(1021.356 272.452)" fill="none" stroke="#646464" stroke-miterlimit="10" stroke-width="1.75"/><path d="M-957.408-127.807v4.86h-51.931l-22.121-22.118V-220.98h74.052v77.738" transform="translate(1045.556 248.18)" fill="none" stroke="#009fe3" stroke-miterlimit="10" stroke-width="1.75"/><path d="M-1009.339,1.67V23.788L-1031.46,1.67Z" transform="translate(1045.556 101.444)" fill="#009fe3" stroke="#009fe3" stroke-linejoin="round" stroke-width="1.75"/><path d="M-786.987-220.98v85.619h-4.883" transform="translate(887.656 248.18)" fill="none" stroke="#646464" stroke-miterlimit="10" stroke-width="1.75"/><g transform="translate(26.251 50.696)"><path d="M-946.064-127.2a24.715,24.715,0,0,1-3.686,13.028,24.873,24.873,0,0,1-7.47,7.719,24.724,24.724,0,0,1-13.717,4.126A24.872,24.872,0,0,1-995.81-127.2a24.872,24.872,0,0,1,24.873-24.873A24.873,24.873,0,0,1-946.064-127.2Z" transform="translate(995.81 152.07)" fill="none" stroke="#1b1b1b" stroke-miterlimit="10" stroke-width="1.75"/><path d="M20.788,0A20.788,20.788,0,1,1,0,20.788,20.788,20.788,0,0,1,20.788,0Z" transform="translate(4.084 4.085)" fill="none" stroke="#1b1b1b" stroke-width="1.75"/><path d="M-851.685-16.688l-7.638,7.555L-876.2-26.552l-6.43-6.638a24.874,24.874,0,0,0,7.47-7.719l6.673,6.884,16.663,17.194Z" transform="translate(921.219 78.81)" fill="none" stroke="#1b1b1b" stroke-miterlimit="10" stroke-width="1.75"/><path d="M-868.487-34.026l-7.713,7.474-6.43-6.638a24.874,24.874,0,0,0,7.47-7.719Z" transform="translate(921.219 78.81)" fill="none" stroke="#1b1b1b" stroke-miterlimit="10" stroke-width="1.75"/></g><g transform="translate(0 10.55)"><line x2="12.234" transform="translate(0 6.118)" fill="none" stroke="#009fe3" stroke-miterlimit="10" stroke-width="1.75"/><line y2="12.234" transform="translate(6.117)" fill="none" stroke="#009fe3" stroke-miterlimit="10" stroke-width="1.75"/></g><g transform="translate(108.785 30.666)"><line x2="9.967" transform="translate(0 4.983)" fill="none" stroke="#646464" stroke-miterlimit="10" stroke-width="1.75"/><line y2="9.967" transform="translate(4.983 0)" fill="none" stroke="#646464" stroke-miterlimit="10" stroke-width="1.75"/></g><g transform="translate(98.228 120.349)"><line x2="4.883" transform="translate(0 2.441)" fill="none" stroke="#646464" stroke-miterlimit="10" stroke-width="1"/><line y2="4.883" transform="translate(2.441 0)" fill="none" stroke="#646464" stroke-miterlimit="10" stroke-width="1"/></g><circle cx="3.281" cy="3.281" r="3.281" transform="translate(20.054)" fill="none" stroke="#646464" stroke-miterlimit="10" stroke-width="1.75"/><circle cx="3.788" cy="3.788" r="3.788" transform="translate(93.092 14.643)" fill="none" stroke="#009fe3" stroke-miterlimit="10" stroke-width="1.75"/></g><g transform="translate(-1028.375 -241.649)"><path d="M-935.638-92.323a8.945,8.945,0,0,1,.505-3.318,6.806,6.806,0,0,1,1.851-2.433,9.463,9.463,0,0,0,1.791-1.949,3.061,3.061,0,0,0,.446-1.586q0-2.516-2.319-2.516a2.348,2.348,0,0,0-1.762.678,2.663,2.663,0,0,0-.691,1.869h-4.311a5.731,5.731,0,0,1,1.836-4.449,7.147,7.147,0,0,1,4.928-1.607,7.178,7.178,0,0,1,4.891,1.525,5.426,5.426,0,0,1,1.739,4.307,5.248,5.248,0,0,1-.565,2.388,9.851,9.851,0,0,1-1.977,2.492l-1.2,1.146a4.082,4.082,0,0,0-1.293,2.544l-.059.908Z" transform="translate(940.127 107.634)" fill="#009fe3"/><rect width="3.798" height="3.798" transform="translate(4.491 19.11)" fill="#009fe3"/></g><g transform="translate(-1030.026 -266.977)"><rect width="3.339" height="3.339" fill="#009fe3"/><rect width="3.339" height="3.339" transform="translate(6.678)" fill="#009fe3"/><rect width="3.339" height="3.339" transform="translate(13.357)" fill="#009fe3"/></g></g></svg>