<svg xmlns="http://www.w3.org/2000/svg" xmlns:xlink="http://www.w3.org/1999/xlink" width="46" height="46" viewBox="0 0 46 46">
    <defs>
        <clipPath id="a">
            <rect width="24" height="23.981" fill="#1b1b1b"/>
        </clipPath>
    </defs>   
    <g transform="translate(10941 3833)">
        <rect width="45" height="45" transform="translate(-10940.5 -3832.5)" fill="#1b1b1b" stroke="#707070" stroke-width="1" opacity="0"/>
        <g transform="translate(-10930 -3822)">        
            <g transform="translate(0 0)" clip-path="url(#a)">
                <path d="M9.759,11.355H1.6A1.6,1.6,0,0,1,0,9.759V1.6A1.6,1.6,0,0,1,1.6,0H9.759a1.6,1.6,0,0,1,1.6,1.6V9.759a1.6,1.6,0,0,1-1.6,1.6M1.6,1.284a.312.312,0,0,0-.311.311V9.759a.312.312,0,0,0,.311.311H9.759a.312.312,0,0,0,.311-.311V1.6a.312.312,0,0,0-.311-.311Z" transform="translate(0 0)" fill="#1b1b1b"/>
                <path d="M49.145,11.355H40.982a1.6,1.6,0,0,1-1.6-1.6V1.6a1.6,1.6,0,0,1,1.6-1.6h8.163a1.6,1.6,0,0,1,1.6,1.6V9.759a1.6,1.6,0,0,1-1.6,1.6M40.982,1.284a.312.312,0,0,0-.311.311V9.759a.312.312,0,0,0,.311.311h8.163a.312.312,0,0,0,.311-.311V1.6a.312.312,0,0,0-.311-.311Z" transform="translate(-26.741 0)" fill="#1b1b1b"/>
                <path d="M9.759,50.682H1.6a1.6,1.6,0,0,1-1.6-1.6V40.923a1.6,1.6,0,0,1,1.6-1.6H9.759a1.6,1.6,0,0,1,1.6,1.6v8.163a1.6,1.6,0,0,1-1.6,1.6M1.6,40.611a.312.312,0,0,0-.311.311v8.163A.312.312,0,0,0,1.6,49.4H9.759a.312.312,0,0,0,.311-.311V40.923a.312.312,0,0,0-.311-.311Z" transform="translate(0 -26.701)" fill="#1b1b1b"/>
                <path d="M45.063,50.682A5.677,5.677,0,1,1,50.741,45a5.684,5.684,0,0,1-5.677,5.677m0-10.07A4.393,4.393,0,1,0,49.456,45a4.4,4.4,0,0,0-4.393-4.393" transform="translate(-26.741 -26.701)" fill="#1b1b1b"/>
            </g>
        </g>
    </g>
</svg>