<svg xmlns="http://www.w3.org/2000/svg" xmlns:xlink="http://www.w3.org/1999/xlink" width="22.5" height="19" viewBox="0 0 22.5 19">
  <defs>
    <clipPath id="a"><rect width="22.5" height="19" fill="none"/></clipPath>
  </defs>
  <g transform="translate(0 0)" clip-path="url(#a)">
    <path d="M0,13.47a.548.548,0,0,1,.572-.313c.7.011,1.405,0,2.109,0,.058,0,.118,0,.176,0a.427.427,0,0,1,.394.423.434.434,0,0,1-.392.45c-.058.006-.118,0-.176,0-.7,0-1.406-.009-2.109,0A.561.561,0,0,1,0,13.734Z" transform="translate(0 1.872)" fill="#1a1818"/>
    <path d="M11.125.457a.433.433,0,0,1-.4.423.859.859,0,0,1-.171,0H7.321A1.382,1.382,0,0,0,7.1.891a.46.46,0,0,0-.423.457V9.138L5.8,8.465V1.439A1.429,1.429,0,0,1,6.019.605,1.3,1.3,0,0,1,7.139.011C8.3,0,9.48.011,10.645,0a.464.464,0,0,1,.48.457" transform="translate(0.826 0)" fill="#1a1818"/>
    <path d="M18.09,1.5v6.98l-.88.674v-7.7a.519.519,0,0,0-.56-.571c-1.1.011-2.193,0-3.29,0a1.236,1.236,0,0,1-.206,0,.44.44,0,0,1-.388-.457.432.432,0,0,1,.4-.411.55.55,0,0,1,.137,0c1.142,0,2.285-.011,3.427,0a1.307,1.307,0,0,1,1.325,1.028,2,2,0,0,1,.034.457" transform="translate(1.817 0.001)" fill="#1a1818"/>
    <path d="M8.5,6.014A3.566,3.566,0,1,1,12.038,9.6,3.576,3.576,0,0,1,8.5,6.014m6.246.027a2.683,2.683,0,1,0-2.7,2.67,2.689,2.689,0,0,0,2.7-2.67" transform="translate(1.209 0.35)" fill="#1a1818"/>
    <path d="M11.675.006a.432.432,0,0,1,.436.446.438.438,0,0,1-.876,0,.432.432,0,0,1,.44-.442" transform="translate(1.599 0.001)" fill="#1a1818"/>
    <path d="M11.559,5.8c.343-.344.647-.649.952-.953a1.81,1.81,0,0,1,.159-.152.439.439,0,0,1,.621.609,1.262,1.262,0,0,1-.119.129q-.6.6-1.194,1.194a1.263,1.263,0,0,1-.128.12.408.408,0,0,1-.544-.006q-.434-.4-.838-.836a.417.417,0,0,1,.026-.593.429.429,0,0,1,.6-.015c.161.149.3.319.469.5" transform="translate(1.474 0.655)" fill="#1a1818"/>
    <path d="M22.059,6.315c-.228-.183-.457-.366-.685-.56l-.023-.011c-.343-.286-.7-.571-1.039-.857l-.286-.24-.32-.274V5.584l.034.023L21.168,6.76c-.468.354-.948.708-1.416,1.062l-.925.708-.08.057c-.411.343-1.793,1.394-3.1,2.376s-2.536,1.9-2.616,1.931q-2.861-2.176-5.723-4.364l-2-1.508-.354-.274L6.42,5.561l.011-.023V4.384c-.069.057-.114.1-.16.137C5.564,5.116,4.821,5.71,4.09,6.292a.662.662,0,0,0-.251.548c.011,1.508.011,3.016.011,4.524,0,.08-.011.16-.011.24H1.805a.437.437,0,0,0-.343.628.452.452,0,0,0,.423.251H3.85v4.535a1.358,1.358,0,0,0,1.337,1.359q7.9-.017,15.752,0A1.378,1.378,0,0,0,22.3,17.018q-.017-5.106,0-10.212a.576.576,0,0,0-.24-.491M4.741,16.756V7.686C6.455,9,8.18,10.313,9.882,11.6q-2.57,2.587-5.14,5.152m.617.731,5.289-5.3c.274.217.571.434.868.663.4.3.788.605,1.2.9a.479.479,0,0,0,.72,0c.628-.48,1.279-.971,1.9-1.451.057-.034.114-.08.149-.1,1.759,1.771,3.541,3.53,5.277,5.289Zm16.049-.72L16.244,11.6q2.553-1.936,5.14-3.9c.046.183.057,8.465.023,9.059" transform="translate(0.202 0.622)" fill="#1a1818"/>
  </g>
</svg>