<svg xmlns="http://www.w3.org/2000/svg" width="46" height="46" viewBox="0 0 46 46">
    <g transform="translate(10941.5 3653.5)"><rect width="45" height="45" transform="translate(-10941 -3653)" fill="#1b1b1b" stroke="#707070" stroke-width="1" opacity="0"/>
        <g transform="translate(-10932.5 -3643.5)">
            <path d="M27.853,108.226A2.376,2.376,0,0,0,25,106.393l-2.909.666V105.87a11.489,11.489,0,0,0,1.623-1.923A11.272,11.272,0,0,0,25.3,100.2a11.5,11.5,0,0,0,.022-4.88.545.545,0,0,0-1.066.228,10.394,10.394,0,0,1-.02,4.414,10.186,10.186,0,0,1-1.44,3.391,9.7,9.7,0,0,1-.712.94V98.247a.545.545,0,0,0-.545-.545H17.232v-5.82a.545.545,0,0,0-.543-.545l-4.856-.016h0a.545.545,0,0,0-.545.545v3.028H6.974a.545.545,0,0,0-.545.545v5.4H5.215v-.74a.545.545,0,0,0-.545-.545H4.111A10.315,10.315,0,0,1,4.556,94.2c.1-.28.217-.56.343-.83a.545.545,0,1,0-.988-.46c-.139.3-.267.608-.379.918a11.389,11.389,0,0,0-.526,5.717H.545a.545.545,0,0,0-.545.545v9.58a.545.545,0,0,0,.545.545H4.67a.545.545,0,0,0,.545-.545v-.518h2.05l8.3,3.257a6.559,6.559,0,0,0,4.033.252l6.509-1.654a2.371,2.371,0,0,0,1.741-2.786ZM21,98.792v8.517l-1.457.334c-.157.036-.315.064-.474.086a5.533,5.533,0,0,1-1.827-.053l-.008,0v-.826a2.524,2.524,0,0,0,.336-2.123,2.447,2.447,0,0,0-.257-.571q-.037-.061-.078-.119V98.792H21Zm-8.623-6.38,3.766.013v10.742l-2.1-.871-1.661-.688ZM7.519,95.983h3.766v5.173l-.676-.28a.544.544,0,0,0-.208-.042H7.519ZM4.125,109.13H1.09v-8.49H4.125Zm21.719.826-6.509,1.654a5.477,5.477,0,0,1-3.367-.211l-8.4-3.295a.544.544,0,0,0-.2-.037H5.215v-6.142h5.078l3.526,1.46,1.93.8a1.363,1.363,0,0,1,.73,1.766,1.558,1.558,0,0,1-.218.383,1.4,1.4,0,0,1-1.428.493l-.013,0c-.032-.008-.063-.017-.094-.027l-3.667-1.41-.046-.017a.545.545,0,0,0-.391,1.017s2.068.795,3.644,1.4l.095.035,1.211.466a10.014,10.014,0,0,0,1.111.378,6.612,6.612,0,0,0,3.1.039l1.88-.43.006,0,3.569-.817a1.286,1.286,0,0,1,.6,2.5Zm0,0" transform="translate(0 -86.343)" fill="#1b1b1b"/>
            <path d="M118.422,3.876a.543.543,0,0,0,.365-.141,10.241,10.241,0,0,1,7.567-2.624,10.222,10.222,0,0,1,2.971.647.545.545,0,1,0,.388-1.018,11.309,11.309,0,0,0-3.288-.716,11.332,11.332,0,0,0-8.369,2.9.545.545,0,0,0,.365.95Zm0,0" transform="translate(-111.452 0)" fill="#1b1b1b"/>
            <path d="M351.633,36.358a.546.546,0,0,0,.769-.054l4.484-5.162a.545.545,0,1,0-.823-.715l-4.484,5.162A.545.545,0,0,0,351.633,36.358Zm0,0" transform="translate(-332.292 -28.592)" fill="#1b1b1b"/>
            <path d="M404.88,99.738a1.368,1.368,0,1,0,1.368,1.368A1.37,1.37,0,0,0,404.88,99.738Zm0,1.647a.278.278,0,1,1,.278-.278A.278.278,0,0,1,404.88,101.385Zm0,0" transform="translate(-381.52 -94.302)" fill="#1b1b1b"/>
            <path d="M349.349,30a1.368,1.368,0,1,0-1.368-1.368A1.37,1.37,0,0,0,349.349,30Zm0-1.647a.278.278,0,1,1-.278.278A.279.279,0,0,1,349.349,28.355Zm0,0" transform="translate(-329.016 -25.78)" fill="#1b1b1b"/>
            <path d="M91.622,81.578a.545.545,0,1,0,.2-.662A.549.549,0,0,0,91.622,81.578Zm0,0" transform="translate(-86.59 -76.421)" fill="#1b1b1b"/>
        </g>
    </g>
</svg>