<svg xmlns="http://www.w3.org/2000/svg" width="46" height="46" viewBox="0 0 46 46">
    <g transform="translate(10941.5 3563.5)">
        <rect width="45" height="45" transform="translate(-10941 -3563)" fill="#1b1b1b" stroke="#707070" stroke-width="1" opacity="0"/>
        <g transform="translate(-10932.5 -3555.5)">
            <path d="M-3132.552,2708.777a1.55,1.55,0,0,1-1.547-1.546v-2.958a1.455,1.455,0,0,1,.26-.841l3.428-5.187a2.623,2.623,0,0,1,2.176-1.156h1.327l-5.213-7.979a.623.623,0,0,1-.09-.49.6.6,0,0,1,.277-.376.6.6,0,0,1,.315-.09.617.617,0,0,1,.523.294l7.757,11.865,6.817.063,7.877-11.933a.636.636,0,0,1,.52-.291.616.616,0,0,1,.35.111.611.611,0,0,1,.149.85l-5.213,7.974h1.31a2.639,2.639,0,0,1,2.193,1.153l3.43,5.2a1.454,1.454,0,0,1,.257.836v2.957a1.548,1.548,0,0,1-1.546,1.546Zm-.329-1.546a.328.328,0,0,0,.329.328h25.358a.328.328,0,0,0,.329-.328l0-1.441-.16.022a1.663,1.663,0,0,1-.224.016H-3132.5a1.469,1.469,0,0,1-.223-.017l-.162-.025Zm21.851-8,.032.135a.6.6,0,0,1-.115.44.6.6,0,0,1-.4.239l-.371.193a.33.33,0,0,0-.16.4l.5,1.508a.327.327,0,0,0,.26.221c1.362.225,1.362.225,1.376.225a.591.591,0,0,1,.5.361l.729,1.657h1.307c.326,0,.485-.145.5-.333l-3.487-5.348a1.408,1.408,0,0,0-.808-.565l-.28-.073Zm-17.2-.917a1.4,1.4,0,0,0-1.158.612l-3.43,5.19a.407.407,0,0,0,.059.383.317.317,0,0,0,.243.108h1.922l2.753-6.291Zm-1.034,6.29h19.274l-.346-.787-1.132-.256a1.535,1.535,0,0,1-1.218-1.04l-.5-1.5a1.555,1.555,0,0,1,.686-1.833l.107-.064-.353-.808h-.8l-2.045,3.01a.61.61,0,0,1-.512.277h-7.513a.613.613,0,0,1-.512-.277l-1.927-2.947-.357-.063h-.091Z" transform="translate(3134.099 -2679.245)" fill="#1b1b1b"/>
            <path d="M-3123.26,2689.412a.611.611,0,0,1-.611-.612l0-1.04-1.556-.841a.609.609,0,0,1-.3-.361.608.608,0,0,1,.047-.467.61.61,0,0,1,.538-.321.613.613,0,0,1,.289.073l1.523.82,1.656-.817a.624.624,0,0,1,.288-.073.61.61,0,0,1,.539.32.607.607,0,0,1,.046.467.606.606,0,0,1-.295.363l-1.556.837v1.04A.612.612,0,0,1-3123.26,2689.412Z" transform="translate(3137.487 -2680.211)" fill="#1b1b1b"/>
            <path d="M-3122.041,2696.182a.6.6,0,0,1-.289-.072l-6.1-3.287a.612.612,0,0,1-.322-.537v-6.575a.612.612,0,0,1,.293-.524l6.129-3.3a.619.619,0,0,1,.29-.073.621.621,0,0,1,.289.072l6.105,3.288a.619.619,0,0,1,.323.535v6.575a.611.611,0,0,1-.321.537l-6.1,3.285A.607.607,0,0,1-3122.041,2696.182Zm-5.494-4.261,4.884,2.629v-1.324a.612.612,0,0,1,.61-.613.6.6,0,0,1,.431.18.606.606,0,0,1,.179.434v1.323l4.885-2.629v-5.187l-.98.526a.6.6,0,0,1-.288.073.611.611,0,0,1-.538-.321.606.606,0,0,1-.048-.464.609.609,0,0,1,.3-.364l.879-.473-4.75-2.557-4.88,2.557.879.473a.6.6,0,0,1,.295.364.6.6,0,0,1-.048.464.61.61,0,0,1-.538.321.6.6,0,0,1-.288-.072l-.98-.527Z" transform="translate(3136.268 -2681.816)" fill="#1b1b1b"/>
        </g>
    </g>
</svg>