<svg xmlns="http://www.w3.org/2000/svg" width="63.936" height="72.617" viewBox="0 0 63.936 72.617"><rect width="3.497" height="7.917" transform="translate(5.76 32.355)"/><rect width="3.497" height="7.9" transform="translate(5.76 17.559)"/><path d="M105.506-40.99H64.651a8.639,8.639,0,0,0-8.64,8.64v2.02h3.456v-2.02a5.162,5.162,0,0,1,5.184-5.184h40.855a5.162,5.162,0,0,1,5.184,5.184V22.987a5.162,5.162,0,0,1-5.184,5.184H64.651a5.162,5.162,0,0,1-5.184-5.184V20.959h-3.5v2.028a8.639,8.639,0,0,0,8.64,8.64h40.9a8.639,8.639,0,0,0,8.64-8.64V-32.35A8.639,8.639,0,0,0,105.506-40.99Z" transform="translate(-50.21 40.99)"/><rect width="3.497" height="7.901" transform="translate(5.76 47.15)"/><g transform="translate(0 12.38)"><path d="M56.3-30.908h3v-.012h5.213v.012h3.353a1.738,1.738,0,0,0,1.728-1.728,1.712,1.712,0,0,0-1.728-1.728H63.827v-.021h-3.5v.021H56.3a1.712,1.712,0,0,0-1.728,1.728A1.738,1.738,0,0,0,56.3-30.908Z" transform="translate(-54.57 49.179)" fill="#009fe3"/><path d="M56.3-34.521H67.859a1.738,1.738,0,0,0,1.728-1.728,1.738,1.738,0,0,0-1.728-1.728H63.827v0H60.371v0H56.3a1.738,1.738,0,0,0-1.728,1.728A1.738,1.738,0,0,0,56.3-34.521Z" transform="translate(-54.57 37.981)" fill="#009fe3"/><path d="M59.26-23.732h5.213v0h3.386a1.712,1.712,0,0,0,1.728-1.728,1.738,1.738,0,0,0-1.728-1.728H63.827v-.008h-3.5v.008H56.3a1.738,1.738,0,0,0-1.728,1.728A1.738,1.738,0,0,0,56.3-23.728H59.26Z" transform="translate(-54.57 71.581)" fill="#009fe3"/><path d="M56.3-27.334H60.33v.041h7.529a1.747,1.747,0,0,0,1.728-1.769,1.738,1.738,0,0,0-1.728-1.728H64.506v.025H59.293v-.025h-3a1.738,1.738,0,0,0-1.728,1.728A1.712,1.712,0,0,0,56.3-27.334Z" transform="translate(-54.57 60.376)" fill="#009fe3"/><path d="M69.393-19.588a8.39,8.39,0,0,0,8.389-8.389,8.39,8.39,0,0,0-8.389-8.389A8.39,8.39,0,0,0,61-27.977a8.39,8.39,0,0,0,8.389,8.389Zm0-13.334a4.938,4.938,0,0,1,4.937,4.937,4.936,4.936,0,0,1-4.937,4.937,4.936,4.936,0,0,1-4.937-4.937h0a4.937,4.937,0,0,1,4.937-4.929Z" transform="translate(-34.533 43.01)" fill="#009fe3"/><path d="M72.76-31.609a12.92,12.92,0,0,0-12.837,13l0,.28A1.733,1.733,0,0,0,61.655-16.6H83.873A1.736,1.736,0,0,0,85.6-18.328,12.923,12.923,0,0,0,73.048-31.6ZM63.523-20.056a9.318,9.318,0,0,1,10.454-8.015,9.315,9.315,0,0,1,8.015,8.015Z" transform="translate(-37.9 57.825)" fill="#009fe3"/></g></svg>