<svg xmlns="http://www.w3.org/2000/svg" width="59.62" height="59.118" viewBox="0 0 59.62 59.118">
    <g transform="translate(332.72 -571.27)" fill="#009fe3">
        <path d="M -278.3232421875 629.3880004882812 L -331.7200012207031 629.3880004882812 L -331.7200012207031 572.27001953125 L -274.1000061035156 572.27001953125 L -274.1000061035156 618.6600341796875 L -315.9330139160156 618.6600341796875 L -315.9330139160156 583.4000244140625 L -291.1806335449219 583.4000244140625 L -294.7734985351562 588.3129272460938 L -309.2127380371094 588.3090209960938 L -310.2130126953125 588.3087768554688 L -310.2130126953125 589.3090209960938 L -310.2130126953125 597.0809936523438 L -310.2130126953125 598.0809936523438 L -309.2130126953125 598.0809936523438 L -297.6260070800781 598.0809936523438 L -297.6260070800781 602.6809692382812 L -309.2260131835938 602.6809692382812 L -310.2260131835938 602.6809692382812 L -310.2260131835938 603.6809692382812 L -310.2260131835938 613.5 L -310.2260131835938 614.5 L -309.2260131835938 614.5 L -279.718017578125 614.5 L -278.718017578125 614.5 L -278.718017578125 613.5 L -278.718017578125 577.8389892578125 L -278.718017578125 576.8389892578125 L -279.718017578125 576.8389892578125 L -326.1000061035156 576.8389892578125 L -327.1000061035156 576.8389892578125 L -327.1000061035156 577.8389892578125 L -327.1000061035156 624.2999877929688 L -327.1000061035156 625.2999877929688 L -326.1000061035156 625.2999877929688 L -275.3402099609375 625.2999877929688 L -278.3232421875 629.3880004882812 Z" stroke="none"/>
        <path d="M -330.7200012207031 573.27001953125 L -330.7200012207031 628.3880004882812 L -278.8314514160156 628.3880004882812 L -277.307861328125 626.2999877929688 L -328.1000061035156 626.2999877929688 L -328.1000061035156 575.8389892578125 L -277.718017578125 575.8389892578125 L -277.718017578125 615.5 L -311.2260131835938 615.5 L -311.2260131835938 601.6809692382812 L -298.6260070800781 601.6809692382812 L -298.6260070800781 599.0809936523438 L -311.2130126953125 599.0809936523438 L -311.2130126953125 587.3084716796875 L -295.2809448242188 587.3128051757812 L -293.1508178710938 584.4000244140625 L -314.9330139160156 584.4000244140625 L -314.9330139160156 617.6600341796875 L -275.1000061035156 617.6600341796875 L -275.1000061035156 573.27001953125 L -330.7200012207031 573.27001953125 M -332.7200012207031 571.27001953125 L -273.1000061035156 571.27001953125 L -273.1000061035156 619.6600341796875 L -316.9330139160156 619.6600341796875 L -316.9330139160156 582.4000244140625 L -289.2130126953125 582.4000244140625 L -289.5570068359375 582.864013671875 L -289.6570129394531 583.01904296875 L -289.7260131835938 583.1050415039062 L -294.2660217285156 589.3130493164062 L -309.2130126953125 589.3090209960938 L -309.2130126953125 597.0809936523438 L -296.6260070800781 597.0809936523438 L -296.6260070800781 603.6809692382812 L -309.2260131835938 603.6809692382812 L -309.2260131835938 613.5 L -279.718017578125 613.5 L -279.718017578125 577.8389892578125 L -326.1000061035156 577.8389892578125 L -326.1000061035156 624.2999877929688 L -273.3600158691406 624.2999877929688 L -273.6700134277344 624.7130126953125 L -273.7560119628906 624.8510131835938 L -273.8250122070312 624.9199829101562 L -277.8150024414062 630.3880004882812 L -332.7200012207031 630.3880004882812 L -332.7200012207031 571.27001953125 Z" stroke="none" fill="#009fe3"/>
    </g>
</svg>