<svg xmlns="http://www.w3.org/2000/svg" width="116.703" height="32.498" viewBox="0 0 116.703 32.498">
    <g transform="translate(9897 2837)">
        <g transform="translate(-9564.28 -3408.27)" fill="#009fe3">
            <path d="M -302.7919311523438 603.26806640625 L -332.219970703125 603.26806640625 L -332.219970703125 571.7699584960938 L -300.44775390625 571.7699584960938 L -300.44775390625 597.3696899414062 L -323.54248046875 597.3696899414062 L -323.54248046875 577.8858642578125 L -309.7901306152344 577.8858642578125 L -311.8377075195312 580.6858520507812 L -319.7982482910156 580.6858520507812 L -320.2982482910156 580.6858520507812 L -320.2982482910156 581.1858520507812 L -320.2982482910156 585.4583740234375 L -320.2982482910156 585.9583740234375 L -319.7982482910156 585.9583740234375 L -313.3789367675781 585.9583740234375 L -313.3789367675781 588.5881958007812 L -319.8077087402344 588.5881958007812 L -320.3077087402344 588.5881958007812 L -320.3077087402344 589.0881958007812 L -320.3077087402344 594.485595703125 L -320.3077087402344 594.985595703125 L -319.8077087402344 594.985595703125 L -303.5870056152344 594.985595703125 L -303.0870056152344 594.985595703125 L -303.0870056152344 594.485595703125 L -303.0870056152344 574.8809204101562 L -303.0870056152344 574.3809204101562 L -303.5870056152344 574.3809204101562 L -329.0807495117188 574.3809204101562 L -329.5807495117188 574.3809204101562 L -329.5807495117188 574.8809204101562 L -329.5807495117188 600.421875 L -329.5807495117188 600.921875 L -329.0807495117188 600.921875 L -301.0802001953125 600.921875 L -302.7919311523438 603.26806640625 Z" stroke="none"/>
            <path d="M -331.719970703125 572.2699584960938 L -331.719970703125 602.76806640625 L -303.0460510253906 602.76806640625 L -302.0639343261719 601.421875 L -330.0807495117188 601.421875 L -330.0807495117188 573.8809204101562 L -302.5870056152344 573.8809204101562 L -302.5870056152344 595.485595703125 L -320.8077087402344 595.485595703125 L -320.8077087402344 588.0881958007812 L -313.8789367675781 588.0881958007812 L -313.8789367675781 586.4583740234375 L -320.7982482910156 586.4583740234375 L -320.7982482910156 580.1858520507812 L -312.0914916992188 580.1858520507812 L -310.7752075195312 578.3858642578125 L -323.04248046875 578.3858642578125 L -323.04248046875 596.8696899414062 L -300.94775390625 596.8696899414062 L -300.94775390625 572.2699584960938 L -331.719970703125 572.2699584960938 M -332.719970703125 571.2699584960938 L -299.94775390625 571.2699584960938 L -299.94775390625 597.8696899414062 L -324.04248046875 597.8696899414062 L -324.04248046875 577.3858642578125 L -308.8048706054688 577.3858642578125 L -308.9939270019531 577.64111328125 L -309.0506286621094 577.7261352539062 L -309.0884399414062 577.7733764648438 L -311.5839233398438 581.1858520507812 L -319.7982482910156 581.1858520507812 L -319.7982482910156 585.4583740234375 L -312.8789367675781 585.4583740234375 L -312.8789367675781 589.0881958007812 L -319.8077087402344 589.0881958007812 L -319.8077087402344 594.485595703125 L -303.5870056152344 594.485595703125 L -303.5870056152344 574.8809204101562 L -329.0807495117188 574.8809204101562 L -329.0807495117188 600.421875 L -300.0895690917969 600.421875 L -300.2597045898438 600.6487426757812 L -300.3069763183594 600.724365234375 L -300.3447570800781 600.7621459960938 L -302.5377807617188 603.76806640625 L -332.719970703125 603.76806640625 L -332.719970703125 571.2699584960938 Z" stroke="none" fill="#009fe3"/>
        </g>
        <path d="M-259.455,594.625v3.62H-274.74V577.97h14.85v3.583h-10.795v4.273h9.906v3.6h-9.916v5.2Z" transform="translate(-9562.617 -3408.951)" fill="#fff"/>
        <path d="M-239.768,577.979v11.948c0,3.573-.028,6.91-.095,8.318H-244.1l-1.579-2.713-.34-.6c-.34-.586-.671-1.182-1.03-1.768l-1.087-1.872-4.14-7.127v14.084h-4.036V577.96h4.443l.009.019.047.076.019.038c.378.633.756,1.248,1.1,1.881.085.17.18.34.274.51l6.437,11.249.312.539V577.979Z" transform="translate(-9560.979 -3408.951)" fill="#fff"/>
        <path d="M-220.926,577.98v3.62h-6.059v16.637h-4.556v-.993c-.009-5.2-.009-10.4-.009-15.644h-5.88v-3.62Z" transform="translate(-9559.371 -3408.952)" fill="#fff"/>
        <path d="M-277.527,577.95l-6.967,20.3h-3.98l-6.1-17.761-.87-2.543h4.49l4.5,15.464,4.481-15.464Z" transform="translate(-9564.32 -3408.95)" fill="#fff"/>
    </g>
</svg>