<svg xmlns="http://www.w3.org/2000/svg" width="40" height="40" viewBox="0 0 40 40"><g transform="translate(14404 3154)"><rect width="40" height="40" transform="translate(-14404 -3154)" fill="none"/><g transform="translate(-8313.205 1506.646)"><path d="M21.692,0H3.145A3.149,3.149,0,0,0,0,3.145V23.21a1.629,1.629,0,0,0,1.627,1.627H8.749a.542.542,0,0,0,0-1.085H1.627a.543.543,0,0,1-.542-.542V3.145A2.063,2.063,0,0,1,3.145,1.085H19.318a3.132,3.132,0,0,0-.772,2.061V20.622a.907.907,0,0,1-1.768.287l-.817-2.452a1.693,1.693,0,0,0-3.3.535v.422H9.852a.542.542,0,0,0,0,1.085h2.811v2.7a6,6,0,0,0,.464,2.32l.8,1.915a.542.542,0,1,0,1-.417l-.8-1.915a4.924,4.924,0,0,1-.381-1.9v-4.2a.608.608,0,0,1,1.185-.192l.817,2.452a1.992,1.992,0,0,0,3.882-.63v-9.3l.725.723a6.784,6.784,0,0,1,2.005,4.834v5.765a10.2,10.2,0,0,1-.978,4.345.542.542,0,0,0,.98.465,11.3,11.3,0,0,0,1.083-4.809V16.881a7.862,7.862,0,0,0-2.323-5.6L19.631,9.791V9.273H23.21a1.629,1.629,0,0,0,1.627-1.627v-4.5A3.149,3.149,0,0,0,21.692,0Zm2.061,7.646a.543.543,0,0,1-.542.542H19.631V3.145a2.061,2.061,0,1,1,4.121,0Zm0,0" transform="translate(-6082.795 -4654)" fill="#1b1b1b"/><path d="M195.542,438a.543.543,0,1,0,.383.159A.546.546,0,0,0,195.542,438Zm0,0" transform="translate(-6267.22 -5068.244)" fill="#1b1b1b"/><path d="M58.223,55.085A1.086,1.086,0,0,0,57.139,54H54.753a1.086,1.086,0,0,0-1.085,1.085v2.386a1.086,1.086,0,0,0,1.085,1.085h2.386a1.086,1.086,0,0,0,1.085-1.085Zm-1.085,2.386H54.753V55.085h2.386v2.386Zm0,0" transform="translate(-6133.553 -4705.072)" fill="#1b1b1b"/><path d="M58.223,175.085A1.086,1.086,0,0,0,57.139,174H54.753a1.086,1.086,0,0,0-1.085,1.085v2.386a1.086,1.086,0,0,0,1.085,1.085h2.386a1.086,1.086,0,0,0,1.085-1.085Zm-1.085,2.386H54.753v-2.386h2.386v2.386Zm0,0" transform="translate(-6133.553 -4818.564)" fill="#1b1b1b"/><path d="M57.139,294H54.753a1.086,1.086,0,0,0-1.085,1.085v2.386a1.086,1.086,0,0,0,1.085,1.085h2.386a1.086,1.086,0,0,0,1.085-1.085v-2.386A1.086,1.086,0,0,0,57.139,294Zm0,3.47H54.753v-2.386h2.386v2.386Zm0,0" transform="translate(-6133.553 -4932.057)" fill="#1b1b1b"/><path d="M221.675,119.085a.542.542,0,1,0,0-1.085h-3.738a.542.542,0,1,0,0,1.085Zm0,0" transform="translate(-6288.4 -4765.601)" fill="#1b1b1b"/><path d="M172.21,119.085a.542.542,0,1,0-.383-.159A.546.546,0,0,0,172.21,119.085Zm0,0" transform="translate(-6245.153 -4765.601)" fill="#1b1b1b"/><path d="M172.206,239.085h6.218a.542.542,0,0,0,0-1.085h-6.218a.542.542,0,1,0,0,1.085Zm0,0" transform="translate(-6245.15 -4879.093)" fill="#1b1b1b"/></g></g></svg>