<svg xmlns="http://www.w3.org/2000/svg" width="197.522" height="59.118" viewBox="0 0 197.522 59.118">
    <g transform="translate(332.72 -571.27)" fill="#009fe3">
        <path d="M -278.1961669921875 629.6380004882812 L -331.9700012207031 629.6380004882812 L -331.9700012207031 572.02001953125 L -273.8500061035156 572.02001953125 L -273.8500061035156 618.9100341796875 L -316.1830139160156 618.9100341796875 L -316.1830139160156 583.1500244140625 L -290.6880798339844 583.1500244140625 L -294.6466369628906 588.5629272460938 L -309.2127990722656 588.5590209960938 L -309.9630126953125 588.558837890625 L -309.9630126953125 589.3090209960938 L -309.9630126953125 597.0809936523438 L -309.9630126953125 597.8309936523438 L -309.2130126953125 597.8309936523438 L -297.3760070800781 597.8309936523438 L -297.3760070800781 602.9309692382812 L -309.2260131835938 602.9309692382812 L -309.9760131835938 602.9309692382812 L -309.9760131835938 603.6809692382812 L -309.9760131835938 613.5 L -309.9760131835938 614.25 L -309.2260131835938 614.25 L -279.718017578125 614.25 L -278.968017578125 614.25 L -278.968017578125 613.5 L -278.968017578125 577.8389892578125 L -278.968017578125 577.0889892578125 L -279.718017578125 577.0889892578125 L -326.1000061035156 577.0889892578125 L -326.8500061035156 577.0889892578125 L -326.8500061035156 577.8389892578125 L -326.8500061035156 624.2999877929688 L -326.8500061035156 625.0499877929688 L -326.1000061035156 625.0499877929688 L -274.8483276367188 625.0499877929688 L -278.1961669921875 629.6380004882812 Z" stroke="none"/>
        <path d="M -331.2200012207031 572.77001953125 L -331.2200012207031 628.8880004882812 L -278.5773620605469 628.8880004882812 L -276.3240356445312 625.7999877929688 L -327.6000061035156 625.7999877929688 L -327.6000061035156 576.3389892578125 L -278.218017578125 576.3389892578125 L -278.218017578125 615 L -310.7260131835938 615 L -310.7260131835938 602.1809692382812 L -298.1260070800781 602.1809692382812 L -298.1260070800781 598.5809936523438 L -310.7130126953125 598.5809936523438 L -310.7130126953125 587.80859375 L -295.0272216796875 587.8128662109375 L -292.1657104492188 583.9000244140625 L -315.4330139160156 583.9000244140625 L -315.4330139160156 618.1600341796875 L -274.6000061035156 618.1600341796875 L -274.6000061035156 572.77001953125 L -331.2200012207031 572.77001953125 M -332.7200012207031 571.27001953125 L -273.1000061035156 571.27001953125 L -273.1000061035156 619.6600341796875 L -316.9330139160156 619.6600341796875 L -316.9330139160156 582.4000244140625 L -289.2130126953125 582.4000244140625 L -289.5570068359375 582.864013671875 L -289.6570129394531 583.01904296875 L -289.7260131835938 583.1050415039062 L -294.2660217285156 589.3130493164062 L -309.2130126953125 589.3090209960938 L -309.2130126953125 597.0809936523438 L -296.6260070800781 597.0809936523438 L -296.6260070800781 603.6809692382812 L -309.2260131835938 603.6809692382812 L -309.2260131835938 613.5 L -279.718017578125 613.5 L -279.718017578125 577.8389892578125 L -326.1000061035156 577.8389892578125 L -326.1000061035156 624.2999877929688 L -273.3600158691406 624.2999877929688 L -273.6700134277344 624.7130126953125 L -273.7560119628906 624.8510131835938 L -273.8250122070312 624.9199829101562 L -277.8150024414062 630.3880004882812 L -332.7200012207031 630.3880004882812 L -332.7200012207031 571.27001953125 Z" stroke="none" fill="#009fe3"/>
    </g>
    <g transform="translate(67.745 11.486)">
        <path d="M-246.934,608.269v6.586H-274.74V577.97h27.015v6.517h-19.638v7.772h18.022v6.552H-267.38v9.458Z" transform="translate(310.336 -577.936)"/>
        <path d="M-226.217,577.994V599.73c0,6.5-.052,12.57-.172,15.132h-7.7l-2.872-4.935-.619-1.083c-.619-1.066-1.221-2.15-1.874-3.216l-1.978-3.4-7.532-12.966V614.88h-7.343V577.96h8.082l.017.034.086.138.034.069c.688,1.152,1.376,2.27,1.995,3.422.155.31.327.619.5.929l11.71,20.463.568.98v-26Z" transform="translate(323.598 -577.943)"/>
        <path d="M-207.406,577.98v6.586h-11.023v30.265h-8.288v-1.806c-.017-9.458-.017-18.916-.017-28.459h-10.7V577.98Z" transform="translate(337.184 -577.928)"/>
        <path d="M-262.853,577.95l-12.673,36.937h-7.24l-11.091-32.311-1.582-4.626h8.168l8.185,28.133,8.151-28.133Z" transform="translate(295.44 -577.95)"/>
    </g>
</svg>