<svg xmlns="http://www.w3.org/2000/svg" width="197.524" height="59.12" viewBox="0 0 197.524 59.12"><path d="M-309.213,589.309v7.772h12.587v6.6h-12.6V613.5h29.508V577.839H-326.1V624.3h52.74l-.31.413-.086.138-.069.069-3.99,5.468H-332.72V571.27H-273.1v48.39h-43.833V582.4h27.72l-.344.464-.1.155-.069.086-4.54,6.208Z" transform="translate(332.72 -571.27)" fill="#009fe3"/><g transform="translate(67.745 11.486)"><path d="M-246.934,608.269v6.586H-274.74V577.97h27.015v6.517h-19.638v7.772h18.022v6.552H-267.38v9.458Z" transform="translate(310.336 -577.936)"/><path d="M-249.037,582.451l-2.493-4.351c.688,1.152,1.376,2.27,1.995,3.422C-249.38,581.832-249.209,582.141-249.037,582.451Z" transform="translate(327.038 -577.842)"/><path d="M-226.217,577.994V599.73c0,6.5-.052,12.57-.172,15.132h-7.7l-2.872-4.935-.619-1.083c-.619-1.066-1.221-2.15-1.874-3.216l-1.978-3.4-7.532-12.966V614.88h-7.343V577.96h8.082l.017.034.086.138.034.069c.688,1.152,1.376,2.27,1.995,3.422.155.31.327.619.5.929l11.71,20.463.568.98v-26Z" transform="translate(323.598 -577.943)"/><path d="M-238.04,590.62v15.15h-1.84v-.017h1.668C-238.092,603.19-238.04,597.12-238.04,590.62Z" transform="translate(335.421 -568.833)"/><path d="M-248.211,577.994h-8.1v-.034h8.082Z" transform="translate(323.598 -577.943)"/><path d="M-207.406,577.98v6.586h-11.023v30.265h-8.288v-1.806c-.017-9.458-.017-18.916-.017-28.459h-10.7V577.98Z" transform="translate(337.184 -577.928)"/><path d="M-262.853,577.95l-12.673,36.937h-7.24l-11.091-32.311-1.582-4.626h8.168l8.185,28.133,8.151-28.133Z" transform="translate(295.44 -577.95)"/></g></svg>