<svg xmlns="http://www.w3.org/2000/svg" width="73.05" height="73.06" viewBox="0 0 73.05 73.06"><g transform="translate(-380.57 -356.33)"><path d="M391.32,356.33a8.6,8.6,0,0,0-2.15,16.92v4.57h4.31v-4.57a8.6,8.6,0,0,0-2.16-16.92Zm3.05,11.64a4.3,4.3,0,1,1,1.26-3.04A4.259,4.259,0,0,1,394.37,367.97Zm48.52-11.64a8.6,8.6,0,0,0-2.15,16.92v4.57h4.31v-4.57a8.6,8.6,0,0,0-2.16-16.92Zm3.05,11.64a4.3,4.3,0,1,1,1.26-3.04A4.277,4.277,0,0,1,445.94,367.97Z" fill="#008ed2"/><path d="M449.35,425.09V377.82H436.44v47.27h-4.3v4.3h21.48v-4.3Zm-4.3.01-4.3-.01V382.12h4.3Z" fill="#030504"/><path d="M399.89,384.12l-2.11-1.15v8.2c11.61,16.06,26.46,16.95,38.66.41v-8.51A36.178,36.178,0,0,1,399.89,384.12Zm2.38,5.86a40.6,40.6,0,0,0,30.02-.01C422.98,401.97,412.3,402.85,402.27,389.98Z" fill="#008ed2"/><path d="M397.76,425.09V391.14c.01.01.01.02.02.03V377.82H384.87v47.27h-4.3v4.3h21.49v-4.3Zm-4.28.01-4.3-.01V382.12h4.3Z" fill="#030504"/><path d="M427.857,356.331H406.369v21.49h21.488Zm-4.3,17.19H410.664V360.63h12.893Z" fill="#1b1b1b"/></g></svg>