<svg xmlns="http://www.w3.org/2000/svg" width="495.649" height="225.516" viewBox="0 0 495.649 225.516"><g transform="translate(-1156.188 -382.5)"><g transform="translate(0 -1.5)"><line y2="214.915" transform="translate(1556.604 384.5)" fill="none" stroke="#e6e6e6" stroke-linecap="round" stroke-width="1"/><g transform="translate(1.5 -0.5)"><g transform="translate(1573.5 385)"><rect width="19.111" height="17.916" rx="2" transform="translate(0 0)" fill="#e557b3"/><path d="M2.007-2.5V0H.571V-7.109H2.993a2.222,2.222,0,0,1,1.682.654,2.353,2.353,0,0,1,.627,1.7,2.2,2.2,0,0,1-.62,1.65A2.356,2.356,0,0,1,2.964-2.5Zm0-1.2h.986a.782.782,0,0,0,.635-.269,1.189,1.189,0,0,0,.225-.781,1.409,1.409,0,0,0-.229-.847.736.736,0,0,0-.615-.32h-1ZM7.642,0H6.255V-5.283H7.642ZM6.191-6.65A.714.714,0,0,1,6.4-7.178a.739.739,0,0,1,.547-.205.739.739,0,0,1,.547.205A.714.714,0,0,1,7.7-6.65a.729.729,0,0,1-.2.527.728.728,0,0,1-.549.21.728.728,0,0,1-.549-.21A.729.729,0,0,1,6.191-6.65Zm6.636,4.175A3.537,3.537,0,0,1,12.4-.566,1.414,1.414,0,0,1,11.128.1a1.23,1.23,0,0,1-1.035-.522V2.031H8.711V-5.283H9.99l.049.483a1.24,1.24,0,0,1,1.079-.581,1.447,1.447,0,0,1,1.272.615,3.381,3.381,0,0,1,.437,1.885ZM11.45-2.822a2.494,2.494,0,0,0-.168-1.084.592.592,0,0,0-.569-.317.657.657,0,0,0-.62.356v2.476a.658.658,0,0,0,.63.342.573.573,0,0,0,.569-.347,2.744,2.744,0,0,0,.159-1.079ZM15.8.1a2.166,2.166,0,0,1-1.66-.635,2.555,2.555,0,0,1-.6-1.816v-.42A3,3,0,0,1,14.087-4.7a1.9,1.9,0,0,1,1.567-.679,1.8,1.8,0,0,1,1.5.636,3.036,3.036,0,0,1,.513,1.884v.678H14.917a1.438,1.438,0,0,0,.259.861.875.875,0,0,0,.708.272,1.554,1.554,0,0,0,1.157-.474l.542.835a1.785,1.785,0,0,1-.737.569A2.531,2.531,0,0,1,15.8.1Zm-.869-3.242h1.382v-.127a1.477,1.477,0,0,0-.156-.718.543.543,0,0,0-.508-.244.574.574,0,0,0-.525.259A1.782,1.782,0,0,0,14.927-3.145ZM19.9,0H18.511V-7.5H19.9Zm2.52,0H21.03V-5.283h1.387Zm-1.45-6.65a.714.714,0,0,1,.205-.527.739.739,0,0,1,.547-.205.739.739,0,0,1,.547.205.714.714,0,0,1,.205.527.729.729,0,0,1-.2.527.728.728,0,0,1-.549.21.728.728,0,0,1-.549-.21A.729.729,0,0,1,20.967-6.65Zm3.784,1.367.039.522a1.466,1.466,0,0,1,1.226-.62q1.362,0,1.4,1.909V0H26.03V-3.369a1.214,1.214,0,0,0-.134-.652.523.523,0,0,0-.471-.2.645.645,0,0,0-.586.386V0H23.452V-5.283ZM30.542.1a2.166,2.166,0,0,1-1.66-.635,2.555,2.555,0,0,1-.6-1.816v-.42A3,3,0,0,1,28.833-4.7,1.9,1.9,0,0,1,30.4-5.381a1.8,1.8,0,0,1,1.5.636,3.036,3.036,0,0,1,.513,1.884v.678H29.663a1.438,1.438,0,0,0,.259.861.875.875,0,0,0,.708.272,1.554,1.554,0,0,0,1.157-.474l.542.835a1.785,1.785,0,0,1-.737.569A2.531,2.531,0,0,1,30.542.1Zm-.869-3.242h1.382v-.127a1.477,1.477,0,0,0-.156-.718.543.543,0,0,0-.508-.244.574.574,0,0,0-.525.259A1.782,1.782,0,0,0,29.673-3.145Zm5.859,1.729a.431.431,0,0,0-.168-.325,3.327,3.327,0,0,0-.75-.4,3.118,3.118,0,0,1-1.174-.718,1.364,1.364,0,0,1-.32-.923,1.475,1.475,0,0,1,.5-1.145,1.9,1.9,0,0,1,1.326-.452,2.061,2.061,0,0,1,1.392.449,1.51,1.51,0,0,1,.522,1.206H35.479q0-.645-.537-.645a.5.5,0,0,0-.361.137.5.5,0,0,0-.142.381.4.4,0,0,0,.156.31,3.436,3.436,0,0,0,.737.383,3.051,3.051,0,0,1,1.194.7,1.418,1.418,0,0,1,.349.994,1.39,1.39,0,0,1-.532,1.138,2.155,2.155,0,0,1-1.4.43,2.223,2.223,0,0,1-1.025-.227,1.722,1.722,0,0,1-.7-.632,1.628,1.628,0,0,1-.251-.874h1.313a.837.837,0,0,0,.168.542.66.66,0,0,0,.52.181Q35.532-.913,35.532-1.416Z" transform="translate(26.277 12.389)" fill="#1b1b1b"/></g><g transform="translate(1573.5 418.677)"><rect width="18.737" height="18.737" rx="2" fill="#22dec3"/><path d="M3.574-1.865a.891.891,0,0,0-.222-.657,2.558,2.558,0,0,0-.808-.461,3.766,3.766,0,0,1-1.538-.95A1.909,1.909,0,0,1,.537-5.22a1.8,1.8,0,0,1,.637-1.443,2.4,2.4,0,0,1,1.619-.544,2.424,2.424,0,0,1,1.167.276,1.914,1.914,0,0,1,.789.779A2.336,2.336,0,0,1,5.024-5.01H3.594a1.179,1.179,0,0,0-.212-.759.744.744,0,0,0-.613-.261.767.767,0,0,0-.586.222.835.835,0,0,0-.21.6.737.737,0,0,0,.234.53,2.7,2.7,0,0,0,.83.491,3.557,3.557,0,0,1,1.511.923A2.056,2.056,0,0,1,5.02-1.875a1.835,1.835,0,0,1-.591,1.45A2.339,2.339,0,0,1,2.822.1,2.766,2.766,0,0,1,1.567-.186,2.124,2.124,0,0,1,.681-1a2.355,2.355,0,0,1-.32-1.245H1.8a1.358,1.358,0,0,0,.239.894.979.979,0,0,0,.781.278Q3.574-1.069,3.574-1.865ZM8.5-.483A1.361,1.361,0,0,1,7.349.1a1.294,1.294,0,0,1-1.1-.5A2.4,2.4,0,0,1,5.869-1.86V-5.283H7.251v3.457q.01.771.513.771a.713.713,0,0,0,.684-.41V-5.283H9.839V0H8.54Zm6.445-1.987a3.626,3.626,0,0,1-.41,1.926A1.419,1.419,0,0,1,13.247.1a1.271,1.271,0,0,1-1.1-.62L12.1,0H10.825V-7.5h1.382v2.646a1.222,1.222,0,0,1,1.03-.527,1.422,1.422,0,0,1,1.289.637,3.528,3.528,0,0,1,.42,1.868Zm-1.382-.347A2.587,2.587,0,0,0,13.4-3.938a.59.59,0,0,0-.562-.286.666.666,0,0,0-.635.4v2.407a.66.66,0,0,0,.645.371.585.585,0,0,0,.549-.259,2.266,2.266,0,0,0,.164-1.006Zm3.511-2.466.039.488a1.486,1.486,0,0,1,1.226-.586,1.14,1.14,0,0,1,1.118.713,1.448,1.448,0,0,1,1.294-.713q1.387,0,1.421,1.919V0H20.791V-3.374a1.254,1.254,0,0,0-.127-.654.473.473,0,0,0-.43-.2q-.386,0-.576.474l.01.166V0H18.286V-3.364a1.328,1.328,0,0,0-.122-.657.465.465,0,0,0-.435-.2.633.633,0,0,0-.566.386V0H15.781V-5.283ZM24.644,0H23.257V-5.283h1.387Zm-1.45-6.65a.714.714,0,0,1,.205-.527.739.739,0,0,1,.547-.205.739.739,0,0,1,.547.205.714.714,0,0,1,.205.527.729.729,0,0,1-.2.527.728.728,0,0,1-.549.21.728.728,0,0,1-.549-.21A.729.729,0,0,1,23.193-6.65Zm4.858,5.234a.431.431,0,0,0-.168-.325,3.327,3.327,0,0,0-.75-.4,3.118,3.118,0,0,1-1.174-.718,1.364,1.364,0,0,1-.32-.923,1.475,1.475,0,0,1,.5-1.145,1.9,1.9,0,0,1,1.326-.452,2.061,2.061,0,0,1,1.392.449,1.51,1.51,0,0,1,.522,1.206H28q0-.645-.537-.645a.5.5,0,0,0-.361.137.5.5,0,0,0-.142.381.4.4,0,0,0,.156.31,3.436,3.436,0,0,0,.737.383,3.051,3.051,0,0,1,1.194.7,1.418,1.418,0,0,1,.349.994,1.39,1.39,0,0,1-.532,1.138,2.155,2.155,0,0,1-1.4.43A2.223,2.223,0,0,1,26.44-.129a1.722,1.722,0,0,1-.7-.632,1.628,1.628,0,0,1-.251-.874h1.313a.837.837,0,0,0,.168.542.66.66,0,0,0,.52.181Q28.052-.913,28.052-1.416Zm4.541,0a.431.431,0,0,0-.168-.325,3.327,3.327,0,0,0-.75-.4A3.118,3.118,0,0,1,30.5-2.861a1.364,1.364,0,0,1-.32-.923,1.475,1.475,0,0,1,.5-1.145,1.9,1.9,0,0,1,1.326-.452,2.061,2.061,0,0,1,1.392.449,1.51,1.51,0,0,1,.522,1.206H32.539q0-.645-.537-.645a.5.5,0,0,0-.361.137.5.5,0,0,0-.142.381.4.4,0,0,0,.156.31,3.436,3.436,0,0,0,.737.383,3.051,3.051,0,0,1,1.194.7,1.418,1.418,0,0,1,.349.994A1.39,1.39,0,0,1,33.4-.332a2.155,2.155,0,0,1-1.4.43,2.223,2.223,0,0,1-1.025-.227,1.722,1.722,0,0,1-.7-.632,1.628,1.628,0,0,1-.251-.874h1.313a.837.837,0,0,0,.168.542.66.66,0,0,0,.52.181Q32.593-.913,32.593-1.416ZM36.245,0H34.858V-5.283h1.387Zm-1.45-6.65A.714.714,0,0,1,35-7.178a.739.739,0,0,1,.547-.205.739.739,0,0,1,.547.205.714.714,0,0,1,.205.527.729.729,0,0,1-.2.527.728.728,0,0,1-.549.21A.728.728,0,0,1,35-6.123.729.729,0,0,1,34.795-6.65Zm2.358,3.838A2.869,2.869,0,0,1,37.72-4.7a1.925,1.925,0,0,1,1.567-.684,1.936,1.936,0,0,1,1.577.684A2.885,2.885,0,0,1,41.431-2.8v.337a2.874,2.874,0,0,1-.562,1.885A1.928,1.928,0,0,1,39.3.1a1.937,1.937,0,0,1-1.58-.681,2.883,2.883,0,0,1-.564-1.892Zm1.387.347q0,1.416.757,1.416.7,0,.752-1.182l0-.581a2.223,2.223,0,0,0-.2-1.072.624.624,0,0,0-.566-.349.608.608,0,0,0-.549.349,2.247,2.247,0,0,0-.2,1.072Zm5.015-2.817.039.522a1.466,1.466,0,0,1,1.226-.62q1.362,0,1.4,1.909V0H44.834V-3.369a1.214,1.214,0,0,0-.134-.652.523.523,0,0,0-.471-.2.645.645,0,0,0-.586.386V0H42.256V-5.283Zm6,3.867a.431.431,0,0,0-.168-.325,3.327,3.327,0,0,0-.75-.4,3.118,3.118,0,0,1-1.174-.718,1.364,1.364,0,0,1-.32-.923,1.475,1.475,0,0,1,.5-1.145,1.9,1.9,0,0,1,1.326-.452,2.061,2.061,0,0,1,1.392.449,1.51,1.51,0,0,1,.522,1.206H49.5q0-.645-.537-.645a.5.5,0,0,0-.361.137.5.5,0,0,0-.142.381.4.4,0,0,0,.156.31,3.436,3.436,0,0,0,.737.383,3.051,3.051,0,0,1,1.194.7,1.418,1.418,0,0,1,.349.994,1.39,1.39,0,0,1-.532,1.138,2.155,2.155,0,0,1-1.4.43,2.223,2.223,0,0,1-1.025-.227,1.722,1.722,0,0,1-.7-.632,1.628,1.628,0,0,1-.251-.874h1.313a.837.837,0,0,0,.168.542.66.66,0,0,0,.52.181Q49.551-.913,49.551-1.416Z" transform="translate(25.943 12.883)" fill="#1b1b1b"/></g><g transform="translate(1573.5 452.356)"><rect width="18.737" height="18.737" rx="2" fill="#6670e7"/><path d="M.571,0V-7.109h1.88a2.587,2.587,0,0,1,1.985.791A3.1,3.1,0,0,1,5.19-4.15V-3a3.111,3.111,0,0,1-.74,2.2A2.642,2.642,0,0,1,2.412,0ZM2.007-5.913v4.722h.43A1.2,1.2,0,0,0,3.447-1.57a2.252,2.252,0,0,0,.308-1.306V-4.111A2.525,2.525,0,0,0,3.477-5.5a1.123,1.123,0,0,0-.947-.413ZM8.286.1a2.166,2.166,0,0,1-1.66-.635,2.555,2.555,0,0,1-.6-1.816v-.42A3,3,0,0,1,6.577-4.7a1.9,1.9,0,0,1,1.567-.679,1.8,1.8,0,0,1,1.5.636,3.036,3.036,0,0,1,.513,1.884v.678H7.407a1.438,1.438,0,0,0,.259.861.875.875,0,0,0,.708.272,1.554,1.554,0,0,0,1.157-.474l.542.835a1.785,1.785,0,0,1-.737.569A2.531,2.531,0,0,1,8.286.1ZM7.417-3.145H8.8v-.127a1.477,1.477,0,0,0-.156-.718.543.543,0,0,0-.508-.244.574.574,0,0,0-.525.259A1.782,1.782,0,0,0,7.417-3.145ZM13.447,0a1.931,1.931,0,0,1-.117-.41A1.181,1.181,0,0,1,12.324.1a1.488,1.488,0,0,1-1.1-.439,1.544,1.544,0,0,1-.437-1.138,1.6,1.6,0,0,1,.53-1.284,2.317,2.317,0,0,1,1.526-.464h.42v-.425a.8.8,0,0,0-.122-.5.438.438,0,0,0-.356-.146q-.518,0-.518.605H10.884A1.529,1.529,0,0,1,11.433-4.9a2.045,2.045,0,0,1,1.389-.476,1.878,1.878,0,0,1,1.345.452,1.7,1.7,0,0,1,.476,1.292v2.485a2.6,2.6,0,0,0,.2,1.069V0Zm-.815-.986a.771.771,0,0,0,.391-.093.657.657,0,0,0,.239-.22V-2.4H12.93a.709.709,0,0,0-.554.225.863.863,0,0,0-.2.6Q12.173-.986,12.632-.986ZM17.095,0H15.708V-7.5h1.387ZM20.5-1.416a.431.431,0,0,0-.168-.325,3.327,3.327,0,0,0-.75-.4,3.118,3.118,0,0,1-1.174-.718,1.364,1.364,0,0,1-.32-.923,1.475,1.475,0,0,1,.5-1.145,1.9,1.9,0,0,1,1.326-.452,2.061,2.061,0,0,1,1.392.449,1.51,1.51,0,0,1,.522,1.206H20.449q0-.645-.537-.645a.5.5,0,0,0-.361.137.5.5,0,0,0-.142.381.4.4,0,0,0,.156.31,3.436,3.436,0,0,0,.737.383,3.051,3.051,0,0,1,1.194.7,1.418,1.418,0,0,1,.349.994,1.39,1.39,0,0,1-.532,1.138,2.155,2.155,0,0,1-1.4.43,2.223,2.223,0,0,1-1.025-.227,1.722,1.722,0,0,1-.7-.632,1.628,1.628,0,0,1-.251-.874h1.313a.837.837,0,0,0,.168.542.66.66,0,0,0,.52.181Q20.5-.913,20.5-1.416Z" transform="translate(25.943 12.883)" fill="#1b1b1b"/></g><g transform="translate(1573.5 486.033)"><rect width="18.737" height="18.737" rx="2" fill="#edbc25"/><path d="M3.965-1.455H2.007L1.626,0H.107L2.329-7.109H3.643L5.879,0H4.346Zm-1.646-1.2H3.647L2.983-5.186Zm6.064,1.6q.6,0,.61-.781h1.3a1.941,1.941,0,0,1-.532,1.4A1.806,1.806,0,0,1,8.413.1,1.926,1.926,0,0,1,6.855-.537a2.866,2.866,0,0,1-.547-1.87v-.42a2.958,2.958,0,0,1,.53-1.9A1.9,1.9,0,0,1,8.4-5.381a1.79,1.79,0,0,1,1.377.54,2.195,2.195,0,0,1,.513,1.531h-1.3a1.385,1.385,0,0,0-.146-.684.5.5,0,0,0-.469-.239.559.559,0,0,0-.518.256,2.186,2.186,0,0,0-.166.994v.537a4.311,4.311,0,0,0,.063.9.679.679,0,0,0,.21.376A.64.64,0,0,0,8.384-1.05Zm4.3-5.532v1.3h.708v1.035h-.708v2.626a.775.775,0,0,0,.085.43.386.386,0,0,0,.33.117,1.291,1.291,0,0,0,.327-.034l-.01,1.074A2.152,2.152,0,0,1,12.651.1Q11.313.1,11.3-1.437V-4.248h-.61V-5.283h.61v-1.3ZM15.6,0H14.209V-5.283H15.6Zm-1.45-6.65a.714.714,0,0,1,.205-.527.739.739,0,0,1,.547-.205.739.739,0,0,1,.547.205.714.714,0,0,1,.205.527.729.729,0,0,1-.2.527.728.728,0,0,1-.549.21.728.728,0,0,1-.549-.21A.729.729,0,0,1,14.146-6.65Zm4.253,4.7.669-3.33h1.44L19.058,0H17.739L16.284-5.283h1.445ZM22.607,0H21.221V-5.283h1.387Zm-1.45-6.65a.714.714,0,0,1,.205-.527.739.739,0,0,1,.547-.205.739.739,0,0,1,.547.205.714.714,0,0,1,.205.527.729.729,0,0,1-.2.527.728.728,0,0,1-.549.21.728.728,0,0,1-.549-.21A.729.729,0,0,1,21.157-6.65Zm4.126.068v1.3h.708v1.035h-.708v2.626a.775.775,0,0,0,.085.43.386.386,0,0,0,.33.117,1.291,1.291,0,0,0,.327-.034l-.01,1.074A2.152,2.152,0,0,1,25.254.1Q23.916.1,23.9-1.437V-4.248h-.61V-5.283h.61v-1.3ZM28.2,0H26.812V-5.283H28.2Zm-1.45-6.65a.714.714,0,0,1,.205-.527.739.739,0,0,1,.547-.205.739.739,0,0,1,.547.205.714.714,0,0,1,.205.527.729.729,0,0,1-.2.527.728.728,0,0,1-.549.21.728.728,0,0,1-.549-.21A.729.729,0,0,1,26.748-6.65ZM31.4.1a2.166,2.166,0,0,1-1.66-.635,2.555,2.555,0,0,1-.6-1.816v-.42A3,3,0,0,1,29.692-4.7a1.9,1.9,0,0,1,1.567-.679,1.8,1.8,0,0,1,1.5.636,3.036,3.036,0,0,1,.513,1.884v.678H30.522a1.438,1.438,0,0,0,.259.861.875.875,0,0,0,.708.272,1.554,1.554,0,0,0,1.157-.474l.542.835a1.785,1.785,0,0,1-.737.569A2.531,2.531,0,0,1,31.4.1Zm-.869-3.242h1.382v-.127a1.477,1.477,0,0,0-.156-.718.543.543,0,0,0-.508-.244.574.574,0,0,0-.525.259A1.782,1.782,0,0,0,30.532-3.145Zm5.859,1.729a.431.431,0,0,0-.168-.325,3.327,3.327,0,0,0-.75-.4A3.118,3.118,0,0,1,34.3-2.861a1.364,1.364,0,0,1-.32-.923,1.475,1.475,0,0,1,.5-1.145,1.9,1.9,0,0,1,1.326-.452,2.061,2.061,0,0,1,1.392.449,1.51,1.51,0,0,1,.522,1.206H36.338q0-.645-.537-.645a.5.5,0,0,0-.361.137.5.5,0,0,0-.142.381.4.4,0,0,0,.156.31,3.436,3.436,0,0,0,.737.383,3.051,3.051,0,0,1,1.194.7,1.418,1.418,0,0,1,.349.994A1.39,1.39,0,0,1,37.2-.332a2.155,2.155,0,0,1-1.4.43A2.223,2.223,0,0,1,34.78-.129a1.722,1.722,0,0,1-.7-.632,1.628,1.628,0,0,1-.251-.874h1.313a.837.837,0,0,0,.168.542.66.66,0,0,0,.52.181Q36.392-.913,36.392-1.416Z" transform="translate(25.943 12.883)" fill="#1b1b1b"/></g><g transform="translate(1573.5 520.733)"><rect width="17.916" height="17.916" rx="2" fill="#999"/><path d="M4.238-2.9H2.007V0H.571V-7.109H4.507v1.2h-2.5v1.821H4.238ZM5-2.812A2.869,2.869,0,0,1,5.562-4.7a1.925,1.925,0,0,1,1.567-.684A1.936,1.936,0,0,1,8.706-4.7,2.885,2.885,0,0,1,9.272-2.8v.337A2.874,2.874,0,0,1,8.711-.581,1.928,1.928,0,0,1,7.139.1a1.937,1.937,0,0,1-1.58-.681A2.883,2.883,0,0,1,5-2.476Zm1.387.347q0,1.416.757,1.416.7,0,.752-1.182l0-.581a2.223,2.223,0,0,0-.2-1.072.624.624,0,0,0-.566-.349.608.608,0,0,0-.549.349,2.247,2.247,0,0,0-.2,1.072ZM12.739-3.95l-.459-.039a.754.754,0,0,0-.767.5V0H10.127V-5.283h1.3l.039.571a1,1,0,0,1,.9-.669.968.968,0,0,1,.381.063Zm2.007-1.333.039.488a1.486,1.486,0,0,1,1.226-.586,1.14,1.14,0,0,1,1.118.713,1.448,1.448,0,0,1,1.294-.713q1.387,0,1.421,1.919V0H18.462V-3.374a1.254,1.254,0,0,0-.127-.654.473.473,0,0,0-.43-.2q-.386,0-.576.474l.01.166V0H15.957V-3.364a1.328,1.328,0,0,0-.122-.657.465.465,0,0,0-.435-.2.633.633,0,0,0-.566.386V0H13.452V-5.283ZM26.24-1.865a.891.891,0,0,0-.222-.657,2.558,2.558,0,0,0-.808-.461,3.766,3.766,0,0,1-1.538-.95A1.909,1.909,0,0,1,23.2-5.22a1.8,1.8,0,0,1,.637-1.443,2.4,2.4,0,0,1,1.619-.544,2.424,2.424,0,0,1,1.167.276,1.914,1.914,0,0,1,.789.779A2.336,2.336,0,0,1,27.69-5.01H26.26a1.179,1.179,0,0,0-.212-.759.744.744,0,0,0-.613-.261.767.767,0,0,0-.586.222.835.835,0,0,0-.21.6.737.737,0,0,0,.234.53,2.7,2.7,0,0,0,.83.491,3.557,3.557,0,0,1,1.511.923,2.056,2.056,0,0,1,.471,1.392,1.835,1.835,0,0,1-.591,1.45A2.339,2.339,0,0,1,25.488.1a2.766,2.766,0,0,1-1.255-.283A2.124,2.124,0,0,1,23.347-1a2.355,2.355,0,0,1-.32-1.245h1.44a1.358,1.358,0,0,0,.239.894.979.979,0,0,0,.781.278Q26.24-1.069,26.24-1.865ZM30.7.1a2.166,2.166,0,0,1-1.66-.635,2.555,2.555,0,0,1-.6-1.816v-.42A3,3,0,0,1,28.994-4.7a1.9,1.9,0,0,1,1.567-.679,1.8,1.8,0,0,1,1.5.636,3.036,3.036,0,0,1,.513,1.884v.678H29.824a1.438,1.438,0,0,0,.259.861.875.875,0,0,0,.708.272,1.554,1.554,0,0,0,1.157-.474l.542.835a1.785,1.785,0,0,1-.737.569A2.531,2.531,0,0,1,30.7.1Zm-.869-3.242h1.382v-.127a1.477,1.477,0,0,0-.156-.718.543.543,0,0,0-.508-.244.574.574,0,0,0-.525.259A1.782,1.782,0,0,0,29.834-3.145Zm5.127-3.437v1.3h.708v1.035h-.708v2.626a.775.775,0,0,0,.085.43.386.386,0,0,0,.33.117,1.291,1.291,0,0,0,.327-.034l-.01,1.074A2.152,2.152,0,0,1,34.932.1q-1.338,0-1.353-1.535V-4.248h-.61V-5.283h.61v-1.3Zm4.063,6.1A1.361,1.361,0,0,1,37.871.1a1.294,1.294,0,0,1-1.1-.5,2.4,2.4,0,0,1-.376-1.458V-5.283h1.382v3.457q.01.771.513.771a.713.713,0,0,0,.684-.41V-5.283h1.392V0h-1.3Zm6.44-1.992a3.537,3.537,0,0,1-.427,1.909A1.414,1.414,0,0,1,43.765.1a1.23,1.23,0,0,1-1.035-.522V2.031H41.348V-5.283h1.279l.049.483a1.24,1.24,0,0,1,1.079-.581,1.447,1.447,0,0,1,1.272.615,3.381,3.381,0,0,1,.437,1.885Zm-1.377-.347a2.494,2.494,0,0,0-.168-1.084.592.592,0,0,0-.569-.317.657.657,0,0,0-.62.356v2.476a.658.658,0,0,0,.63.342.573.573,0,0,0,.569-.347,2.744,2.744,0,0,0,.159-1.079Z" transform="translate(26.277 12.389)" fill="#1b1b1b"/></g></g></g><g transform="translate(1157 383)"><rect width="6.916" height="198.563" transform="translate(23.331)" fill="#6f6f6e"/><rect width="363.78" height="6.916" transform="translate(23.332 191.647)" fill="#6f6f6e"/><g transform="translate(19.086 10.204)"><line x2="15.408" transform="translate(0 16.419)" fill="none" stroke="#6f6f6e" stroke-miterlimit="10" stroke-width="1"/><line x2="15.408" transform="translate(0 32.838)" fill="none" stroke="#6f6f6e" stroke-miterlimit="10" stroke-width="1"/><line x2="15.408" fill="none" stroke="#6f6f6e" stroke-miterlimit="10" stroke-width="1"/><line x2="15.408" transform="translate(0 49.257)" fill="none" stroke="#6f6f6e" stroke-miterlimit="10" stroke-width="1"/><line x2="15.408" transform="translate(0 65.676)" fill="none" stroke="#6f6f6e" stroke-miterlimit="10" stroke-width="1"/><line x2="15.408" transform="translate(0 82.095)" fill="none" stroke="#6f6f6e" stroke-miterlimit="10" stroke-width="1"/><line x2="15.408" transform="translate(0 98.514)" fill="none" stroke="#6f6f6e" stroke-miterlimit="10" stroke-width="1"/><line x2="15.408" transform="translate(0 114.933)" fill="none" stroke="#6f6f6e" stroke-miterlimit="10" stroke-width="1"/><line x2="15.408" transform="translate(0 131.352)" fill="none" stroke="#6f6f6e" stroke-miterlimit="10" stroke-width="1"/><line x2="15.408" transform="translate(0 147.771)" fill="none" stroke="#6f6f6e" stroke-miterlimit="10" stroke-width="1"/><line x2="15.408" transform="translate(0 164.19)" fill="none" stroke="#6f6f6e" stroke-miterlimit="10" stroke-width="1"/></g><g transform="translate(50 10.212)"><g transform="translate(0 50.34)"><g style="isolation:isolate"><g transform="translate(15.526)"><rect width="7.037" height="131.103" fill="#c84c9d"/></g><rect width="15.526" height="131.103" fill="#e557b3"/></g></g><g transform="translate(15.817 81.875)"><g style="isolation:isolate"><g transform="translate(15.543)"><rect width="7.037" height="99.568" fill="#20cdb3"/></g><path d="M664.191,227.892h0Z" transform="translate(-664.191 -227.892)" fill="#1ec0a9"/><rect width="15.543" height="99.568" fill="#22dec3"/></g></g><g transform="translate(31.65 70.92)"><g transform="translate(0)" style="isolation:isolate"><g transform="translate(15.527)"><rect width="7.037" height="110.523" fill="#606ada"/></g><path d="M672.777,221.952h0Z" transform="translate(-672.777 -221.952)" fill="#5a63cd"/><rect width="15.527" height="110.523" fill="#6670e7"/></g></g><g transform="translate(47.468)"><g transform="translate(0)" style="isolation:isolate"><g transform="translate(15.527)"><rect width="7.037" height="181.443" fill="#dfb223"/></g><rect width="15.527" height="181.443" fill="#edbc25"/></g></g></g><path d="M3.928,7.387h2.7V8H3.174V2.313h.754ZM7.174,5.848A2.5,2.5,0,0,1,7.418,4.73a1.821,1.821,0,0,1,.68-.766,1.85,1.85,0,0,1,.994-.27,1.782,1.782,0,0,1,1.4.6,2.3,2.3,0,0,1,.533,1.59v.051a2.518,2.518,0,0,1-.236,1.107,1.794,1.794,0,0,1-.676.764,1.871,1.871,0,0,1-1.01.273,1.778,1.778,0,0,1-1.393-.6A2.288,2.288,0,0,1,7.174,5.9Zm.727.086a1.808,1.808,0,0,0,.326,1.129,1.105,1.105,0,0,0,1.748-.006A1.977,1.977,0,0,0,10.3,5.848a1.805,1.805,0,0,0-.33-1.127,1.049,1.049,0,0,0-.877-.432,1.038,1.038,0,0,0-.863.426A1.963,1.963,0,0,0,7.9,5.934Zm6.07-1.512a2.166,2.166,0,0,0-.355-.027A.952.952,0,0,0,12.65,5V8h-.723V3.773h.7l.012.488A1.125,1.125,0,0,1,13.65,3.7a.738.738,0,0,1,.32.055Zm2.344,3.656a1.847,1.847,0,0,1-1.4-.564A2.1,2.1,0,0,1,14.377,6V5.871a2.536,2.536,0,0,1,.24-1.123,1.874,1.874,0,0,1,.672-.773,1.689,1.689,0,0,1,.936-.279,1.583,1.583,0,0,1,1.281.543,2.351,2.351,0,0,1,.457,1.555v.3H15.1a1.5,1.5,0,0,0,.365,1.01,1.148,1.148,0,0,0,.889.385A1.259,1.259,0,0,0,17,7.332a1.629,1.629,0,0,0,.465-.414l.441.344A1.775,1.775,0,0,1,16.314,8.078Zm-.09-3.789a.964.964,0,0,0-.734.318,1.547,1.547,0,0,0-.367.893H17.24V5.445a1.376,1.376,0,0,0-.3-.854A.908.908,0,0,0,16.225,4.289Zm3.254-.516.02.469A1.561,1.561,0,0,1,20.752,3.7a1.208,1.208,0,0,1,1.207.68,1.6,1.6,0,0,1,.549-.492,1.621,1.621,0,0,1,.8-.187q1.391,0,1.414,1.473V8H24V5.211a.97.97,0,0,0-.207-.678.912.912,0,0,0-.7-.225.958.958,0,0,0-.668.24.975.975,0,0,0-.309.646V8h-.727V5.23a.806.806,0,0,0-.9-.922.967.967,0,0,0-.973.605V8h-.723V3.773ZM28.576,8h-.723V3.773h.723Zm-.781-5.348a.431.431,0,0,1,.107-.3.4.4,0,0,1,.318-.121.41.41,0,0,1,.32.121.427.427,0,0,1,.109.3.413.413,0,0,1-.109.293.417.417,0,0,1-.32.117.411.411,0,0,1-.318-.117A.417.417,0,0,1,27.795,2.652ZM33.3,5.934a2.531,2.531,0,0,1-.441,1.555,1.415,1.415,0,0,1-1.2.59,1.55,1.55,0,0,1-1.211-.488V9.625h-.723V3.773h.66l.035.469A1.489,1.489,0,0,1,31.654,3.7a1.441,1.441,0,0,1,1.205.574,2.558,2.558,0,0,1,.443,1.6Zm-.723-.082a1.867,1.867,0,0,0-.3-1.129.982.982,0,0,0-.836-.414,1.062,1.062,0,0,0-.984.582V6.91a1.064,1.064,0,0,0,.992.578.977.977,0,0,0,.826-.412A2.038,2.038,0,0,0,32.58,5.852Zm4.1,1.027a.532.532,0,0,0-.221-.455,2.124,2.124,0,0,0-.77-.279,3.638,3.638,0,0,1-.871-.281,1.239,1.239,0,0,1-.477-.391.934.934,0,0,1-.154-.539,1.1,1.1,0,0,1,.439-.879A1.716,1.716,0,0,1,35.752,3.7a1.766,1.766,0,0,1,1.166.371,1.179,1.179,0,0,1,.447.949h-.727a.652.652,0,0,0-.252-.512.944.944,0,0,0-.635-.215.988.988,0,0,0-.617.172.541.541,0,0,0-.223.449.438.438,0,0,0,.207.395,2.547,2.547,0,0,0,.748.254,3.9,3.9,0,0,1,.877.289,1.279,1.279,0,0,1,.5.4.994.994,0,0,1,.162.576,1.082,1.082,0,0,1-.453.908,1.9,1.9,0,0,1-1.176.342,2.128,2.128,0,0,1-.9-.18,1.461,1.461,0,0,1-.611-.5,1.21,1.21,0,0,1-.221-.7h.723a.748.748,0,0,0,.291.576,1.129,1.129,0,0,0,.717.213,1.165,1.165,0,0,0,.658-.166A.51.51,0,0,0,36.682,6.879Zm4.273.7a1.535,1.535,0,0,1-1.238.5,1.314,1.314,0,0,1-1.029-.393,1.7,1.7,0,0,1-.357-1.162V3.773h.723V6.5q0,.961.781.961a1.082,1.082,0,0,0,1.1-.617V3.773h.723V8h-.687Zm2.48-3.809.02.469A1.561,1.561,0,0,1,44.709,3.7a1.208,1.208,0,0,1,1.207.68,1.6,1.6,0,0,1,.549-.492,1.621,1.621,0,0,1,.8-.187q1.391,0,1.414,1.473V8h-.723V5.211a.97.97,0,0,0-.207-.678.912.912,0,0,0-.7-.225.958.958,0,0,0-.668.24.975.975,0,0,0-.309.646V8H45.35V5.23a.806.806,0,0,0-.9-.922.967.967,0,0,0-.973.605V8h-.723V3.773Zm8.137,2.078a2.476,2.476,0,0,1,.461-1.564A1.568,1.568,0,0,1,54.416,4.2V2h.723V8h-.664l-.035-.453a1.472,1.472,0,0,1-1.207.531,1.444,1.444,0,0,1-1.2-.6,2.5,2.5,0,0,1-.463-1.57Zm.723.082a1.875,1.875,0,0,0,.3,1.125.96.96,0,0,0,.82.406,1.054,1.054,0,0,0,1-.617V4.906a1.062,1.062,0,0,0-1-.6.964.964,0,0,0-.828.41A2.064,2.064,0,0,0,52.295,5.934Zm3.773-.086a2.5,2.5,0,0,1,.244-1.117,1.821,1.821,0,0,1,.68-.766,1.85,1.85,0,0,1,.994-.27,1.782,1.782,0,0,1,1.4.6,2.3,2.3,0,0,1,.533,1.59v.051a2.518,2.518,0,0,1-.236,1.107A1.794,1.794,0,0,1,59,7.8a1.871,1.871,0,0,1-1.01.273,1.778,1.778,0,0,1-1.393-.6A2.288,2.288,0,0,1,56.068,5.9Zm.727.086a1.808,1.808,0,0,0,.326,1.129,1.105,1.105,0,0,0,1.748-.006,1.977,1.977,0,0,0,.324-1.209,1.805,1.805,0,0,0-.33-1.127,1.049,1.049,0,0,0-.877-.432,1.038,1.038,0,0,0-.863.426A1.963,1.963,0,0,0,56.795,5.934ZM61.607,8h-.723V2h.723Zm.965-2.152a2.5,2.5,0,0,1,.244-1.117,1.821,1.821,0,0,1,.68-.766,1.85,1.85,0,0,1,.994-.27,1.782,1.782,0,0,1,1.4.6,2.3,2.3,0,0,1,.533,1.59v.051a2.518,2.518,0,0,1-.236,1.107,1.794,1.794,0,0,1-.676.764,1.871,1.871,0,0,1-1.01.273,1.778,1.778,0,0,1-1.393-.6A2.288,2.288,0,0,1,62.572,5.9Zm.727.086a1.808,1.808,0,0,0,.326,1.129,1.105,1.105,0,0,0,1.748-.006A1.977,1.977,0,0,0,65.7,5.848a1.8,1.8,0,0,0-.33-1.127,1.049,1.049,0,0,0-.877-.432,1.038,1.038,0,0,0-.863.426A1.963,1.963,0,0,0,63.3,5.934Zm6.07-1.512a2.166,2.166,0,0,0-.355-.027A.952.952,0,0,0,68.049,5V8h-.723V3.773h.7l.012.488A1.125,1.125,0,0,1,69.049,3.7a.738.738,0,0,1,.32.055ZM23.785,16.879a.532.532,0,0,0-.221-.455,2.124,2.124,0,0,0-.77-.279,3.638,3.638,0,0,1-.871-.281,1.239,1.239,0,0,1-.477-.391.934.934,0,0,1-.154-.539,1.1,1.1,0,0,1,.439-.879,1.716,1.716,0,0,1,1.123-.359,1.766,1.766,0,0,1,1.166.371,1.179,1.179,0,0,1,.447.949h-.727a.652.652,0,0,0-.252-.512.944.944,0,0,0-.635-.215.988.988,0,0,0-.617.172.541.541,0,0,0-.223.449.438.438,0,0,0,.207.395,2.547,2.547,0,0,0,.748.254,3.9,3.9,0,0,1,.877.289,1.279,1.279,0,0,1,.5.4.994.994,0,0,1,.162.576,1.082,1.082,0,0,1-.453.908,1.9,1.9,0,0,1-1.176.342,2.128,2.128,0,0,1-.9-.18,1.461,1.461,0,0,1-.611-.5,1.21,1.21,0,0,1-.221-.7h.723a.748.748,0,0,0,.291.576,1.129,1.129,0,0,0,.717.213,1.165,1.165,0,0,0,.658-.166A.51.51,0,0,0,23.785,16.879ZM26.234,18h-.723V13.773h.723Zm-.781-5.348a.431.431,0,0,1,.107-.3.4.4,0,0,1,.318-.121.41.41,0,0,1,.32.121.427.427,0,0,1,.109.3.413.413,0,0,1-.109.293.417.417,0,0,1-.32.117.411.411,0,0,1-.318-.117A.417.417,0,0,1,25.453,12.652Zm2.918.1v1.023h.789v.559h-.789v2.624a.587.587,0,0,0,.105.381.444.444,0,0,0,.359.127,1.75,1.75,0,0,0,.344-.047V18a2.107,2.107,0,0,1-.555.078.9.9,0,0,1-.73-.293,1.259,1.259,0,0,1-.246-.832V14.332h-.77v-.559h.77V12.75ZM34.594,18a1.518,1.518,0,0,1-.1-.445,1.612,1.612,0,0,1-1.2.523,1.492,1.492,0,0,1-1.025-.354,1.144,1.144,0,0,1-.4-.9,1.2,1.2,0,0,1,.5-1.025,2.367,2.367,0,0,1,1.412-.365h.7v-.332a.812.812,0,0,0-.227-.6.911.911,0,0,0-.668-.225,1.054,1.054,0,0,0-.648.2.576.576,0,0,0-.262.473h-.727a1,1,0,0,1,.225-.611,1.533,1.533,0,0,1,.609-.467,2.05,2.05,0,0,1,.846-.172,1.671,1.671,0,0,1,1.145.365,1.318,1.318,0,0,1,.43,1.006v1.945a2.378,2.378,0,0,0,.148.926V18Zm-1.2-.551a1.27,1.27,0,0,0,.645-.176,1.063,1.063,0,0,0,.441-.457v-.867h-.566q-1.328,0-1.328.777a.658.658,0,0,0,.227.531A.871.871,0,0,0,33.395,17.449Zm3.621-3.676.02.469a1.561,1.561,0,0,1,1.254-.547,1.208,1.208,0,0,1,1.207.68,1.6,1.6,0,0,1,.549-.492,1.621,1.621,0,0,1,.8-.187q1.391,0,1.414,1.473V18h-.723V15.211a.97.97,0,0,0-.207-.678.912.912,0,0,0-.7-.225.958.958,0,0,0-.668.24.975.975,0,0,0-.309.646V18H38.93V15.23a.806.806,0,0,0-.9-.922.967.967,0,0,0-.973.605V18h-.723V13.773Zm8.086,4.3a1.847,1.847,0,0,1-1.4-.564A2.1,2.1,0,0,1,43.164,16v-.133a2.536,2.536,0,0,1,.24-1.123,1.874,1.874,0,0,1,.672-.773,1.689,1.689,0,0,1,.936-.279,1.583,1.583,0,0,1,1.281.543,2.351,2.351,0,0,1,.457,1.555v.3H43.887a1.5,1.5,0,0,0,.365,1.01,1.148,1.148,0,0,0,.889.385,1.259,1.259,0,0,0,.648-.156,1.629,1.629,0,0,0,.465-.414l.441.344A1.775,1.775,0,0,1,45.1,18.078Zm-.09-3.789a.964.964,0,0,0-.734.318,1.547,1.547,0,0,0-.367.893h2.117v-.055a1.376,1.376,0,0,0-.3-.854A.908.908,0,0,0,45.012,14.289Zm3.555-1.539v1.023h.789v.559h-.789v2.624a.587.587,0,0,0,.105.381.444.444,0,0,0,.359.127,1.75,1.75,0,0,0,.344-.047V18a2.107,2.107,0,0,1-.555.078.9.9,0,0,1-.73-.293,1.259,1.259,0,0,1-.246-.832V14.332h-.77v-.559h.77V12.75Zm1.609,6.383-.41-.281a1.885,1.885,0,0,0,.383-1.055v-.652h.707v.566a1.779,1.779,0,0,1-.193.789A1.847,1.847,0,0,1,50.176,19.133Z" transform="translate(49 205.883)" fill="#1b1b1b"/><g transform="translate(2)"><g transform="translate(133 59.456)"><g transform="translate(0 47.867)"><g style="isolation:isolate"><g transform="translate(15.527)"><rect width="7.037" height="84.332" fill="#c84c9d"/></g><path d="M701.613,236.154h0Z" transform="translate(-701.613 -236.154)" fill="#bc4893"/><rect width="15.527" height="84.332" fill="#e557b3"/></g></g><g transform="translate(15.817)"><g transform="translate(0)" style="isolation:isolate"><g transform="translate(15.543)"><rect width="7.037" height="132.199" fill="#1fc6ae"/></g><rect width="15.543" height="132.199" fill="#22dec3"/></g></g><g transform="translate(31.651 90.024)"><g style="isolation:isolate"><g transform="translate(15.527)"><rect width="7.037" height="42.175" fill="#606ada"/></g><path d="M718.776,259.014h0Z" transform="translate(-718.776 -259.014)" fill="#5a63cd"/><rect width="15.527" height="42.175" fill="#6670e7"/></g></g><g transform="translate(47.469 16.432)"><g style="isolation:isolate"><g transform="translate(15.527)"><rect width="7.037" height="115.767" fill="#dfb223"/></g><path d="M727.353,219.108h0Z" transform="translate(-727.353 -219.108)" fill="#d2a721"/><rect width="15.527" height="115.767" fill="#edbc25"/></g></g></g><path d="M3.928,7.387h2.7V8H3.174V2.313h.754ZM7.174,5.848A2.5,2.5,0,0,1,7.418,4.73a1.821,1.821,0,0,1,.68-.766,1.85,1.85,0,0,1,.994-.27,1.782,1.782,0,0,1,1.4.6,2.3,2.3,0,0,1,.533,1.59v.051a2.518,2.518,0,0,1-.236,1.107,1.794,1.794,0,0,1-.676.764,1.871,1.871,0,0,1-1.01.273,1.778,1.778,0,0,1-1.393-.6A2.288,2.288,0,0,1,7.174,5.9Zm.727.086a1.808,1.808,0,0,0,.326,1.129,1.105,1.105,0,0,0,1.748-.006A1.977,1.977,0,0,0,10.3,5.848a1.805,1.805,0,0,0-.33-1.127,1.049,1.049,0,0,0-.877-.432,1.038,1.038,0,0,0-.863.426A1.963,1.963,0,0,0,7.9,5.934Zm6.07-1.512a2.166,2.166,0,0,0-.355-.027A.952.952,0,0,0,12.65,5V8h-.723V3.773h.7l.012.488A1.125,1.125,0,0,1,13.65,3.7a.738.738,0,0,1,.32.055Zm2.344,3.656a1.847,1.847,0,0,1-1.4-.564A2.1,2.1,0,0,1,14.377,6V5.871a2.536,2.536,0,0,1,.24-1.123,1.874,1.874,0,0,1,.672-.773,1.689,1.689,0,0,1,.936-.279,1.583,1.583,0,0,1,1.281.543,2.351,2.351,0,0,1,.457,1.555v.3H15.1a1.5,1.5,0,0,0,.365,1.01,1.148,1.148,0,0,0,.889.385A1.259,1.259,0,0,0,17,7.332a1.629,1.629,0,0,0,.465-.414l.441.344A1.775,1.775,0,0,1,16.314,8.078Zm-.09-3.789a.964.964,0,0,0-.734.318,1.547,1.547,0,0,0-.367.893H17.24V5.445a1.376,1.376,0,0,0-.3-.854A.908.908,0,0,0,16.225,4.289Zm3.254-.516.02.469A1.561,1.561,0,0,1,20.752,3.7a1.208,1.208,0,0,1,1.207.68,1.6,1.6,0,0,1,.549-.492,1.621,1.621,0,0,1,.8-.187q1.391,0,1.414,1.473V8H24V5.211a.97.97,0,0,0-.207-.678.912.912,0,0,0-.7-.225.958.958,0,0,0-.668.24.975.975,0,0,0-.309.646V8h-.727V5.23a.806.806,0,0,0-.9-.922.967.967,0,0,0-.973.605V8h-.723V3.773ZM28.576,8h-.723V3.773h.723Zm-.781-5.348a.431.431,0,0,1,.107-.3.4.4,0,0,1,.318-.121.41.41,0,0,1,.32.121.427.427,0,0,1,.109.3.413.413,0,0,1-.109.293.417.417,0,0,1-.32.117.411.411,0,0,1-.318-.117A.417.417,0,0,1,27.795,2.652ZM33.3,5.934a2.531,2.531,0,0,1-.441,1.555,1.415,1.415,0,0,1-1.2.59,1.55,1.55,0,0,1-1.211-.488V9.625h-.723V3.773h.66l.035.469A1.489,1.489,0,0,1,31.654,3.7a1.441,1.441,0,0,1,1.205.574,2.558,2.558,0,0,1,.443,1.6Zm-.723-.082a1.867,1.867,0,0,0-.3-1.129.982.982,0,0,0-.836-.414,1.062,1.062,0,0,0-.984.582V6.91a1.064,1.064,0,0,0,.992.578.977.977,0,0,0,.826-.412A2.038,2.038,0,0,0,32.58,5.852Zm4.1,1.027a.532.532,0,0,0-.221-.455,2.124,2.124,0,0,0-.77-.279,3.638,3.638,0,0,1-.871-.281,1.239,1.239,0,0,1-.477-.391.934.934,0,0,1-.154-.539,1.1,1.1,0,0,1,.439-.879A1.716,1.716,0,0,1,35.752,3.7a1.766,1.766,0,0,1,1.166.371,1.179,1.179,0,0,1,.447.949h-.727a.652.652,0,0,0-.252-.512.944.944,0,0,0-.635-.215.988.988,0,0,0-.617.172.541.541,0,0,0-.223.449.438.438,0,0,0,.207.395,2.547,2.547,0,0,0,.748.254,3.9,3.9,0,0,1,.877.289,1.279,1.279,0,0,1,.5.4.994.994,0,0,1,.162.576,1.082,1.082,0,0,1-.453.908,1.9,1.9,0,0,1-1.176.342,2.128,2.128,0,0,1-.9-.18,1.461,1.461,0,0,1-.611-.5,1.21,1.21,0,0,1-.221-.7h.723a.748.748,0,0,0,.291.576,1.129,1.129,0,0,0,.717.213,1.165,1.165,0,0,0,.658-.166A.51.51,0,0,0,36.682,6.879Zm4.273.7a1.535,1.535,0,0,1-1.238.5,1.314,1.314,0,0,1-1.029-.393,1.7,1.7,0,0,1-.357-1.162V3.773h.723V6.5q0,.961.781.961a1.082,1.082,0,0,0,1.1-.617V3.773h.723V8h-.687Zm2.48-3.809.02.469A1.561,1.561,0,0,1,44.709,3.7a1.208,1.208,0,0,1,1.207.68,1.6,1.6,0,0,1,.549-.492,1.621,1.621,0,0,1,.8-.187q1.391,0,1.414,1.473V8h-.723V5.211a.97.97,0,0,0-.207-.678.912.912,0,0,0-.7-.225.958.958,0,0,0-.668.24.975.975,0,0,0-.309.646V8H45.35V5.23a.806.806,0,0,0-.9-.922.967.967,0,0,0-.973.605V8h-.723V3.773Zm8.137,2.078a2.476,2.476,0,0,1,.461-1.564A1.568,1.568,0,0,1,54.416,4.2V2h.723V8h-.664l-.035-.453a1.472,1.472,0,0,1-1.207.531,1.444,1.444,0,0,1-1.2-.6,2.5,2.5,0,0,1-.463-1.57Zm.723.082a1.875,1.875,0,0,0,.3,1.125.96.96,0,0,0,.82.406,1.054,1.054,0,0,0,1-.617V4.906a1.062,1.062,0,0,0-1-.6.964.964,0,0,0-.828.41A2.064,2.064,0,0,0,52.295,5.934Zm3.773-.086a2.5,2.5,0,0,1,.244-1.117,1.821,1.821,0,0,1,.68-.766,1.85,1.85,0,0,1,.994-.27,1.782,1.782,0,0,1,1.4.6,2.3,2.3,0,0,1,.533,1.59v.051a2.518,2.518,0,0,1-.236,1.107A1.794,1.794,0,0,1,59,7.8a1.871,1.871,0,0,1-1.01.273,1.778,1.778,0,0,1-1.393-.6A2.288,2.288,0,0,1,56.068,5.9Zm.727.086a1.808,1.808,0,0,0,.326,1.129,1.105,1.105,0,0,0,1.748-.006,1.977,1.977,0,0,0,.324-1.209,1.805,1.805,0,0,0-.33-1.127,1.049,1.049,0,0,0-.877-.432,1.038,1.038,0,0,0-.863.426A1.963,1.963,0,0,0,56.795,5.934ZM61.607,8h-.723V2h.723Zm.965-2.152a2.5,2.5,0,0,1,.244-1.117,1.821,1.821,0,0,1,.68-.766,1.85,1.85,0,0,1,.994-.27,1.782,1.782,0,0,1,1.4.6,2.3,2.3,0,0,1,.533,1.59v.051a2.518,2.518,0,0,1-.236,1.107,1.794,1.794,0,0,1-.676.764,1.871,1.871,0,0,1-1.01.273,1.778,1.778,0,0,1-1.393-.6A2.288,2.288,0,0,1,62.572,5.9Zm.727.086a1.808,1.808,0,0,0,.326,1.129,1.105,1.105,0,0,0,1.748-.006A1.977,1.977,0,0,0,65.7,5.848a1.8,1.8,0,0,0-.33-1.127,1.049,1.049,0,0,0-.877-.432,1.038,1.038,0,0,0-.863.426A1.963,1.963,0,0,0,63.3,5.934Zm6.07-1.512a2.166,2.166,0,0,0-.355-.027A.952.952,0,0,0,68.049,5V8h-.723V3.773h.7l.012.488A1.125,1.125,0,0,1,69.049,3.7a.738.738,0,0,1,.32.055ZM23.785,16.879a.532.532,0,0,0-.221-.455,2.124,2.124,0,0,0-.77-.279,3.638,3.638,0,0,1-.871-.281,1.239,1.239,0,0,1-.477-.391.934.934,0,0,1-.154-.539,1.1,1.1,0,0,1,.439-.879,1.716,1.716,0,0,1,1.123-.359,1.766,1.766,0,0,1,1.166.371,1.179,1.179,0,0,1,.447.949h-.727a.652.652,0,0,0-.252-.512.944.944,0,0,0-.635-.215.988.988,0,0,0-.617.172.541.541,0,0,0-.223.449.438.438,0,0,0,.207.395,2.547,2.547,0,0,0,.748.254,3.9,3.9,0,0,1,.877.289,1.279,1.279,0,0,1,.5.4.994.994,0,0,1,.162.576,1.082,1.082,0,0,1-.453.908,1.9,1.9,0,0,1-1.176.342,2.128,2.128,0,0,1-.9-.18,1.461,1.461,0,0,1-.611-.5,1.21,1.21,0,0,1-.221-.7h.723a.748.748,0,0,0,.291.576,1.129,1.129,0,0,0,.717.213,1.165,1.165,0,0,0,.658-.166A.51.51,0,0,0,23.785,16.879ZM26.234,18h-.723V13.773h.723Zm-.781-5.348a.431.431,0,0,1,.107-.3.4.4,0,0,1,.318-.121.41.41,0,0,1,.32.121.427.427,0,0,1,.109.3.413.413,0,0,1-.109.293.417.417,0,0,1-.32.117.411.411,0,0,1-.318-.117A.417.417,0,0,1,25.453,12.652Zm2.918.1v1.023h.789v.559h-.789v2.624a.587.587,0,0,0,.105.381.444.444,0,0,0,.359.127,1.75,1.75,0,0,0,.344-.047V18a2.107,2.107,0,0,1-.555.078.9.9,0,0,1-.73-.293,1.259,1.259,0,0,1-.246-.832V14.332h-.77v-.559h.77V12.75ZM34.594,18a1.518,1.518,0,0,1-.1-.445,1.612,1.612,0,0,1-1.2.523,1.492,1.492,0,0,1-1.025-.354,1.144,1.144,0,0,1-.4-.9,1.2,1.2,0,0,1,.5-1.025,2.367,2.367,0,0,1,1.412-.365h.7v-.332a.812.812,0,0,0-.227-.6.911.911,0,0,0-.668-.225,1.054,1.054,0,0,0-.648.2.576.576,0,0,0-.262.473h-.727a1,1,0,0,1,.225-.611,1.533,1.533,0,0,1,.609-.467,2.05,2.05,0,0,1,.846-.172,1.671,1.671,0,0,1,1.145.365,1.318,1.318,0,0,1,.43,1.006v1.945a2.378,2.378,0,0,0,.148.926V18Zm-1.2-.551a1.27,1.27,0,0,0,.645-.176,1.063,1.063,0,0,0,.441-.457v-.867h-.566q-1.328,0-1.328.777a.658.658,0,0,0,.227.531A.871.871,0,0,0,33.395,17.449Zm3.621-3.676.02.469a1.561,1.561,0,0,1,1.254-.547,1.208,1.208,0,0,1,1.207.68,1.6,1.6,0,0,1,.549-.492,1.621,1.621,0,0,1,.8-.187q1.391,0,1.414,1.473V18h-.723V15.211a.97.97,0,0,0-.207-.678.912.912,0,0,0-.7-.225.958.958,0,0,0-.668.24.975.975,0,0,0-.309.646V18H38.93V15.23a.806.806,0,0,0-.9-.922.967.967,0,0,0-.973.605V18h-.723V13.773Zm8.086,4.3a1.847,1.847,0,0,1-1.4-.564A2.1,2.1,0,0,1,43.164,16v-.133a2.536,2.536,0,0,1,.24-1.123,1.874,1.874,0,0,1,.672-.773,1.689,1.689,0,0,1,.936-.279,1.583,1.583,0,0,1,1.281.543,2.351,2.351,0,0,1,.457,1.555v.3H43.887a1.5,1.5,0,0,0,.365,1.01,1.148,1.148,0,0,0,.889.385,1.259,1.259,0,0,0,.648-.156,1.629,1.629,0,0,0,.465-.414l.441.344A1.775,1.775,0,0,1,45.1,18.078Zm-.09-3.789a.964.964,0,0,0-.734.318,1.547,1.547,0,0,0-.367.893h2.117v-.055a1.376,1.376,0,0,0-.3-.854A.908.908,0,0,0,45.012,14.289Zm3.555-1.539v1.023h.789v.559h-.789v2.624a.587.587,0,0,0,.105.381.444.444,0,0,0,.359.127,1.75,1.75,0,0,0,.344-.047V18a2.107,2.107,0,0,1-.555.078.9.9,0,0,1-.73-.293,1.259,1.259,0,0,1-.246-.832V14.332h-.77v-.559h.77V12.75Zm1.609,6.383-.41-.281a1.885,1.885,0,0,0,.383-1.055v-.652h.707v.566a1.779,1.779,0,0,1-.193.789A1.847,1.847,0,0,1,50.176,19.133Z" transform="translate(132 205.883)" fill="#1b1b1b"/></g><g transform="translate(2)"><g transform="translate(219 7.705)"><g transform="translate(0 35.336)"><g style="isolation:isolate"><g transform="translate(15.544)"><rect width="7.037" height="148.613" fill="#c84c9d"/></g><rect width="15.544" height="148.613" fill="#e557b3"/></g></g><g transform="translate(15.835)"><g style="isolation:isolate"><g transform="translate(15.526)"><rect width="7.037" height="183.95" fill="#1fc6ae"/></g><rect width="15.526" height="183.95" fill="#22dec3"/></g></g><g transform="translate(31.651 18.921)"><g transform="translate(0)" style="isolation:isolate"><g transform="translate(15.527)"><rect width="7.037" height="165.028" fill="#606ada"/></g><rect width="15.527" height="165.028" fill="#6670e7"/></g></g><g transform="translate(47.469 150.273)"><g style="isolation:isolate"><g transform="translate(15.543)"><rect width="7.037" height="33.676" fill="#dfb223"/></g><path d="M773.352,263.622h0Z" transform="translate(-773.352 -263.622)" fill="#d2a721"/><rect width="15.543" height="33.676" fill="#edbc25"/></g></g></g><path d="M3.928,7.387h2.7V8H3.174V2.313h.754ZM7.174,5.848A2.5,2.5,0,0,1,7.418,4.73a1.821,1.821,0,0,1,.68-.766,1.85,1.85,0,0,1,.994-.27,1.782,1.782,0,0,1,1.4.6,2.3,2.3,0,0,1,.533,1.59v.051a2.518,2.518,0,0,1-.236,1.107,1.794,1.794,0,0,1-.676.764,1.871,1.871,0,0,1-1.01.273,1.778,1.778,0,0,1-1.393-.6A2.288,2.288,0,0,1,7.174,5.9Zm.727.086a1.808,1.808,0,0,0,.326,1.129,1.105,1.105,0,0,0,1.748-.006A1.977,1.977,0,0,0,10.3,5.848a1.805,1.805,0,0,0-.33-1.127,1.049,1.049,0,0,0-.877-.432,1.038,1.038,0,0,0-.863.426A1.963,1.963,0,0,0,7.9,5.934Zm6.07-1.512a2.166,2.166,0,0,0-.355-.027A.952.952,0,0,0,12.65,5V8h-.723V3.773h.7l.012.488A1.125,1.125,0,0,1,13.65,3.7a.738.738,0,0,1,.32.055Zm2.344,3.656a1.847,1.847,0,0,1-1.4-.564A2.1,2.1,0,0,1,14.377,6V5.871a2.536,2.536,0,0,1,.24-1.123,1.874,1.874,0,0,1,.672-.773,1.689,1.689,0,0,1,.936-.279,1.583,1.583,0,0,1,1.281.543,2.351,2.351,0,0,1,.457,1.555v.3H15.1a1.5,1.5,0,0,0,.365,1.01,1.148,1.148,0,0,0,.889.385A1.259,1.259,0,0,0,17,7.332a1.629,1.629,0,0,0,.465-.414l.441.344A1.775,1.775,0,0,1,16.314,8.078Zm-.09-3.789a.964.964,0,0,0-.734.318,1.547,1.547,0,0,0-.367.893H17.24V5.445a1.376,1.376,0,0,0-.3-.854A.908.908,0,0,0,16.225,4.289Zm3.254-.516.02.469A1.561,1.561,0,0,1,20.752,3.7a1.208,1.208,0,0,1,1.207.68,1.6,1.6,0,0,1,.549-.492,1.621,1.621,0,0,1,.8-.187q1.391,0,1.414,1.473V8H24V5.211a.97.97,0,0,0-.207-.678.912.912,0,0,0-.7-.225.958.958,0,0,0-.668.24.975.975,0,0,0-.309.646V8h-.727V5.23a.806.806,0,0,0-.9-.922.967.967,0,0,0-.973.605V8h-.723V3.773ZM28.576,8h-.723V3.773h.723Zm-.781-5.348a.431.431,0,0,1,.107-.3.4.4,0,0,1,.318-.121.41.41,0,0,1,.32.121.427.427,0,0,1,.109.3.413.413,0,0,1-.109.293.417.417,0,0,1-.32.117.411.411,0,0,1-.318-.117A.417.417,0,0,1,27.795,2.652ZM33.3,5.934a2.531,2.531,0,0,1-.441,1.555,1.415,1.415,0,0,1-1.2.59,1.55,1.55,0,0,1-1.211-.488V9.625h-.723V3.773h.66l.035.469A1.489,1.489,0,0,1,31.654,3.7a1.441,1.441,0,0,1,1.205.574,2.558,2.558,0,0,1,.443,1.6Zm-.723-.082a1.867,1.867,0,0,0-.3-1.129.982.982,0,0,0-.836-.414,1.062,1.062,0,0,0-.984.582V6.91a1.064,1.064,0,0,0,.992.578.977.977,0,0,0,.826-.412A2.038,2.038,0,0,0,32.58,5.852Zm4.1,1.027a.532.532,0,0,0-.221-.455,2.124,2.124,0,0,0-.77-.279,3.638,3.638,0,0,1-.871-.281,1.239,1.239,0,0,1-.477-.391.934.934,0,0,1-.154-.539,1.1,1.1,0,0,1,.439-.879A1.716,1.716,0,0,1,35.752,3.7a1.766,1.766,0,0,1,1.166.371,1.179,1.179,0,0,1,.447.949h-.727a.652.652,0,0,0-.252-.512.944.944,0,0,0-.635-.215.988.988,0,0,0-.617.172.541.541,0,0,0-.223.449.438.438,0,0,0,.207.395,2.547,2.547,0,0,0,.748.254,3.9,3.9,0,0,1,.877.289,1.279,1.279,0,0,1,.5.4.994.994,0,0,1,.162.576,1.082,1.082,0,0,1-.453.908,1.9,1.9,0,0,1-1.176.342,2.128,2.128,0,0,1-.9-.18,1.461,1.461,0,0,1-.611-.5,1.21,1.21,0,0,1-.221-.7h.723a.748.748,0,0,0,.291.576,1.129,1.129,0,0,0,.717.213,1.165,1.165,0,0,0,.658-.166A.51.51,0,0,0,36.682,6.879Zm4.273.7a1.535,1.535,0,0,1-1.238.5,1.314,1.314,0,0,1-1.029-.393,1.7,1.7,0,0,1-.357-1.162V3.773h.723V6.5q0,.961.781.961a1.082,1.082,0,0,0,1.1-.617V3.773h.723V8h-.687Zm2.48-3.809.02.469A1.561,1.561,0,0,1,44.709,3.7a1.208,1.208,0,0,1,1.207.68,1.6,1.6,0,0,1,.549-.492,1.621,1.621,0,0,1,.8-.187q1.391,0,1.414,1.473V8h-.723V5.211a.97.97,0,0,0-.207-.678.912.912,0,0,0-.7-.225.958.958,0,0,0-.668.24.975.975,0,0,0-.309.646V8H45.35V5.23a.806.806,0,0,0-.9-.922.967.967,0,0,0-.973.605V8h-.723V3.773Zm8.137,2.078a2.476,2.476,0,0,1,.461-1.564A1.568,1.568,0,0,1,54.416,4.2V2h.723V8h-.664l-.035-.453a1.472,1.472,0,0,1-1.207.531,1.444,1.444,0,0,1-1.2-.6,2.5,2.5,0,0,1-.463-1.57Zm.723.082a1.875,1.875,0,0,0,.3,1.125.96.96,0,0,0,.82.406,1.054,1.054,0,0,0,1-.617V4.906a1.062,1.062,0,0,0-1-.6.964.964,0,0,0-.828.41A2.064,2.064,0,0,0,52.295,5.934Zm3.773-.086a2.5,2.5,0,0,1,.244-1.117,1.821,1.821,0,0,1,.68-.766,1.85,1.85,0,0,1,.994-.27,1.782,1.782,0,0,1,1.4.6,2.3,2.3,0,0,1,.533,1.59v.051a2.518,2.518,0,0,1-.236,1.107A1.794,1.794,0,0,1,59,7.8a1.871,1.871,0,0,1-1.01.273,1.778,1.778,0,0,1-1.393-.6A2.288,2.288,0,0,1,56.068,5.9Zm.727.086a1.808,1.808,0,0,0,.326,1.129,1.105,1.105,0,0,0,1.748-.006,1.977,1.977,0,0,0,.324-1.209,1.805,1.805,0,0,0-.33-1.127,1.049,1.049,0,0,0-.877-.432,1.038,1.038,0,0,0-.863.426A1.963,1.963,0,0,0,56.795,5.934ZM61.607,8h-.723V2h.723Zm.965-2.152a2.5,2.5,0,0,1,.244-1.117,1.821,1.821,0,0,1,.68-.766,1.85,1.85,0,0,1,.994-.27,1.782,1.782,0,0,1,1.4.6,2.3,2.3,0,0,1,.533,1.59v.051a2.518,2.518,0,0,1-.236,1.107,1.794,1.794,0,0,1-.676.764,1.871,1.871,0,0,1-1.01.273,1.778,1.778,0,0,1-1.393-.6A2.288,2.288,0,0,1,62.572,5.9Zm.727.086a1.808,1.808,0,0,0,.326,1.129,1.105,1.105,0,0,0,1.748-.006A1.977,1.977,0,0,0,65.7,5.848a1.8,1.8,0,0,0-.33-1.127,1.049,1.049,0,0,0-.877-.432,1.038,1.038,0,0,0-.863.426A1.963,1.963,0,0,0,63.3,5.934Zm6.07-1.512a2.166,2.166,0,0,0-.355-.027A.952.952,0,0,0,68.049,5V8h-.723V3.773h.7l.012.488A1.125,1.125,0,0,1,69.049,3.7a.738.738,0,0,1,.32.055ZM23.785,16.879a.532.532,0,0,0-.221-.455,2.124,2.124,0,0,0-.77-.279,3.638,3.638,0,0,1-.871-.281,1.239,1.239,0,0,1-.477-.391.934.934,0,0,1-.154-.539,1.1,1.1,0,0,1,.439-.879,1.716,1.716,0,0,1,1.123-.359,1.766,1.766,0,0,1,1.166.371,1.179,1.179,0,0,1,.447.949h-.727a.652.652,0,0,0-.252-.512.944.944,0,0,0-.635-.215.988.988,0,0,0-.617.172.541.541,0,0,0-.223.449.438.438,0,0,0,.207.395,2.547,2.547,0,0,0,.748.254,3.9,3.9,0,0,1,.877.289,1.279,1.279,0,0,1,.5.4.994.994,0,0,1,.162.576,1.082,1.082,0,0,1-.453.908,1.9,1.9,0,0,1-1.176.342,2.128,2.128,0,0,1-.9-.18,1.461,1.461,0,0,1-.611-.5,1.21,1.21,0,0,1-.221-.7h.723a.748.748,0,0,0,.291.576,1.129,1.129,0,0,0,.717.213,1.165,1.165,0,0,0,.658-.166A.51.51,0,0,0,23.785,16.879ZM26.234,18h-.723V13.773h.723Zm-.781-5.348a.431.431,0,0,1,.107-.3.4.4,0,0,1,.318-.121.41.41,0,0,1,.32.121.427.427,0,0,1,.109.3.413.413,0,0,1-.109.293.417.417,0,0,1-.32.117.411.411,0,0,1-.318-.117A.417.417,0,0,1,25.453,12.652Zm2.918.1v1.023h.789v.559h-.789v2.624a.587.587,0,0,0,.105.381.444.444,0,0,0,.359.127,1.75,1.75,0,0,0,.344-.047V18a2.107,2.107,0,0,1-.555.078.9.9,0,0,1-.73-.293,1.259,1.259,0,0,1-.246-.832V14.332h-.77v-.559h.77V12.75ZM34.594,18a1.518,1.518,0,0,1-.1-.445,1.612,1.612,0,0,1-1.2.523,1.492,1.492,0,0,1-1.025-.354,1.144,1.144,0,0,1-.4-.9,1.2,1.2,0,0,1,.5-1.025,2.367,2.367,0,0,1,1.412-.365h.7v-.332a.812.812,0,0,0-.227-.6.911.911,0,0,0-.668-.225,1.054,1.054,0,0,0-.648.2.576.576,0,0,0-.262.473h-.727a1,1,0,0,1,.225-.611,1.533,1.533,0,0,1,.609-.467,2.05,2.05,0,0,1,.846-.172,1.671,1.671,0,0,1,1.145.365,1.318,1.318,0,0,1,.43,1.006v1.945a2.378,2.378,0,0,0,.148.926V18Zm-1.2-.551a1.27,1.27,0,0,0,.645-.176,1.063,1.063,0,0,0,.441-.457v-.867h-.566q-1.328,0-1.328.777a.658.658,0,0,0,.227.531A.871.871,0,0,0,33.395,17.449Zm3.621-3.676.02.469a1.561,1.561,0,0,1,1.254-.547,1.208,1.208,0,0,1,1.207.68,1.6,1.6,0,0,1,.549-.492,1.621,1.621,0,0,1,.8-.187q1.391,0,1.414,1.473V18h-.723V15.211a.97.97,0,0,0-.207-.678.912.912,0,0,0-.7-.225.958.958,0,0,0-.668.24.975.975,0,0,0-.309.646V18H38.93V15.23a.806.806,0,0,0-.9-.922.967.967,0,0,0-.973.605V18h-.723V13.773Zm8.086,4.3a1.847,1.847,0,0,1-1.4-.564A2.1,2.1,0,0,1,43.164,16v-.133a2.536,2.536,0,0,1,.24-1.123,1.874,1.874,0,0,1,.672-.773,1.689,1.689,0,0,1,.936-.279,1.583,1.583,0,0,1,1.281.543,2.351,2.351,0,0,1,.457,1.555v.3H43.887a1.5,1.5,0,0,0,.365,1.01,1.148,1.148,0,0,0,.889.385,1.259,1.259,0,0,0,.648-.156,1.629,1.629,0,0,0,.465-.414l.441.344A1.775,1.775,0,0,1,45.1,18.078Zm-.09-3.789a.964.964,0,0,0-.734.318,1.547,1.547,0,0,0-.367.893h2.117v-.055a1.376,1.376,0,0,0-.3-.854A.908.908,0,0,0,45.012,14.289Zm3.555-1.539v1.023h.789v.559h-.789v2.624a.587.587,0,0,0,.105.381.444.444,0,0,0,.359.127,1.75,1.75,0,0,0,.344-.047V18a2.107,2.107,0,0,1-.555.078.9.9,0,0,1-.73-.293,1.259,1.259,0,0,1-.246-.832V14.332h-.77v-.559h.77V12.75Zm1.609,6.383-.41-.281a1.885,1.885,0,0,0,.383-1.055v-.652h.707v.566a1.779,1.779,0,0,1-.193.789A1.847,1.847,0,0,1,50.176,19.133Z" transform="translate(218 205.883)" fill="#1b1b1b"/></g><g transform="translate(3)"><g transform="translate(303 43.042)"><g transform="translate(0 49.261)"><g style="isolation:isolate"><g transform="translate(15.543)"><rect width="7.036" height="99.352" fill="#c84c9d"/></g><path d="M793.611,228.009h0Z" transform="translate(-793.611 -228.009)" fill="#bc4893"/><rect width="15.543" height="99.352" fill="#e557b3"/></g></g><g transform="translate(15.834 98.82)"><g style="isolation:isolate"><g transform="translate(15.527)"><rect width="7.038" height="49.793" fill="#20cdb3"/></g><path d="M802.2,254.883h0Z" transform="translate(-802.197 -254.883)" fill="#1ec0a9"/><rect width="15.527" height="49.793" fill="#22dec3"/></g></g><g transform="translate(31.652)"><g transform="translate(0)" style="isolation:isolate"><g transform="translate(15.524)"><rect width="7.038" height="148.613" fill="#606ada"/></g><rect width="15.524" height="148.613" fill="#6670e7"/></g></g><g transform="translate(47.468 16.415)"><g transform="translate(0)" style="isolation:isolate"><g transform="translate(15.544)"><rect width="7.038" height="132.199" fill="#dfb223"/></g><rect width="15.544" height="132.199" fill="#edbc25"/></g></g></g><path d="M3.928,7.387h2.7V8H3.174V2.313h.754ZM7.174,5.848A2.5,2.5,0,0,1,7.418,4.73a1.821,1.821,0,0,1,.68-.766,1.85,1.85,0,0,1,.994-.27,1.782,1.782,0,0,1,1.4.6,2.3,2.3,0,0,1,.533,1.59v.051a2.518,2.518,0,0,1-.236,1.107,1.794,1.794,0,0,1-.676.764,1.871,1.871,0,0,1-1.01.273,1.778,1.778,0,0,1-1.393-.6A2.288,2.288,0,0,1,7.174,5.9Zm.727.086a1.808,1.808,0,0,0,.326,1.129,1.105,1.105,0,0,0,1.748-.006A1.977,1.977,0,0,0,10.3,5.848a1.805,1.805,0,0,0-.33-1.127,1.049,1.049,0,0,0-.877-.432,1.038,1.038,0,0,0-.863.426A1.963,1.963,0,0,0,7.9,5.934Zm6.07-1.512a2.166,2.166,0,0,0-.355-.027A.952.952,0,0,0,12.65,5V8h-.723V3.773h.7l.012.488A1.125,1.125,0,0,1,13.65,3.7a.738.738,0,0,1,.32.055Zm2.344,3.656a1.847,1.847,0,0,1-1.4-.564A2.1,2.1,0,0,1,14.377,6V5.871a2.536,2.536,0,0,1,.24-1.123,1.874,1.874,0,0,1,.672-.773,1.689,1.689,0,0,1,.936-.279,1.583,1.583,0,0,1,1.281.543,2.351,2.351,0,0,1,.457,1.555v.3H15.1a1.5,1.5,0,0,0,.365,1.01,1.148,1.148,0,0,0,.889.385A1.259,1.259,0,0,0,17,7.332a1.629,1.629,0,0,0,.465-.414l.441.344A1.775,1.775,0,0,1,16.314,8.078Zm-.09-3.789a.964.964,0,0,0-.734.318,1.547,1.547,0,0,0-.367.893H17.24V5.445a1.376,1.376,0,0,0-.3-.854A.908.908,0,0,0,16.225,4.289Zm3.254-.516.02.469A1.561,1.561,0,0,1,20.752,3.7a1.208,1.208,0,0,1,1.207.68,1.6,1.6,0,0,1,.549-.492,1.621,1.621,0,0,1,.8-.187q1.391,0,1.414,1.473V8H24V5.211a.97.97,0,0,0-.207-.678.912.912,0,0,0-.7-.225.958.958,0,0,0-.668.24.975.975,0,0,0-.309.646V8h-.727V5.23a.806.806,0,0,0-.9-.922.967.967,0,0,0-.973.605V8h-.723V3.773ZM28.576,8h-.723V3.773h.723Zm-.781-5.348a.431.431,0,0,1,.107-.3.4.4,0,0,1,.318-.121.41.41,0,0,1,.32.121.427.427,0,0,1,.109.3.413.413,0,0,1-.109.293.417.417,0,0,1-.32.117.411.411,0,0,1-.318-.117A.417.417,0,0,1,27.795,2.652ZM33.3,5.934a2.531,2.531,0,0,1-.441,1.555,1.415,1.415,0,0,1-1.2.59,1.55,1.55,0,0,1-1.211-.488V9.625h-.723V3.773h.66l.035.469A1.489,1.489,0,0,1,31.654,3.7a1.441,1.441,0,0,1,1.205.574,2.558,2.558,0,0,1,.443,1.6Zm-.723-.082a1.867,1.867,0,0,0-.3-1.129.982.982,0,0,0-.836-.414,1.062,1.062,0,0,0-.984.582V6.91a1.064,1.064,0,0,0,.992.578.977.977,0,0,0,.826-.412A2.038,2.038,0,0,0,32.58,5.852Zm4.1,1.027a.532.532,0,0,0-.221-.455,2.124,2.124,0,0,0-.77-.279,3.638,3.638,0,0,1-.871-.281,1.239,1.239,0,0,1-.477-.391.934.934,0,0,1-.154-.539,1.1,1.1,0,0,1,.439-.879A1.716,1.716,0,0,1,35.752,3.7a1.766,1.766,0,0,1,1.166.371,1.179,1.179,0,0,1,.447.949h-.727a.652.652,0,0,0-.252-.512.944.944,0,0,0-.635-.215.988.988,0,0,0-.617.172.541.541,0,0,0-.223.449.438.438,0,0,0,.207.395,2.547,2.547,0,0,0,.748.254,3.9,3.9,0,0,1,.877.289,1.279,1.279,0,0,1,.5.4.994.994,0,0,1,.162.576,1.082,1.082,0,0,1-.453.908,1.9,1.9,0,0,1-1.176.342,2.128,2.128,0,0,1-.9-.18,1.461,1.461,0,0,1-.611-.5,1.21,1.21,0,0,1-.221-.7h.723a.748.748,0,0,0,.291.576,1.129,1.129,0,0,0,.717.213,1.165,1.165,0,0,0,.658-.166A.51.51,0,0,0,36.682,6.879Zm4.273.7a1.535,1.535,0,0,1-1.238.5,1.314,1.314,0,0,1-1.029-.393,1.7,1.7,0,0,1-.357-1.162V3.773h.723V6.5q0,.961.781.961a1.082,1.082,0,0,0,1.1-.617V3.773h.723V8h-.687Zm2.48-3.809.02.469A1.561,1.561,0,0,1,44.709,3.7a1.208,1.208,0,0,1,1.207.68,1.6,1.6,0,0,1,.549-.492,1.621,1.621,0,0,1,.8-.187q1.391,0,1.414,1.473V8h-.723V5.211a.97.97,0,0,0-.207-.678.912.912,0,0,0-.7-.225.958.958,0,0,0-.668.24.975.975,0,0,0-.309.646V8H45.35V5.23a.806.806,0,0,0-.9-.922.967.967,0,0,0-.973.605V8h-.723V3.773Zm8.137,2.078a2.476,2.476,0,0,1,.461-1.564A1.568,1.568,0,0,1,54.416,4.2V2h.723V8h-.664l-.035-.453a1.472,1.472,0,0,1-1.207.531,1.444,1.444,0,0,1-1.2-.6,2.5,2.5,0,0,1-.463-1.57Zm.723.082a1.875,1.875,0,0,0,.3,1.125.96.96,0,0,0,.82.406,1.054,1.054,0,0,0,1-.617V4.906a1.062,1.062,0,0,0-1-.6.964.964,0,0,0-.828.41A2.064,2.064,0,0,0,52.295,5.934Zm3.773-.086a2.5,2.5,0,0,1,.244-1.117,1.821,1.821,0,0,1,.68-.766,1.85,1.85,0,0,1,.994-.27,1.782,1.782,0,0,1,1.4.6,2.3,2.3,0,0,1,.533,1.59v.051a2.518,2.518,0,0,1-.236,1.107A1.794,1.794,0,0,1,59,7.8a1.871,1.871,0,0,1-1.01.273,1.778,1.778,0,0,1-1.393-.6A2.288,2.288,0,0,1,56.068,5.9Zm.727.086a1.808,1.808,0,0,0,.326,1.129,1.105,1.105,0,0,0,1.748-.006,1.977,1.977,0,0,0,.324-1.209,1.805,1.805,0,0,0-.33-1.127,1.049,1.049,0,0,0-.877-.432,1.038,1.038,0,0,0-.863.426A1.963,1.963,0,0,0,56.795,5.934ZM61.607,8h-.723V2h.723Zm.965-2.152a2.5,2.5,0,0,1,.244-1.117,1.821,1.821,0,0,1,.68-.766,1.85,1.85,0,0,1,.994-.27,1.782,1.782,0,0,1,1.4.6,2.3,2.3,0,0,1,.533,1.59v.051a2.518,2.518,0,0,1-.236,1.107,1.794,1.794,0,0,1-.676.764,1.871,1.871,0,0,1-1.01.273,1.778,1.778,0,0,1-1.393-.6A2.288,2.288,0,0,1,62.572,5.9Zm.727.086a1.808,1.808,0,0,0,.326,1.129,1.105,1.105,0,0,0,1.748-.006A1.977,1.977,0,0,0,65.7,5.848a1.8,1.8,0,0,0-.33-1.127,1.049,1.049,0,0,0-.877-.432,1.038,1.038,0,0,0-.863.426A1.963,1.963,0,0,0,63.3,5.934Zm6.07-1.512a2.166,2.166,0,0,0-.355-.027A.952.952,0,0,0,68.049,5V8h-.723V3.773h.7l.012.488A1.125,1.125,0,0,1,69.049,3.7a.738.738,0,0,1,.32.055ZM23.785,16.879a.532.532,0,0,0-.221-.455,2.124,2.124,0,0,0-.77-.279,3.638,3.638,0,0,1-.871-.281,1.239,1.239,0,0,1-.477-.391.934.934,0,0,1-.154-.539,1.1,1.1,0,0,1,.439-.879,1.716,1.716,0,0,1,1.123-.359,1.766,1.766,0,0,1,1.166.371,1.179,1.179,0,0,1,.447.949h-.727a.652.652,0,0,0-.252-.512.944.944,0,0,0-.635-.215.988.988,0,0,0-.617.172.541.541,0,0,0-.223.449.438.438,0,0,0,.207.395,2.547,2.547,0,0,0,.748.254,3.9,3.9,0,0,1,.877.289,1.279,1.279,0,0,1,.5.4.994.994,0,0,1,.162.576,1.082,1.082,0,0,1-.453.908,1.9,1.9,0,0,1-1.176.342,2.128,2.128,0,0,1-.9-.18,1.461,1.461,0,0,1-.611-.5,1.21,1.21,0,0,1-.221-.7h.723a.748.748,0,0,0,.291.576,1.129,1.129,0,0,0,.717.213,1.165,1.165,0,0,0,.658-.166A.51.51,0,0,0,23.785,16.879ZM26.234,18h-.723V13.773h.723Zm-.781-5.348a.431.431,0,0,1,.107-.3.4.4,0,0,1,.318-.121.41.41,0,0,1,.32.121.427.427,0,0,1,.109.3.413.413,0,0,1-.109.293.417.417,0,0,1-.32.117.411.411,0,0,1-.318-.117A.417.417,0,0,1,25.453,12.652Zm2.918.1v1.023h.789v.559h-.789v2.624a.587.587,0,0,0,.105.381.444.444,0,0,0,.359.127,1.75,1.75,0,0,0,.344-.047V18a2.107,2.107,0,0,1-.555.078.9.9,0,0,1-.73-.293,1.259,1.259,0,0,1-.246-.832V14.332h-.77v-.559h.77V12.75ZM34.594,18a1.518,1.518,0,0,1-.1-.445,1.612,1.612,0,0,1-1.2.523,1.492,1.492,0,0,1-1.025-.354,1.144,1.144,0,0,1-.4-.9,1.2,1.2,0,0,1,.5-1.025,2.367,2.367,0,0,1,1.412-.365h.7v-.332a.812.812,0,0,0-.227-.6.911.911,0,0,0-.668-.225,1.054,1.054,0,0,0-.648.2.576.576,0,0,0-.262.473h-.727a1,1,0,0,1,.225-.611,1.533,1.533,0,0,1,.609-.467,2.05,2.05,0,0,1,.846-.172,1.671,1.671,0,0,1,1.145.365,1.318,1.318,0,0,1,.43,1.006v1.945a2.378,2.378,0,0,0,.148.926V18Zm-1.2-.551a1.27,1.27,0,0,0,.645-.176,1.063,1.063,0,0,0,.441-.457v-.867h-.566q-1.328,0-1.328.777a.658.658,0,0,0,.227.531A.871.871,0,0,0,33.395,17.449Zm3.621-3.676.02.469a1.561,1.561,0,0,1,1.254-.547,1.208,1.208,0,0,1,1.207.68,1.6,1.6,0,0,1,.549-.492,1.621,1.621,0,0,1,.8-.187q1.391,0,1.414,1.473V18h-.723V15.211a.97.97,0,0,0-.207-.678.912.912,0,0,0-.7-.225.958.958,0,0,0-.668.24.975.975,0,0,0-.309.646V18H38.93V15.23a.806.806,0,0,0-.9-.922.967.967,0,0,0-.973.605V18h-.723V13.773Zm8.086,4.3a1.847,1.847,0,0,1-1.4-.564A2.1,2.1,0,0,1,43.164,16v-.133a2.536,2.536,0,0,1,.24-1.123,1.874,1.874,0,0,1,.672-.773,1.689,1.689,0,0,1,.936-.279,1.583,1.583,0,0,1,1.281.543,2.351,2.351,0,0,1,.457,1.555v.3H43.887a1.5,1.5,0,0,0,.365,1.01,1.148,1.148,0,0,0,.889.385,1.259,1.259,0,0,0,.648-.156,1.629,1.629,0,0,0,.465-.414l.441.344A1.775,1.775,0,0,1,45.1,18.078Zm-.09-3.789a.964.964,0,0,0-.734.318,1.547,1.547,0,0,0-.367.893h2.117v-.055a1.376,1.376,0,0,0-.3-.854A.908.908,0,0,0,45.012,14.289Zm3.555-1.539v1.023h.789v.559h-.789v2.624a.587.587,0,0,0,.105.381.444.444,0,0,0,.359.127,1.75,1.75,0,0,0,.344-.047V18a2.107,2.107,0,0,1-.555.078.9.9,0,0,1-.73-.293,1.259,1.259,0,0,1-.246-.832V14.332h-.77v-.559h.77V12.75Zm1.609,6.383-.41-.281a1.885,1.885,0,0,0,.383-1.055v-.652h.707v.566a1.779,1.779,0,0,1-.193.789A1.847,1.847,0,0,1,50.176,19.133Z" transform="translate(302 205.883)" fill="#1b1b1b"/></g><g transform="translate(-1 5.356)"><path d="M-.453-2.426A3.305,3.305,0,0,1-.887-.539,1.542,1.542,0,0,1-2.242.078a1.553,1.553,0,0,1-1.348-.6,3.137,3.137,0,0,1-.453-1.8v-.965a3.232,3.232,0,0,1,.434-1.863A1.554,1.554,0,0,1-2.25-5.766,1.568,1.568,0,0,1-.9-5.178,3.119,3.119,0,0,1-.453-3.363Zm-.723-.988a2.648,2.648,0,0,0-.258-1.338.887.887,0,0,0-.816-.42.876.876,0,0,0-.809.418A2.585,2.585,0,0,0-3.32-3.469v1.156A2.69,2.69,0,0,0-3.053-.951a.886.886,0,0,0,.811.439.874.874,0,0,0,.795-.414,2.593,2.593,0,0,0,.271-1.3Z" transform="translate(13 172)" fill="#6f6f6e"/><path d="M-6.137,0h-.727V-4.816l-1.457.535v-.656l2.07-.777h.113ZM-.453-2.426A3.305,3.305,0,0,1-.887-.539,1.542,1.542,0,0,1-2.242.078a1.553,1.553,0,0,1-1.348-.6,3.137,3.137,0,0,1-.453-1.8v-.965a3.232,3.232,0,0,1,.434-1.863A1.554,1.554,0,0,1-2.25-5.766,1.568,1.568,0,0,1-.9-5.178,3.119,3.119,0,0,1-.453-3.363Zm-.723-.988a2.648,2.648,0,0,0-.258-1.338.887.887,0,0,0-.816-.42.876.876,0,0,0-.809.418A2.585,2.585,0,0,0-3.32-3.469v1.156A2.69,2.69,0,0,0-3.053-.951a.886.886,0,0,0,.811.439.874.874,0,0,0,.795-.414,2.593,2.593,0,0,0,.271-1.3Z" transform="translate(13 155.001)" fill="#6f6f6e"/><path d="M-4.785,0H-8.512V-.52l1.969-2.187a4.677,4.677,0,0,0,.6-.807,1.346,1.346,0,0,0,.166-.643,1.02,1.02,0,0,0-.27-.73.942.942,0,0,0-.719-.285,1.116,1.116,0,0,0-.838.307,1.171,1.171,0,0,0-.3.854h-.723a1.677,1.677,0,0,1,.506-1.27,1.875,1.875,0,0,1,1.354-.484,1.8,1.8,0,0,1,1.254.416,1.419,1.419,0,0,1,.461,1.107,3.253,3.253,0,0,1-1.07,2L-7.641-.59h2.855ZM-.453-2.426A3.305,3.305,0,0,1-.887-.539,1.542,1.542,0,0,1-2.242.078a1.553,1.553,0,0,1-1.348-.6,3.137,3.137,0,0,1-.453-1.8v-.965a3.232,3.232,0,0,1,.434-1.863A1.554,1.554,0,0,1-2.25-5.766,1.568,1.568,0,0,1-.9-5.178,3.119,3.119,0,0,1-.453-3.363Zm-.723-.988a2.648,2.648,0,0,0-.258-1.338.887.887,0,0,0-.816-.42.876.876,0,0,0-.809.418A2.585,2.585,0,0,0-3.32-3.469v1.156A2.69,2.69,0,0,0-3.053-.951a.886.886,0,0,0,.811.439.874.874,0,0,0,.795-.414,2.593,2.593,0,0,0,.271-1.3Z" transform="translate(13 139)" fill="#6f6f6e"/><path d="M-7.461-3.2h.543a1.193,1.193,0,0,0,.8-.27.9.9,0,0,0,.293-.707.882.882,0,0,0-1-1,1.036,1.036,0,0,0-.748.268.936.936,0,0,0-.279.709h-.723a1.451,1.451,0,0,1,.494-1.123,1.8,1.8,0,0,1,1.256-.447,1.779,1.779,0,0,1,1.262.426A1.538,1.538,0,0,1-5.1-4.156a1.248,1.248,0,0,1-.24.719,1.451,1.451,0,0,1-.654.52,1.4,1.4,0,0,1,.725.492,1.367,1.367,0,0,1,.256.84,1.551,1.551,0,0,1-.5,1.215,1.872,1.872,0,0,1-1.3.449,1.922,1.922,0,0,1-1.3-.434,1.438,1.438,0,0,1-.5-1.145h.727A.93.93,0,0,0-7.6-.781a1.114,1.114,0,0,0,.785.27,1.093,1.093,0,0,0,.8-.273,1.054,1.054,0,0,0,.277-.785.956.956,0,0,0-.3-.762,1.328,1.328,0,0,0-.879-.273h-.543Zm7.008.77A3.305,3.305,0,0,1-.887-.539,1.542,1.542,0,0,1-2.242.078a1.553,1.553,0,0,1-1.348-.6,3.137,3.137,0,0,1-.453-1.8v-.965a3.232,3.232,0,0,1,.434-1.863A1.554,1.554,0,0,1-2.25-5.766,1.568,1.568,0,0,1-.9-5.178,3.119,3.119,0,0,1-.453-3.363Zm-.723-.988a2.648,2.648,0,0,0-.258-1.338.887.887,0,0,0-.816-.42.876.876,0,0,0-.809.418A2.585,2.585,0,0,0-3.32-3.469v1.156A2.69,2.69,0,0,0-3.053-.951a.886.886,0,0,0,.811.439.874.874,0,0,0,.795-.414,2.593,2.593,0,0,0,.271-1.3Z" transform="translate(13 123.001)" fill="#6f6f6e"/><path d="M-5.461-1.91h.789v.59h-.789V0h-.727V-1.32h-2.59v-.426L-6.23-5.687h.77Zm-2.5,0h1.77V-4.7l-.086.156Zm7.5-.516A3.305,3.305,0,0,1-.887-.539,1.542,1.542,0,0,1-2.242.078a1.553,1.553,0,0,1-1.348-.6,3.137,3.137,0,0,1-.453-1.8v-.965a3.232,3.232,0,0,1,.434-1.863A1.554,1.554,0,0,1-2.25-5.766,1.568,1.568,0,0,1-.9-5.178,3.119,3.119,0,0,1-.453-3.363Zm-.723-.988a2.648,2.648,0,0,0-.258-1.338.887.887,0,0,0-.816-.42.876.876,0,0,0-.809.418A2.585,2.585,0,0,0-3.32-3.469v1.156A2.69,2.69,0,0,0-3.053-.951a.886.886,0,0,0,.811.439.874.874,0,0,0,.795-.414,2.593,2.593,0,0,0,.271-1.3Z" transform="translate(13 106)" fill="#6f6f6e"/><path d="M-8.18-2.852l.289-2.836h2.914v.668h-2.3l-.172,1.551A1.835,1.835,0,0,1-6.5-3.715,1.569,1.569,0,0,1-5.266-3.2a2.013,2.013,0,0,1,.457,1.389A1.943,1.943,0,0,1-5.283-.428,1.73,1.73,0,0,1-6.609.078,1.8,1.8,0,0,1-7.84-.34,1.668,1.668,0,0,1-8.383-1.5H-7.7a1.148,1.148,0,0,0,.348.736,1.081,1.081,0,0,0,.742.248.975.975,0,0,0,.791-.344A1.437,1.437,0,0,0-5.531-1.8a1.319,1.319,0,0,0-.311-.916,1.056,1.056,0,0,0-.826-.346,1.191,1.191,0,0,0-.742.207L-7.6-2.7Zm7.727.426A3.305,3.305,0,0,1-.887-.539,1.542,1.542,0,0,1-2.242.078a1.553,1.553,0,0,1-1.348-.6,3.137,3.137,0,0,1-.453-1.8v-.965a3.232,3.232,0,0,1,.434-1.863A1.554,1.554,0,0,1-2.25-5.766,1.568,1.568,0,0,1-.9-5.178,3.119,3.119,0,0,1-.453-3.363Zm-.723-.988a2.648,2.648,0,0,0-.258-1.338.887.887,0,0,0-.816-.42.876.876,0,0,0-.809.418A2.585,2.585,0,0,0-3.32-3.469v1.156A2.69,2.69,0,0,0-3.053-.951a.886.886,0,0,0,.811.439.874.874,0,0,0,.795-.414,2.593,2.593,0,0,0,.271-1.3Z" transform="translate(13 90)" fill="#6f6f6e"/><path d="M-5.676-5.691v.613h-.133a1.9,1.9,0,0,0-1.344.5A2.081,2.081,0,0,0-7.73-3.215,1.543,1.543,0,0,1-6.5-3.73a1.475,1.475,0,0,1,1.186.523,2.019,2.019,0,0,1,.443,1.352A2.013,2.013,0,0,1-5.354-.449,1.648,1.648,0,0,1-6.637.078,1.623,1.623,0,0,1-7.961-.549a2.485,2.485,0,0,1-.508-1.615v-.277a3.744,3.744,0,0,1,.67-2.4A2.46,2.46,0,0,1-5.8-5.691Zm-.949,2.563a1.153,1.153,0,0,0-.684.223,1.16,1.16,0,0,0-.434.559v.266A1.866,1.866,0,0,0-7.426-.949a.948.948,0,0,0,.789.43.919.919,0,0,0,.768-.359A1.491,1.491,0,0,0-5.59-1.82a1.492,1.492,0,0,0-.283-.947A.908.908,0,0,0-6.625-3.129Zm6.172.7A3.305,3.305,0,0,1-.887-.539,1.542,1.542,0,0,1-2.242.078a1.553,1.553,0,0,1-1.348-.6,3.137,3.137,0,0,1-.453-1.8v-.965a3.232,3.232,0,0,1,.434-1.863A1.554,1.554,0,0,1-2.25-5.766,1.568,1.568,0,0,1-.9-5.178,3.119,3.119,0,0,1-.453-3.363Zm-.723-.988a2.648,2.648,0,0,0-.258-1.338.887.887,0,0,0-.816-.42.876.876,0,0,0-.809.418A2.585,2.585,0,0,0-3.32-3.469v1.156A2.69,2.69,0,0,0-3.053-.951a.886.886,0,0,0,.811.439.874.874,0,0,0,.795-.414,2.593,2.593,0,0,0,.271-1.3Z" transform="translate(13 73)" fill="#6f6f6e"/><path d="M-4.84-5.281-7.2,0h-.758l2.348-5.094H-8.684v-.594H-4.84ZM-.453-2.426A3.305,3.305,0,0,1-.887-.539,1.542,1.542,0,0,1-2.242.078a1.553,1.553,0,0,1-1.348-.6,3.137,3.137,0,0,1-.453-1.8v-.965a3.232,3.232,0,0,1,.434-1.863A1.554,1.554,0,0,1-2.25-5.766,1.568,1.568,0,0,1-.9-5.178,3.119,3.119,0,0,1-.453-3.363Zm-.723-.988a2.648,2.648,0,0,0-.258-1.338.887.887,0,0,0-.816-.42.876.876,0,0,0-.809.418A2.585,2.585,0,0,0-3.32-3.469v1.156A2.69,2.69,0,0,0-3.053-.951a.886.886,0,0,0,.811.439.874.874,0,0,0,.795-.414,2.593,2.593,0,0,0,.271-1.3Z" transform="translate(13 57)" fill="#6f6f6e"/><path d="M-5.062-4.2a1.321,1.321,0,0,1-.225.758,1.528,1.528,0,0,1-.607.52,1.63,1.63,0,0,1,.705.559,1.406,1.406,0,0,1,.26.832,1.486,1.486,0,0,1-.5,1.176A1.913,1.913,0,0,1-6.738.078,1.9,1.9,0,0,1-8.053-.361a1.493,1.493,0,0,1-.494-1.174,1.448,1.448,0,0,1,.252-.832,1.568,1.568,0,0,1,.7-.562,1.491,1.491,0,0,1-.6-.52A1.34,1.34,0,0,1-8.414-4.2a1.47,1.47,0,0,1,.461-1.141,1.729,1.729,0,0,1,1.215-.422,1.731,1.731,0,0,1,1.213.422A1.467,1.467,0,0,1-5.062-4.2Zm-.59,2.652a1.048,1.048,0,0,0-.3-.777,1.074,1.074,0,0,0-.791-.3,1.055,1.055,0,0,0-.783.3,1.06,1.06,0,0,0-.295.781,1.01,1.01,0,0,0,.287.762,1.1,1.1,0,0,0,.8.277,1.1,1.1,0,0,0,.8-.279A1.007,1.007,0,0,0-5.652-1.551ZM-6.738-5.172a.932.932,0,0,0-.689.264.969.969,0,0,0-.264.717.964.964,0,0,0,.26.7.922.922,0,0,0,.693.268.922.922,0,0,0,.693-.268.964.964,0,0,0,.26-.7.964.964,0,0,0-.27-.707A.919.919,0,0,0-6.738-5.172ZM-.453-2.426A3.305,3.305,0,0,1-.887-.539,1.542,1.542,0,0,1-2.242.078a1.553,1.553,0,0,1-1.348-.6,3.137,3.137,0,0,1-.453-1.8v-.965a3.232,3.232,0,0,1,.434-1.863A1.554,1.554,0,0,1-2.25-5.766,1.568,1.568,0,0,1-.9-5.178,3.119,3.119,0,0,1-.453-3.363Zm-.723-.988a2.648,2.648,0,0,0-.258-1.338.887.887,0,0,0-.816-.42.876.876,0,0,0-.809.418A2.585,2.585,0,0,0-3.32-3.469v1.156A2.69,2.69,0,0,0-3.053-.951a.886.886,0,0,0,.811.439.874.874,0,0,0,.795-.414,2.593,2.593,0,0,0,.271-1.3Z" transform="translate(13 41.001)" fill="#6f6f6e"/><path d="M-5.742-2.5a1.768,1.768,0,0,1-.541.434,1.468,1.468,0,0,1-.689.164,1.515,1.515,0,0,1-.857-.242,1.574,1.574,0,0,1-.564-.682,2.324,2.324,0,0,1-.2-.971,2.368,2.368,0,0,1,.217-1.027,1.593,1.593,0,0,1,.615-.7,1.754,1.754,0,0,1,.93-.242,1.588,1.588,0,0,1,1.33.631,2.752,2.752,0,0,1,.486,1.721V-3.2A3.677,3.677,0,0,1-5.672-.779,2.521,2.521,0,0,1-7.652,0h-.141V-.609h.152a1.99,1.99,0,0,0,1.375-.466A2,2,0,0,0-5.742-2.5Zm-1.113,0a1.116,1.116,0,0,0,.67-.223,1.313,1.313,0,0,0,.447-.551v-.289a1.989,1.989,0,0,0-.309-1.156.921.921,0,0,0-.781-.445.928.928,0,0,0-.766.365,1.507,1.507,0,0,0-.289.963,1.568,1.568,0,0,0,.279.959A.884.884,0,0,0-6.855-2.5Zm6.4.074A3.305,3.305,0,0,1-.887-.539,1.542,1.542,0,0,1-2.242.078a1.553,1.553,0,0,1-1.348-.6,3.137,3.137,0,0,1-.453-1.8v-.965a3.232,3.232,0,0,1,.434-1.863A1.554,1.554,0,0,1-2.25-5.766,1.568,1.568,0,0,1-.9-5.178,3.119,3.119,0,0,1-.453-3.363Zm-.723-.988a2.648,2.648,0,0,0-.258-1.338.887.887,0,0,0-.816-.42.876.876,0,0,0-.809.418A2.585,2.585,0,0,0-3.32-3.469v1.156A2.69,2.69,0,0,0-3.053-.951a.886.886,0,0,0,.811.439.874.874,0,0,0,.795-.414,2.593,2.593,0,0,0,.271-1.3Z" transform="translate(13 24)" fill="#6f6f6e"/><path d="M-10.629,0h-.727V-4.816l-1.457.535v-.656l2.07-.777h.113Zm5.684-2.426A3.305,3.305,0,0,1-5.379-.539,1.542,1.542,0,0,1-6.734.078a1.553,1.553,0,0,1-1.348-.6,3.137,3.137,0,0,1-.453-1.8v-.965A3.232,3.232,0,0,1-8.1-5.156a1.554,1.554,0,0,1,1.359-.609,1.568,1.568,0,0,1,1.352.588,3.119,3.119,0,0,1,.445,1.814Zm-.723-.988a2.648,2.648,0,0,0-.258-1.338.887.887,0,0,0-.816-.42.876.876,0,0,0-.809.418,2.585,2.585,0,0,0-.262,1.285v1.156A2.69,2.69,0,0,0-7.545-.951a.886.886,0,0,0,.811.439.874.874,0,0,0,.795-.414,2.593,2.593,0,0,0,.271-1.3Zm5.215.988A3.305,3.305,0,0,1-.887-.539,1.542,1.542,0,0,1-2.242.078a1.553,1.553,0,0,1-1.348-.6,3.137,3.137,0,0,1-.453-1.8v-.965a3.232,3.232,0,0,1,.434-1.863A1.554,1.554,0,0,1-2.25-5.766,1.568,1.568,0,0,1-.9-5.178,3.119,3.119,0,0,1-.453-3.363Zm-.723-.988a2.648,2.648,0,0,0-.258-1.338.887.887,0,0,0-.816-.42.876.876,0,0,0-.809.418A2.585,2.585,0,0,0-3.32-3.469v1.156A2.69,2.69,0,0,0-3.053-.951a.886.886,0,0,0,.811.439.874.874,0,0,0,.795-.414,2.593,2.593,0,0,0,.271-1.3Z" transform="translate(13 8)" fill="#6f6f6e"/></g></g></g></svg>