<svg xmlns="http://www.w3.org/2000/svg" xmlns:xlink="http://www.w3.org/1999/xlink" width="85.997" height="80.833" viewBox="0 0 85.997 80.833"><defs><clipPath id="a"><rect width="85.997" height="80.833" transform="translate(0 0)" fill="none"/></clipPath></defs><g clip-path="url(#a)"><path d="M73.26,53.43A10.832,10.832,0,0,0,72.215,50.8a8.72,8.72,0,0,0-5.131-4.276l-.158-.063a43.248,43.248,0,0,1-12.478-5.7,1.96,1.96,0,0,0-1.172-.348,2.056,2.056,0,0,0-1.679.855,2.029,2.029,0,0,0,.507,2.819,47.884,47.884,0,0,0,13.745,6.3,5.2,5.2,0,0,1,2.47,1.805,7.786,7.786,0,0,1,.7,1.235,16.417,16.417,0,0,1,.855,5.384.788.788,0,0,0,0,.38,32.815,32.815,0,0,1-.317,4.656,44.486,44.486,0,0,1-9.026,3.642,16.283,16.283,0,0,1-.665,4.5,49.79,49.79,0,0,0,12.542-5.131,1.955,1.955,0,0,0,.792-.95,25.738,25.738,0,0,0,.728-6.778v-.443a22.736,22.736,0,0,0-.668-5.258" fill="#080909"/><path d="M58.532,15.773a15.271,15.271,0,0,0-7.284-13.65A16.487,16.487,0,0,0,43.14,0h-.253A16.421,16.421,0,0,0,34.779,2.06,15.293,15.293,0,0,0,27.4,15.774c-.127,1.077-1.077,12.257,4.719,18.813a14.012,14.012,0,0,0,3.2,2.623.115.115,0,0,1,.1.032,1.163,1.163,0,0,0,.475.253.439.439,0,0,0,.127.1,13.556,13.556,0,0,0,6.714,1.584h.475a13.826,13.826,0,0,0,10.61-4.592c5.79-6.557,4.84-17.737,4.713-18.814M50.773,31.894a9.862,9.862,0,0,1-7.759,3.2h-.158a9.754,9.754,0,0,1-7.728-3.2c-4.751-5.384-3.737-15.646-3.7-15.741v-.127C31.9,5.226,39.562,4.054,42.856,4.054h.19C47.1,4.154,54,5.828,54.479,16.026v.127c0,.095,1.076,10.325-3.706,15.741" fill="#008ed2"/><path d="M16.125,58.782v.38a25.207,25.207,0,0,0,.317,4.656,43.61,43.61,0,0,0,9,3.674,15.968,15.968,0,0,0,.665,4.434,46.96,46.96,0,0,1-12.478-5.067,1.955,1.955,0,0,1-.792-.95,23.4,23.4,0,0,1-.76-6.809v-.412a22.436,22.436,0,0,1,.633-5.257A12.3,12.3,0,0,1,13.75,50.8a8.82,8.82,0,0,1,5.159-4.308l.127-.032a43.9,43.9,0,0,0,12.51-5.7,2.01,2.01,0,0,1,1.964-.222,3.028,3.028,0,0,1,.538.317,4.118,4.118,0,0,1,.317.38,2.066,2.066,0,0,1-.475,2.85,47.154,47.154,0,0,1-13.777,6.271,5.158,5.158,0,0,0-2.439,1.8,6.188,6.188,0,0,0-.7,1.267,15.683,15.683,0,0,0-.849,5.352" fill="#008ed2"/><path d="M73.92,58.687v.443a25.738,25.738,0,0,1-.728,6.778,1.955,1.955,0,0,1-.792.95,49.79,49.79,0,0,1-12.542,5.131,16.283,16.283,0,0,0,.665-4.5,44.486,44.486,0,0,0,9.026-3.642,32.815,32.815,0,0,0,.317-4.656.788.788,0,0,1,0-.38,16.417,16.417,0,0,0-.855-5.384,7.831,7.831,0,0,0-.7-1.235,5.2,5.2,0,0,0-2.47-1.805,47.884,47.884,0,0,1-13.745-6.3,2.029,2.029,0,0,1-.507-2.819,2.056,2.056,0,0,1,1.679-.855,1.96,1.96,0,0,1,1.172.348,43.247,43.247,0,0,0,12.478,5.7l.158.063A8.72,8.72,0,0,1,72.207,50.8a10.833,10.833,0,0,1,1.045,2.629,22.735,22.735,0,0,1,.668,5.258" fill="#008ed2"/><path d="M14.734,36.322a6.858,6.858,0,0,1-5.261-2.284c-2.8-3.151-2.366-8.488-2.312-9.086a7.57,7.57,0,0,1,3.655-6.74A8.232,8.232,0,0,1,14.8,17.195h.12A8.246,8.246,0,0,1,18.91,18.24a7.551,7.551,0,0,1,3.617,6.7c.057.6.485,5.942-2.312,9.093a6.879,6.879,0,0,1-5.257,2.284h-.225Zm.07-16.4c-1.755,0-4.732.671-4.947,5.191v.095A10.763,10.763,0,0,0,11.5,32.236,4.213,4.213,0,0,0,14.817,33.6h.066A4.224,4.224,0,0,0,18.2,32.236a10.6,10.6,0,0,0,1.641-7v-.013a.73.73,0,0,1-.009-.114A4.725,4.725,0,0,0,15.6,19.935a4.781,4.781,0,0,0-.718-.017Z" fill="#141414"/><path d="M10.836,39.431l-.032.032A22.472,22.472,0,0,1,4.28,42.408c-1.235.475-1.52,1.71-1.584,3.579v.158a18.507,18.507,0,0,0,.1,1.868v.032l.063.032a25.344,25.344,0,0,0,6.9,2.312A23.039,23.039,0,0,0,8.9,53.018,27.84,27.84,0,0,1,.923,50.073a1.3,1.3,0,0,1-.538-.633A12.022,12.022,0,0,1,0,46.083v-.222c.032-1.33.158-4.909,3.452-6.049l.127-.032a19.886,19.886,0,0,0,5.669-2.565,1.464,1.464,0,0,1,.792-.253,1.382,1.382,0,0,1,1.108.57,1.364,1.364,0,0,1-.317,1.9" fill="#141414"/><path d="M25.753,39.748a27.677,27.677,0,0,1-3.42,1.552,21.462,21.462,0,0,1-3.452-1.869,1.5,1.5,0,0,1-.57-.887,1.422,1.422,0,0,1,.222-1.013,1.354,1.354,0,0,1,1.14-.57,1.325,1.325,0,0,1,.76.222,18.529,18.529,0,0,0,3.009,1.647c.284.126,1.266.538,2.311.918" fill="#141414"/><path d="M71.251,36.322a6.862,6.862,0,0,0,5.261-2.284c2.8-3.151,2.366-8.488,2.312-9.086a7.577,7.577,0,0,0-3.658-6.74,8.218,8.218,0,0,0-3.984-1.017h-.12a8.264,8.264,0,0,0-3.991,1.045,7.559,7.559,0,0,0-3.617,6.7c-.057.6-.485,5.942,2.312,9.093a6.87,6.87,0,0,0,5.261,2.284h.225Zm-.07-16.4c1.755,0,4.732.671,4.947,5.191a.2.2,0,0,0,0,.06v.035c.019.2.431,4.7-1.647,7.028A4.21,4.21,0,0,1,71.168,33.6H71.1a4.224,4.224,0,0,1-3.319-1.368,10.618,10.618,0,0,1-1.644-7v-.013a.482.482,0,0,0,.016-.114,4.725,4.725,0,0,1,4.229-5.174,4.781,4.781,0,0,1,.718-.017Z" fill="#141414"/><path d="M85.992,45.861v.222a12.026,12.026,0,0,1-.38,3.357,1.49,1.49,0,0,1-.538.633,28.035,28.035,0,0,1-8.013,2.945,14.9,14.9,0,0,0-.855-2.629,25.546,25.546,0,0,0,6.936-2.312l.032-.032v-.032a12.3,12.3,0,0,0,.127-1.868v-.158c-.063-1.869-.348-3.1-1.615-3.579a22.284,22.284,0,0,1-6.493-2.945l-.032-.032a1.364,1.364,0,0,1-.317-1.9,1.381,1.381,0,0,1,1.109-.57,1.284,1.284,0,0,1,.76.253,20.079,20.079,0,0,0,5.7,2.565l.1.032c3.32,1.141,3.447,4.719,3.479,6.05" fill="#141414"/><path d="M67.654,38.545a1.453,1.453,0,0,1-.538.887,22.852,22.852,0,0,1-3.452,1.9,28.236,28.236,0,0,1-3.452-1.584c1.077-.38,2.059-.792,2.344-.919a17.011,17.011,0,0,0,2.977-1.647,1.432,1.432,0,0,1,.792-.222,1.3,1.3,0,0,1,1.109.57,1.283,1.283,0,0,1,.22,1.015" fill="#141414"/><path d="M42.978,53.273a13.774,13.774,0,1,0,13.78,13.78,13.781,13.781,0,0,0-13.78-13.78m.01,24.23a10.454,10.454,0,0,1-10.46-10.45v-.01A10.455,10.455,0,1,1,42.988,77.5" fill="#008ed2"/><path d="M42.079,72.188a1.51,1.51,0,0,1-2.125,0L36,68.239a1.662,1.662,0,1,1,2.306-2.394c.015.014.03.029.044.044l2.664,2.663,6.6-6.6a1.662,1.662,0,1,1,2.394,2.306l-.044.044Z" fill="#008ed2"/></g></svg>