<svg xmlns="http://www.w3.org/2000/svg" width="207.362" height="207.484" viewBox="0 0 207.362 207.484"><g transform="translate(-1.41)" opacity="0.5"><g transform="matrix(0.966, -0.259, 0.259, 0.966, 0, 74.364)" opacity="0.3"><g transform="translate(0 0)"><path d="M95.456,19.71c-21-22.255-61.537-30.41-66.469,13.17-1.955,17.28-5.954,30.209-15.554,42.592-26.475,34.15,2.37,68.352,35.168,62.512,27.758-4.943,43.033-18.342,82.97-6.5,20.874,6.187,42.8,5.921,46.88-14.539,4.532-22.753-20.5-34.514-41.113-50.2C110.867,46.6,113.468,38.8,95.456,19.71Z" fill="#f5fbff"/></g></g><g transform="translate(7.04 79.941) rotate(-22)" opacity="0.3"><g transform="translate(0 0)"><path d="M61.052,121.85C35.895,112.827,3.667,82.254,1.68,40.935S33.83-7.947,53.2,11.033,90.371,34.807,110.619,34s44.794,13.359,42.58,41.984S116.259,141.652,61.052,121.85Z" fill="#f5fbff"/></g></g><g transform="translate(1.41)" opacity="0.5"><path d="M730.106,650l0,.762c8.291,0,15.533,3.43,21.524,10.191a45.351,45.351,0,0,1,9.17,16.637,66.584,66.584,0,0,1,2.16,21.31,93.553,93.553,0,0,1-5.844,28.184c-7.939,21.48-22.278,40.729-41.465,55.667A98.242,98.242,0,0,1,691.771,796.5a69.272,69.272,0,0,1-25.343,5.227c-17.877,0-29.036-10.451-36.181-33.887-6.5-21.308-22.721-28.8-39.9-36.722l-.5-.23c-8.547-3.945-15.2-9.735-18.721-16.3-3.677-6.85-3.721-13.9-.129-20.392,3.22-5.818,8.523-10.222,15.76-13.09,7.133-2.826,16.376-4.26,27.473-4.26,2.509,0,5.158.073,7.872.218,5.078.27,9.568.4,13.727.4,26.213,0,46.15-5.581,73.563-20.593,7.4-4.05,14.365-6.1,20.71-6.1V650Zm0,0c-6.052,0-13.072,1.788-21.16,6.217-29.09,15.93-48.728,20.48-73.116,20.48-4.379,0-8.908-.147-13.676-.4q-4.1-.218-7.923-.219c-22.253,0-37.265,5.608-44,17.774-7.739,13.983,1.663,29.6,19.223,37.711s33.506,15.29,39.965,36.475,16.861,34.449,37,34.449c16.8,0,35.1-7.725,49.787-19.159,20.307-15.809,34.179-35.616,41.714-56s6.93-38.686,3.7-49.923c-2.468-8.589-11.9-27.4-31.521-27.4Z" transform="translate(-567.5 -650)" fill="#fff" opacity="0.75"/><path d="M771.344,700l0,.762c7.434,0,13.93,3.077,19.3,9.143a40.734,40.734,0,0,1,8.237,14.945,59.86,59.86,0,0,1,1.942,19.157,84.136,84.136,0,0,1-5.256,25.345c-7.141,19.319-20.036,36.632-37.293,50.067a88.31,88.31,0,0,1-21.473,12.357,62.256,62.256,0,0,1-22.774,4.7c-16.044,0-26.061-9.389-32.48-30.442-5.857-19.209-20.475-25.955-35.951-33.1l-.449-.207c-7.676-3.543-13.647-8.742-16.811-14.638-3.3-6.143-3.338-12.466-.117-18.286,2.889-5.22,7.647-9.172,14.142-11.745,6.409-2.54,14.716-3.827,24.69-3.827,2.257,0,4.64.065,7.081.2,4.571.243,8.614.361,12.359.361,23.609,0,41.565-5.026,66.252-18.544,6.643-3.638,12.9-5.483,18.594-5.483V700Zm0,0c-5.448,0-11.764,1.609-19.044,5.6-26.181,14.337-43.856,18.432-65.8,18.432-3.941,0-8.017-.132-12.309-.36q-3.69-.2-7.131-.2c-20.027,0-33.538,5.047-39.6,16-6.965,12.584,1.5,26.644,17.3,33.939s30.155,13.761,35.969,32.828,15.174,31,33.3,31c15.123,0,31.592-6.953,44.809-17.243,18.275-14.228,30.76-32.054,37.543-50.4s6.237-34.817,3.33-44.931C797.5,716.932,789.01,700,771.347,700Z" transform="translate(-615.18 -692.376)" fill="#fff" opacity="0.75"/><path d="M812.584,750l0,.763c6.578,0,12.326,2.724,17.086,8.1a36.113,36.113,0,0,1,7.3,13.253,53.135,53.135,0,0,1,1.724,17,74.731,74.731,0,0,1-4.667,22.506,101.146,101.146,0,0,1-33.122,44.466c-12.358,9.621-26.671,15.139-39.269,15.139-14.211,0-23.087-8.326-28.779-27-5.217-17.11-18.228-23.115-32-29.473l-.4-.184c-6.8-3.141-12.1-7.748-14.9-12.973a16.213,16.213,0,0,1-.1-16.18c2.558-4.622,6.772-8.121,12.525-10.4,5.684-2.252,13.055-3.394,21.909-3.394,2,0,4.12.059,6.288.174,4.066.216,7.661.322,10.992.322,21.005,0,36.979-4.471,58.939-16.5,5.89-3.226,11.435-4.861,16.479-4.861V750Zm0,0c-4.842,0-10.458,1.43-16.928,4.974-23.272,12.744-38.982,16.384-58.493,16.384-3.5,0-7.127-.118-10.941-.32q-3.28-.175-6.339-.176c-17.8,0-29.812,4.487-35.2,14.22-6.191,11.186,1.33,23.684,15.379,30.168s26.8,12.232,31.972,29.18,13.488,27.559,29.6,27.559c13.444,0,28.082-6.18,39.831-15.327a101.982,101.982,0,0,0,33.371-44.8c6.028-16.309,5.544-30.949,2.96-39.939-1.975-6.871-9.517-21.92-25.216-21.921Z" transform="translate(-662.86 -734.751)" fill="#fff" opacity="0.75"/><path d="M853.823,800l0,.762c12.544,0,19.252,11.7,21.238,18.609,1.045,3.636,3.948,16.873-2.574,34.518a88.4,88.4,0,0,1-28.951,38.866c-10.794,8.4-23.292,13.223-34.29,13.223-12.378,0-20.113-7.264-25.079-23.552-4.577-15.012-15.983-20.276-28.058-25.849l-.35-.161c-5.934-2.739-10.547-6.755-12.991-11.308a14.1,14.1,0,0,1-.092-14.074,20.608,20.608,0,0,1,10.907-9.055c4.96-1.966,11.395-2.962,19.127-2.962,1.752,0,3.6.051,5.5.152,3.559.19,6.707.281,9.624.281,18.4,0,32.395-3.916,51.628-14.448,5.137-2.813,9.969-4.24,14.363-4.24V800Zm0,0c-4.236,0-9.15,1.252-14.812,4.352-20.363,11.151-34.11,14.336-51.182,14.336-3.065,0-6.235-.1-9.573-.28q-2.871-.153-5.547-.153c-15.577,0-26.085,3.926-30.8,12.442-5.417,9.788,1.164,20.723,13.457,26.4s23.454,10.7,27.976,25.532,11.8,24.114,25.9,24.114c11.763,0,24.572-5.408,34.851-13.411a89.235,89.235,0,0,0,29.2-39.2c5.275-14.271,4.851-27.08,2.59-34.946-1.727-6.012-8.327-19.18-22.065-19.181Z" transform="translate(-710.539 -777.127)" fill="#fff" opacity="0.75"/><path d="M895.063,850l0,.762c10.677,0,16.392,9.975,18.085,15.868.894,3.11,3.376,14.429-2.2,29.525a75.66,75.66,0,0,1-24.779,33.266c-9.23,7.187-19.914,11.308-29.312,11.308-10.546,0-17.139-6.2-21.378-20.107-3.937-12.914-13.737-17.436-24.112-22.224l-.3-.138c-5.063-2.337-9-5.761-11.081-9.643a11.994,11.994,0,0,1-.079-11.968,17.552,17.552,0,0,1,9.289-7.711c4.236-1.678,9.735-2.529,16.345-2.529,1.5,0,3.082.044,4.7.13,3.053.163,5.754.242,8.257.242,15.8,0,27.809-3.361,44.316-12.4a25.885,25.885,0,0,1,12.247-3.618V850Zm0,0c-3.631,0-7.843,1.073-12.7,3.73-17.454,9.558-29.237,12.288-43.87,12.288-2.627,0-5.345-.088-8.206-.24q-2.46-.131-4.754-.131c-13.351,0-22.359,3.365-26.4,10.665-4.644,8.39,1,17.763,11.534,22.626s20.1,9.174,23.978,21.885,10.117,20.669,22.2,20.669c10.082,0,21.061-4.635,29.873-11.5a76.484,76.484,0,0,0,25.029-33.6c4.521-12.232,4.158-23.212,2.22-29.954C912.5,861.288,906.84,850,895.065,850Z" transform="translate(-758.22 -819.503)" fill="#fff" opacity="0.75"/><path d="M936.3,900l0,.762c8.81,0,13.532,8.253,14.933,13.128.742,2.583,2.8,11.986-1.834,24.533A62.931,62.931,0,0,1,928.8,966.089c-7.666,5.968-16.535,9.391-24.333,9.391-8.713,0-14.165-5.139-17.678-16.662-3.3-10.815-11.49-14.6-20.165-18.6l-.249-.115c-8.821-4.071-12.706-11.574-9.239-17.84,3.152-5.694,10.1-8.463,21.234-8.463,1.246,0,2.562.036,3.911.108,2.547.136,4.8.2,6.889.2,13.194,0,23.223-2.806,37-10.352a21.423,21.423,0,0,1,10.132-3V900Zm0,0a22.138,22.138,0,0,0-10.58,3.109c-14.545,7.965-24.364,10.24-36.558,10.24-2.19,0-4.454-.073-6.839-.2q-2.05-.109-3.962-.109c-11.126,0-18.632,2.8-22,8.887-3.87,6.992.832,14.8,9.612,18.855s16.753,7.645,19.982,18.237,8.43,17.225,18.5,17.225c8.4,0,17.551-3.863,24.894-9.58a63.736,63.736,0,0,0,20.857-28c3.767-10.193,3.465-19.343,1.85-24.961-1.234-4.294-5.948-13.7-15.76-13.7Z" transform="translate(-805.899 -861.878)" fill="#fff" opacity="0.75"/><path d="M977.542,950v.762c8.7,0,11.66,9.964,11.781,10.388.591,2.056,2.232,9.542-1.464,19.54a50.191,50.191,0,0,1-16.437,22.065c-6.1,4.751-13.156,7.476-19.354,7.476-6.88,0-11.191-4.076-13.978-13.218-2.658-8.717-9.245-11.756-16.218-14.975l-.2-.092c-6.97-3.218-10.047-9.134-7.316-14.069,2.49-4.5,8-6.685,16.834-6.685.993,0,2.043.029,3.118.086,2.042.109,3.848.162,5.521.162,10.591,0,18.638-2.251,29.693-8.3a16.958,16.958,0,0,1,8.016-2.374V950Zm0,0a17.711,17.711,0,0,0-8.464,2.487c-11.636,6.372-19.491,8.192-29.246,8.192-1.752,0-3.563-.059-5.471-.16q-1.64-.088-3.169-.088c-8.9,0-14.906,2.243-17.6,7.109-3.1,5.593.666,11.842,7.689,15.084s13.4,6.116,15.986,14.59,6.744,13.78,14.8,13.78c6.722,0,14.041-3.09,19.915-7.663a50.993,50.993,0,0,0,16.686-22.4c3.014-8.154,2.772-15.474,1.48-19.969-.987-3.435-4.758-10.96-12.608-10.961Z" transform="translate(-853.58 -904.254)" fill="#fff" opacity="0.75"/></g></g></svg>