<svg xmlns="http://www.w3.org/2000/svg" width="40" height="40" viewBox="0 0 40 40"><g transform="translate(14359 3154)"><rect width="40" height="40" transform="translate(-14359 -3154)" fill="none"/><g transform="translate(-8269.286 1473.078)"><path d="M-54.609-40.812a.876.876,0,0,1-.871-.879v-4.5a.872.872,0,0,1,.871-.871h3.169a.466.466,0,0,1,.466.466.47.47,0,0,1-.466.473h-3.1v4.37h4.37V-44.49l-1.763,1.763a.473.473,0,0,1-.339.134.47.47,0,0,1-.332-.134l-1.322-1.321a.48.48,0,0,1,0-.664.475.475,0,0,1,.335-.14.452.452,0,0,1,.332.143l.987.987,2.222-2.222a.417.417,0,0,1,.306-.119.539.539,0,0,1,.216.033.5.5,0,0,1,.156.109.664.664,0,0,1,.08.122.458.458,0,0,1,.053.21v3.9a.876.876,0,0,1-.871.879Z" transform="translate(-6028.234 -4571.94)" fill="#1b1b1b"/><path d="M-44.177-45.587a.47.47,0,0,1-.469-.469.47.47,0,0,1,.469-.469H-30.8a.47.47,0,0,1,.469.469.47.47,0,0,1-.469.469Z" transform="translate(-6030.932 -4572.073)" fill="#1b1b1b"/><path d="M-44.177-42.588a.47.47,0,0,1-.469-.469.47.47,0,0,1,.469-.469h18.161a.47.47,0,0,1,.469.469.47.47,0,0,1-.469.469Z" transform="translate(-6030.932 -4572.82)" fill="#1b1b1b"/><path d="M-44.177-39.59a.47.47,0,0,1-.469-.469.47.47,0,0,1,.469-.469h8.124a.47.47,0,0,1,.469.469.47.47,0,0,1-.469.469Z" transform="translate(-6030.932 -4573.566)" fill="#1b1b1b"/><path d="M-54.609-28.7a.872.872,0,0,1-.871-.871v-4.506a.872.872,0,0,1,.871-.871h3.169a.47.47,0,0,1,.466.473.466.466,0,0,1-.466.466h-3.1v4.37h4.37V-32.38l-1.763,1.764a.477.477,0,0,1-.339.134.47.47,0,0,1-.331-.134l-1.322-1.322a.48.48,0,0,1,0-.664.475.475,0,0,1,.335-.14.452.452,0,0,1,.332.143l.987.987,2.222-2.215a.448.448,0,0,1,.328-.14.473.473,0,0,1,.334.14.485.485,0,0,1,.1.155.371.371,0,0,1,.048.191v3.9a.872.872,0,0,1-.871.871Z" transform="translate(-6028.234 -4574.956)" fill="#1b1b1b"/><path d="M-44.177-33.475a.47.47,0,0,1-.469-.469.47.47,0,0,1,.469-.469H-30.8a.47.47,0,0,1,.469.469.47.47,0,0,1-.469.469Z" transform="translate(-6030.932 -4575.089)" fill="#1b1b1b"/><path d="M-44.177-30.476a.47.47,0,0,1-.469-.469.47.47,0,0,1,.469-.469h18.161a.47.47,0,0,1,.469.469.47.47,0,0,1-.469.469Z" transform="translate(-6030.932 -4575.837)" fill="#1b1b1b"/><path d="M-44.177-27.478a.47.47,0,0,1-.469-.469.47.47,0,0,1,.469-.469h8.124a.47.47,0,0,1,.469.469.47.47,0,0,1-.469.469Z" transform="translate(-6030.932 -4576.583)" fill="#1b1b1b"/><path d="M-54.609-16.592a.873.873,0,0,1-.871-.871v-4.5a.876.876,0,0,1,.871-.879h3.169a.47.47,0,0,1,.466.473.466.466,0,0,1-.466.466h-3.1v4.37h4.37V-20.27l-1.763,1.764a.48.48,0,0,1-.339.141.475.475,0,0,1-.332-.142l-1.322-1.321a.479.479,0,0,1,0-.66.471.471,0,0,1,.338-.143.451.451,0,0,1,.332.143l.987.987,2.222-2.215a.448.448,0,0,1,.328-.14.473.473,0,0,1,.334.14.485.485,0,0,1,.1.155.375.375,0,0,1,.048.191v3.9a.872.872,0,0,1-.871.871Z" transform="translate(-6028.234 -4577.972)" fill="#1b1b1b"/><path d="M-44.177-21.362a.47.47,0,0,1-.469-.469.47.47,0,0,1,.469-.469H-30.8a.47.47,0,0,1,.469.469.47.47,0,0,1-.469.469Z" transform="translate(-6030.932 -4578.107)" fill="#1b1b1b"/><path d="M-44.177-18.364a.47.47,0,0,1-.469-.469.47.47,0,0,1,.469-.469h18.161a.47.47,0,0,1,.469.469.47.47,0,0,1-.469.469Z" transform="translate(-6030.932 -4578.853)" fill="#1b1b1b"/><path d="M-44.177-15.365a.47.47,0,0,1-.469-.469.47.47,0,0,1,.469-.469h8.124a.47.47,0,0,1,.469.469.47.47,0,0,1-.469.469Z" transform="translate(-6030.932 -4579.6)" fill="#1b1b1b"/></g></g></svg>