<svg xmlns="http://www.w3.org/2000/svg" width="191.586" height="89.002" viewBox="0 0 191.586 89.002"><g transform="translate(-7.104 0.034)"><path d="M2700.92-388.41l-.46-.318a.152.152,0,0,0-.03,0l-20.1-14c-.046-.034-.092-.068-.139-.1l-.193-.133a6.515,6.515,0,0,0-3.588-1.152c-4.815.016-16.734-.034-16.734-.034s-3.312.438-4.937,2.406a7.112,7.112,0,0,0-1.98,4.781c-.295,2.146,0,2.141,0,2.141l-7.293-6.44-5.781-2.818s-10.526,0-18.6,0a5.723,5.723,0,0,0-2.229.47,7.256,7.256,0,0,0-4.691,6.338c-.01.078.039,30.672.039,30.672a7.3,7.3,0,0,0,1.545,4.164,5.951,5.951,0,0,0,3.229,2.336l10.092,8.2v5.221l3.764,5.525,10.516,7.82,5.211,3.637,20.595,14.557h136.6l-9.427-6.8Z" transform="translate(-2607.061 404.11)" fill="#1b1b1b" opacity="0.3" style="mix-blend-mode:multiply;isolation:isolate"/><g transform="translate(7.115)"><g transform="translate(0)"><path d="M25.223,44.51H7.418A7.427,7.427,0,0,1,0,37.092V7.418A7.427,7.427,0,0,1,7.418,0h17.8a7.427,7.427,0,0,1,7.419,7.418V37.092A7.427,7.427,0,0,1,25.223,44.51ZM7.418,2.967A4.457,4.457,0,0,0,2.967,7.418V37.092a4.457,4.457,0,0,0,4.451,4.451h17.8a4.457,4.457,0,0,0,4.451-4.451V7.418a4.457,4.457,0,0,0-4.451-4.451Z" transform="translate(0)" fill="#fff"/></g><g transform="translate(38.576)"><path d="M302.556,44.51h-17.8a7.427,7.427,0,0,1-7.418-7.418V7.418A7.427,7.427,0,0,1,284.751,0h17.8a7.427,7.427,0,0,1,7.418,7.418V37.092A7.427,7.427,0,0,1,302.556,44.51Zm-17.8-41.543A4.456,4.456,0,0,0,280.3,7.418V37.092a4.456,4.456,0,0,0,4.451,4.451h17.8a4.457,4.457,0,0,0,4.451-4.451V7.418a4.457,4.457,0,0,0-4.451-4.451Z" transform="translate(-277.333)" fill="#fff"/></g><g transform="translate(14.837 43.027)"><path d="M120.02,330.1h-5.935a7.427,7.427,0,0,1-7.418-7.418V309.333h2.967v13.353a4.457,4.457,0,0,0,4.451,4.451h5.935Z" transform="translate(-106.667 -309.333)" fill="#fff"/></g><g transform="translate(43.027 43.027)"><path d="M315.268,330.1h-5.935v-2.967h5.935a4.456,4.456,0,0,0,4.451-4.451V309.333h2.967v13.353A7.427,7.427,0,0,1,315.268,330.1Z" transform="translate(-309.333 -309.333)" fill="#fff"/></g><g transform="translate(8.902 8.902)"><path d="M77.353,66.967H65.484a1.484,1.484,0,1,1,0-2.967H77.353a1.484,1.484,0,1,1,0,2.967Z" transform="translate(-64 -64)" fill="#fff"/><g transform="translate(0 11.869)"><path d="M77.353,152.3H65.484a1.484,1.484,0,1,1,0-2.967H77.353a1.484,1.484,0,1,1,0,2.967Z" transform="translate(-64 -149.333)" fill="#fff"/></g><g transform="translate(0 23.739)"><path d="M77.353,237.634H65.484a1.484,1.484,0,1,1,0-2.967H77.353a1.484,1.484,0,1,1,0,2.967Z" transform="translate(-64 -234.667)" fill="#fff"/></g><g transform="translate(38.576)"><path d="M354.686,66.967H342.817a1.484,1.484,0,1,1,0-2.967h11.869a1.484,1.484,0,1,1,0,2.967Z" transform="translate(-341.333 -64)" fill="#fff"/></g><g transform="translate(38.576 11.869)"><path d="M354.686,152.3H342.817a1.484,1.484,0,0,1,0-2.967h11.869a1.484,1.484,0,1,1,0,2.967Z" transform="translate(-341.333 -149.333)" fill="#fff"/></g><g transform="translate(38.576 23.739)"><path d="M354.686,237.634H342.817a1.484,1.484,0,1,1,0-2.967h11.869a1.484,1.484,0,1,1,0,2.967Z" transform="translate(-341.333 -234.667)" fill="#fff"/></g><g transform="translate(17.805 44.51)"><path d="M205.353,401.8h-8.9A4.457,4.457,0,0,1,192,397.353v-8.9A4.456,4.456,0,0,1,196.451,384h8.9a4.456,4.456,0,0,1,4.451,4.451v8.9A4.457,4.457,0,0,1,205.353,401.8Zm-8.9-14.837a1.486,1.486,0,0,0-1.484,1.484v8.9a1.486,1.486,0,0,0,1.484,1.484h8.9a1.486,1.486,0,0,0,1.484-1.484v-8.9a1.486,1.486,0,0,0-1.484-1.484Z" transform="translate(-192 -384)" fill="#fff"/></g></g></g></g></svg>