<svg xmlns="http://www.w3.org/2000/svg" width="21.061" height="15.205" viewBox="0 0 21.061 15.205">
    <path d="M37.427,43.118a10.145,10.145,0,0,0-5.712-5.081,11.372,11.372,0,0,0-2.768-.666H27.406v4.766a.467.467,0,0,1-.771.35l-7.429-6.2a.561.561,0,0,1,0-.876l7.429-6.062a.5.5,0,0,1,.771.35v4.8h1.542a11.84,11.84,0,0,0,2.768-.666,10.384,10.384,0,0,0,5.712-5.081.7.7,0,0,1,.911-.35l1.332.561a.633.633,0,0,1,.28.946,13.357,13.357,0,0,1-5.677,6.027A13.09,13.09,0,0,1,39.95,42c.175.385.14.771-.28.946l-1.332.561A.711.711,0,0,1,37.427,43.118Z" transform="translate(-18.996 -28.347)" fill="#fff"/>
</svg>