<svg xmlns="http://www.w3.org/2000/svg" width="21.508" height="21.508" viewBox="0 0 21.508 21.508">
    <path d="M9.435,21.508A1.56,1.56,0,0,1,7.887,19.96v-.642H6.811a2.438,2.438,0,0,1-2.43-2.43V13.622H2.429A2.437,2.437,0,0,1,0,11.195V2.43A2.437,2.437,0,0,1,2.429,0H7.687a2.437,2.437,0,0,1,2.429,2.43v8.764a2.437,2.437,0,0,1-2.429,2.427H5.734v3.266A1.081,1.081,0,0,0,6.807,17.96h1.08v-.637a1.561,1.561,0,0,1,1.547-1.549h2.63a1.562,1.562,0,0,1,1.549,1.548v.644H14.69a1.081,1.081,0,0,0,1.072-1.073V13.622h-1.94a2.436,2.436,0,0,1-2.429-2.429V2.43A2.437,2.437,0,0,1,13.822,0h5.257a2.436,2.436,0,0,1,2.429,2.43v8.764a2.436,2.436,0,0,1-2.429,2.427H17.114v3.272a2.438,2.438,0,0,1-2.423,2.424H13.613v.634a1.559,1.559,0,0,1-1.542,1.556H9.435Zm0-4.382a.2.2,0,0,0-.2.2v2.629a.2.2,0,0,0,.2.2h2.629a.2.2,0,0,0,.2-.2V17.323a.2.2,0,0,0-.2-.2ZM13.823,1.354A1.08,1.08,0,0,0,12.75,2.427v8.768a1.081,1.081,0,0,0,1.073,1.072h5.256a1.081,1.081,0,0,0,1.072-1.073V2.43a1.08,1.08,0,0,0-1.073-1.072Zm-11.392,0A1.08,1.08,0,0,0,1.359,2.427v8.768A1.08,1.08,0,0,0,2.43,12.266H7.687a1.081,1.081,0,0,0,1.072-1.073V2.43A1.08,1.08,0,0,0,7.685,1.359Z" fill="#fff"/>
    <path d="M2.883,3.562a.677.677,0,0,1,0-1.354h3.5a.677.677,0,1,1,0,1.354Z" transform="translate(0.421 1.033)" fill="#fff"/>
    <path d="M2.881,6.5a.678.678,0,0,1-.676-.673.675.675,0,0,1,.674-.68H6.388a.681.681,0,0,1,.68.673.677.677,0,0,1-.674.68Z" transform="translate(0.421 0.982)" fill="#fff"/>
    <path d="M2.881,9.445a.678.678,0,0,1-.676-.673.677.677,0,0,1,.673-.68h3.51a.676.676,0,1,1,.006,1.353Z" transform="translate(0.421 0.932)" fill="#fff"/>
    <path d="M12.447,3.562a.677.677,0,0,1,0-1.354h3.506a.677.677,0,1,1,0,1.354Z" transform="translate(2.246 0.786)" fill="#fff"/>
    <path d="M12.447,6.5a.675.675,0,0,1-.478-.2.667.667,0,0,1-.2-.48.677.677,0,0,1,.673-.673h3.507a.681.681,0,0,1,.68.673.677.677,0,0,1-.675.68Z" transform="translate(2.246 0.982)" fill="#fff"/>
    <path d="M12.445,9.445a.677.677,0,0,1-.675-.673.677.677,0,0,1,.673-.68h3.51a.676.676,0,1,1,0,1.353Z" transform="translate(2.246 1.178)" fill="#fff"/>
</svg>