<svg xmlns="http://www.w3.org/2000/svg" width="40" height="40" viewBox="0 0 40 40"><g transform="translate(14404 3066)"><rect width="40" height="40" transform="translate(-14404 -3066)" fill="none"/><g transform="translate(-8312 1456)"><path d="M234.443,259.986a1.725,1.725,0,0,0,.185-2.431,1.492,1.492,0,0,0-.185-.185,1.725,1.725,0,0,0,.185-2.431,1.484,1.484,0,0,0-.185-.185A1.739,1.739,0,0,0,233.3,251.7h-1.744a1.747,1.747,0,0,0-1.744,1.733,1.7,1.7,0,0,0,.61,1.319,1.727,1.727,0,0,0-.2,2.431,1.575,1.575,0,0,0,.2.185,1.727,1.727,0,0,0-.2,2.431,1.582,1.582,0,0,0,.2.185,1.742,1.742,0,0,0-.185,2.453,1.764,1.764,0,0,0,1.319.6H233.3a1.74,1.74,0,0,0,1.744-1.733A1.764,1.764,0,0,0,234.443,259.986Zm-1.145,2.18h-1.744a.872.872,0,1,1,0-1.744H233.3a.872.872,0,0,1,0,1.744Zm0-2.617h-1.744a.872.872,0,1,1,0-1.744H233.3a.872.872,0,1,1,0,1.744Zm0-2.616h-1.744a.872.872,0,0,1,0-1.744H233.3a.872.872,0,0,1,0,1.744Zm0-2.617h-1.744a.872.872,0,1,1,0-1.744H233.3a.872.872,0,0,1,0,1.744Z" transform="translate(-6298.25 -4758.851)" fill="#1b1b1b"/><path d="M233,262.858v.436a.437.437,0,0,1-.436.436H222.1a.437.437,0,0,1-.436-.436v-5.233h2.18a2.18,2.18,0,0,0,0-4.361H220.79a2.187,2.187,0,0,0-2.18,2.18v1.788l.872,9.136V269.4a.437.437,0,0,0,.436.436h9.594a.437.437,0,0,0,.436-.436v-2.475l1.624-2.322h.992a1.312,1.312,0,0,0,1.308-1.308v-.436Zm-3.925,6.105h-8.722v-1.744h8.722Zm.218-2.617h-8.972l-.839-8.722V255.88a1.319,1.319,0,0,1,1.308-1.308h3.053a1.308,1.308,0,0,1,0,2.616h-2.617a.437.437,0,0,0-.436.436v5.669A1.319,1.319,0,0,0,222.1,264.6h8.416Z" transform="translate(-6299.26 -4758.67)" fill="#1b1b1b"/><rect width="0.872" height="0.872" transform="translate(-6078.469 -4505.842)" fill="#1b1b1b"/><rect width="0.872" height="0.872" transform="translate(-6066.26 -4508.023)" fill="#1b1b1b"/><path d="M232.384,244.5H221.918a1.326,1.326,0,0,0-1.308,1.308v1.744h.872v-1.744a.437.437,0,0,1,.436-.436h.97l.185.752a1.316,1.316,0,0,0,1.276.992h5.615a1.3,1.3,0,0,0,1.265-.992l.2-.752h.959a.437.437,0,0,1,.436.436v.436h.872v-.436A1.319,1.319,0,0,0,232.384,244.5Zm-2,1.417a.442.442,0,0,1-.425.327h-5.615a.424.424,0,0,1-.425-.327l-.131-.545h6.727Z" transform="translate(-6299.08 -4759.5)" fill="#1b1b1b"/><path d="M216.215,248.9h.872v.871h-.872Z" transform="translate(-6299.477 -4759.103)" fill="#1b1b1b"/><path d="M216.215,250.5h6.1v.872h-6.1Z" transform="translate(-6299.477 -4758.958)" fill="#1b1b1b"/><path d="M232.213,248.1h1.744v.872h-1.744Z" transform="translate(-6298.033 -4759.175)" fill="#1b1b1b"/><g transform="translate(-6085 -4513.256)"><path d="M223.814,261.3h6.1v.872h-6.1Z" transform="translate(-213.791 -244.729)" fill="#1b1b1b"/><path d="M222.214,261.3h.872v.872h-.872Z" transform="translate(-213.935 -244.729)" fill="#1b1b1b"/><path d="M238.9,246.1h-7.849a.437.437,0,0,0-.436.436V250.9a.426.426,0,0,0,.382.425.1.1,0,0,0,.054.011H238.9a.437.437,0,0,0,.436-.436v-4.361A.437.437,0,0,0,238.9,246.1Zm-.436,4.361h-6.977v-3.489h6.977Z" transform="translate(-213.178 -246.1)" fill="#1b1b1b"/><path d="M223.767,247.3h-8.711a.43.43,0,0,0-.436.436v5.233a.43.43,0,0,0,.436.436h8.711a.437.437,0,0,0,.436-.436v-5.233A.437.437,0,0,0,223.767,247.3Zm-.436,5.233h-7.839v-4.361h7.839Z" transform="translate(-214.62 -245.991)" fill="#1b1b1b"/><path d="M217.815,248.9h4.36v.871h-4.36Z" transform="translate(-214.332 -245.847)" fill="#1b1b1b"/><path d="M234.613,248.1h2.615v.872h-2.615Z" transform="translate(-212.817 -245.919)" fill="#1b1b1b"/></g></g></g></svg>