<svg xmlns="http://www.w3.org/2000/svg" width="40" height="40" viewBox="0 0 40 40"><g transform="translate(14359 3022)"><rect width="40" height="40" transform="translate(-14359 -3022)" fill="none"/><g transform="translate(-8266.715 1393)"><g transform="translate(-6084.286 -4407)"><path d="M274.053,347.131l-4.646-4.646a.453.453,0,0,0-.342-.145H256.1a1.455,1.455,0,0,0-1.449,1.459v21.866a1.455,1.455,0,0,0,1.449,1.459h3.2v-.973h-3.2a.486.486,0,0,1-.486-.486V343.8a.486.486,0,0,1,.486-.486h12.49v3.2a1.446,1.446,0,0,0,1.449,1.449h3.187v5.95a.486.486,0,1,0,.973,0v-6.437A.487.487,0,0,0,274.053,347.131Zm-4.015-.145a.484.484,0,0,1-.486-.476V344l2.991,2.991Z" transform="translate(-254.65 -342.34)" fill="#1b1b1b"/></g><g transform="translate(-6073.637 -4390.297)"><path d="M268.521,358.48h-3.1a.481.481,0,0,0-.476.476v7.606H269v-7.606A.475.475,0,0,0,268.521,358.48Zm-.486,7.109H265.9v-6.147h2.132Z" transform="translate(-264.94 -358.48)" fill="#1b1b1b"/></g><path d="M278.24,352.11h-3.094a.484.484,0,0,0-.486.476v2.442a.486.486,0,0,0,.973,0v-1.956h2.132v12.739h-2.132V358.66a.486.486,0,0,0-.973,0v8.123h3.581a.486.486,0,0,0,.486-.486V352.586A.484.484,0,0,0,278.24,352.11Z" transform="translate(-6338.239 -4749)" fill="#1b1b1b"/><g transform="translate(-6068.608 -4393.692)"><path d="M273.381,355.2h-3.094a.486.486,0,0,0-.486.486v10.99h4.067v-10.99A.486.486,0,0,0,273.381,355.2Zm-.486,10.5h-2.121v-9.531h2.121Z" transform="translate(-269.8 -355.2)" fill="#1b1b1b"/></g><g transform="translate(-6078.677 -4387.524)"><path d="M263.651,361.16h-3.094a.486.486,0,0,0-.486.486v4.822h4.067v-4.822A.486.486,0,0,0,263.651,361.16Zm-.476,4.336h-2.132v-3.363h2.132Z" transform="translate(-260.07 -361.16)" fill="#1b1b1b"/></g><path d="M275.147,357.1a.484.484,0,1,0-.343-.142A.488.488,0,0,0,275.147,357.1Z" transform="translate(-6338.239 -4748.859)" fill="#1b1b1b"/><path d="M261.607,344.9a.484.484,0,0,0-.484.484v.87a4.451,4.451,0,1,0,4.908,4.908h.87a.483.483,0,0,0,.484-.483A5.786,5.786,0,0,0,261.607,344.9Zm0,9.262a3.483,3.483,0,0,1-.484-6.931v3.449a.483.483,0,0,0,.484.483h3.449A3.487,3.487,0,0,1,261.607,354.165Zm.483-3.966v-4.3a4.821,4.821,0,0,1,4.3,4.3Z" transform="translate(-6338.848 -4749.25)" fill="#1b1b1b"/><path d="M267.385,356.587a.483.483,0,0,0-.484-.483h-9.242a.484.484,0,1,0,0,.968H266.9A.484.484,0,0,0,267.385,356.587Z" transform="translate(-6338.848 -4748.86)" fill="#1b1b1b"/><path d="M257.658,358.36a.484.484,0,1,0,0,.968h3.1a.484.484,0,0,0,0-.968Z" transform="translate(-6338.848 -4748.782)" fill="#1b1b1b"/><path d="M262.651,358.5a.483.483,0,1,0,.343-.142A.488.488,0,0,0,262.651,358.5Z" transform="translate(-6338.662 -4748.782)" fill="#1b1b1b"/></g></g></svg>