<svg xmlns="http://www.w3.org/2000/svg" width="120.012" height="103.146" viewBox="0 0 120.012 103.146"><g transform="translate(-388.138 -544)"><g transform="translate(-1869.709 2146.129)"><path d="M2367.7-1481.3a2.394,2.394,0,0,0-2.542-1.717q-4.66-.17-9.272-.793c-1.912-.254-3.813-.567-5.752-.86a31.641,31.641,0,0,0-8.819-38.776,31.464,31.464,0,0,0-37.365-1.069,30.814,30.814,0,0,0-11.844,15.781,31.12,31.12,0,0,0,1.618,24c-.3.072-.537.138-.773.177a106.743,106.743,0,0,1-14.189,1.535,2.454,2.454,0,0,0-2.6,1.653c-.364,1.079-.037,1.922,1.094,2.867q3.289,2.738,6.572,5.486c-.091.263-.155.468-.229.665-1.187,3.188-2.392,6.368-3.557,9.563a2.365,2.365,0,0,0,2.69,3.286,115.586,115.586,0,0,0,11.46-2.261,106.241,106.241,0,0,0,18.835-6.742,31.123,31.123,0,0,0,17.813.005,105.837,105.837,0,0,0,12.477,4.909,106.5,106.5,0,0,0,17.911,4.1,2.355,2.355,0,0,0,2.6-3.234c-.167-.493-.362-.976-.544-1.463l-3.291-8.819c2.224-1.853,4.409-3.685,6.612-5.5A2.473,2.473,0,0,0,2367.7-1481.3Zm-84.307,18.522c1.195-3.192,2.357-6.3,3.535-9.442a62.751,62.751,0,0,0,7.5-1.446c1.35-.355,1.89-1.589,1.119-2.562a1.668,1.668,0,0,0-1.919-.493,56.46,56.46,0,0,1-6.942,1.357c-.212.03-.426.037-.673.057-1.781-1.486-3.569-2.976-5.537-4.614a116.841,116.841,0,0,0,14.906-1.9,31.985,31.985,0,0,0,13.45,11.738A103.7,103.7,0,0,1,2283.393-1462.78Zm38.446-7.562a28.418,28.418,0,0,1-28.253-28.386,28.328,28.328,0,0,1,28.425-28.27,28.341,28.341,0,0,1,28.25,28.356A28.381,28.381,0,0,1,2321.839-1470.342Zm35.99-4.959a53.862,53.862,0,0,1-7.563-1.4c-1.1-.281-1.816,0-2.175.82a1.554,1.554,0,0,0,1.187,2.177,56.361,56.361,0,0,0,6.673,1.34c.3.039.6.091.963.148q1.755,4.67,3.515,9.366a99.535,99.535,0,0,1-25.378-7.228,34.213,34.213,0,0,0,7.535-4.917,32.647,32.647,0,0,0,5.873-6.821,113.95,113.95,0,0,0,14.921,1.882C2361.434-1478.309,2359.653-1476.824,2357.83-1475.3Z" transform="translate(-4.005 -48.22)" fill="#009fe3"/><path d="M2620.282-1406.723a2.168,2.168,0,0,1-2.127,1.108c-2.391-.049-4.784.005-7.175-.026a1.571,1.571,0,0,1-1.5-2.337,1.549,1.549,0,0,1,1.45-.8c2.546.009,5.091.02,7.636-.007a1.82,1.82,0,0,1,1.722,1.138Z" transform="translate(-255.15 -139.688)" fill="#1b1b1b"/><path d="M2459.076-1588.622c0,1.227.017,2.455-.005,3.682-.021,1.164-.648,1.847-1.616,1.823-.932-.023-1.524-.686-1.533-1.812q-.029-3.682,0-7.364c.009-1.147.671-1.864,1.614-1.836.912.028,1.515.718,1.535,1.824C2459.093-1591.078,2459.076-1589.849,2459.076-1588.622Z" transform="translate(-139.577)" fill="#1b1b1b"/><path d="M2573.077-1538.422a1.9,1.9,0,0,1-.582,1.22c-1.8,1.8-3.594,3.61-5.408,5.4a1.556,1.556,0,0,1-2.357.074,1.531,1.531,0,0,1,.14-2.287c1.812-1.833,3.643-3.648,5.462-5.475a1.559,1.559,0,0,1,1.778-.374A1.556,1.556,0,0,1,2573.077-1538.422Z" transform="translate(-221.253 -40.799)" fill="#1b1b1b"/><path d="M2276.332-1408.76c1.228,0,2.455-.013,3.682,0a1.588,1.588,0,0,1,1.713,1.537,1.6,1.6,0,0,1-1.676,1.593q-3.82.036-7.641,0a1.588,1.588,0,0,1-1.7-1.558,1.567,1.567,0,0,1,1.757-1.575C2273.755-1408.772,2275.043-1408.761,2276.332-1408.76Z" transform="translate(0 -139.702)" fill="#1b1b1b"/><path d="M2333.692-1532.726a1.589,1.589,0,0,1-.986,1.433,1.508,1.508,0,0,1-1.763-.4c-1.549-1.535-3.086-3.082-4.628-4.625-.3-.3-.628-.591-.9-.92a1.558,1.558,0,0,1,.074-2.163,1.5,1.5,0,0,1,2.154-.009c1.891,1.845,3.744,3.728,5.611,5.6A1.7,1.7,0,0,1,2333.692-1532.726Z" transform="translate(-40.927 -40.9)" fill="#1b1b1b"/><path d="M2392.42-1568.46c-.122.936-.46,1.47-1.206,1.68a1.362,1.362,0,0,1-1.724-.7c-.736-1.578-1.406-3.191-2.008-4.825a1.387,1.387,0,0,1,.764-1.7,1.285,1.285,0,0,1,1.764.224C2391.184-1572.119,2391.644-1570.123,2392.42-1568.46Z" transform="translate(-87.946 -14.983)" fill="#1b1b1b"/><path d="M2522.166-1572.443a6.46,6.46,0,0,1-.193.628c-.554,1.359-1.1,2.721-1.682,4.07a1.55,1.55,0,0,1-2.138,1,1.565,1.565,0,0,1-.781-2.157q.849-2.13,1.771-4.23a1.458,1.458,0,0,1,1.793-.923A1.583,1.583,0,0,1,2522.166-1572.443Z" transform="translate(-185.784 -15.087)" fill="#1b1b1b"/><path d="M2611.036-1475.719a1.471,1.471,0,0,1-.927,1.46c-1.457.636-2.923,1.253-4.4,1.827a1.533,1.533,0,0,1-2.007-.805,1.531,1.531,0,0,1,.808-2.072c1.451-.645,2.916-1.267,4.4-1.826A1.521,1.521,0,0,1,2611.036-1475.719Z" transform="translate(-250.853 -88.085)" fill="#1b1b1b"/><path d="M2292.375-1477.394a6.768,6.768,0,0,1,.733.215c1.328.54,2.657,1.08,3.975,1.646a1.606,1.606,0,0,1,1.031,2.14,1.6,1.6,0,0,1-2.236.764c-1.388-.555-2.775-1.116-4.144-1.717a1.494,1.494,0,0,1-.929-1.8A1.575,1.575,0,0,1,2292.375-1477.394Z" transform="translate(-15.112 -87.979)" fill="#1b1b1b"/><path d="M2418.368-1479.778c-.253-.836-.952-.99-1.693-1.1q-3.62-.524-7.238-1.062c-1.749-.258-3.5-.52-5.232-.779-1.889-3.888-3.755-7.717-5.606-11.552a1.628,1.628,0,0,0-1.493-1.13,1.638,1.638,0,0,0-1.479,1.15c-.767,1.626-1.561,3.239-2.349,4.856q-1.631,3.35-3.261,6.678c-.256.042-.445.078-.636.106-4.028.6-8.057,1.2-12.09,1.782a1.53,1.53,0,0,0-1.435,1.063,1.542,1.542,0,0,0,.594,1.615q2.857,2.8,5.684,5.621c1.175,1.17,2.331,2.36,3.5,3.548q-1.064,6.24-2.125,12.462c-.122.721-.251,1.459.454,1.982s1.355.227,2.015-.127c3.706-1.987,7.417-3.96,11.145-5.948q5.619,3,11.209,5.988a1.679,1.679,0,0,0,1.871.127c.7-.465.658-1.163.538-1.868-.24-1.422-.5-2.839-.736-4.26-.474-2.812-.943-5.626-1.423-8.487.173-.149.351-.285.509-.44q4.23-4.184,8.464-8.373C2418.079-1478.434,2418.624-1478.935,2418.368-1479.778Zm-5.079,2.076q-3.45,3.437-6.925,6.852a1.962,1.962,0,0,0-.637,1.929c.592,3.245,1.117,6.5,1.665,9.752.036.216.04.436.076.836-.729-.378-1.315-.674-1.9-.983-2.467-1.317-4.938-2.621-7.392-3.962a2,2,0,0,0-2.107,0c-2.819,1.535-5.659,3.032-8.493,4.538a1.429,1.429,0,0,1-.837.307c.259-1.564.507-3.115.768-4.663.34-2.022.679-4.046,1.043-6.064a1.792,1.792,0,0,0-.678-1.682q-3.444-3.39-6.874-6.787a8.008,8.008,0,0,0-.719-.561c.033-.069.067-.138.1-.209q2.929-.43,5.857-.865,2.386-.351,4.771-.694a1.8,1.8,0,0,0,1.408-1.148q2.1-4.378,4.233-8.74c.129-.265.276-.519.476-.9.585,1.2,1.117,2.278,1.644,3.361,1.017,2.089,2.042,4.176,3.039,6.275a1.906,1.906,0,0,0,1.575,1.172c3.484.494,6.963,1.012,10.458,1.524C2413.793-1478.054,2413.494-1477.907,2413.29-1477.7Z" transform="translate(-79.199 -74.411)" fill="#009fe3"/></g><g transform="translate(0 160.512)"><circle cx="4.8" cy="4.8" r="4.8" transform="translate(388.638 476.534)" fill="none" stroke="#009fe3" stroke-miterlimit="10" stroke-width="1"/><circle cx="4" cy="4" r="4" transform="translate(499.1 402.488)" fill="none" stroke="#009fe3" stroke-miterlimit="10" stroke-width="1"/><g transform="translate(500.049 473.784)"><line y2="8.3" transform="translate(4.1)" fill="none" stroke="#999" stroke-miterlimit="10" stroke-width="1"/><line x2="8.1" transform="translate(0 4)" fill="none" stroke="#999" stroke-miterlimit="10" stroke-width="1"/></g><g transform="translate(392.037 385.088)"><line y2="5.4" transform="translate(7.3)" fill="none" stroke="#1b1b1b" stroke-miterlimit="10" stroke-width="1"/><line y2="5.8" transform="translate(7.3 8.6)" fill="none" stroke="#1b1b1b" stroke-miterlimit="10" stroke-width="1"/><line x1="5.5" transform="translate(9 7.2)" fill="none" stroke="#1b1b1b" stroke-miterlimit="10" stroke-width="1"/><line x1="5.5" transform="translate(0 7.2)" fill="none" stroke="#1b1b1b" stroke-miterlimit="10" stroke-width="1"/></g><circle cx="3" cy="3" r="3" transform="translate(481.777 383.488)" fill="#dedede"/><circle cx="1.4" cy="1.4" r="1.4" transform="translate(504.099 445.611)" fill="#1b1b1b"/></g></g></svg>