<svg xmlns="http://www.w3.org/2000/svg" width="194.397" height="94.767" viewBox="0 0 194.397 94.767"><path d="M260.851,260.63l3.3,2.241-167.435.018L89.9,258.135l-18.778-13.1-.805-.557a2.163,2.163,0,0,1-.537-1.8l.208-1.313,6.841-43.033,3.626-22.812.58-3.651.22-1.378a2.181,2.181,0,0,1,2.036-1.833,1.981,1.981,0,0,1,.465.02l2.79.44,9.719,1.529,6.19.975,1.028-1.432,3.82.6a3.175,3.175,0,0,1,6.273.989l-1.288-.2a1.871,1.871,0,0,0-3.7-.58l1.847.29,3.138.494,3.82.6.534,1.679,18.7,2.944a2.2,2.2,0,0,1,.888.35.3.3,0,0,1,.031.023l20.061,13.949.26-.6h.034v-1.253a.487.487,0,0,1,.488-.486l.457.315Z" transform="translate(-69.753 -168.122)" fill="#1b1b1b" opacity="0.3" style="mix-blend-mode:multiply;isolation:isolate"/><path d="M138.446,180.824l-11.475,72.188a2.185,2.185,0,0,1-2.5,1.81l-47.876-7.536L71.6,246.5a2.039,2.039,0,0,1-.477-.134,2.133,2.133,0,0,1-.805-.557,2.163,2.163,0,0,1-.537-1.8l.208-1.313,6.841-43.033,3.626-22.812.58-3.651.22-1.378a2.181,2.181,0,0,1,2.036-1.833,1.979,1.979,0,0,1,.465.02l2.79.44,9.719,1.529,6.19.975,7.735,1.219,7.74,1.219,18.7,2.944a2.2,2.2,0,0,1,.888.35.3.3,0,0,1,.031.023A2.172,2.172,0,0,1,138.446,180.824Z" transform="translate(-69.753 -169.452)" fill="#85d9fe" style="isolation:isolate"/><path d="M143.023,191.613l-10.111,63.608-5.752,4.163L82.3,252.321a2.212,2.212,0,0,1-1.846-2.531L91,183.423a2.22,2.22,0,0,1,2.541-1.838l47.633,7.5A2.212,2.212,0,0,1,143.023,191.613Z" transform="translate(-77.379 -177.74)" fill="#fff" style="isolation:isolate"/><g transform="translate(29.748)" style="isolation:isolate"><path d="M184.878,176.484l-.248,1.557-.457,2.879-.251,1.591-9.982-1.571,1.054-1.466,1.9-2.651,1.028-1.432,3.82.6,1.288.2Z" transform="translate(-173.94 -173.325)" fill="#c1c1c0"/><path d="M204.9,168.161l-.2,1.282a1.873,1.873,0,0,0-2.141,1.549l-1.288-.2A3.176,3.176,0,0,1,204.9,168.161Z" transform="translate(-193.467 -168.122)" fill="#c1c1c0"/></g><g transform="translate(39.729 0.039)" style="isolation:isolate"><path d="M218.879,186.838l-9.979-1.571.251-1.591.457-2.879.248-1.557,3.138.494,3.82.6.534,1.679.985,3.106Z" transform="translate(-208.9 -176.12)" fill="#a4a4a5"/><path d="M216.124,171.875l-1.288-.2a1.865,1.865,0,0,0-1.556-2.128l.2-1.282A3.163,3.163,0,0,1,216.124,171.875Z" transform="translate(-212.029 -168.26)" fill="#a4a4a5"/></g><path d="M249.859,438.819l-5.751,4.163.786-4.945Z" transform="translate(-194.325 -361.338)" fill="#a4a4a5" style="isolation:isolate"/><g transform="translate(12.357 21.364)"><g transform="translate(7.234 0)" style="isolation:isolate"><path d="M0,0,3.1,0l0,3.086-3.1,0Z" transform="translate(0.483 0) rotate(8.99)" fill="#3d4655"/><path d="M0,.021,28.571,0V1.954L0,1.975Z" transform="translate(5.552 1.352) rotate(8.99)" fill="#3d4655"/></g><g transform="translate(6.201 6.501)" style="isolation:isolate"><path d="M0,0,3.1,0l0,3.086-3.1,0Z" transform="translate(0.483 0) rotate(8.99)" fill="#3d4655"/><path d="M0,.021,28.571,0V1.954L0,1.975Z" transform="translate(5.552 1.352) rotate(8.99)" fill="#3d4655"/></g><g transform="translate(5.167 13.003)" style="isolation:isolate"><path d="M0,0,3.1,0l0,3.086-3.1,0Z" transform="translate(0.483 0) rotate(8.99)" fill="#3d4655"/><path d="M0,.021,28.571,0V1.954L0,1.975Z" transform="translate(5.552 1.352) rotate(8.99)" fill="#3d4655"/></g><g transform="translate(4.134 19.504)" style="isolation:isolate"><path d="M0,0,3.1,0l0,3.086-3.1,0Z" transform="translate(0.483 0) rotate(8.99)" fill="#3d4655"/><path d="M0,.021,28.571,0V1.954L0,1.975Z" transform="translate(5.552 1.352) rotate(8.99)" fill="#3d4655"/></g><g transform="translate(3.1 26.005)" style="isolation:isolate"><path d="M0,0,3.1,0l0,3.086-3.1,0Z" transform="translate(0.483 0) rotate(8.99)" fill="#3d4655"/><path d="M0,.021,28.571,0V1.954L0,1.975Z" transform="translate(5.552 1.352) rotate(8.99)" fill="#3d4655"/></g><g transform="translate(2.067 32.506)" style="isolation:isolate"><path d="M0,0,3.1,0l0,3.086-3.1,0Z" transform="translate(0.483 0) rotate(8.99)" fill="#3d4655"/><path d="M0,.021,28.571,0V1.954L0,1.975Z" transform="translate(5.552 1.352) rotate(8.99)" fill="#3d4655"/></g><g transform="translate(1.033 39.008)" style="isolation:isolate"><path d="M0,0,3.1,0l0,3.086-3.1,0Z" transform="translate(0.483 0) rotate(8.99)" fill="#3d4655"/><path d="M0,.021,28.571,0V1.954L0,1.975Z" transform="translate(5.552 1.352) rotate(8.99)" fill="#3d4655"/></g><g transform="translate(0 45.509)" style="isolation:isolate"><path d="M0,0,3.1,0l0,3.086-3.1,0Z" transform="translate(0.483 0) rotate(8.99)" fill="#3d4655"/><path d="M0,.021,28.571,0V1.954L0,1.975Z" transform="translate(5.552 1.352) rotate(8.99)" fill="#3d4655"/></g></g><rect width="3.015" height="47.35" transform="translate(74.154 27.917)" fill="#099dc4" style="isolation:isolate"/><path d="M383.2,367.725V388.1a3.009,3.009,0,0,1-3.015,3V367.725Z" transform="translate(-291.552 -311.005)" fill="#465061" style="isolation:isolate"/><path d="M372.643,367.725V391.1a3.009,3.009,0,0,1-3.015-3V367.725Z" transform="translate(-284.007 -311.005)" fill="#3d4655" style="isolation:isolate"/><rect width="2.284" height="19.027" transform="translate(88.636 37.692)" fill="#c1b6a1" style="isolation:isolate"/><rect width="2.284" height="19.027" transform="translate(86.352 37.692)" fill="#e9ddbd" style="isolation:isolate"/><rect width="3.015" height="1.958" transform="translate(74.154 73.309)" fill="#ec4832" style="isolation:isolate"/><g transform="translate(86.352 20.86)"><rect width="2.284" height="9.792" transform="translate(2.284 5.824)" fill="#c1b6a1" style="isolation:isolate"/><rect width="2.284" height="9.792" transform="translate(0 5.824)" fill="#e9ddbd" style="isolation:isolate"/><path d="M382.472,251.738h-2.284v-4.083h.522l.431,1Z" transform="translate(-377.904 -245.914)" fill="#98a090" style="isolation:isolate"/><path d="M374.474,247.65v4.083H372.19l1.331-3.08.171-.4.26-.6Z" transform="translate(-372.189 -245.911)" fill="#b4b7ae" style="isolation:isolate"/><path d="M380.711,242.021v1.253h-.523v-1.739A.505.505,0,0,1,380.711,242.021Z" transform="translate(-377.904 -241.533)" fill="#928e95" style="isolation:isolate"/><path d="M379,241.53v1.739h-.523v-1.253A.505.505,0,0,1,379,241.53Z" transform="translate(-376.719 -241.53)" fill="#928e95" style="isolation:isolate"/></g><rect width="2.284" height="1.216" transform="translate(88.636 36.476)" fill="#bb3227" style="isolation:isolate"/><rect width="2.284" height="1.216" transform="translate(86.352 36.476)" fill="#ec4832" style="isolation:isolate"/><rect width="2.053" height="2.043" transform="translate(91.651 73.437)" fill="#465061" style="isolation:isolate"/><rect width="0.637" height="13.032" transform="translate(93.066 60.404)" fill="#465061" style="isolation:isolate"/><rect width="3.015" height="45.392" transform="translate(77.169 27.917)" fill="#077893" style="isolation:isolate"/><rect width="3.015" height="1.958" transform="translate(77.169 73.309)" fill="#bb3227" style="isolation:isolate"/><path d="M343.043,432.995v1.824a3.009,3.009,0,0,1-3.015,3v-4.825Z" transform="translate(-262.859 -357.728)" fill="#e9ddbd" style="isolation:isolate"/><path d="M332.483,432.995v4.825a3.009,3.009,0,0,1-3.015-3v-1.824Z" transform="translate(-255.314 -357.728)" fill="#e9ddbd" style="isolation:isolate"/><g transform="translate(85.621 76.179)"><path d="M375.658,436.2v.912a3.015,3.015,0,0,1-6.03,0V436.2Z" transform="translate(-369.628 -436.205)" fill="#e9ddbd" style="isolation:isolate"/></g><path d="M335.5,256.121h-6.03l1.756-4.066h2.518Z" transform="translate(-255.314 -228.204)" fill="#ffe6be" style="isolation:isolate"/><path d="M338.137,244.7h-2.518l1.259-2.921Z" transform="translate(-259.708 -220.845)" fill="#2e2b27" style="isolation:isolate"/><path d="M1.216,2.142H.677v1.2H0L0,.072h1.22a1.382,1.382,0,0,1,.9.257.888.888,0,0,1,.315.729,1,1,0,0,1-.146.558.993.993,0,0,1-.441.356l.709,1.335v.031H1.831ZM.678,1.6h.546a.561.561,0,0,0,.395-.129.461.461,0,0,0,.14-.356A.492.492,0,0,0,1.626.748a.549.549,0,0,0-.4-.132H.678Zm5.168.322h-1.3v.875H6.071v.541l-2.2,0,0-3.268,2.2,0V.612H4.548v.779h1.3Zm4.142,1a1.177,1.177,0,0,1-.517.338,2.172,2.172,0,0,1-.74.121,1.469,1.469,0,0,1-.747-.185,1.234,1.234,0,0,1-.5-.537,1.883,1.883,0,0,1-.179-.828V1.606A2,2,0,0,1,7.477.758,1.225,1.225,0,0,1,7.955.21,1.383,1.383,0,0,1,8.687.02,1.374,1.374,0,0,1,9.6.3a1.181,1.181,0,0,1,.389.807H9.331a.649.649,0,0,0-.2-.411.638.638,0,0,0-.425-.13.6.6,0,0,0-.525.258A1.354,1.354,0,0,0,8,1.59V1.8a1.286,1.286,0,0,0,.2.776.672.672,0,0,0,.575.262.753.753,0,0,0,.543-.162V2.111H8.7v-.5H9.989Zm2.19.411H11.5l0-3.268h.676Zm3.253-.86a.344.344,0,0,0-.135-.293,1.775,1.775,0,0,0-.487-.215,3.456,3.456,0,0,1-.557-.223.9.9,0,0,1-.559-.81.788.788,0,0,1,.15-.473.979.979,0,0,1,.431-.325,1.628,1.628,0,0,1,.63-.117,1.48,1.48,0,0,1,.627.126A1,1,0,0,1,15.959.5a.932.932,0,0,1,.152.525h-.676a.439.439,0,0,0-.142-.349.585.585,0,0,0-.4-.124.627.627,0,0,0-.386.1.329.329,0,0,0-.138.275.314.314,0,0,0,.161.267,1.822,1.822,0,0,0,.474.2,2.05,2.05,0,0,1,.841.428.85.85,0,0,1,.263.637.786.786,0,0,1-.323.666,1.418,1.418,0,0,1-.868.242,1.681,1.681,0,0,1-.69-.138,1.088,1.088,0,0,1-.474-.378.964.964,0,0,1-.163-.556h.679q0,.541.649.54a.634.634,0,0,0,.377-.1A.318.318,0,0,0,15.431,2.471ZM19.963.6H18.957l0,2.722h-.676l0-2.722h-.992V.059l2.674,0Zm2.523,1.524h-.539v1.2H21.27l0-3.268h1.22a1.382,1.382,0,0,1,.9.257.888.888,0,0,1,.315.729,1,1,0,0,1-.146.558.993.993,0,0,1-.441.356l.709,1.335v.031H23.1Zm-.538-.545h.546a.561.561,0,0,0,.395-.129.461.461,0,0,0,.14-.356A.492.492,0,0,0,22.9.732a.549.549,0,0,0-.4-.132h-.543Zm5.046,1.065H25.808l-.226.673h-.719L26.087.052h.627L27.94,3.319h-.719Zm-1-.545h.821L26.4.878ZM31.372.594H30.367l0,2.722h-.676L29.69.6H28.7V.05l2.674,0ZM33.4,3.315h-.676l0-3.268H33.4Zm4.248-1.563a1.967,1.967,0,0,1-.172.846,1.289,1.289,0,0,1-.491.561,1.455,1.455,0,0,1-1.46,0,1.3,1.3,0,0,1-.5-.557,1.907,1.907,0,0,1-.177-.834V1.61a1.956,1.956,0,0,1,.175-.85A1.3,1.3,0,0,1,35.52.2a1.452,1.452,0,0,1,1.459,0,1.294,1.294,0,0,1,.493.563,1.947,1.947,0,0,1,.174.847ZM36.961,1.6a1.369,1.369,0,0,0-.184-.781.655.655,0,0,0-1.053,0,1.356,1.356,0,0,0-.188.773v.159a1.386,1.386,0,0,0,.184.776.649.649,0,0,0,1.055.009,1.381,1.381,0,0,0,.185-.776Zm4.768,1.7h-.676L39.737,1.16l0,2.15H39.06l0-3.268h.676L41.056,2.2l0-2.154h.674Z" transform="translate(18.268 12.735) rotate(9)" fill="#1b1b1b"/></svg>