<svg xmlns="http://www.w3.org/2000/svg" width="40.827" height="46.374" viewBox="0 0 40.827 46.374"><g transform="translate(3.676)"><rect width="2.238" height="5.046" transform="translate(0 20.671)" fill="#1b1b1b"/><rect width="2.238" height="5.046" transform="translate(0 11.217)" fill="#1b1b1b"/><path d="M224.251,32.87V68.2a5.517,5.517,0,0,1-5.52,5.52H192.62a5.525,5.525,0,0,1-5.52-5.52V66.915h2.238v1.316a3.291,3.291,0,0,0,3.309,3.282h26.11a3.308,3.308,0,0,0,3.282-3.31V32.843a3.308,3.308,0,0,0-3.31-3.282H192.62a3.3,3.3,0,0,0-3.282,3.31v1.289h-2.211V32.87a5.517,5.517,0,0,1,5.52-5.52H218.73a5.452,5.452,0,0,1,2.6.651c.014,0,.014,0,.027.014l.99.692A5.47,5.47,0,0,1,224.251,32.87Z" transform="translate(-187.1 -27.35)" fill="#1b1b1b"/><rect width="2.238" height="5.046" transform="translate(0 30.111)" fill="#1b1b1b"/></g><g transform="translate(0 7.921)"><path d="M193.979,41.262a1.114,1.114,0,0,1-1.112,1.1h-7.379a1.094,1.094,0,0,1-1.1-1.1v-.027a1.08,1.08,0,0,1,1.1-1.072h2.577V40.15h2.224v.014h2.6A1.091,1.091,0,0,1,193.979,41.262Z" transform="translate(-184.39 -30.71)" fill="#30a729"/><path d="M193.979,34.289a1.114,1.114,0,0,1-1.112,1.1h-7.379a1.1,1.1,0,0,1,0-2.2h7.379A1.114,1.114,0,0,1,193.979,34.289Z" transform="translate(-184.39 -33.19)" fill="#30a729"/><path d="M193.979,55.179v.027a1.109,1.109,0,0,1-1.1,1.085h-7.392a1.114,1.114,0,0,1-1.1-1.112,1.094,1.094,0,0,1,1.1-1.1h7.392A1.1,1.1,0,0,1,193.979,55.179Z" transform="translate(-184.39 -25.746)" fill="#30a729"/><path d="M193.98,48.209a1.129,1.129,0,0,1-1.1,1.139h-4.815v-.027h-2.591a1.106,1.106,0,0,1,.014-2.211H187.4v.014h3.337V47.11h2.143A1.1,1.1,0,0,1,193.98,48.209Z" transform="translate(-184.39 -28.229)" fill="#30a729"/><path d="M202.208,36.31a5.358,5.358,0,1,0,5.358,5.358A5.36,5.36,0,0,0,202.208,36.31Zm0,8.5a3.154,3.154,0,1,1,3.147-3.16A3.152,3.152,0,0,1,202.208,44.814Z" transform="translate(-179.949 -32.078)" fill="#30a729"/><path d="M203.142,45.52h-.19a8.243,8.243,0,0,0-8.192,8.3V54a1.106,1.106,0,0,0,1.1,1.112h14.188A1.135,1.135,0,0,0,211.158,54,8.272,8.272,0,0,0,203.142,45.52Zm-6.09,7.379a5.953,5.953,0,0,1,11.8,0Z" transform="translate(-180.694 -28.796)" fill="#30a729"/></g></svg>