<svg xmlns="http://www.w3.org/2000/svg" width="40" height="40" viewBox="0 0 40 40">
  <g transform="translate(14404 3110)">
    <rect width="40" height="40" transform="translate(-14404 -3110)" fill="none"/>
    <g transform="translate(-8312.779 1483)">
      <path d="M247.681,248.454h6.761a.387.387,0,0,0,.387-.387V246.4a.387.387,0,0,0-.387-.387h-6.761a.386.386,0,0,0-.387.387h0v1.664A.386.386,0,0,0,247.681,248.454Zm.387-1.664h5.988v.892h-5.989Z" transform="translate(-6328.85 -4830.354)" fill="#1b1b1b"/>
      <path d="M268.185,261.392l-1.922-.45a2.767,2.767,0,0,0-.154-.362l1.044-1.692a.383.383,0,0,0-.066-.472l-1.34-1.351a.4.4,0,0,0-.472-.055l-1.691,1.043c-.121-.055-.242-.11-.363-.154l-.45-1.922a.39.39,0,0,0-.384-.3H260.5a.39.39,0,0,0-.384.3l-.45,1.922c-.121.044-.242.1-.362.154l-1.691-1.043a.4.4,0,0,0-.472.055l-1.34,1.351a.383.383,0,0,0-.066.472l1.043,1.692a2.771,2.771,0,0,0-.154.362l-1.922.45a.386.386,0,0,0-.3.373v1.9a.39.39,0,0,0,.3.384l.659.154,1.263.3c.044.121.1.242.154.362l-.066.121-.978,1.571a.37.37,0,0,0,.055.472l1.34,1.34h.011a.372.372,0,0,0,.362.1.139.139,0,0,0,.066-.011l.033-.033,1.692-1.033h.011c.121.055.231.11.351.154l.461,1.922a.34.34,0,0,0,.264.275.4.4,0,0,0,.121.022h1.9a.2.2,0,0,0,.11-.022.4.4,0,0,0,.253-.275l.461-1.922h.011c.121-.044.242-.1.362-.154l1.67,1.033a.241.241,0,0,1,.055.033c.022,0,.044.011.066.011a.373.373,0,0,0,.373-.1l1.329-1.34a.383.383,0,0,0,.066-.472l-.967-1.571h-.011l-.066-.121c.055-.121.11-.242.154-.362l1.252-.3h.011l.659-.154a.386.386,0,0,0,.3-.373v-1.911A.386.386,0,0,0,268.185,261.392Zm-.472,1.977-1.834.439a.318.318,0,0,0-.165.1.31.31,0,0,0-.121.165,3.647,3.647,0,0,1-.264.648.433.433,0,0,0-.033.286.392.392,0,0,0,.044.1l.989,1.6-.9.912-1.615-.989a.377.377,0,0,0-.373-.011,3.443,3.443,0,0,1-.659.264.542.542,0,0,0-.165.11.351.351,0,0,0-.1.176L262.078,269h-1.285l-.439-1.834a.442.442,0,0,0-.088-.176.434.434,0,0,0-.165-.11,3.649,3.649,0,0,1-.648-.264.4.4,0,0,0-.384.011l-1.6.989h-.011l-.912-.912.989-1.6c.022-.033.033-.066.055-.1a.425.425,0,0,0-.033-.286,3.694,3.694,0,0,1-.275-.648.338.338,0,0,0-.11-.165.261.261,0,0,0-.165-.1l-1.834-.439v-1.285l1.834-.439a.39.39,0,0,0,.275-.264,4.776,4.776,0,0,1,.275-.648.425.425,0,0,0,.033-.286c-.022-.033-.033-.066-.055-.1l-.989-1.6h.011l.9-.912h.011l1.6.988a.4.4,0,0,0,.384.011,4.249,4.249,0,0,1,.648-.275.358.358,0,0,0,.253-.275l.439-1.834h1.3l.439,1.834a.377.377,0,0,0,.253.275,4.378,4.378,0,0,1,.659.275.377.377,0,0,0,.373-.011l1.6-.988.912.912-.989,1.6a.391.391,0,0,0-.044.1.425.425,0,0,0,.033.286,3.7,3.7,0,0,1,.275.648.39.39,0,0,0,.275.264l1.834.439Z" transform="translate(-6328.15 -4829.403)" fill="#1b1b1b"/>
      <g transform="translate(-6083.221 -4586)">
        <path d="M246.166,261.509a.386.386,0,0,0,.387-.387V245.931a.66.66,0,0,1,.659-.659h9.235a1.154,1.154,0,0,1,.26.03v3.749a1.428,1.428,0,0,0,1.428,1.428h3.744a1.157,1.157,0,0,1,.03.26v1.743a.387.387,0,0,0,.769,0v-1.745a1.938,1.938,0,0,0-.57-1.376l-4.284-4.284a1.937,1.937,0,0,0-1.384-.573h-9.234a1.428,1.428,0,0,0-1.428,1.428v15.193a.386.386,0,0,0,.387.387ZM261.355,249.7h-3.228a.659.659,0,0,1-.659-.659v-3.224Z" transform="translate(-245.778 -244.503)" fill="#1b1b1b"/>
        <path d="M247.677,250.673h2.856a.387.387,0,0,0,0-.769h-2.856a.387.387,0,0,0,0,.769Z" transform="translate(-245.625 -243.971)" fill="#1b1b1b"/>
        <path d="M247.677,252.188h4.265a.387.387,0,0,0,0-.769h-4.265a.387.387,0,0,0,0,.769Z" transform="translate(-245.625 -243.823)" fill="#1b1b1b"/>
        <path d="M258.981,251.8a.386.386,0,0,0-.384-.387h-5.515a.387.387,0,1,0-.082.769.344.344,0,0,0,.082,0h5.513A.386.386,0,0,0,258.981,251.8Z" transform="translate(-245.101 -243.823)" fill="#1b1b1b"/>
        <path d="M256.9,253.318a.387.387,0,0,0-.387-.387h-1.82a.387.387,0,1,0-.082.769.344.344,0,0,0,.082,0h1.82A.386.386,0,0,0,256.9,253.318Z" transform="translate(-244.943 -243.674)" fill="#1b1b1b"/>
        <path d="M247.684,253.7h6.033a.387.387,0,0,0,0-.769h-6.033a.387.387,0,1,0-.082.769A.344.344,0,0,0,247.684,253.7Z" transform="translate(-245.633 -243.674)" fill="#1b1b1b"/>
        <path d="M256.677,254.833a.387.387,0,0,0-.387-.387h-8.606a.387.387,0,1,0-.082.769.344.344,0,0,0,.082,0h8.607A.386.386,0,0,0,256.677,254.833Z" transform="translate(-245.633 -243.525)" fill="#1b1b1b"/>
        <path d="M252.328,256.349a.387.387,0,0,0-.387-.387h-4.264a.387.387,0,0,0,0,.769h4.265a.386.386,0,0,0,.387-.387h0Z" transform="translate(-245.625 -243.376)" fill="#1b1b1b"/>
        <path d="M255.853,256.349a.387.387,0,0,0-.387-.387h-2.392a.387.387,0,0,0,0,.769h2.392a.386.386,0,0,0,.387-.387h0Z" transform="translate(-245.094 -243.376)" fill="#1b1b1b"/>
        <path d="M251.851,258.249h1.3a.387.387,0,0,0,.082-.769.341.341,0,0,0-.082,0h-1.3a.387.387,0,1,0-.082.769A.341.341,0,0,0,251.851,258.249Z" transform="translate(-245.222 -243.227)" fill="#1b1b1b"/>
        <path d="M247.684,257.477a.387.387,0,1,0-.082.769.347.347,0,0,0,.082,0H250.6a.387.387,0,0,0,.082-.769.523.523,0,0,0-.082,0Z" transform="translate(-245.633 -243.227)" fill="#1b1b1b"/>
        <path d="M257.62,264.343l-.066.121H247.208a1.425,1.425,0,0,1-1.428-1.428v-1.724a.4.4,0,0,1,.341-.351.386.386,0,0,1,.428.351v1.713a.661.661,0,0,0,.659.659h9l1.263.3C257.511,264.1,257.566,264.222,257.62,264.343Z" transform="translate(-245.777 -242.884)" fill="#1b1b1b"/>
        <path d="M261.229,253.441v2.493h-.769v-2.493a.375.375,0,0,1,.34-.34A.371.371,0,0,1,261.229,253.441Z" transform="translate(-244.334 -243.658)" fill="#1b1b1b"/>
        <path d="M262.915,261.921a.366.366,0,0,0-.373.352.04.04,0,0,0-.011.033,2.319,2.319,0,0,1-.022.275.73.73,0,0,1-.077.264,1.556,1.556,0,0,1-.088.2c-.011.022-.011.033-.033.044-.033.044-.055.088-.088.132s-.077.088-.11.132a.768.768,0,0,1-.176.154,1.088,1.088,0,0,1-.187.121.8.8,0,0,1-.22.1.084.084,0,0,1-.055.022,1.765,1.765,0,0,1-.231.055s0,.011-.011,0a.712.712,0,0,1-.22.022,1.365,1.365,0,0,1-.659-.165,1.332,1.332,0,0,1-.351-.242.691.691,0,0,1-.132-.121c-.022-.011-.033-.022-.033-.044a1.341,1.341,0,0,1-.11-.154,1.133,1.133,0,0,1-.154-.33.125.125,0,0,1-.033-.088c-.011-.055-.022-.11-.033-.154a.021.021,0,0,1,0-.033,1.191,1.191,0,0,1-.011-.2,1.809,1.809,0,0,1,.022-.253,1.212,1.212,0,0,1,.165-.472,1.033,1.033,0,0,1,.132-.2,1.5,1.5,0,0,1,2.109-.3.385.385,0,0,0,.505-.132.394.394,0,0,0-.088-.516,2.292,2.292,0,1,0,.538,3.2,2.264,2.264,0,0,0,.417-1.318A.382.382,0,0,0,262.915,261.921Z" transform="translate(-244.504 -242.977)" fill="#1b1b1b"/>
      </g>
      <path d="M259.442,262.31a.61.61,0,0,1-.022-.2,1,1,0,0,1,.033-.253,1.8,1.8,0,0,0-.022.253A1.194,1.194,0,0,0,259.442,262.31Z" transform="translate(-6327.657 -4828.795)" fill="#1b1b1b"/>
      <path d="M259.89,263.11a1.332,1.332,0,0,0,.352.242A.845.845,0,0,1,259.89,263.11Z" transform="translate(-6327.61 -4828.672)" fill="#1b1b1b"/>
      <path d="M262.2,262.07v.022a1.2,1.2,0,0,1-.033.286,2.312,2.312,0,0,0,.022-.275A.04.04,0,0,1,262.2,262.07Z" transform="translate(-6327.386 -4828.775)" fill="#1b1b1b"/>
    </g>
  </g>
</svg>