<svg xmlns="http://www.w3.org/2000/svg" xmlns:xlink="http://www.w3.org/1999/xlink" width="22.389" height="23.234" viewBox="0 0 22.389 23.234"><defs><clipPath id="a"><rect width="22.389" height="23.234" fill="#fff"/></clipPath></defs><g clip-path="url(#a)"><path d="M.774,40.091A.751.751,0,0,1,.6,40.07a.772.772,0,0,1-.574-.93,11.862,11.862,0,0,1,4.009-6.422,11.292,11.292,0,0,1,14.327,0,11.865,11.865,0,0,1,4.01,6.42.773.773,0,0,1-1.5.357A9.982,9.982,0,0,0,11.2,31.7a9.981,9.981,0,0,0-9.671,7.8.773.773,0,0,1-.751.594" transform="translate(0 -16.857)" fill="#fff"/><path d="M18.179,11.368a5.684,5.684,0,1,1,5.684-5.684,5.691,5.691,0,0,1-5.684,5.684m0-9.823a4.139,4.139,0,1,0,4.139,4.139,4.144,4.144,0,0,0-4.139-4.139" transform="translate(-6.985 0)" fill="#fff"/></g></svg>