<svg xmlns="http://www.w3.org/2000/svg" xmlns:xlink="http://www.w3.org/1999/xlink" width="40" height="40" viewBox="0 0 40 40"><defs><clipPath id="a"><rect width="40" height="40" fill="none"/></clipPath></defs><g clip-path="url(#a)"><path d="M28.306,14.2a2.323,2.323,0,0,1-.545-.064A2.373,2.373,0,0,1,26,11.29h0A2.37,2.37,0,1,1,28.306,14.2m-1.04-2.615a1.069,1.069,0,1,0,1.286-.794,1.071,1.071,0,0,0-1.286.794" fill="#141414"/><path d="M20.044,32.411a2.369,2.369,0,1,1,2.369-2.37,2.373,2.373,0,0,1-2.369,2.37m0-3.438a1.069,1.069,0,1,0,1.068,1.068,1.07,1.07,0,0,0-1.068-1.068" fill="#141414"/><path d="M8.1,33.99a1.964,1.964,0,1,1,1.963-1.963A1.965,1.965,0,0,1,8.1,33.99m0-2.626a.662.662,0,1,0,.663.663.663.663,0,0,0-.663-.663" fill="#141414"/><path d="M9.664,13.334A3.674,3.674,0,1,1,13.338,9.66a3.678,3.678,0,0,1-3.674,3.674m0-6.048A2.374,2.374,0,1,0,12.039,9.66,2.377,2.377,0,0,0,9.664,7.286" fill="#141414"/><path d="M30.931,28.522a3.234,3.234,0,1,1,3.234-3.234,3.238,3.238,0,0,1-3.234,3.234m0-5.168a1.934,1.934,0,1,0,1.934,1.934,1.936,1.936,0,0,0-1.934-1.934" fill="#141414"/><rect width="1.301" height="5.614" transform="translate(23.251 22.332) rotate(-63.919)" fill="#141414"/><rect width="6.148" height="1.3" transform="translate(22.33 16.844) rotate(-44.938)" fill="#141414"/><rect width="11.659" height="1.3" transform="matrix(0.707, -0.707, 0.707, 0.707, 8.596, 30.569)" fill="#141414"/><rect width="1.3" height="4.389" transform="translate(19.394 23.934)" fill="#141414"/><rect width="1.3" height="7.788" transform="translate(11.339 12.264) rotate(-45)" fill="#141414"/><path d="M20.044,24.584a4.532,4.532,0,1,1,4.532-4.532,4.537,4.537,0,0,1-4.532,4.532m0-7.764a3.232,3.232,0,1,0,3.231,3.232,3.236,3.236,0,0,0-3.231-3.232" fill="#141414"/></g></svg>