<svg xmlns="http://www.w3.org/2000/svg" xmlns:xlink="http://www.w3.org/1999/xlink" width="22.51" height="22.58" viewBox="0 0 22.51 22.58"><defs><clipPath id="a"><rect width="22.51" height="22.58" transform="translate(0 0)" fill="none"/></clipPath></defs><g transform="translate(0 0)" clip-path="url(#a)"><path d="M22.42,3.56a2.735,2.735,0,0,0-2.49-1.78h-.75a.2.2,0,0,1-.11,0H16.2V.89a.89.89,0,0,0-1.78,0v.89c-1.4.01-3.15.01-4.74,0H8.1V.89a.89.89,0,0,0-1.78,0v.89H2.57A2.674,2.674,0,0,0,0,4.32C.02,10.2,0,15.47.01,20.13a2.036,2.036,0,0,0,.12.77,2.522,2.522,0,0,0,2.14,1.68H15.18l.045-.015A11.1,11.1,0,0,0,16.31,21.46c.69-.7,1.36-1.41,2.04-2.11.82-.86,1.64-1.71,2.47-2.56.22-.22.42-.44.64-.67l.13-.14.659-.659a.892.892,0,0,0,.261-.63V4.6a6,6,0,0,0-.09-1.04M15.69,19.49a.152.152,0,0,1-.03-.13V16.44a.956.956,0,0,1,.26-.7.854.854,0,0,1,.65-.27h2.99l-3.87,4.02m5.05-5.8c-.06.05-.14.02-.22.02H16.55a2.645,2.645,0,0,0-2.52,1.82,2.724,2.724,0,0,0-.13.84v4.45H2.81a1.073,1.073,0,0,1-.63-.15.9.9,0,0,1-.39-.7V8.98H20.74Zm.02-6.5H1.79c0-.7-.01-2.01,0-2.7a.843.843,0,0,1,.54-.8.875.875,0,0,1,.28-.06c.14-.01.28-.02.43-.02H6.32v.85a.89.89,0,0,0,1.78,0V3.61h6.32v.85a.89.89,0,0,0,1.78,0V3.61h3.44c.1,0,.2,0,.3.01a.861.861,0,0,1,.82.87c.01.69,0,2,0,2.7" fill="#fff"/></g></svg>