<svg xmlns="http://www.w3.org/2000/svg" xmlns:xlink="http://www.w3.org/1999/xlink" width="1197" height="1197" viewBox="0 0 1197 1197"><defs><clipPath id="a"><path d="M105.32,0A105.32,105.32,0,1,1,0,105.32,105.32,105.32,0,0,1,105.32,0Z" fill="#009fe3"/></clipPath><clipPath id="b"><circle cx="30" cy="30" r="30" transform="translate(467 994)" fill="#009fe3"/></clipPath><clipPath id="c"><circle cx="35" cy="35" r="35" transform="translate(778 896)" fill="#009fe3"/></clipPath><clipPath id="d"><circle cx="22.5" cy="22.5" r="22.5" transform="translate(887 680)" fill="#fff"/></clipPath><clipPath id="e"><ellipse cx="35.5" cy="35" rx="35.5" ry="35" transform="translate(238 761)" fill="#009fe3"/></clipPath><clipPath id="f"><ellipse cx="31.5" cy="31" rx="31.5" ry="31" transform="translate(616 533)" fill="#fff"/></clipPath><clipPath id="g"><ellipse cx="29" cy="28.5" rx="29" ry="28.5" transform="translate(858 467)" fill="#009fe3"/></clipPath><clipPath id="h"><ellipse cx="35.5" cy="35" rx="35.5" ry="35" transform="translate(270 463)" fill="#009fe3"/></clipPath><clipPath id="i"><circle cx="35" cy="35" r="35" transform="translate(-9370 13223)" fill="#fff"/></clipPath></defs><g transform="translate(0 -203)"><g transform="translate(350 553)" fill="none" stroke="#fff" stroke-width="1" opacity="0.4"><circle cx="248" cy="248" r="248" stroke="none"/><circle cx="248" cy="248" r="247.5" fill="none"/></g><g transform="translate(431 633)" fill="none" stroke="#fff" stroke-width="1" opacity="0.4"><circle cx="167.5" cy="167.5" r="167.5" stroke="none"/><circle cx="167.5" cy="167.5" r="167" fill="none"/></g><g transform="translate(270 473)" fill="none" stroke="#fff" stroke-width="1" opacity="0.4"><circle cx="328" cy="328" r="328" stroke="none"/><circle cx="328" cy="328" r="327.5" fill="none"/></g><g transform="translate(176 379)" fill="none" stroke="#fff" stroke-width="1" opacity="0.4"><circle cx="422.5" cy="422.5" r="422.5" stroke="none"/><circle cx="422.5" cy="422.5" r="422" fill="none"/></g><circle cx="7.5" cy="7.5" r="7.5" transform="translate(194 939)" fill="#7db545"/><circle cx="6.5" cy="6.5" r="6.5" transform="translate(746 731)" fill="#e5b045"/><circle cx="8" cy="8" r="8" transform="translate(485 663)" fill="#45c5b0"/><circle cx="10" cy="10" r="10" transform="translate(968 977)" fill="#e3e345"/><circle cx="8" cy="8" r="8" transform="translate(374 671)" fill="#e54594"/><circle cx="6.5" cy="6.5" r="6.5" transform="translate(1009 731)" fill="#d64545"/><ellipse cx="7" cy="7.5" rx="7" ry="7.5" transform="translate(493 480)" fill="#b802ee"/><circle cx="8" cy="8" r="8" transform="translate(590 371)" fill="#7db545"/><circle cx="8" cy="8" r="8" transform="translate(355 1020)" fill="#e5b045"/><circle cx="7.5" cy="7.5" r="7.5" transform="translate(524 946)" fill="#009fe3"/><g transform="translate(492.774 695.666)"><path d="M105.32,0A105.32,105.32,0,1,1,0,105.32,105.32,105.32,0,0,1,105.32,0Z" transform="translate(0 0)" fill="#00b3ff"/><g transform="translate(0 0)" clip-path="url(#a)"><g transform="translate(53.666 52.915)"><path d="M-9521.446,12803.441v102.511l94.87,94.87,103.022-103.024-94.357-94.356Z" transform="translate(9521.446 -12803.441)" fill="#0057d9" opacity="0.7" style="mix-blend-mode:multiply;isolation:isolate"/><path d="M-291.9,602.595v13.5h21.858v11.467H-291.93v17.051h51.242V582.677h-80.536v80.685h91.584l-.537.717-.149.239-.119.119-6.928,9.5H-332.72V571.27h103.529V655.3h-76.116V590.59h48.136l-.6.806-.179.269-.119.149-7.883,10.78Z" transform="translate(332.72 -571.27)" fill="#fff"/></g></g></g><g transform="translate(88 291)" fill="none" stroke="#fff" stroke-width="1" opacity="0.2"><circle cx="510.5" cy="510.5" r="510.5" stroke="none"/><circle cx="510.5" cy="510.5" r="510" fill="none"/></g><g transform="translate(0 203)" fill="none" stroke="#fff" stroke-width="1" opacity="0.06"><circle cx="598.5" cy="598.5" r="598.5" stroke="none"/><circle cx="598.5" cy="598.5" r="598" fill="none"/></g><circle cx="30" cy="30" r="30" transform="translate(467 994)" fill="#f17171"/><g clip-path="url(#b)"><g transform="translate(28.096 938.673)"><path d="M490.13,71.28l-1.25-.87-1.17-.82a.858.858,0,0,0-.2-.13.6.6,0,0,0-.24-.05h-6.44l-3.12-2.17a1.854,1.854,0,0,0-1.04-.32H461.7a2.207,2.207,0,0,0-.37.04,1.916,1.916,0,0,0-1.5,1.83v2.49h-8.71a.608.608,0,0,0-.62.61V79.4a.607.607,0,0,0,.27.5l5.97,4.17a1.515,1.515,0,0,0-.02.3v2.56l1.24,13.06v3.71a.6.6,0,0,0,.16.41l.22.16h.01l27.94,19.47,4.15,2.88.59-.82.02.01.98-1.39.613-.875.037.025.59-.82.02.01.98-1.39L516.5,89.65Z" fill="rgba(0,0,0,0.3)"/><path d="M464.826,93.1h8.727V94.35h-8.727Z" fill="#fff"/><path d="M462.332,93.1h1.247V94.35h-1.247Z" fill="#fff"/><path d="M487.71,69.59a.858.858,0,0,0-.2-.13.6.6,0,0,0-.24-.05H476.04a.623.623,0,0,0-.62.62v6.24a.615.615,0,0,0,.54.61.249.249,0,0,0,.08.01h11.23a.623.623,0,0,0,.62-.62V70.03A.628.628,0,0,0,487.71,69.59Zm-1.07,6.05h-9.97V70.66h9.97Z" fill="#fff"/><path d="M463.58,71.28H451.12a.608.608,0,0,0-.62.61V79.4a.607.607,0,0,0,.27.5.546.546,0,0,0,.33.11h12.48a.625.625,0,0,0,.62-.63V71.9A.623.623,0,0,0,463.58,71.28Zm-.63,7.48H451.74V72.53h11.21Z" fill="#fff"/><path d="M480.8,89.985a2.467,2.467,0,0,0,.265-3.476,2.074,2.074,0,0,0-.265-.265,2.467,2.467,0,0,0,.265-3.476,2.074,2.074,0,0,0-.265-.265,2.486,2.486,0,0,0-1.635-4.364h-2.5a2.5,2.5,0,0,0-2.494,2.478,2.438,2.438,0,0,0,.873,1.886,2.469,2.469,0,0,0-.281,3.476,2.273,2.273,0,0,0,.281.265,2.469,2.469,0,0,0-.281,3.476,2.273,2.273,0,0,0,.281.265,2.491,2.491,0,0,0-.265,3.507,2.527,2.527,0,0,0,1.886.857h2.5a2.488,2.488,0,0,0,2.494-2.478A2.522,2.522,0,0,0,480.8,89.985ZM479.16,93.1h-2.5a1.247,1.247,0,0,1,0-2.494h2.5a1.247,1.247,0,0,1,0,2.494Zm0-3.741h-2.5a1.247,1.247,0,0,1-.008-2.494h2.508a1.247,1.247,0,0,1,.008,2.494h-.01Zm0-3.741h-2.5a1.247,1.247,0,0,1,0-2.494h2.5a1.247,1.247,0,0,1,0,2.494Zm0-3.741h-2.5a1.247,1.247,0,0,1,0-2.494h2.5a1.247,1.247,0,1,1,0,2.494Z" fill="#fff"/><path d="M477.29,94.35v.62a.617.617,0,0,1-.62.62H461.7a.617.617,0,0,1-.62-.62V87.49h3.12a3.121,3.121,0,0,0,0-6.24h-4.37a3.122,3.122,0,0,0-3.11,3.12v2.56l1.24,13.06v3.71a.6.6,0,0,0,.16.41l.22.16h.01a.687.687,0,0,0,.24.05H472.3a.625.625,0,0,0,.63-.62v-3.54l2.32-3.32h1.42a1.874,1.874,0,0,0,1.87-1.87v-.62Zm-18.09,8.73v-2.5h12.47l.01,2.5Zm12.79-3.74H459.16l-1.2-12.47v-2.5a1.887,1.887,0,0,1,1.87-1.87h4.37a1.87,1.87,0,0,1,0,3.74h-3.74a.627.627,0,0,0-.63.63v8.1a1.887,1.887,0,0,0,1.87,1.87h12.03Z" fill="#fff"/><rect width="1.25" height="1.25" transform="translate(459.83 80.01)" fill="#fff"/><rect width="1.247" height="1.247" transform="translate(477.29 76.892)" fill="#fff"/><path d="M477.71,67.24a1.854,1.854,0,0,0-1.04-.32H461.7a2.207,2.207,0,0,0-.37.04,1.9,1.9,0,0,0-1.4,1.27,1.735,1.735,0,0,0-.1.56v2.49h1.25V68.79a.6.6,0,0,1,.35-.56c.01,0,.01-.01.02-.01a.542.542,0,0,1,.25-.06h1.39l.08.31.19.77a1.883,1.883,0,0,0,1.82,1.42h8.03a1.871,1.871,0,0,0,1.81-1.42l.28-1.08h1.37a.625.625,0,0,1,.62.63v.62h1.25v-.62A1.9,1.9,0,0,0,477.71,67.24Zm-3.9,1.7a.619.619,0,0,1-.6.47h-8.03a.611.611,0,0,1-.61-.47l-.11-.47-.08-.31H474Z" fill="#fff"/><path d="M452.981,73.776h1.247v1.245h-1.247Z" fill="#fff"/><path d="M455.475,73.776h6.233v1.245h-6.233Z" fill="#fff"/><path d="M452.981,76.27h8.727v1.247h-8.727Z" fill="#fff"/><path d="M477.918,72.529h2.494v1.247h-2.494Z" fill="#fff"/><path d="M481.659,72.529H485.4v1.247h-3.739Z" fill="#fff"/></g></g><circle cx="35" cy="35" r="35" transform="translate(778 896)" fill="#ffd071"/><g clip-path="url(#c)"><g transform="translate(396.9 850.73)"><path d="M468.29,86.75l-22.23,31.72-.98,1.4-.02-.01-.59.82-.06-.04-3.47,4.96-.98,1.39-.02-.01-.59.83-4.15-2.88-23.06-16.06L396.43,97.92a.035.035,0,0,0-.02-.01l-.47-.33a2.494,2.494,0,0,1-.84-1.88V65.09a2.514,2.514,0,0,1,2.51-2.52h5.98v-.82a2.48,2.48,0,0,1,2.48-2.48,2.4,2.4,0,0,1,1.38.43l4.13,2.87h10.33v-.82a2.477,2.477,0,0,1,2.47-2.48,2.308,2.308,0,0,1,.37.03,1.982,1.982,0,0,1,.35.08,1.281,1.281,0,0,1,.34.14,1.008,1.008,0,0,1,.23.12.434.434,0,0,1,.07.04c.01.01.02.01.02.02l.04.02,4.09,2.85h2.95a2.462,2.462,0,0,1,1.12.26l.57.4Z" fill="rgba(27,27,27,0.3)"/><path d="M435.93,89.32a6.8,6.8,0,0,0-.57-.73V65.09a2.529,2.529,0,0,0-.83-1.86l-.57-.4a2.462,2.462,0,0,0-1.12-.26h-5.98v-.82a3.026,3.026,0,0,0-.02-.31,1.6,1.6,0,0,0-.06-.3,1.308,1.308,0,0,0-.09-.28,2.251,2.251,0,0,0-.56-.86c-.06-.06-.12-.11-.18-.16a1.332,1.332,0,0,0-.19-.14c0-.01-.01-.01-.02-.02a.434.434,0,0,0-.07-.04,1.008,1.008,0,0,0-.23-.12,1.281,1.281,0,0,0-.34-.14,1.982,1.982,0,0,0-.35-.08,2.308,2.308,0,0,0-.37-.03,2.477,2.477,0,0,0-2.47,2.48v.82H408.54v-.82a2.449,2.449,0,0,0-1.09-2.05,2.4,2.4,0,0,0-1.38-.43,2.48,2.48,0,0,0-2.48,2.48v.82h-5.98a2.514,2.514,0,0,0-2.51,2.52V95.7a2.494,2.494,0,0,0,.84,1.88l.47.33a.035.035,0,0,1,.02.01,2.638,2.638,0,0,0,1.18.29h11.25a.825.825,0,0,0,0-1.65H397.61a.86.86,0,0,1-.86-.86V65.09a.862.862,0,0,1,.86-.87h5.99v.83a2.475,2.475,0,0,0,4.95,0v-.83h13.36v.92a2.478,2.478,0,0,0,2.47,2.38,2.185,2.185,0,0,0,.77-.13,2.456,2.456,0,0,0,1.71-2.34v-.83h5.98a.877.877,0,0,1,.87.87v4.08H402.52a.825.825,0,1,0,0,1.65h31.19V87.19a7.672,7.672,0,0,0-2.31-.97V73.96a.828.828,0,0,0-.83-.83H399.88a.82.82,0,0,0-.82.83V93.43a.817.817,0,0,0,.82.82h21.96c.01.22.04.45.07.67a7.794,7.794,0,0,0,.44,1.64h-6.89a.825.825,0,1,0,0,1.65h7.78a7.747,7.747,0,1,0,12.69-8.89Zm-11.25,8.07a6.014,6.014,0,0,1-1.2-3.63,5.857,5.857,0,0,1,.13-1.26,6.105,6.105,0,1,1,1.07,4.89Zm.53-32.34a.825.825,0,0,1-1.65,0v-3.3a.825.825,0,1,1,1.65,0Zm-18.31,0a.825.825,0,0,1-1.65,0v-3.3a.826.826,0,0,1,.82-.83.834.834,0,0,1,.83.83Zm18.36,9.73h4.49v4.87h-4.49Zm0,6.52h4.49V86h-.17a8.585,8.585,0,0,0-1.13.08h-3.19Zm-6.14-6.52h4.49v4.87h-4.49Zm0,6.52h4.49v4.79h-4.49Zm-12.28-6.52h4.49v4.87h-4.49Zm4.49,11.31h-4.49V81.3h4.49ZM400.71,74.78h4.49v4.87h-4.49Zm0,6.52h4.49v4.79h-4.49Zm0,11.3V87.74h4.49V92.6Zm10.62,0h-4.49V87.74h4.49Zm6.14,0h-4.49V87.74h4.49Zm0-6.51h-4.49V81.3h4.49Zm0-6.44h-4.49V74.78h4.49Zm1.65,12.95V87.74h4.49v1.08a7.712,7.712,0,0,0-1.7,3.78Z" fill="#fff"/><path d="M431.967,91.759l-2.552,2.552-1.135-1.135a.825.825,0,0,0-1.167,1.167h0l1.719,1.719a.826.826,0,0,0,1.167,0h0l3.135-3.135a.825.825,0,0,0-1.167-1.167h0Z" fill="#fff"/><path d="M412.156,96.563a.825.825,0,1,0,.583.242A.825.825,0,0,0,412.156,96.563Z" fill="#fff"/><path d="M399.8,70.581a.823.823,0,1,0-.583.242A.824.824,0,0,0,399.8,70.581Z" fill="#fff"/></g></g><circle cx="22.5" cy="22.5" r="22.5" transform="translate(887 680)" fill="#a2adb8"/><g clip-path="url(#d)"><g transform="translate(418.62 671.085)"><path d="M523.381,36.526l-16.21,23.13-.71,1.02-.01-.01-.43.6-3.03-2.1-21.68-15.1-.56-.39-1.24-1.24a1.388,1.388,0,0,1,0-1.96l.37-.37a.471.471,0,0,0,.09-.52,3.252,3.252,0,0,1-.18-.43.464.464,0,0,0-.43-.3h-.51a1.387,1.387,0,0,1-1.39-1.39v-1.86a1.393,1.393,0,0,1,1.39-1.39h.51a.429.429,0,0,0,.43-.3c.06-.15.12-.29.19-.43a.457.457,0,0,0-.1-.52l-.36-.36a1.4,1.4,0,0,1,0-1.97l1.31-1.31a1.388,1.388,0,0,1,1.96,0l.37.36a.442.442,0,0,0,.51.09c.15-.06.29-.12.44-.18a.464.464,0,0,0,.3-.43v-.51a1.389,1.389,0,0,1,1.18-1.37l-1.31-1.31-1.36-1.37a1.388,1.388,0,0,1,0-1.96l1.97-1.97a1.4,1.4,0,0,1,1.97,0l1.03,1.03a.444.444,0,0,0,.52.09,11.513,11.513,0,0,1,1.26-.52.454.454,0,0,0,.3-.43v-1.46a1.387,1.387,0,0,1,1.39-1.39h2.78a1.387,1.387,0,0,1,1.39,1.39v1.46a.463.463,0,0,0,.31.43,9.829,9.829,0,0,1,1.26.52.444.444,0,0,0,.52-.09l1.03-1.03a1.386,1.386,0,0,1,1.62-.24l.34.23.01.01Z" fill="rgba(0,0,0,0.3)"/><path d="M494.611,34.216h-.51a.454.454,0,0,1-.43-.3c-.06-.15-.12-.29-.19-.43a.457.457,0,0,1,.1-.52l.36-.36a1.4,1.4,0,0,0,0-1.97l-1.31-1.31a1.388,1.388,0,0,0-1.96,0l-.37.36a.457.457,0,0,1-.52.1c-.14-.07-.28-.13-.43-.19a.454.454,0,0,1-.3-.43v-.51a1.393,1.393,0,0,0-1.39-1.39H485.8a1.492,1.492,0,0,0-.21.02,1.389,1.389,0,0,0-1.18,1.37v.51a.464.464,0,0,1-.3.43c-.15.06-.29.12-.44.18a.442.442,0,0,1-.51-.09l-.37-.36a1.388,1.388,0,0,0-1.96,0l-1.31,1.31a1.4,1.4,0,0,0,0,1.97l.36.36a.457.457,0,0,1,.1.52c-.07.14-.13.28-.19.43a.429.429,0,0,1-.43.3h-.51a1.393,1.393,0,0,0-1.39,1.39v1.86a1.387,1.387,0,0,0,1.39,1.39h.51a.464.464,0,0,1,.43.3,3.252,3.252,0,0,0,.18.43.471.471,0,0,1-.09.52l-.37.37a1.388,1.388,0,0,0,0,1.96l1.24,1.24.07.07a1.653,1.653,0,0,0,.49.32,1.41,1.41,0,0,0,1.48-.32l.36-.36a.46.46,0,0,1,.52-.09c.14.06.29.12.44.18a.464.464,0,0,1,.3.43v.51a1.387,1.387,0,0,0,1.39,1.39h1.85a1.387,1.387,0,0,0,1.39-1.39v-.51a.464.464,0,0,1,.3-.43,3.384,3.384,0,0,0,.44-.18.474.474,0,0,1,.52.09l.36.37a1.4,1.4,0,0,0,1.97,0l1.31-1.31a1.4,1.4,0,0,0,0-1.97l-.37-.36a.474.474,0,0,1-.09-.52c.07-.14.13-.29.19-.44a.454.454,0,0,1,.43-.3h.51a1.38,1.38,0,0,0,1.37-1.19,1.23,1.23,0,0,0,.02-.2v-1.85A1.4,1.4,0,0,0,494.611,34.216Zm.47,1.39v1.86h-.01a.465.465,0,0,1-.46.46h-.51a1.386,1.386,0,0,0-1.3.9c-.05.13-.1.26-.16.38a1.391,1.391,0,0,0,.28,1.56l.36.36a.471.471,0,0,1,0,.66l-1.31,1.31a.471.471,0,0,1-.66,0l-.36-.37a1.426,1.426,0,0,0-1.56-.28,2.543,2.543,0,0,1-.38.16,1.406,1.406,0,0,0-.9,1.3v.52a.465.465,0,0,1-.46.46H485.8a.467.467,0,0,1-.47-.46v-.52a1.406,1.406,0,0,0-.9-1.3c-.13-.04-.26-.1-.38-.15a1.405,1.405,0,0,0-1.56.27l-.36.37a.471.471,0,0,1-.66,0l-1.31-1.31a.471.471,0,0,1,0-.66l.37-.36a1.426,1.426,0,0,0,.28-1.56c-.06-.12-.11-.25-.16-.38a1.406,1.406,0,0,0-1.3-.9h-.5a.467.467,0,0,1-.47-.46v-1.86a.467.467,0,0,1,.47-.46h.51a1.406,1.406,0,0,0,1.3-.9c.05-.13.1-.26.16-.39a1.378,1.378,0,0,0-.28-1.55l-.37-.36a.471.471,0,0,1,0-.66l1.31-1.31a.471.471,0,0,1,.66,0l.36.36a1.391,1.391,0,0,0,1.56.28c.12-.05.25-.11.38-.16a1.386,1.386,0,0,0,.9-1.3v-.51a.465.465,0,0,1,.46-.46h1.86a.392.392,0,0,1,.18.04.407.407,0,0,1,.24.24.392.392,0,0,1,.04.18v.51a1.386,1.386,0,0,0,.9,1.3c.13.05.26.1.38.16a1.363,1.363,0,0,0,.91.08,1.281,1.281,0,0,0,.65-.36l.36-.36a.471.471,0,0,1,.66,0l1.31,1.31a.471.471,0,0,1,0,.66l-.37.36a1.34,1.34,0,0,0-.35.65,1.363,1.363,0,0,0,.08.91c.05.12.11.25.16.38a1.386,1.386,0,0,0,1.3.9h.5a.342.342,0,0,1,.18.04l.03.02a.4.4,0,0,1,.22.22A.392.392,0,0,1,495.081,35.606Z" fill="#fff"/><path d="M490.889,36.348a3.073,3.073,0,0,0-.025-.332,3.312,3.312,0,0,0-.058-.352c-.016-.075-.037-.151-.058-.226-.025-.1-.054-.189-.087-.283-.023-.064-.046-.127-.071-.191a4.148,4.148,0,0,0-.2-.434c-.006-.01-.009-.022-.015-.032a3.95,3.95,0,0,0-.418-.608c-.013-.017-.029-.032-.043-.049-.066-.077-.133-.15-.2-.219-.037-.038-.074-.073-.112-.11s-.093-.086-.139-.126a2.06,2.06,0,0,0-.173-.141l-.076-.057a4.134,4.134,0,0,0-2.484-.827c-.047,0-.094.007-.14.008a2.745,2.745,0,0,0-.3.019c-.052.006-.105.012-.157.02a4.273,4.273,0,0,0-.449.083,4.174,4.174,0,0,0,0,8.084h.023a4.043,4.043,0,0,0,.486.093c.108.014.215.016.324.022.072,0,.139.014.214.014.132,0,.27-.008.41-.022a.339.339,0,0,0,.046-.007c.112-.012.227-.029.343-.052.046-.008.089-.02.134-.03.081-.02.162-.039.247-.064.065-.02.127-.043.191-.065s.13-.046.194-.071.122-.054.182-.082c.078-.036.155-.071.232-.112h0a5.431,5.431,0,0,0,1.188-.858,1.462,1.462,0,0,0,.249-.3,4.923,4.923,0,0,0,.7-1.906c.013-.089.024-.178.031-.27s.012-.168.013-.251v-.078A.984.984,0,0,0,490.889,36.348Zm-4.977-2.958a3.4,3.4,0,0,1,.815-.1,3.138,3.138,0,0,1,.4.028.616.616,0,0,1,.1.015c.1.016.2.036.3.061l.1.024a3.211,3.211,0,0,1,.706.3l.1.064c.074.046.145.094.214.146.038.028.076.054.112.083a3.363,3.363,0,0,1,.26.232c.034.034.064.071.1.1.053.058.105.117.155.179.035.044.067.088.1.133.046.067.093.137.134.206.023.039.046.076.071.116a2.849,2.849,0,0,1,.16.34c.019.046.034.093.051.139.03.085.056.171.079.258.012.046.024.088.034.133a2.865,2.865,0,0,1,.059.38.55.55,0,0,0,.006.1,2.449,2.449,0,0,1,0,.321.754.754,0,0,1-.006.116,3.3,3.3,0,0,1-.042.337,3.247,3.247,0,0,1-1.629,2.271c-.056.03-.113.058-.17.083l-.038.019a3.327,3.327,0,0,1-.845.256l-.062.01c-.058.008-.115.015-.171.02-.075.007-.15.01-.227.012h-.1c-.11,0-.219-.008-.329-.02l-.056-.007a3.51,3.51,0,0,1-.379-.071,3.245,3.245,0,0,1,0-6.286Z" fill="#fff"/><path d="M505.271,29.116V31.9a1.387,1.387,0,0,1-1.39,1.39h-1.46a.45.45,0,0,0-.43.31,10.6,10.6,0,0,1-.52,1.25.47.47,0,0,0,.08.53l1.04,1.03a1.4,1.4,0,0,1,0,1.97l-1.97,1.96a1.382,1.382,0,0,1-1.97,0l-1.42-1.42-.11-.11a.46.46,0,0,1,.64-.66c.01,0,.02.01.03.02l.09.1,1.43,1.42a.459.459,0,0,0,.65,0l1.97-1.97a.459.459,0,0,0,0-.65l-1.03-1.04a1.369,1.369,0,0,1-.26-1.59,9.279,9.279,0,0,0,.47-1.13,1.388,1.388,0,0,1,1.31-.94h1.46a.459.459,0,0,0,.46-.46v-2.78a.461.461,0,0,0-.46-.47h-1.46a1.366,1.366,0,0,1-1.31-.93,9.419,9.419,0,0,0-.47-1.14A1.369,1.369,0,0,1,500.9,25l1.03-1.04a.442.442,0,0,0,0-.65l-1.96-1.97a.471.471,0,0,0-.66,0l-1.03,1.03a1.382,1.382,0,0,1-1.6.26,8.664,8.664,0,0,0-1.13-.47,1.388,1.388,0,0,1-.94-1.31v-1.46a.465.465,0,0,0-.46-.46h-2.79a.465.465,0,0,0-.46.46v1.46a1.375,1.375,0,0,1-.94,1.31,9.992,9.992,0,0,0-1.13.47,1.367,1.367,0,0,1-1.59-.26l-1.04-1.03a.471.471,0,0,0-.66,0l-1.96,1.97a.459.459,0,0,0,0,.65l1.36,1.37.16.15c.01.01.02.02.02.03a.465.465,0,0,1-.68.63l-.16-.16-1.36-1.37a1.388,1.388,0,0,1,0-1.96l1.97-1.97a1.4,1.4,0,0,1,1.97,0l1.03,1.03a.444.444,0,0,0,.52.09,11.513,11.513,0,0,1,1.26-.52.454.454,0,0,0,.3-.43v-1.46a1.387,1.387,0,0,1,1.39-1.39h2.78a1.387,1.387,0,0,1,1.39,1.39v1.46a.463.463,0,0,0,.31.43,9.829,9.829,0,0,1,1.26.52.444.444,0,0,0,.52-.09l1.03-1.03a1.386,1.386,0,0,1,1.62-.24l.34.23.01.01,1.97,1.97a1.388,1.388,0,0,1,0,1.96l-1.03,1.04a.444.444,0,0,0-.09.52,11.514,11.514,0,0,1,.52,1.26.454.454,0,0,0,.43.3h1.46A1.387,1.387,0,0,1,505.271,29.116Z" fill="#fff"/><path d="M497.013,26.246a6.034,6.034,0,0,0-8.522,0,.464.464,0,0,0,.655.656,5.1,5.1,0,0,1,7.26,7.163l-.049.047a.464.464,0,0,0,.645.667l.01-.012A6.03,6.03,0,0,0,497.013,26.246Z" fill="#fff"/></g></g><ellipse cx="35.5" cy="35" rx="35.5" ry="35" transform="translate(238 761)" fill="#4dc4ff"/><g clip-path="url(#e)"><g transform="translate(-39.41 744.251)"><path d="M354.01,60.11,332.15,91.3l-.96,1.38-.02-.02-.58.81-4.08-2.83L296.62,69.82l-.59-.41a2.092,2.092,0,0,1-.62-1.5V36.14a2.119,2.119,0,0,1,2.11-2.12h18.84a.764.764,0,0,1,.27.05.031.031,0,0,0,.02.01l.19.13.02.02Z" fill="rgba(27,27,27,0.3)"/><path d="M323.61,40.98l-6.75-6.75-.02-.02-.19-.13a.031.031,0,0,1-.02-.01.764.764,0,0,0-.27-.05H297.52a2.119,2.119,0,0,0-2.11,2.12V67.91a2.092,2.092,0,0,0,.62,1.5,2.017,2.017,0,0,0,.59.41,1.955,1.955,0,0,0,.9.21h4.64V68.62h-4.64a.7.7,0,0,1-.71-.7V36.14a.7.7,0,0,1,.71-.7h18.14v4.64a2.108,2.108,0,0,0,2.1,2.11h4.64v8.64a.713.713,0,0,0,.71.71.7.7,0,0,0,.7-.71V41.48A.738.738,0,0,0,323.61,40.98Zm-5.84-.21a.687.687,0,0,1-.7-.69V36.43l4.34,4.34Z" fill="#fff"/><path d="M316.09,58.293h-4.511a.7.7,0,0,0-.692.692V70.037h5.9V58.985a.689.689,0,0,0-.688-.692Zm-.707,10.33h-3.1V59.691h3.1Z" fill="#fff"/><path d="M330.706,48.714h-4.5a.7.7,0,0,0-.707.692v3.549a.707.707,0,0,0,1.414,0V50.113h3.1v18.51h-3.1V58.232a.707.707,0,0,0-1.414,0v11.8h5.2a.705.705,0,0,0,.707-.7V49.4A.7.7,0,0,0,330.706,48.714Z" fill="#fff"/><path d="M323.395,53.361h-4.5a.707.707,0,0,0-.707.705V70.037h5.91V54.068A.705.705,0,0,0,323.395,53.361Zm-.707,15.263h-3.083V54.774h3.09Z" fill="#fff"/><path d="M308.767,62.322h-4.5a.707.707,0,0,0-.707.705v7.009h5.91V63.029A.705.705,0,0,0,308.767,62.322Zm-.692,6.3h-3.1V63.735h3.1Z" fill="#fff"/><path d="M326.211,56.171a.7.7,0,1,0-.5-.206A.71.71,0,0,0,326.211,56.171Z" fill="#fff"/><path d="M305.649,37.874a.7.7,0,0,0-.7.7h0v1.265a6.468,6.468,0,1,0,7.129,7.135h1.265a.7.7,0,0,0,.7-.7h0A8.406,8.406,0,0,0,305.649,37.874Zm0,13.458a5.06,5.06,0,0,1-.7-10.072v5.014a.7.7,0,0,0,.7.7h5.012a5.066,5.066,0,0,1-5.012,4.361Zm.7-5.764V39.316a7,7,0,0,1,6.254,6.252Z" fill="#fff"/><path d="M314.046,55.422a.7.7,0,0,0-.7-.7h-13.43a.7.7,0,0,0,0,1.406h13.43a.7.7,0,0,0,.7-.7Z" fill="#fff"/><path d="M299.913,58.112a.7.7,0,1,0,0,1.406h4.5a.7.7,0,1,0,0-1.406Z" fill="#fff"/><path d="M307.438,58.318a.7.7,0,1,0,.5-.206A.71.71,0,0,0,307.438,58.318Z" fill="#fff"/></g></g><ellipse cx="31.5" cy="31" rx="31.5" ry="31" transform="translate(616 533)" fill="#71e2d0"/><g clip-path="url(#f)"><g transform="translate(446.611 518.65)"><path d="M213.09,28.35l-.73-.51c-.01-.01-.01-.01-.02-.01a4.019,4.019,0,0,0-1.92-.48H191.19a4.067,4.067,0,0,0-4.07,4.07v.46h-.02v1.31h-1.9a.81.81,0,0,0,0,1.62h1.9v5.35h-1.9a.8.8,0,0,0-.81.79v.02a.807.807,0,0,0,.81.81h1.9v5.34h-.49v-.01H185.2a.815.815,0,0,0-.01,1.63h1.91v5.34h-1.9a.807.807,0,0,0-.81.81.822.822,0,0,0,.81.82h1.9v1.76a4.051,4.051,0,0,0,1.79,3.37l27.4,19.09,4.06,2.81.57-.8.02.01.95-1.36L243.6,49.61Z" fill="rgba(0,0,0,0.3)"/><rect width="1.65" height="3.72" transform="translate(187.1 42.59)" fill="#fff"/><rect width="1.65" height="3.72" transform="translate(187.1 35.62)" fill="#fff"/><path d="M214.49,31.42V57.47a4.067,4.067,0,0,1-4.07,4.07H191.17a4.073,4.073,0,0,1-4.07-4.07v-.95h1.65v.97a2.426,2.426,0,0,0,2.44,2.42h19.25a2.439,2.439,0,0,0,2.42-2.44V31.4a2.439,2.439,0,0,0-2.44-2.42H191.17a2.433,2.433,0,0,0-2.42,2.44v.95h-1.63v-.95a4.067,4.067,0,0,1,4.07-4.07h19.23a4.019,4.019,0,0,1,1.92.48c.01,0,.01,0,.02.01l.73.51A4.033,4.033,0,0,1,214.49,31.42Z" fill="#fff"/><rect width="1.65" height="3.72" transform="translate(187.1 49.55)" fill="#fff"/><path d="M191.46,40.97a.822.822,0,0,1-.82.81H185.2a.807.807,0,0,1-.81-.81v-.02a.8.8,0,0,1,.81-.79h1.9v-.01h1.64v.01h1.92A.8.8,0,0,1,191.46,40.97Z" fill="#fff"/><path d="M191.46,34a.822.822,0,0,1-.82.81H185.2a.81.81,0,0,1,0-1.62h5.44A.822.822,0,0,1,191.46,34Z" fill="#fff"/><path d="M191.46,54.89v.02a.818.818,0,0,1-.81.8H185.2a.822.822,0,0,1-.81-.82.807.807,0,0,1,.81-.81h5.45A.813.813,0,0,1,191.46,54.89Z" fill="#fff"/><path d="M191.46,47.92a.833.833,0,0,1-.81.84H187.1v-.02h-1.91a.815.815,0,0,1,.01-1.63h1.41v.01h2.46v-.01h1.58A.813.813,0,0,1,191.46,47.92Z" fill="#fff"/><path d="M200.8,36.31a3.95,3.95,0,1,0,3.95,3.95A3.952,3.952,0,0,0,200.8,36.31Zm0,6.27a2.325,2.325,0,1,1,2.32-2.33A2.324,2.324,0,0,1,200.8,42.58Z" fill="#fff"/><path d="M200.94,45.52h-.14a6.077,6.077,0,0,0-6.04,6.12v.13a.815.815,0,0,0,.81.82h10.46a.837.837,0,0,0,.82-.82A6.1,6.1,0,0,0,200.94,45.52Zm-4.49,5.44a4.389,4.389,0,0,1,8.7,0Z" fill="#fff"/></g></g><ellipse cx="29" cy="28.5" rx="29" ry="28.5" transform="translate(858 467)" fill="#ffa071"/><g clip-path="url(#g)"><g transform="translate(605.66 398.42)"><path d="M322.83,99.35l-21.72,31.01-.96,1.36-.01-.01-.58.81-4.06-2.82-28.03-19.53-.51-.36c-.01,0-.02-.01-.03-.02a2,2,0,0,1-.59-1.43V83.48a3.905,3.905,0,0,1,3.9-3.9h23a3.789,3.789,0,0,1,2.08.61,3.6,3.6,0,0,1,.4.28Z" fill="rgba(0,0,0,0.3)"/><path d="M295.72,80.47a3.6,3.6,0,0,0-.4-.28,3.789,3.789,0,0,0-2.08-.61h-23a3.905,3.905,0,0,0-3.9,3.9v24.88a2,2,0,0,0,.59,1.43c.01.01.02.02.03.02l.51.36a1.914,1.914,0,0,0,.89.21h8.83a.67.67,0,0,0,0-1.34h-8.83a.67.67,0,0,1-.67-.67V83.48a2.548,2.548,0,0,1,2.55-2.55H290.3a3.866,3.866,0,0,0-.96,2.55v21.67a1.124,1.124,0,0,1-2.19.36l-1.02-3.04a2.1,2.1,0,0,0-2.66-1.32,2.12,2.12,0,0,0-1.43,1.98v.53h-3.48a.67.67,0,1,0,0,1.34h3.48v3.35a7.432,7.432,0,0,0,.58,2.87l.99,2.38a.666.666,0,0,0,.87.36.673.673,0,0,0,.37-.88l-.99-2.37a5.818,5.818,0,0,1-.47-2.36v-5.22a.75.75,0,0,1,1.46-.24l1.02,3.05a2.469,2.469,0,0,0,4.81-.79V93.63l.9.9a8.412,8.412,0,0,1,2.49,5.99v7.15a12.75,12.75,0,0,1-1.22,5.39.673.673,0,0,0,1.22.57,13.953,13.953,0,0,0,1.34-5.96v-7.15a9.749,9.749,0,0,0-2.88-6.95l-1.85-1.84v-.65h4.44a2.019,2.019,0,0,0,2.02-2.01V83.48A3.893,3.893,0,0,0,295.72,80.47Zm-.6,9.27h-4.44V83.48a2.555,2.555,0,0,1,5.11,0l.01,5.59A.685.685,0,0,1,295.12,89.74Z" fill="#fff"/><path d="M280.125,109.041a.673.673,0,1,0,.475.2A.673.673,0,0,0,280.125,109.041Z" fill="#fff"/><path d="M275.6,84.56a1.347,1.347,0,0,0-1.345-1.345h-2.959a1.347,1.347,0,0,0-1.345,1.345v2.955a1.347,1.347,0,0,0,1.345,1.345h2.959a1.347,1.347,0,0,0,1.345-1.345Zm-1.345,2.955h-2.959V84.56h2.959Z" fill="#fff"/><path d="M275.6,92.63a1.345,1.345,0,0,0-1.345-1.345h-2.959a1.347,1.347,0,0,0-1.345,1.345v2.955a1.347,1.347,0,0,0,1.345,1.345h2.959a1.345,1.345,0,0,0,1.345-1.345Zm-1.345,2.955h-2.959V92.626h2.959Z" fill="#fff"/><path d="M274.253,99.354h-2.959a1.346,1.346,0,0,0-1.345,1.345v2.955A1.347,1.347,0,0,0,271.294,105h2.959a1.345,1.345,0,0,0,1.345-1.345v-2.959A1.346,1.346,0,0,0,274.253,99.354Zm0,4.3h-2.959v-2.959h2.959Z" fill="#fff"/><path d="M286.264,88.864a.673.673,0,1,0,0-1.345h-4.636a.673.673,0,0,0,0,1.345Z" fill="#fff"/><path d="M278.556,88.864a.673.673,0,1,0-.475-.2A.673.673,0,0,0,278.556,88.864Z" fill="#fff"/><path d="M278.556,96.934h7.711a.673.673,0,1,0,0-1.345h-7.711a.673.673,0,0,0,0,1.345Z" fill="#fff"/></g></g><ellipse cx="35.5" cy="35" rx="35.5" ry="35" transform="translate(270 463)" fill="#b38dff"/><g clip-path="url(#h)"><g transform="translate(97.971 416.384)"><path d="M258.52,88.73l-25.74,36.73-1.13,1.61-.02-.01-.68.95-4.81-3.33-35.19-24.51-.93-.65c-.02-.02-.04-.03-.06-.05a4.581,4.581,0,0,1,5.81-7.06l4-4a9.962,9.962,0,0,1-.01-13.04l-6.48-6.48a3.128,3.128,0,1,1,1.04-1.04l6.47,6.48a9.962,9.962,0,0,1,13.04,0l4.56-4.56a3.831,3.831,0,0,1,4.98-5.52l.76.53Z" fill="rgba(0,0,0,0.3)"/><path d="M202.393,81.885a4.923,4.923,0,1,0,4.923-4.923A4.923,4.923,0,0,0,202.393,81.885Zm8.378,0a3.455,3.455,0,1,1-3.455-3.455,3.455,3.455,0,0,1,3.455,3.455Z" fill="#fff"/><path d="M225.99,81.16a2.349,2.349,0,0,0-4.46,0h-4.26a9.862,9.862,0,0,0-2.4-5.79l4.56-4.56a3.833,3.833,0,0,0,4.7-6.03,3.393,3.393,0,0,0-.42-.33,3.871,3.871,0,0,0-5.32,1.04,3.836,3.836,0,0,0,0,4.28l-4.56,4.56a9.962,9.962,0,0,0-13.04,0l-6.47-6.48a3.128,3.128,0,1,0-1.04,1.04l6.48,6.48a9.962,9.962,0,0,0,.01,13.04l-4,4a4.581,4.581,0,0,0-5.81,7.06c.02.02.04.03.06.05.12.11.25.21.38.31a4.578,4.578,0,0,0,6.4-6.38l4-4a9.914,9.914,0,0,0,5.79,2.39v2.89a3.016,3.016,0,1,0,1.47,0V91.84a9.911,9.911,0,0,0,3.38-.86.736.736,0,0,0-.61-1.34,8.5,8.5,0,1,1,4.24-4.23.729.729,0,1,0,1.32.62c.01,0,.01-.01.01-.02a9.867,9.867,0,0,0,.87-3.38h4.26a2.348,2.348,0,1,0,4.46-1.47Zm-4.42-15.89a2.365,2.365,0,1,1-2.36,2.36A2.364,2.364,0,0,1,221.57,65.27Zm-29.92,2.61a1.66,1.66,0,1,1,1.66-1.66A1.662,1.662,0,0,1,191.65,67.88Zm3.63,30.42a3.1,3.1,0,1,1,.91-2.19A3.083,3.083,0,0,1,195.28,98.3Zm13.6-.65a1.555,1.555,0,1,1-1.55-1.55A1.547,1.547,0,0,1,208.88,97.65Zm14.88-14.87v-.01a.88.88,0,0,1,0-1.76.885.885,0,0,1,0,1.77Z" fill="#fff"/><path d="M213.848,87.683a.734.734,0,1,0,.519.215A.743.743,0,0,0,213.848,87.683Z" fill="#fff"/></g></g><circle cx="7.5" cy="7.5" r="7.5" transform="translate(382 1161)" fill="#9065e5"/><g transform="translate(10082 -12062)"><circle cx="35" cy="35" r="35" transform="translate(-9370 13223)" fill="#7ea9ff"/><g clip-path="url(#i)"><g transform="translate(-9544.375 13187.376)"><path d="M263.23,75.17l-26.35,37.6-1.16,1.66-.02-.01-.7.97-4.92-3.41L195.36,87.79c-.2-.13-.4-.27-.59-.41a15.644,15.644,0,0,1-1.64-1.41,13.687,13.687,0,0,1-1.8-2.21.681.681,0,0,1,.08-.85l1.66-1.65-.29-.69-.13-.32h-2.34a.664.664,0,0,1-.65-.55,14.292,14.292,0,0,1,0-5.68.664.664,0,0,1,.65-.54h2.34l.28-.7.14-.3-1.66-1.67a.652.652,0,0,1-.08-.83,13.82,13.82,0,0,1,4.03-4.03.587.587,0,0,1,.37-.12.673.673,0,0,1,.48.2l1.66,1.66s.55-.26.68-.29l.32-.13V64.93a.686.686,0,0,1,.53-.67,15.139,15.139,0,0,1,2.85-.29c.48.01.97.04,1.45.09l.55.06V51.3a.672.672,0,0,1,.69-.66H227.8a.7.7,0,0,1,.38.11Z" fill="rgba(0,0,0,0.3)"/><path d="M202.25,73.47a3.361,3.361,0,0,1,1.77.5l.23.15v-1.6l-.63-.2a4.883,4.883,0,0,0-1.37-.2,4.745,4.745,0,1,0,.01,9.49,4.814,4.814,0,0,0,1.36-.2l.63-.18v-1.6l-.23.15a3.562,3.562,0,0,1-1.77.48,3.4,3.4,0,1,1,0-6.79Zm1.45-9.41c-.48-.05-.97-.08-1.45-.09a15.139,15.139,0,0,0-2.85.29.686.686,0,0,0-.53.67v2.34l-.32.13c-.13.03-.68.29-.68.29l-1.66-1.66a.673.673,0,0,0-.48-.2.587.587,0,0,0-.37.12,13.82,13.82,0,0,0-4.03,4.03.652.652,0,0,0,.08.83l1.66,1.67-.14.3-.28.7h-2.34a.664.664,0,0,0-.65.54,14.292,14.292,0,0,0,0,5.68.664.664,0,0,0,.65.55h2.34l.13.32.29.69-1.66,1.65a.681.681,0,0,0-.08.85,13.687,13.687,0,0,0,1.8,2.21,15.644,15.644,0,0,0,1.64,1.41c.19.14.39.28.59.41a.7.7,0,0,0,.85-.1l1.65-1.65.32.15c.12.05.69.27.69.27V88.8a.666.666,0,0,0,.53.66,14.331,14.331,0,0,0,2.84.29h2.01V88.39h-2.01a11.865,11.865,0,0,1-1.58-.1l-.46-.05V85.97a.657.657,0,0,0-.46-.65,7.823,7.823,0,0,1-1.69-.7.711.711,0,0,0-.32-.07.7.7,0,0,0-.47.19l-1.62,1.62-.35-.27a13.487,13.487,0,0,1-1.2-1.07,15.027,15.027,0,0,1-1.05-1.2l-.27-.35,1.6-1.6a.654.654,0,0,0,.12-.8,10.547,10.547,0,0,1-.7-1.67.663.663,0,0,0-.64-.49h-2.29l-.05-.43a13.259,13.259,0,0,1,0-3.21l.05-.44h2.29a.666.666,0,0,0,.64-.48,9.819,9.819,0,0,1,.7-1.67.638.638,0,0,0-.12-.79l-1.6-1.62.27-.35a15.027,15.027,0,0,1,1.05-1.2,13.261,13.261,0,0,1,1.2-1.05l.35-.29L197.26,69a.6.6,0,0,0,.47.2.722.722,0,0,0,.32-.08,9.56,9.56,0,0,1,1.69-.7.657.657,0,0,0,.47-.64V65.49l.45-.05.66-.06.93-.04a13.787,13.787,0,0,1,1.57.1l.43.05V64.12Zm-1.45,8.06a4.745,4.745,0,1,0,.01,9.49,4.814,4.814,0,0,0,1.36-.2l.63-.18v-1.6l-.23.15a3.562,3.562,0,0,1-1.77.48,3.4,3.4,0,1,1,0-6.79,3.361,3.361,0,0,1,1.77.5l.23.15v-1.6l-.63-.2A4.883,4.883,0,0,0,202.25,72.12Z" fill="#fff"/><path d="M228.18,50.75a.7.7,0,0,0-.38-.11H204.94a.672.672,0,0,0-.69.66V89.75H227.8a.687.687,0,0,0,.69-.67V51.3A.7.7,0,0,0,228.18,50.75ZM227.13,88.4H205.6V51.99h21.53Z" fill="#fff"/><path d="M213.78,61.534l-.334-.117v-4.4a.685.685,0,0,0-.685-.669.67.67,0,0,0-.669.669v4.4l-.334.117a3.181,3.181,0,0,0,0,6.034l.334.117V83.348a.673.673,0,0,0,.662.685h.007a.688.688,0,0,0,.685-.685V67.685l.334-.117a3.181,3.181,0,0,0,0-6.034Zm-1.016,4.848a1.83,1.83,0,1,1,.018,0Z" fill="#fff"/><path d="M221.3,72.817l-.334-.117V57.02a.685.685,0,0,0-.685-.669.67.67,0,0,0-.669.669V72.7l-.334.117a3.174,3.174,0,0,0-.067,6l.318.134v4.4a.677.677,0,1,0,1.354,0V78.988l.351-.117a3.178,3.178,0,0,0,.067-6.051Zm-1.02,4.848a1.83,1.83,0,1,1,.018,0h-.018Z" fill="#fff"/></g></g></g></g></svg>