<svg xmlns="http://www.w3.org/2000/svg" width="611.712" height="103.494" viewBox="0 0 611.712 103.494"><g opacity="0.5"><path d="M-924.437,24.531h-428.5c37.481-45.287,76.826-22.149,76.826-22.149a55.689,55.689,0,0,1,26.937-41.162C-1200.647-67.6-1167.317-26-1167.317-26c14.191-40.207,45.075-54.571,71.747-52.82,42.807,2.805,65.394,21.572,77.171,42.475a96.48,96.48,0,0,1,10.743,31.055c.431,2.447.756,4.814,1,7.082.086.763.166,1.512.232,2.248l22.063,5.511,2.633.663,29.862,7.46Z" transform="translate(1352.94 78.963)" fill="#fff" opacity="0.1" style="isolation:isolate"/><g transform="translate(272.01 27.048)" opacity="0.1"><g transform="translate(0 0)"><path d="M-938.066,33.011c-3.13.265-4.688,1.273-4.688,3.017a2.386,2.386,0,0,0,.55,1.737,2.5,2.5,0,0,0,.763.5h6.658a2.718,2.718,0,0,0,1-.736,2.467,2.467,0,0,0,.4-1.505Q-933.374,32.616-938.066,33.011Zm326.311-2.387Q-620.9,27.6-624.945,28.4q.716-6.515-3.415-13.588-4.367-7.62-10.4-7.945-6.038-.4-9.45,6.035a52.707,52.707,0,0,0-7.547-11.433q-7.779-9.211-18.19-9.457a18.554,18.554,0,0,0-8.1,1.432q-.159-13.19-14.934-22.879-12.872-8.415-26.294-8.734-21.367-.4-30.658,13.661a36.89,36.89,0,0,0-4.768,11.042q-.557-.4-1.194-.8-7.938-4.377-14.457-4.45-9.291-.239-14.7,4.841a25.744,25.744,0,0,0-7.706-8.336,31.772,31.772,0,0,0-18.27-6.678,28.307,28.307,0,0,0-5.657.438,16.751,16.751,0,0,0-12.693,9.735,30.417,30.417,0,0,0-2.46,12.945v.007a38.607,38.607,0,0,0,.4,5.8,15.052,15.052,0,0,0-3.09-.159q-8.962-.169-14.132,4.523A15.43,15.43,0,0,0-854.82,6.79V6.8a18.654,18.654,0,0,0-1.512,2.381,26.711,26.711,0,0,0-1.293,2.964,26.524,26.524,0,0,0-1.406,5.776,11.711,11.711,0,0,0-7.547-2.467,14.861,14.861,0,0,0-1.91.08,8.619,8.619,0,0,0-7.547,5.723,23.2,23.2,0,0,0-1.585,7.149v.159a1.168,1.168,0,0,1-.477.08c-.053,0-.822-.345-2.3-1.035q-2.387-1.1-9.7,1.585-6.973,2.507-3.661,9.079h290.693Q-604.2,33.127-611.755,30.623Zm-290.866,4.47a9.452,9.452,0,0,0-3.124-1.85,32.131,32.131,0,0,0-5.352-1.684c-.855-.192-1.724-.345-2.593-.464q-11.519-1.671-11.519,4.37a2.628,2.628,0,0,0,.365,1.406,3.346,3.346,0,0,0,2.135,1.4h19.3a2.381,2.381,0,0,0,.59-.458,2.5,2.5,0,0,0,.643-1.791A1.371,1.371,0,0,0-902.62,35.093Z" transform="translate(942.763 38.177)" fill="#fff"/></g></g><g transform="translate(146.86 27.048)" opacity="0.2"><g transform="translate(0 0)"><path d="M-1126.786,33.011q-4.685.4-4.688,3.017a2.386,2.386,0,0,0,.55,1.737,2.5,2.5,0,0,0,.763.5h6.665a2.717,2.717,0,0,0,1-.736,2.558,2.558,0,0,0,.4-1.505Q-1122.1,32.616-1126.786,33.011ZM-799.7,30.9c-.252-.093-.511-.186-.776-.272-.55-.179-1.081-.351-1.6-.511q-7.888-2.437-11.585-1.711a18.853,18.853,0,0,0-.716-7.447,26.872,26.872,0,0,0-2.7-6.141q-4.367-7.62-10.4-7.945a8.633,8.633,0,0,0-6.7,2.341,13.712,13.712,0,0,0-2.745,3.694,51.958,51.958,0,0,0-4.728-7.865c-.882-1.227-1.824-2.421-2.818-3.568q-7.779-9.211-18.19-9.457a18.554,18.554,0,0,0-8.1,1.432q-.149-12.524-13.482-21.891c-.471-.332-.955-.663-1.452-.988Q-898.572-37.847-912-38.166q-21.377-.4-30.664,13.661c-.4.623-.783,1.253-1.141,1.9a36.808,36.808,0,0,0-3.627,9.145q-.557-.4-1.194-.8-7.938-4.377-14.457-4.45-9.291-.239-14.7,4.841a25.743,25.743,0,0,0-7.706-8.336,31.755,31.755,0,0,0-18.27-6.678q-13.419-.239-18.349,10.173a30.417,30.417,0,0,0-2.46,12.945l.007.007a36.944,36.944,0,0,0,.4,5.8,15.141,15.141,0,0,0-3.1-.159q-12.713-.239-17.8,9.291a26.432,26.432,0,0,0-2.7,8.74,11.711,11.711,0,0,0-7.547-2.467q-7.063-.159-9.45,5.8a23.012,23.012,0,0,0-1.592,7.149v.159a1.169,1.169,0,0,1-.478.08c-.053,0-.822-.345-2.3-1.035q-2.388-1.1-9.689,1.585-6.983,2.507-3.667,9.079h290.693Q-792.865,33.4-799.7,30.9Zm-294.765,2.348a32.03,32.03,0,0,0-7.945-2.149q-11.519-1.671-11.519,4.37,0,2.139,2.507,2.805h19.3a2.414,2.414,0,0,0,1.234-2.248Q-1090.889,34.748-1094.464,33.243Z" transform="translate(1131.483 38.177)" fill="#fff"/></g></g><g transform="translate(377.487 68.075)"><path d="M-769.877,54.1a5.452,5.452,0,0,0-3.495-1.366V52.73c-.511,0-.968.411-1.373,1.22a2.19,2.19,0,0,1-1.824,1.061q-.149,0-4.251-.756-2.895,0-2.891,2.732a6.142,6.142,0,0,0,.458,1.824q5.093.169,9.748.3h5.756A6.25,6.25,0,0,0-769.877,54.1Zm40.578,3.952a3,3,0,0,0-1.525-2.434,6.622,6.622,0,0,0-2.427-1.366,7.422,7.422,0,0,0-1.976-.61c-.206,0-.709.458-1.519,1.366a3.425,3.425,0,0,1-2.281,1.22c-.5,0-1.015-.511-1.519-1.519-.61-1.015-1.267-1.525-1.976-1.525a9.514,9.514,0,0,0-2.891.763h-1.519A5.938,5.938,0,0,0-746.779,50q-1.214-2.885-7.9-2.885-4.1,0-5.166,2.586a11.523,11.523,0,0,0-.272,2.553c-.02.617-.033,1.34-.033,2.155a16.519,16.519,0,0,0,.531,4.7h30.406Q-729.258,58.672-729.3,58.055Zm144.475,1.054a7.013,7.013,0,0,0-1.313-1.061,7.659,7.659,0,0,0-4.556-1.519,5.77,5.77,0,0,0-3.952,1.214c-.305,0-1.313-.7-3.037-2.122q-2.437-2.129-3.349-2.129a2.375,2.375,0,0,0-1.97.756,2.969,2.969,0,0,1-2.129.61,3.147,3.147,0,0,1-2.891-2.885,21.545,21.545,0,0,0,.458-3.8q0-2.885-3.342-5.166a11.331,11.331,0,0,0-6.691-2.281q-2.885,0-4.708,4.1a2.122,2.122,0,0,0-.153.6q-.259-.159-.458-.3a11.326,11.326,0,0,0-6.685-2.281,3.727,3.727,0,0,0-2.739,1.061,10.34,10.34,0,0,0-.909,1.519h-.153a32.2,32.2,0,0,0,.6-6.074,13.82,13.82,0,0,0-5.624-11.4A19.785,19.785,0,0,0-651.185,23.7q-7.908,0-11.857,6.081a17.6,17.6,0,0,0-2.885,9.271h-.458q-3.342,0-4.258,2.122a10.033,10.033,0,0,0-.3,3.044,40.929,40.929,0,0,0,2.129,5.318,2.768,2.768,0,0,1,.458.61l-.458-.305a.48.48,0,0,1,0-.305,5.852,5.852,0,0,0-2.586-.458,2.412,2.412,0,0,0-2.427,1.976c-.511,1.214-1.114,1.824-1.824,1.824a8.707,8.707,0,0,1-2.586-.909,7.308,7.308,0,0,0-2.281-1.061,7.379,7.379,0,0,0-1.366.6,6.015,6.015,0,0,1-.663.225,6.089,6.089,0,0,1-1.466.232c-.318,0-.617-.338-.915-1.015a20.47,20.47,0,0,1-1.061-4.151q-.905-5.322-8.813-5.318a8.726,8.726,0,0,0-2.427.312q-3.959,1.174-3.959,6.678a4.894,4.894,0,0,0,.153,1.519.6.6,0,0,1-.305,0,3.427,3.427,0,0,0-1.061-.305.823.823,0,0,0-.829.431,1.444,1.444,0,0,0-.08.789V52.73a8,8,0,0,0-3.495-.61q-2.278,0-2.586,1.214a2.787,2.787,0,0,0,.153,1.525h-1.061a8.008,8.008,0,0,0-4.257-1.061q-4.705,0-4.708,4.556c-.013.252-.026.5-.026.756" transform="translate(783.71 -23.691)" fill="#fff"/></g><g transform="translate(227.594 80.106)"><path d="M-919.067,65.221a5.243,5.243,0,0,0-3.1-1.028,3.935,3.935,0,0,0-2.692.822,1.385,1.385,0,0,1-.517-.252c-.3-.2-.71-.511-1.24-.942l-.312-.252c-1.107-.968-1.863-1.452-2.275-1.452a1.619,1.619,0,0,0-1.346.517,2.012,2.012,0,0,1-1.452.418,2.139,2.139,0,0,1-1.963-1.97,15.23,15.23,0,0,0,.305-2.573V58.5q0-1.96-2.275-3.515a7.7,7.7,0,0,0-4.556-1.558q-1.97,0-3.21,2.8a1.507,1.507,0,0,0-.106.411,3.445,3.445,0,0,1-.305-.206,7.752,7.752,0,0,0-4.556-1.552,2.522,2.522,0,0,0-1.863.723,7.514,7.514,0,0,0-.623,1.035h-.106a21.626,21.626,0,0,0,.418-4.138,9.427,9.427,0,0,0-3.833-7.766,13.482,13.482,0,0,0-8.694-2.891,8.981,8.981,0,0,0-8.071,4.138,12.013,12.013,0,0,0-1.969,6.313h-.312c-1.519,0-2.48.484-2.9,1.452a6.6,6.6,0,0,0-.206,2.069,27.472,27.472,0,0,0,1.446,3.621,2,2,0,0,1,.305.411l-.305-.206a.275.275,0,0,1,0-.206,4.12,4.12,0,0,0-1.764-.312,1.648,1.648,0,0,0-1.658,1.346c-.345.829-.756,1.24-1.24,1.24a5.661,5.661,0,0,1-1.757-.617,5.073,5.073,0,0,0-1.558-.729,6.12,6.12,0,0,0-.928.418,4.382,4.382,0,0,1-1.452.312c-.478,0-.928-1.174-1.34-3.521q-.627-3.621-6.008-3.621-4.347,0-4.344,4.761a3.206,3.206,0,0,0,.1,1.035.536.536,0,0,1-.206,0,2.311,2.311,0,0,0-.723-.206c-.484-.007-.69.272-.623.822v1.247a5.415,5.415,0,0,0-2.381-.418c-1.035,0-1.625.279-1.757.829a1.892,1.892,0,0,0,.1,1.035h-.723a5.478,5.478,0,0,0-2.9-.723q-3.1,0-3.2,2.891" transform="translate(1009.74 -41.833)" fill="#fff"/></g><g transform="translate(284.347 67.499)" opacity="0.8"><path d="M-747.516,58.817H-924.16a1.841,1.841,0,0,1,1.784-1.4h25.863c.04-.6.093-1.194.159-1.777a30.426,30.426,0,0,1,32.063-26.732c.358.02.71.046,1.068.086a30.319,30.319,0,0,1,11.864,3.694,30.375,30.375,0,0,1,11.433,11.148c.424.716.816,1.452,1.18,2.208a20.074,20.074,0,0,1,1.452-1.545,20.376,20.376,0,0,1,20.684-4.6,36.436,36.436,0,0,1,44.783-14.317,35.574,35.574,0,0,1,5.444,2.805c.7.438,1.373.889,2.029,1.366a36.446,36.446,0,0,1,13.807,20.067,36.76,36.76,0,0,1,1.194,7.6h.053A1.836,1.836,0,0,1-747.516,58.817Z" transform="translate(924.16 -22.823)" fill="#fff"/><path d="M-615.942,68.96h-34.229a1.84,1.84,0,0,1-1.84-1.84,1.84,1.84,0,0,1,1.84-1.84h34.229a1.841,1.841,0,0,1,1.84,1.84,1.84,1.84,0,0,1-1.84,1.84Z" transform="translate(832.487 -37.124)" fill="#fff"/></g></g><g transform="translate(543.824 39)"><path d="M1.561,25.659.343,24.44l24.1-24.1,1.218,1.22-24.1,24.1" transform="translate(-0.343 -0.342)" fill="#fff" fill-rule="evenodd"/><path d="M24.441,25.659.343,1.562,1.561.342l24.1,24.1-1.218,1.22" transform="translate(-0.343 -0.342)" fill="#fff" fill-rule="evenodd"/></g></svg>