<svg xmlns="http://www.w3.org/2000/svg" width="40" height="40" viewBox="0 0 40 40"><g transform="translate(14359 3198)"><rect width="40" height="40" transform="translate(-14359 -3198)" fill="none"/><g transform="translate(-14351 -3192)"><g transform="translate(2.168)"><rect width="1.317" height="2.981" transform="translate(0 12.182)" fill="#1b1b1b"/><rect width="1.317" height="2.974" transform="translate(0 6.611)" fill="#1b1b1b"/><path d="M74.62-40.99H59.238a3.253,3.253,0,0,0-3.253,3.253v.761h1.3v-.761a1.944,1.944,0,0,1,1.952-1.952H74.62a1.944,1.944,0,0,1,1.952,1.952V-16.9a1.944,1.944,0,0,1-1.952,1.952H59.238A1.944,1.944,0,0,1,57.287-16.9v-.764H55.97v.764a3.253,3.253,0,0,0,3.253,3.253h15.4A3.253,3.253,0,0,0,77.873-16.9V-37.737A3.253,3.253,0,0,0,74.62-40.99Z" transform="translate(-55.97 40.99)" fill="#1b1b1b"/><rect width="1.317" height="2.975" transform="translate(0 17.752)" fill="#1b1b1b"/></g><g transform="translate(0 4.661)"><path d="M55.221-33.076h1.128v0h1.963v0h1.262a.655.655,0,0,0,.651-.651.645.645,0,0,0-.651-.651H58.055v-.008H56.739v.008H55.221a.645.645,0,0,0-.651.651A.655.655,0,0,0,55.221-33.076Z" transform="translate(-54.57 39.955)" fill="#1b1b1b"/><path d="M55.221-36.678h4.353a.655.655,0,0,0,.651-.651.655.655,0,0,0-.651-.651H58.055v0h-1.3v0H55.221a.655.655,0,0,0-.651.651A.655.655,0,0,0,55.221-36.678Z" transform="translate(-54.57 37.981)" fill="#1b1b1b"/><path d="M56.336-25.889H58.3v0h1.275a.645.645,0,0,0,.651-.651.655.655,0,0,0-.651-.651H58.055v0H56.739v0H55.221a.655.655,0,0,0-.651.651.655.655,0,0,0,.651.651h1.115Z" transform="translate(-54.57 43.904)" fill="#1b1b1b"/><path d="M55.221-29.489h1.518v.015h2.835a.658.658,0,0,0,.651-.666.655.655,0,0,0-.651-.651H58.311v.009H56.348v-.009H55.221a.655.655,0,0,0-.651.651A.645.645,0,0,0,55.221-29.489Z" transform="translate(-54.57 41.929)" fill="#1b1b1b"/><path d="M64.162-30.049a3.159,3.159,0,0,0,3.158-3.158,3.159,3.159,0,0,0-3.158-3.158A3.159,3.159,0,0,0,61-33.208a3.159,3.159,0,0,0,3.158,3.158Zm0-5.02a1.859,1.859,0,0,1,1.859,1.859,1.858,1.858,0,0,1-1.859,1.859A1.858,1.858,0,0,1,62.3-33.211h0a1.859,1.859,0,0,1,1.859-1.856Z" transform="translate(-51.038 38.868)" fill="#1b1b1b"/><path d="M64.756-31.609a4.864,4.864,0,0,0-4.833,4.895l0,.105a.652.652,0,0,0,.651.651H68.94a.654.654,0,0,0,.651-.651,4.866,4.866,0,0,0-4.726-5Zm-3.478,4.35a3.508,3.508,0,0,1,3.936-3.017,3.507,3.507,0,0,1,3.018,3.017Z" transform="translate(-51.631 41.479)" fill="#1b1b1b"/></g></g></g></svg>