<svg xmlns="http://www.w3.org/2000/svg" xmlns:xlink="http://www.w3.org/1999/xlink" width="200.401" height="91.29" viewBox="0 0 200.401 91.29"><defs><clipPath id="a"><rect width="200.401" height="91.29" transform="translate(8.599 13.21)" fill="#fff" stroke="#707070" stroke-width="1"/></clipPath></defs><g transform="translate(-8.599 -13.21)" clip-path="url(#a)"><g transform="translate(8.599 13.21)"><path d="M6.91-724.43l-9.8,13.77,9.71-13.83Z" transform="translate(154.65 791.93)" fill="#1b1b1b"/><path d="M39.929-700.6,27-685.855l-121.975-.1-46.14-32c-.01,0-.02-.02-.02-.02l-1.14-.78c-.01-.01-.03-.02-.04-.04a5.476,5.476,0,0,1-1.72-3.96c-.01-.16,0-.31,0-.46l-8.13-5.63a4.664,4.664,0,0,1-.51-.36,5.2,5.2,0,0,1-1.75-2.59c-.06-.19-.15-.37-.23-.56v-55.22c.17-.43.3-.87.51-1.28a5.343,5.343,0,0,1,4.72-3.07c.23-.01.46,0,.7,0q28.7,0,57.39-.01a6.337,6.337,0,0,1,2.73.49,3.307,3.307,0,0,1,.41.23l.74.51.24.17Z" transform="translate(154.65 791.93)" fill="#1b1b1b" opacity="0.3" style="mix-blend-mode:multiply;isolation:isolate"/><path d="M-85.38-781c-.94.09-1.79.05-2.73.05v-3.84c-.02-.73,0-1.46-.08-2.18a2.444,2.444,0,0,0-2.11-2.18,6.679,6.679,0,0,0-1.09-.09h-57.78a2.73,2.73,0,0,0-2.83,2.95v.31q0,26.01.01,52.02a5.2,5.2,0,0,0,.13,1.31,2.428,2.428,0,0,0,2.05,1.89,7.739,7.739,0,0,0,1.08.09c.54.01,3.33,0,4.7,0h.64c.05.89.02,1.74.02,2.67h-.66c-2.11.02-6.28.16-7.71-.6q-.225-.12-.42-.24a4.664,4.664,0,0,1-.51-.36,5.2,5.2,0,0,1-1.75-2.59c-.06-.19-.15-.37-.23-.56v-55.22c.17-.43.3-.87.51-1.28a5.343,5.343,0,0,1,4.72-3.07c.23-.01.46,0,.7,0q28.7,0,57.39-.01a6.337,6.337,0,0,1,2.73.49,3.307,3.307,0,0,1,.41.23,4.511,4.511,0,0,1,.98.68,4.8,4.8,0,0,1,1.68,3.21c.11,1.02.1,4.59.14,6.03C-85.39-781.18-85.38-781.08-85.38-781Z" transform="translate(154.65 791.93)" fill="#fff"/><path d="M-74.8-775.51c0-.21.01-.42-.01-.62a5.23,5.23,0,0,0-2.66-4.41,6.181,6.181,0,0,0-3.29-.75h-56.85a16.358,16.358,0,0,0-1.71.11,5.078,5.078,0,0,0-4.03,2.7,6.166,6.166,0,0,0-.68,3.16v52.11c0,.15-.01.3,0,.46a5.476,5.476,0,0,0,1.72,3.96c.01.02.03.03.04.04a5.588,5.588,0,0,0,1.14.78s.01.02.02.02c.05.03.1.05.15.08a5.871,5.871,0,0,0,2.72.51h2.64q13.11-.015,26.22,0,14.22,0,28.46-.01c.36,0,.73.01,1.09-.01a5.19,5.19,0,0,0,4.28-2.59,5.774,5.774,0,0,0,.76-3.13Q-74.805-749.305-74.8-775.51Zm-2.65,52.17c0,.23.01.47-.01.7a2.724,2.724,0,0,1-2.69,2.62c-.2.01-.41,0-.62,0q-28.65,0-57.3-.01a4.872,4.872,0,0,1-1.38-.15,2.453,2.453,0,0,1-.55-.23l-.01-.01a1.658,1.658,0,0,1-.49-.34,2.344,2.344,0,0,1-.76-1.53,7.669,7.669,0,0,1-.08-1.17v-51.77a9.814,9.814,0,0,1,.07-1.09,2.521,2.521,0,0,1,2.42-2.22c.31-.02.63-.02.94-.02h56.99c.23,0,.47.02.7,0a2.647,2.647,0,0,1,2.76,2.67c.01.2.01.41.01.62Z" transform="translate(154.65 791.93)" fill="#fff"/><path d="M-136.032-783.93h-2.64v-2.662c.873-.031,1.731-.026,2.64,0Z" transform="translate(154.65 791.93)" fill="#fff"/><path d="M-149.316-786.57h2.592c.107.849.028,1.712.05,2.676-.48,0-.908.01-1.336.013-.41,0-.819,0-1.275,0A18.473,18.473,0,0,1-149.316-786.57Z" transform="translate(154.65 791.93)" fill="#fff"/><path d="M-144.007-783.93v-2.652c.448-.01.876-.023,1.305-.027.411-.005.821,0,1.317,0a24.46,24.46,0,0,1,.029,2.68Z" transform="translate(154.65 791.93)" fill="#fff"/><path d="M-124.833-751.876l-1.656-1.657c-.239-.239-.488-.469-.714-.72a1.342,1.342,0,0,1,.018-2.07c.069-.077.146-.148.219-.221l5.016-5.021.055-.055a1.444,1.444,0,0,1,2.409,0c.559.544,1.1,1.1,1.656,1.652.182.181.372.352.566.535l2.542-1.04v-1.518c0-.572-.006-1.144,0-1.716.012-1.073.487-1.541,1.579-1.563.208,0,.416,0,.624,0h6.395c.182,0,.364,0,.546,0a1.337,1.337,0,0,1,1.5,1.491c.025.779.006,1.56.007,2.34v.96l2.566,1.06,1.992-1.991c1.137-1.135,1.673-1.141,2.79-.026q2.4,2.4,4.8,4.8c.129.129.264.253.381.391a1.351,1.351,0,0,1-.017,1.957c-.581.63-1.207,1.22-1.811,1.829-.2.2-.392.407-.584.607l1.046,2.525c.533,0,1.074,0,1.615,0,.572,0,1.145-.02,1.716,0a1.386,1.386,0,0,1,1.5,1.459q.046,3.859,0,7.721c-.011.994-.562,1.484-1.6,1.52-.779.027-1.559.006-2.339.006h-.881l-1.058,2.506c.21.214.442.454.678.69.532.534,1.077,1.056,1.6,1.6a1.4,1.4,0,0,1,.007,2.245q-2.631,2.664-5.293,5.3a1.406,1.406,0,0,1-2.293-.029c-.739-.729-1.459-1.479-2.213-2.246l-2.591,1.076c0,.325,0,.656,0,.987,0,.806.021,1.613-.015,2.418a1.317,1.317,0,0,1-1.434,1.4c-.26.009-.52,0-.78,0h-6.473c-.208,0-.417.009-.624-.006a1.317,1.317,0,0,1-1.315-1.358c-.022-.883-.006-1.768-.006-2.652v-.788l-2.686-1.109c-.2.252-.414.551-.664.813q-.725.764-1.485,1.492a1.409,1.409,0,0,1-2.3-.016q-2.633-2.609-5.238-5.241a1.388,1.388,0,0,1,.01-2.292c.561-.579,1.139-1.141,1.707-1.713.18-.182.351-.374.53-.565l-1.042-2.508c-.9,0-1.806,0-2.712,0a5.039,5.039,0,0,1-.778-.022,1.363,1.363,0,0,1-1.315-1.3,5.163,5.163,0,0,1-.04-.621q0-3.393,0-6.785a4.438,4.438,0,0,1,.033-.622,1.378,1.378,0,0,1,1.509-1.352c.909-.024,1.82-.006,2.729-.007h.587ZM-98.1-728.863l3.67-3.651a1.176,1.176,0,0,0-.046-.241q-.924-.948-1.852-1.893a1.513,1.513,0,0,1-.355-2.156,19.5,19.5,0,0,0,1.211-2.86c.471-1.525.742-1.693,2.341-1.693h2.282V-746.6c-.261-.015-.489-.037-.718-.038-.676-.005-1.352.005-2.027,0-1.082-.015-1.441-.254-1.758-1.288a17.719,17.719,0,0,0-1.3-3.159c-.061-.114-.113-.234-.166-.352a1.387,1.387,0,0,1,.272-1.65c.4-.412.806-.811,1.21-1.217.307-.308.614-.617.876-.882l-3.781-3.771c-.552.57-1.158,1.212-1.78,1.838-.872.877-1.214.939-2.335.363A16.541,16.541,0,0,0-105.366-758a4.306,4.306,0,0,1-.438-.158,1.4,1.4,0,0,1-.953-1.377c-.007-.6,0-1.2,0-1.793v-1.234h-5.308c0,.9-.024,1.759.006,2.612.038,1.092-.151,1.533-1.43,1.975a26.636,26.636,0,0,0-2.661,1.073c-1.547.732-1.692.73-2.9-.481l-1.655-1.655c-.663.669-1.266,1.279-1.87,1.887s-1.23,1.237-1.9,1.907c.781.759,1.495,1.441,2.2,2.135a1.342,1.342,0,0,1,.275,1.707,19.454,19.454,0,0,0-1.541,3.729,1.341,1.341,0,0,1-1.391,1.028c-.806.008-1.612,0-2.417.008-.2,0-.4.034-.6.053v5.227c.925,0,1.8-.007,2.682,0,1.1.011,1.473.272,1.816,1.33a18.533,18.533,0,0,0,1.31,3.154,5.136,5.136,0,0,1,.228.494,1.267,1.267,0,0,1-.19,1.319,5.134,5.134,0,0,1-.476.514c-.606.6-1.215,1.2-1.773,1.748l3.742,3.741c.073-.066.212-.18.339-.306.572-.567,1.141-1.138,1.711-1.707a1.391,1.391,0,0,1,1.773-.3,21.567,21.567,0,0,0,3.729,1.546,1.316,1.316,0,0,1,1,1.406c-.009.364,0,.728,0,1.092v1.908a32.415,32.415,0,0,0,5.308-.04c0-.871,0-1.753,0-2.634,0-1.114.245-1.493,1.305-1.831a21.726,21.726,0,0,0,3.227-1.335,1.474,1.474,0,0,1,2.144.355C-99.442-730.263-98.818-729.6-98.1-728.863Z" transform="translate(154.65 791.93)" fill="#fff"/><path d="M-138.678-768.018v-2.436a.518.518,0,0,1,.064-.082.14.14,0,0,1,.07-.029c.18-.014.361-.035.541-.035q28.887,0,57.789,0a3.434,3.434,0,0,1,.1,1.324c.02.413,0,.827,0,1.231C-80.707-767.891-137.844-767.865-138.678-768.018Z" transform="translate(154.65 791.93)" fill="#fff"/><path d="M-138.686-761.389v-2.463c.564-.16,9.6-.205,10.632-.053v2.528A100.806,100.806,0,0,1-138.686-761.389Z" transform="translate(154.65 791.93)" fill="#fff"/><path d="M-138.674-755.93v-2.618a68.131,68.131,0,0,1,7.97,0v2.621C-133.354-755.929-135.965-755.928-138.674-755.93Z" transform="translate(154.65 791.93)" fill="#fff"/><path d="M-88.071-722.677v-2.643c2.631-.042,5.261-.011,7.928-.022v2.64C-82.77-722.654-85.4-722.688-88.071-722.677Z" transform="translate(154.65 791.93)" fill="#fff"/><path d="M-136.03-773.281h-2.644v-2.634a25.2,25.2,0,0,1,2.644-.047Z" transform="translate(154.65 791.93)" fill="#fff"/><path d="M-130.7-775.96v2.671h-2.639a25.94,25.94,0,0,1-.058-2.649C-132.46-775.993-131.6-775.96-130.7-775.96Z" transform="translate(154.65 791.93)" fill="#fff"/><path d="M-125.385-775.927v2.643h-2.6v-2.636A16.277,16.277,0,0,1-125.385-775.927Z" transform="translate(154.65 791.93)" fill="#fff"/><path d="M-109.456-734.676a9.222,9.222,0,0,1-9.266-9.341,9.252,9.252,0,0,1,9.336-9.282,9.317,9.317,0,0,1,9.309,9.394A9.29,9.29,0,0,1-109.456-734.676Zm.043-15.931a6.618,6.618,0,0,0-6.6,6.661,6.534,6.534,0,0,0,6.586,6.58,6.482,6.482,0,0,0,6.64-6.61A6.553,6.553,0,0,0-109.413-750.607Z" transform="translate(154.65 791.93)" fill="#fff"/></g></g></svg>