<svg xmlns="http://www.w3.org/2000/svg" width="108.578" height="32.498" viewBox="0 0 108.578 32.498"><g transform="translate(-18 -11)"><path d="M-319.8,581.186v4.273h6.919v3.63h-6.929v5.4h16.221v-19.6h-25.494v25.541h28.991l-.17.227-.047.076-.038.038-2.193,3.006H-332.72v-32.5h32.772v26.6h-24.095V577.386H-308.8l-.189.255-.057.085-.038.047-2.5,3.412Z" transform="translate(350.72 -560.27)" fill="#009fe3"/><g transform="translate(55.239 17)"><path d="M-259.455,594.625v3.62H-274.74V577.97h14.85v3.583h-10.795v4.273h9.906v3.6h-9.916v5.2Z" transform="translate(294.307 -577.951)" fill="#fff"/><path d="M-250.159,580.492l-1.371-2.392c.378.633.756,1.248,1.1,1.881C-250.348,580.151-250.254,580.321-250.159,580.492Z" transform="translate(293.036 -577.958)" fill="#fff"/><path d="M-239.768,577.979v11.948c0,3.573-.028,6.91-.095,8.318H-244.1l-1.579-2.713-.34-.6c-.34-.586-.671-1.182-1.03-1.768l-1.087-1.872-4.14-7.127v14.084h-4.036V577.96h4.443l.009.019.047.076.019.038c.378.633.756,1.248,1.1,1.881.085.17.18.34.274.51l6.437,11.249.312.539V577.979Z" transform="translate(293.298 -577.951)" fill="#fff"/><path d="M-238.869,590.62v8.328h-1.011v-.009h.917C-238.9,597.53-238.869,594.193-238.869,590.62Z" transform="translate(292.399 -578.644)" fill="#fff"/><path d="M-251.858,577.979h-4.452v-.019h4.443Z" transform="translate(293.298 -577.951)" fill="#fff"/><path d="M-220.926,577.98v3.62h-6.059v16.637h-4.556v-.993c-.009-5.2-.009-10.4-.009-15.644h-5.88v-3.62Z" transform="translate(292.265 -577.952)" fill="#fff"/><path d="M-277.527,577.95l-6.967,20.3h-3.98l-6.1-17.761-.87-2.543h4.49l4.5,15.464,4.481-15.464Z" transform="translate(295.44 -577.95)" fill="#fff"/></g></g></svg>