<svg xmlns="http://www.w3.org/2000/svg" width="40" height="40" viewBox="0 0 40 40"><g transform="translate(14359 3110)"><rect width="40" height="40" transform="translate(-14359 -3110)" fill="none"/><g transform="translate(-8267.688 1446.743)"><circle cx="4.272" cy="4.272" r="4.272" transform="translate(-6067.655 -4533.344)" fill="none"/><g transform="translate(-6084.312 -4550)"><path d="M24.336,17.72V3.516a1.523,1.523,0,0,0-1.521-1.521H19.2V1.5a1.5,1.5,0,0,0-2.992,0v.5H8.129V1.5a1.5,1.5,0,1,0-2.992,0v.5H1.521A1.523,1.523,0,0,0,0,3.516v18.5a1.523,1.523,0,0,0,1.521,1.521h6.8a.5.5,0,0,0,0-1h-6.8A.524.524,0,0,1,1,22.017V3.516a.524.524,0,0,1,.524-.524H5.137v.5a1.5,1.5,0,1,0,2.992,0v-.5h8.079v.5a1.5,1.5,0,1,0,2.992,0v-.5h3.616a.524.524,0,0,1,.524.524V5.984H4.488a.5.5,0,0,0,0,1h18.85v9.9a4.662,4.662,0,0,0-1.4-.59V8.877a.5.5,0,0,0-.5-.5H2.892a.5.5,0,0,0-.5.5V20.646a.5.5,0,0,0,.5.5H16.167a4.653,4.653,0,0,0,.308,1.4H12.308a.5.5,0,1,0,0,1h4.7a4.686,4.686,0,1,0,7.326-5.818ZM7.131,3.491a.5.5,0,1,1-1,0V1.5a.5.5,0,0,1,1,0Zm11.071,0a.5.5,0,1,1-1,0V1.5a.5.5,0,1,1,1,0Zm2.643,12.667a4.707,4.707,0,0,0-.683.05h-1.93V13.315h2.713v2.844Zm-4.636,3.99H14.522V17.2h2.713v.654A4.67,4.67,0,0,0,16.21,20.147ZM3.391,13.315H6.1v2.892H3.391Zm3.71,0H9.814v2.892H7.1Zm7.421,0h2.713v2.892H14.522Zm-1,2.892H10.812V13.315h2.713Zm1-3.89V9.375h2.713v2.942Zm-1,0H10.812V9.375h2.713Zm-3.71,0H7.1V9.375H9.814Zm0,4.887v2.942H7.1V17.2Zm1,0h2.713v2.942H10.812V17.2Zm10.133-4.887H18.232V9.375h2.713ZM6.1,9.375v2.942H3.391V9.375ZM3.391,17.2H6.1v2.942H3.391Zm17.454,7.331a3.69,3.69,0,1,1,3.69-3.69A3.694,3.694,0,0,1,20.845,24.536Z" transform="translate(0)"/><path d="M388.246,390.979l-1.542,1.542-.686-.686a.5.5,0,0,0-.705.705l1.039,1.039a.5.5,0,0,0,.705,0l1.9-1.9a.5.5,0,1,0-.705-.705Z" transform="translate(-366.263 -371.343)" fill="#1b1b1b"/><path d="M197.3,452a.5.5,0,1,0,.353.146A.5.5,0,0,0,197.3,452Z" transform="translate(-186.986 -429.459)" fill="#1b1b1b"/><path d="M40.851,120.851A.5.5,0,1,0,40.5,121,.5.5,0,0,0,40.851,120.851Z" transform="translate(-38.005 -114.016)" fill="#1b1b1b"/></g></g></g></svg>