<svg xmlns="http://www.w3.org/2000/svg" width="40" height="40" viewBox="0 0 40 40"><g transform="translate(14359 3066)"><rect width="40" height="40" transform="translate(-14359 -3066)" fill="none"/><g transform="translate(-8267 1419)"><path d="M218.128,279.895a9.275,9.275,0,0,0-.954-.055,9.682,9.682,0,0,0-1.864.186.446.446,0,0,0-.351.439V282l-.208.088c-.088.022-.45.186-.45.186l-1.086-1.086a.439.439,0,0,0-.318-.132.4.4,0,0,0-.241.077,9.1,9.1,0,0,0-2.643,2.643.431.431,0,0,0,.055.548l1.086,1.1-.088.2-.186.461h-1.535a.434.434,0,0,0-.428.351,9.414,9.414,0,0,0,0,3.729.444.444,0,0,0,.428.362h1.535l.088.208.186.45-1.086,1.086a.447.447,0,0,0-.055.559,9.355,9.355,0,0,0,1.184,1.448,10.067,10.067,0,0,0,1.458,1.2.469.469,0,0,0,.241.066.439.439,0,0,0,.318-.132l1.086-1.086.208.1c.077.033.45.175.45.175v1.535a.446.446,0,0,0,.351.439,9.682,9.682,0,0,0,1.864.186h1.316v-.888h-1.316a8.178,8.178,0,0,1-1.042-.066l-.3-.033v-1.491a.438.438,0,0,0-.307-.428,5.141,5.141,0,0,1-1.108-.461.417.417,0,0,0-.208-.044.431.431,0,0,0-.307.121l-1.064,1.064-.23-.175a9.506,9.506,0,0,1-.79-.7,9.621,9.621,0,0,1-.691-.79l-.175-.23,1.053-1.053a.433.433,0,0,0,.077-.526,6.442,6.442,0,0,1-.461-1.1.434.434,0,0,0-.417-.318h-1.5l-.033-.285a8.455,8.455,0,0,1,0-2.106l.033-.285h1.5a.434.434,0,0,0,.417-.318,6.835,6.835,0,0,1,.461-1.1.417.417,0,0,0-.077-.515l-1.053-1.064.175-.23q.329-.411.691-.79a9.361,9.361,0,0,1,.79-.691l.23-.186,1.064,1.064a.4.4,0,0,0,.307.132.42.42,0,0,0,.208-.055,6.555,6.555,0,0,1,1.108-.461.425.425,0,0,0,.307-.417v-1.5l.3-.033.434-.044.607-.022a8.012,8.012,0,0,1,1.031.066l.285.033v-.9Zm-.954,5.286a3.114,3.114,0,1,0,.9,6.1l.417-.121V290.1l-.154.1a2.259,2.259,0,0,1-1.162.318,2.226,2.226,0,1,1,0-4.452,2.168,2.168,0,0,1,1.162.329l.154.1v-1.053l-.417-.132A3.131,3.131,0,0,0,217.174,285.181Z" transform="translate(-6293.73 -4749.088)" fill="#1b1b1b"/><path d="M233.081,271.86h-15a.442.442,0,0,0-.45.439v25.222h15.451a.449.449,0,0,0,.45-.439V272.3A.449.449,0,0,0,233.081,271.86Zm-.439,24.773H218.518V272.748h14.124Z" transform="translate(-6292.87 -4749.86)" fill="#1b1b1b"/><path d="M223.573,278.68l-.219-.077v-2.884a.449.449,0,0,0-.45-.439.44.44,0,0,0-.439.439V278.6l-.219.077a2.087,2.087,0,0,0,0,3.959l.219.077V292.99a.442.442,0,0,0,.439.45.452.452,0,0,0,.45-.45V282.715l.219-.077a2.087,2.087,0,0,0,0-3.959Zm-.669,3.18a1.2,1.2,0,1,1,1.206-1.206A1.2,1.2,0,0,1,222.9,281.86Z" transform="translate(-6292.562 -4749.529)" fill="#1b1b1b"/><path d="M228.073,286.082l-.219-.077V275.719a.449.449,0,0,0-.45-.439.44.44,0,0,0-.439.439V286l-.219.077a2.082,2.082,0,0,0-.044,3.937l.208.088v2.884a.444.444,0,1,0,.888,0v-2.862l.23-.077a2.085,2.085,0,0,0,.044-3.97Zm-.669,3.18a1.2,1.2,0,1,1,1.206-1.206A1.2,1.2,0,0,1,227.4,289.262Z" transform="translate(-6292.127 -4749.529)" fill="#1b1b1b"/></g></g></svg>