<svg xmlns="http://www.w3.org/2000/svg" width="235.736" height="95.224" viewBox="0 0 235.736 95.224">
  <g id="index-exhibition-logo-white" transform="translate(-1394 -190)">
    <g id="Group_27" data-name="Group 27" transform="translate(1393.249 189.781)">
      <path id="Path_50" data-name="Path 50" d="M85.667,70.855C73.9,56.8,70.187,43.938,70.683,32.907L65.947,31.62c1.269,11.129,6.594,24.411,19.627,39.3Z" transform="translate(40.768 19.636)" fill="#1b1b1b"/>
      <path id="Path_51" data-name="Path 51" d="M68.845.219c37.984,55.926,8.11,88.536.8,95.224H50.767C63.15,87.307,103.951,54.5,68.845.219" transform="translate(31.276 0)" fill="#f99d31"/>
      <path id="Path_52" data-name="Path 52" d="M91.888,8.655,76.812,10.682a45.094,45.094,0,0,0-9.076,16.474,46.294,46.294,0,0,0-1.666,18.9l4.736,1.286C71.7,26.7,87.214,12.387,91.888,8.559Z" transform="translate(40.642 5.215)" fill="#1b1b1b"/>
      <g id="Group_178" data-name="Group 178">
        <path id="Path_53" data-name="Path 53" d="M88.8,39.792a1.762,1.762,0,0,1,.9.226,2.5,2.5,0,0,1,.743.546,2.987,2.987,0,0,1,.5.868,2.89,2.89,0,0,1,.185,1.03h-.9a2.976,2.976,0,0,0,0-.741,4.03,4.03,0,0,0-.31-.642,1.549,1.549,0,0,0-.65-.322A1.109,1.109,0,0,0,88.7,40.6a1.229,1.229,0,0,0-.557.161,1.916,1.916,0,0,0-.743,1.029,3.228,3.228,0,0,0,0,.772v4.887a1.631,1.631,0,0,0,0,.772,1.763,1.763,0,0,0,.309.644,2.638,2.638,0,0,0,.434.418,1.606,1.606,0,0,0,.557,0,1.109,1.109,0,0,0,.556.161,1.958,1.958,0,0,0,.465-.418,4.046,4.046,0,0,0,.31-.644,3.407,3.407,0,0,0,0-.772h.9a3.312,3.312,0,0,1-.185,1.061,2.479,2.479,0,0,1-.5.837,2.115,2.115,0,0,1-.736.577,2.056,2.056,0,0,1-.905.2,2.168,2.168,0,0,1-.9-.193,2.127,2.127,0,0,1-.743-.579,2.479,2.479,0,0,1-.5-.837,3.312,3.312,0,0,1-.185-1.061V42.558a2.875,2.875,0,0,1,.185-1.029,3.033,3.033,0,0,1,.5-.87,2.5,2.5,0,0,1,.743-.546,1.777,1.777,0,0,1,.9-.224" transform="translate(53.489 24.746)" fill="#fff"/>
        <path id="Path_54" data-name="Path 54" d="M95.242,42.558a3.23,3.23,0,0,0,0-.772,1.611,1.611,0,0,0-.309-.611,1.381,1.381,0,0,0-.434-.418,1.229,1.229,0,0,0-.557-.161,1.313,1.313,0,0,0-.574.171,1.374,1.374,0,0,0-.447.408,3.723,3.723,0,0,0-.31.611,3.407,3.407,0,0,0,0,.772v4.887a3.407,3.407,0,0,0,0,.772,2.454,2.454,0,0,0,.31.644,1.951,1.951,0,0,0,.463.418.841.841,0,0,0,.557,0,1.434,1.434,0,0,0,.527,0,1.958,1.958,0,0,0,.465-.418,3.847,3.847,0,0,0,.309-.611,3.23,3.23,0,0,0,0-.772Zm-1.486-2.766a1.758,1.758,0,0,1,.9.226,2.5,2.5,0,0,1,.743.546,3.858,3.858,0,0,1,.5.868,2.89,2.89,0,0,1,.185,1.03v4.92a2.881,2.881,0,0,1-.185,1.029,3.2,3.2,0,0,1-.5.837,2.146,2.146,0,0,1-.743.579,2.194,2.194,0,0,1-1.794,0,1.555,1.555,0,0,1-.712-.387,2.479,2.479,0,0,1-.527-.835,2.88,2.88,0,0,1,0-1.029V42.558a2.88,2.88,0,0,1,0-1.029,3.247,3.247,0,0,1,.527-.87,2.418,2.418,0,0,1,1.64-.868" transform="translate(56.794 24.746)" fill="#fff"/>
        <path id="Path_55" data-name="Path 55" d="M96.726,41.482a3.834,3.834,0,0,1,.5-.87,2.5,2.5,0,0,1,.743-.546,2.158,2.158,0,0,1,1.354-.15,2.214,2.214,0,0,1,1.185.7,2.991,2.991,0,0,1,.494.87,2.912,2.912,0,0,1,.187,1.029v7.46h-.9V42.51a3.23,3.23,0,0,0,0-.772,2.229,2.229,0,0,0-.309-.611,1.363,1.363,0,0,0-.449-.408,1.307,1.307,0,0,0-.574-.171,1.235,1.235,0,0,0-.557.161,1.933,1.933,0,0,0-.743,1.029,3.407,3.407,0,0,0,0,.772v7.46h-.9V42.51a2.875,2.875,0,0,1,.185-1.029" transform="translate(60.015 24.794)" fill="#fff"/>
        <path id="Path_56" data-name="Path 56" d="M101.755,39.911h4.086v.707h-3.189v3.956H105.5v.707h-2.848v4.632h-.9Z" transform="translate(63.16 24.82)" fill="#fff"/>
        <path id="Path_57" data-name="Path 57" d="M106.23,39.911h4.088v.707h-3.189v3.956h2.848v.707h-2.848V49.2h3.189v.709H106.23Z" transform="translate(65.958 24.82)" fill="#fff"/>
        <path id="Path_58" data-name="Path 58" d="M111.841,44.562h1.268a.841.841,0,0,0,.557,0,1.573,1.573,0,0,0,.465-.45,3.715,3.715,0,0,0,.309-.611,3.228,3.228,0,0,0,0-.772,3.228,3.228,0,0,0,0-.772,3.716,3.716,0,0,0-.309-.611,1.162,1.162,0,0,0-.465-.418.713.713,0,0,0-.557-.161h-1.268Zm2.568.354a2.128,2.128,0,0,1,.4.353,1.987,1.987,0,0,1,.372.515,2.339,2.339,0,0,1,.278.644,1.906,1.906,0,0,1,0,.835v2.669h-.774V47.263a1.632,1.632,0,0,0,0-.772,1.788,1.788,0,0,0-.743-1.061,1.606,1.606,0,0,0-.557,0h-1.424v4.663h-.991V39.931h2.167a2.317,2.317,0,0,1,.93.192,3.357,3.357,0,0,1,.743.58,2.338,2.338,0,0,1,.465.868,2.875,2.875,0,0,1,.185,1.029,4.021,4.021,0,0,1-.247,1.351,1.829,1.829,0,0,1-.775.965" transform="translate(68.924 24.833)" fill="#fff"/>
        <path id="Path_59" data-name="Path 59" d="M116.1,39.911h4.086v.707h-3.189v3.956h2.848v.707h-2.848V49.2h3.189v.709H116.1Z" transform="translate(72.128 24.82)" fill="#fff"/>
        <path id="Path_60" data-name="Path 60" d="M120.935,41.489a2.991,2.991,0,0,1,.494-.87,2.525,2.525,0,0,1,.744-.546,1.97,1.97,0,0,1,1.794,0,2.5,2.5,0,0,1,.743.546,2.959,2.959,0,0,1,.5.87,2.875,2.875,0,0,1,.185,1.029v7.46h-.9v-7.46a1.632,1.632,0,0,0,0-.772,2.145,2.145,0,0,0-.278-.611,1.46,1.46,0,0,0-.5-.418.988.988,0,0,0-1.115,0,1.463,1.463,0,0,0-.465.418,3.845,3.845,0,0,0-.309.611,3.407,3.407,0,0,0,0,.772v7.46h-.9v-7.46a2.875,2.875,0,0,1,.185-1.029" transform="translate(75.153 24.786)" fill="#fff"/>
        <path id="Path_61" data-name="Path 61" d="M128.227,39.792a1.762,1.762,0,0,1,.9.226,2.5,2.5,0,0,1,.743.546,3.921,3.921,0,0,1,.5.868,2.891,2.891,0,0,1,.185,1.03h-.743a2.976,2.976,0,0,0,0-.741,2.438,2.438,0,0,0-.309-.642,2.786,2.786,0,0,0-.434-.419,1.233,1.233,0,0,0-.557-.159,1.326,1.326,0,0,0-.574.169,1.38,1.38,0,0,0-.447.41,3.6,3.6,0,0,0-.31.611,3.405,3.405,0,0,0,0,.772V47.35a3.405,3.405,0,0,0,0,.772,4.047,4.047,0,0,0,.31.644,2.022,2.022,0,0,0,.463.418.841.841,0,0,0,.557,0h.557a2.7,2.7,0,0,0,.434-.418,2.473,2.473,0,0,0,.309-.644,3.405,3.405,0,0,0,0-.772h.9a3.312,3.312,0,0,1-.185,1.061,3.243,3.243,0,0,1-.5.837,2.078,2.078,0,0,1-1.64.77,2.3,2.3,0,0,1-.93-.192,1.833,1.833,0,0,1-.712-.579,2.044,2.044,0,0,1-.494-.837,2.518,2.518,0,0,1-.187-1.061V42.558a2.322,2.322,0,0,1,.187-1.029,2.4,2.4,0,0,1,.494-.87,2.525,2.525,0,0,1,.744-.546,1.769,1.769,0,0,1,.9-.224" transform="translate(78.356 24.746)" fill="#fff"/>
        <path id="Path_62" data-name="Path 62" d="M131.03,39.911h4.086v.707h-3.189v3.956h2.848v.707h-2.848V49.2h3.189v.709H131.03Z" transform="translate(81.466 24.82)" fill="#fff"/>
        <path id="Path_63" data-name="Path 63" d="M140.3,41.589l-.774.546v-.514a1.685,1.685,0,0,0-.28-.515,1.653,1.653,0,0,0-.432-.385,1.119,1.119,0,0,0-.557-.161,1.229,1.229,0,0,0-.557.161,1.381,1.381,0,0,0-.434.418,1.75,1.75,0,0,0-.309.644,2.961,2.961,0,0,0,0,.74,1.515,1.515,0,0,0,.278.964,4.239,4.239,0,0,0,.712.611l.9.483a5.516,5.516,0,0,1,.9.579,2.616,2.616,0,0,1,.681.868,3.341,3.341,0,0,1,0,2.444,2.479,2.479,0,0,1-.5.837,1.717,1.717,0,0,1-.743.579,2.119,2.119,0,0,1-2.539-.579,2.475,2.475,0,0,1-.494-.837,3.314,3.314,0,0,1-.187-1.061h.9a3.228,3.228,0,0,0,0,.772,3.9,3.9,0,0,0,.309.644,1.483,1.483,0,0,0,.465.418,1.434,1.434,0,0,0,.527,0,1.6,1.6,0,0,0,.556,0,1.466,1.466,0,0,0,.465-.418,4.047,4.047,0,0,0,.31-.644,3.405,3.405,0,0,0,0-.772,2.372,2.372,0,0,0,0-.933,2.047,2.047,0,0,0-.65-.611,2.075,2.075,0,0,0-.619-.45l-.65-.353-.681-.354-.743-.45a1.963,1.963,0,0,1-.4-.707,2.88,2.88,0,0,1,0-1.029,2.889,2.889,0,0,1,0-1.03,3.921,3.921,0,0,1,.5-.868,2.5,2.5,0,0,1,.743-.546,1.649,1.649,0,0,1,.866-.226,2.168,2.168,0,0,1,.9.193,2.479,2.479,0,0,1,.65.483,3.617,3.617,0,0,1,.434.546l.216.515" transform="translate(84.39 24.783)" fill="#fff"/>
        <path id="Path_64" data-name="Path 64" d="M87.521,49.461a1.432,1.432,0,0,0,.185.709,8.451,8.451,0,0,0,.4.933h0l.371-.354.372-.418a2.633,2.633,0,0,0,.247-.515,1.818,1.818,0,0,0,0-.579,1.621,1.621,0,0,0,0-.546,1.017,1.017,0,0,0-.185-.419l-.28-.224a.687.687,0,0,0-.536-.06.719.719,0,0,0-.423.349h0a1.983,1.983,0,0,0-.247.933Zm.928,7.14a.969.969,0,0,0,.65-.257,4.6,4.6,0,0,0,.5-.611c-.247-.45-.5-.965-.8-1.512l-.837-1.64-.34.353-.31.483a6.154,6.154,0,0,0-.216,2.027,2.234,2.234,0,0,0,.31.611,1.356,1.356,0,0,0,.463.385.841.841,0,0,0,.557,0Zm1.95.483V56.7a1.3,1.3,0,0,0-.154-.289,1.909,1.909,0,0,1-.694.6,1.8,1.8,0,0,1-.884.2,2.145,2.145,0,0,1-.9-.193,3.071,3.071,0,0,1-.712-.579,3.774,3.774,0,0,1-.463-.868,2.807,2.807,0,0,1,0-1.029,3.063,3.063,0,0,1,0-1.061,3.7,3.7,0,0,1,.278-.837,2.194,2.194,0,0,1,.432-.611l.5-.514-.309-.644c0-.193-.187-.354-.249-.514l-.185-.452v-.675a3.793,3.793,0,0,1,0-.837,2.358,2.358,0,0,1,.372-.675,1.233,1.233,0,0,1,.5-.418,1.394,1.394,0,0,1,1.237,0,1.153,1.153,0,0,1,.527.418,2.669,2.669,0,0,1,.372.644,2.485,2.485,0,0,1,0,.835,4.387,4.387,0,0,1,0,.9,5.188,5.188,0,0,1-.31.74,3.591,3.591,0,0,1-.247.419l-.465.481c.185.45.434.87.681,1.351l.743,1.351a5.371,5.371,0,0,0,0-1,6.093,6.093,0,0,0,0-1.061H91.3a8.246,8.246,0,0,1,0,1.768,4.726,4.726,0,0,1-.34,1.32,10.03,10.03,0,0,1,.527,1,3.2,3.2,0,0,1,.34.546Z" transform="translate(53.649 29.355)" fill="#fff"/>
        <path id="Path_65" data-name="Path 65" d="M91.907,47.331h4.086v.707H92.806v3.956h2.848V52.7H92.806v3.922h3.187v.709H91.907Z" transform="translate(57.002 29.46)" fill="#fff"/>
        <path id="Path_66" data-name="Path 66" d="M100.092,52.348a2.323,2.323,0,0,1,.866.964,2.876,2.876,0,0,1,.309,1.351v2.7h-.9v-2.7a3.393,3.393,0,0,0,0-.77,3.712,3.712,0,0,0-.309-.611,1.166,1.166,0,0,0-.465-.419.841.841,0,0,0-.557,0,1.689,1.689,0,0,0-.557,0,1.382,1.382,0,0,0-.432.419,2.394,2.394,0,0,0-.31.642,2.963,2.963,0,0,0,0,.74v2.7h-.9v-2.7a2.934,2.934,0,0,1,.34-1.351,2.488,2.488,0,0,1,.835-.964,2.5,2.5,0,0,1-.835-.965,2.924,2.924,0,0,1-.34-1.351v-2.7h.9v2.7a2.963,2.963,0,0,0,0,.74,2.4,2.4,0,0,0,.31.644,1.36,1.36,0,0,0,.432.418.841.841,0,0,0,.557,0,.841.841,0,0,0,.557,0,1.162,1.162,0,0,0,.465-.418,3.846,3.846,0,0,0,.309-.611,3.407,3.407,0,0,0,0-.772v-2.7h.866v2.7a2.875,2.875,0,0,1-.309,1.351,2.329,2.329,0,0,1-.866.965" transform="translate(60.087 29.46)" fill="#fff"/>
        <path id="Path_67" data-name="Path 67" d="M101.926,47.331h.9v4.663h2.849V47.331h.9v10h-.9V52.7h-2.849v4.631h-.9Z" transform="translate(63.267 29.46)" fill="#fff"/>
        <path id="Path_68" data-name="Path 68" d="M108.118,47.331h-.9v10h.9Z" transform="translate(66.578 29.46)" fill="#fff"/>
        <path id="Path_69" data-name="Path 69" d="M113.073,56.5a2.637,2.637,0,0,0,.434-.418,2.509,2.509,0,0,0,.4-1.04,2.537,2.537,0,0,0-.088-1.115,1.806,1.806,0,0,0-.31-.644,1.4,1.4,0,0,0-.434-.418,1.6,1.6,0,0,0-.556,0h-1.425v3.763h1.425a1.6,1.6,0,0,0,.556,0Zm-1.981-4.374h1.269a.841.841,0,0,0,.557,0,1.483,1.483,0,0,0,.465-.418,4.039,4.039,0,0,0,.309-.644,2.964,2.964,0,0,0,0-.74,3.23,3.23,0,0,0,0-.772,4.039,4.039,0,0,0-.309-.644,1.483,1.483,0,0,0-.465-.418,1.11,1.11,0,0,0-.557-.161h-1.269Zm2.57.354.28.224a2.782,2.782,0,0,1,.4.45,4.967,4.967,0,0,1,.341.707,3.1,3.1,0,0,1,0,.933,3.358,3.358,0,0,1-.185,1.061,3.262,3.262,0,0,1-.5.837,2.255,2.255,0,0,1-1.642.8H110.04V47.331h2.167a1.769,1.769,0,0,1,.9.224,2.167,2.167,0,0,1,.744.579,2.475,2.475,0,0,1,.494.837,3.125,3.125,0,0,1,0,1.994,1.781,1.781,0,0,1-.278.707,1.684,1.684,0,0,1-.372.45l-.247.224" transform="translate(68.341 29.46)" fill="#fff"/>
        <path id="Path_70" data-name="Path 70" d="M116.156,47.331h-.9v10h.9Z" transform="translate(71.604 29.46)" fill="#fff"/>
        <path id="Path_71" data-name="Path 71" d="M122.627,47.331v.707h-1.889v9.3h-.9v-9.3h-1.856v-.707Z" transform="translate(73.308 29.46)" fill="#fff"/>
        <path id="Path_72" data-name="Path 72" d="M123.681,47.331h-.9v10h.9Z" transform="translate(76.309 29.46)" fill="#fff"/>
        <path id="Path_73" data-name="Path 73" d="M129.329,49.941a3.228,3.228,0,0,0,0-.772,3.715,3.715,0,0,0-.309-.611,1.162,1.162,0,0,0-.465-.418A.717.717,0,0,0,128,47.98a1.109,1.109,0,0,0-.556.161,1.382,1.382,0,0,0-.434.418,1.65,1.65,0,0,0-.31.611,1.674,1.674,0,0,0,0,.772v4.887a3.407,3.407,0,0,0,0,.772,1.927,1.927,0,0,0,.744,1.029.817.817,0,0,0,.556,0,.821.821,0,0,0,.557,0,1.362,1.362,0,0,0,.465-.385,3.905,3.905,0,0,0,.309-.644,2.963,2.963,0,0,0,0-.74Zm-1.424-2.67a2.325,2.325,0,0,1,.93.193,2.719,2.719,0,0,1,.8.515,3,3,0,0,1,.5.868,2.887,2.887,0,0,1,.185,1.029v4.889a3.366,3.366,0,0,1-.185,1.061,2.815,2.815,0,0,1-.5.835,3.072,3.072,0,0,1-.712.579,2.291,2.291,0,0,1-.93.193,2.142,2.142,0,0,1-.9-.193,3.36,3.36,0,0,1-.743-.579,2.815,2.815,0,0,1-.5-.835,3.32,3.32,0,0,1-.185-1.061V49.941a2.875,2.875,0,0,1,.185-1.029,3.033,3.033,0,0,1,.5-.87,3.36,3.36,0,0,1,.743-.579,2.168,2.168,0,0,1,.9-.193" transform="translate(78.119 29.423)" fill="#fff"/>
        <path id="Path_74" data-name="Path 74" d="M130.953,48.88a4.468,4.468,0,0,1,.5-.837,3.323,3.323,0,0,1,.743-.579,2.168,2.168,0,0,1,.9-.193,2.325,2.325,0,0,1,.93.193,3.157,3.157,0,0,1,.712.579,2.8,2.8,0,0,1,.494.837,3.314,3.314,0,0,1,.187,1.061V57.4h-.9v-7.46a3.335,3.335,0,0,0,0-.8,3.717,3.717,0,0,0-.309-.611,1.362,1.362,0,0,0-.465-.385.717.717,0,0,0-.557-.161,1.109,1.109,0,0,0-.556.161,1.927,1.927,0,0,0-.744,1.029,3.405,3.405,0,0,0,0,.772V57.4h-.9v-7.46a3.358,3.358,0,0,1,.185-1.061" transform="translate(81.418 29.423)" fill="#fff"/>
        <path id="Path_75" data-name="Path 75" d="M140.505,49.033l-.774.546a1.621,1.621,0,0,0,0-.546,1.665,1.665,0,0,0-.278-.515,3.156,3.156,0,0,0-.5-.514.841.841,0,0,0-.557,0,1.119,1.119,0,0,0-.557.161,1.36,1.36,0,0,0-.432.418,1.741,1.741,0,0,0-.31.644,2.963,2.963,0,0,0,0,.74,1.457,1.457,0,0,0,.28.933,2.1,2.1,0,0,0,.681.611,8.305,8.305,0,0,0,.9.514l.9.548a3.144,3.144,0,0,1,.681.9,2.651,2.651,0,0,1,.28,1.382,2.892,2.892,0,0,1-.187,1.03,2.982,2.982,0,0,1-.494.868,3.157,3.157,0,0,1-.712.579,2.325,2.325,0,0,1-.93.193,2.168,2.168,0,0,1-.9-.193,3.323,3.323,0,0,1-.743-.579,2.95,2.95,0,0,1-.5-.868,2.891,2.891,0,0,1-.185-1.03h.928a3.409,3.409,0,0,0,0,.772,4.046,4.046,0,0,0,.31.644,1.357,1.357,0,0,0,.463.385h.527a.821.821,0,0,0,.557,0,1.162,1.162,0,0,0,.465-.418,3.78,3.78,0,0,0,.309-.611,3.405,3.405,0,0,0,0-.772,2.365,2.365,0,0,0,0-.931,2.761,2.761,0,0,0-.4-.644,2.469,2.469,0,0,0-.588-.418l-.681-.354-.681-.354a3.06,3.06,0,0,1-.619-.481,2.414,2.414,0,0,1-.4-.676,2.879,2.879,0,0,1,0-1.029,3.313,3.313,0,0,1,.185-1.061,2.981,2.981,0,0,1,.249-.9,3.323,3.323,0,0,1,.743-.579,2,2,0,0,1,.866-.193,2.143,2.143,0,0,1,.9.193,3.314,3.314,0,0,1,.65.45,1.954,1.954,0,0,1,.434.579,2.458,2.458,0,0,1,.216.514" transform="translate(84.682 29.398)" fill="#fff"/>
        <path id="Path_76" data-name="Path 76" d="M88.935,20.005H86.117V49.4h2.818Z" transform="translate(53.381 12.373)" fill="#fff"/>
        <path id="Path_77" data-name="Path 77" d="M104.943,23.829a5.874,5.874,0,0,0-3.1-3.217,6.356,6.356,0,0,0-2.57-.546,5.426,5.426,0,0,0-2.451.483,5.647,5.647,0,0,0-2.007,1.542,6.028,6.028,0,0,0-1.331,3.828V49.46H96.3V25.823a3.288,3.288,0,0,1,.744-1.994,2.9,2.9,0,0,1,1.076-.8,2.8,2.8,0,0,1,1.307-.224,2.556,2.556,0,0,1,1.251.226,2.69,2.69,0,0,1,1.009.8,3.038,3.038,0,0,1,.681,1.994v23.54h2.817V25.823a6.232,6.232,0,0,0-.31-1.994" transform="translate(57.99 12.409)" fill="#fff"/>
        <path id="Path_78" data-name="Path 78" d="M142.461,33.191a5.862,5.862,0,0,0,1.331-3.828V20.005h-2.724v9.326a3.3,3.3,0,0,1-.712,2.027,3.091,3.091,0,0,1-1.084.785,2.984,2.984,0,0,1-1.3.244,2.578,2.578,0,0,1-1.251-.226,2.672,2.672,0,0,1-1.008-.8,3.277,3.277,0,0,1-.835-1.994V20.005h-2.693v9.326a6.389,6.389,0,0,0,.309,2.027,7.277,7.277,0,0,0,.961,1.737,5.438,5.438,0,0,0,1.794,1.382,5.7,5.7,0,0,0-2.277,2.176,6,6,0,0,0-.818,3.1V49.4H135V39.751a3.285,3.285,0,0,1,.712-2.025,3.084,3.084,0,0,1,1.087-.767,2.985,2.985,0,0,1,1.3-.229,2.563,2.563,0,0,1,1.251.226,2.656,2.656,0,0,1,1.008.8,3.289,3.289,0,0,1,.681,2.025v9.648h2.817V39.784a6.427,6.427,0,0,0-.309-2.025,5.835,5.835,0,0,0-.93-1.672,5.042,5.042,0,0,0-1.763-1.416,4.68,4.68,0,0,0,1.733-1.416" transform="translate(82.168 12.373)" fill="#fff"/>
        <path id="Path_79" data-name="Path 79" d="M112.241,46.572h-3.1V22.839h4.644a1.446,1.446,0,0,1,.835.514,2.625,2.625,0,0,1,.527.772V45.061a1.971,1.971,0,0,1-.465.837,2.753,2.753,0,0,1-.8.546,6.919,6.919,0,0,1-1.64,0Zm5.633-23.348a4.044,4.044,0,0,0-.959-1.929,3.862,3.862,0,0,0-1.95-1.094,12.976,12.976,0,0,0-2.724-.193h-5.82V49.4h5.82a11.377,11.377,0,0,0,2.57-.224,3.784,3.784,0,0,0,1.918-1.19,4.478,4.478,0,0,0,.991-1.607,7.869,7.869,0,0,0,.34-2.831V25.862a12.577,12.577,0,0,0-.185-2.638" transform="translate(66.078 12.37)" fill="#fff"/>
        <path id="Path_80" data-name="Path 80" d="M122.222,24.348a1.808,1.808,0,0,1,.527-.837,1.638,1.638,0,0,1,.774-.546,4.365,4.365,0,0,1,1.578,0h5.851V20.006H125.1a10.483,10.483,0,0,0-2.475.257,4.029,4.029,0,0,0-1.95,1.19,4.16,4.16,0,0,0-1.022,1.607,7.843,7.843,0,0,0-.371,2.8V43.546a9.971,9.971,0,0,0,.247,2.542,4.363,4.363,0,0,0,1.084,1.962,4.232,4.232,0,0,0,2.1,1.19,11.707,11.707,0,0,0,2.383.161h5.851V46.569h-7.368a2.02,2.02,0,0,1-.866-.514,1.525,1.525,0,0,1-.5-.868v-9.1h8.73V33.319H122.1v-7.46Z" transform="translate(74.114 12.373)" fill="#fff"/>
        <path id="Path_81" data-name="Path 81" d="M145.587,22.252a1.948,1.948,0,0,0-.866,0H144.1v1.479h1.206a.608.608,0,0,0,.418-.166.641.641,0,0,0,.2-.413.958.958,0,0,0,0-.289.6.6,0,0,0-.044-.353.565.565,0,0,0-.234-.258Zm-.712-.676a2.956,2.956,0,0,1,1.082,0,.934.934,0,0,1,.486.4,1.462,1.462,0,0,1,.05,1.1.973.973,0,0,1-.288.369,1.255,1.255,0,0,1-.588.192,1.1,1.1,0,0,1,.712.419,1.422,1.422,0,0,1,.216.611V25.5h-.619v-.483c0-.483,0-.8-.4-.933a1.5,1.5,0,0,0-.837-.159h-.556v1.64h-.681V21.575Zm-2.136-.224a3.226,3.226,0,0,0-.949,1.694A3.327,3.327,0,0,0,141.964,25a3.181,3.181,0,0,0,1.232,1.484,3.172,3.172,0,0,0,3.243.047,3.152,3.152,0,0,0,1.066-1.045,3.331,3.331,0,0,0,.276-2.945,3.2,3.2,0,0,0-.85-1.238,3.047,3.047,0,0,0-1.305-.694,2.984,2.984,0,0,0-1.466.007,3.062,3.062,0,0,0-1.3.707h0Zm4.736,5.081a3.529,3.529,0,0,1-5.108,0h0a3.757,3.757,0,0,1-.782-1.225,3.91,3.91,0,0,1-.271-1.443,3.864,3.864,0,0,1,.619-2.089,3.653,3.653,0,0,1,1.629-1.378,3.492,3.492,0,0,1,2.093-.206,3.584,3.584,0,0,1,1.851,1.035,3.525,3.525,0,0,1,.819,1.212,3.628,3.628,0,0,1,.263,1.456,3.81,3.81,0,0,1-.276,1.451,3.717,3.717,0,0,1-.806,1.219" transform="translate(87.897 12.379)" fill="#fff"/>
      </g>
      <g id="Group_177" data-name="Group 177">
        <path id="Path_82" data-name="Path 82" d="M55.031,20.005H52.214V49.4h2.817Z" transform="translate(32.181 12.373)" fill="#fff"/>
        <path id="Path_83" data-name="Path 83" d="M57.054,30.555A5.417,5.417,0,0,0,53.309,29.2H36.375a3.018,3.018,0,0,1-2.043-.74,3.208,3.208,0,0,1-.756-1.125,3.332,3.332,0,0,1-.234-1.351,2.822,2.822,0,0,1,.218-1.3,2.756,2.756,0,0,1,.772-1.048,3.023,3.023,0,0,1,2.043-.707H54.949V20.005H36.375a6.344,6.344,0,0,0-1.889.322,6.845,6.845,0,0,0-1.671,1,5.728,5.728,0,0,0-1.424,2.123,7,7,0,0,0-.527,2.669,6.013,6.013,0,0,0,.466,2.547,5.776,5.776,0,0,0,1.484,2.084A5.535,5.535,0,0,0,36.5,32.13H53.309a2.748,2.748,0,0,1,1.178.218,2.837,2.837,0,0,1,.99.7,3,3,0,0,1,.624,1.063,3.06,3.06,0,0,1,.148,1.235,3.144,3.144,0,0,1-.237,1.305,2.744,2.744,0,0,1-2.7,1.749H28.543a2.236,2.236,0,0,0,0-.642,10.785,10.785,0,0,0,0-2.444V29.235H26.191v7.623a2.007,2.007,0,0,1-.527.9,1.669,1.669,0,0,1-.8.514H21.949V29.235H19.255V38.4H16.624a1.8,1.8,0,0,1-.866-.675,2.069,2.069,0,0,1-.557-.8,5.724,5.724,0,0,1,0-1.029V29.2H12.415V44.962a1.725,1.725,0,0,1-.65.772,1.846,1.846,0,0,1-.774.514H4.8a1.579,1.579,0,0,1-.65-.514,1.88,1.88,0,0,1-.372-.868V29.2H.868V43.354a12.658,12.658,0,0,0,.185,2.669,3.8,3.8,0,0,0,1.084,1.994,3.784,3.784,0,0,0,1.918,1.19,15.235,15.235,0,0,0,2.415.192H9.349a11.819,11.819,0,0,0,2.6-.192,4.029,4.029,0,0,0,1.95-1.19,4.033,4.033,0,0,0,1.084-1.994,12.767,12.767,0,0,0,.185-2.669V40.845h.218a7.52,7.52,0,0,0,2.662.387h5.261a10.238,10.238,0,0,0,2.415-.258,3.635,3.635,0,0,0,1.8-1.029V41.2H53.309a5.751,5.751,0,0,0,1.95-.322,6.87,6.87,0,0,0,1.671-1,5.333,5.333,0,0,0,1.486-2.123,6.628,6.628,0,0,0,.619-2.54,6.037,6.037,0,0,0-.476-2.568A5.81,5.81,0,0,0,57.054,30.555Z" transform="translate(0.068 12.373)" fill="#fff"/>
        <path id="Path_84" data-name="Path 84" d="M56.711,28.591v4.824a1.52,1.52,0,0,1-.5.868,1.641,1.641,0,0,1-.774.548H51.325l.247-.515a7.555,7.555,0,0,0,.372-2.638,5.9,5.9,0,0,0-1.424-4.125,5.462,5.462,0,0,0-3.808-1.889H39.345v2.927h7a2.785,2.785,0,0,1,1.92.707,3.226,3.226,0,0,1,.774,1.121,3.357,3.357,0,0,1,.249,1.356,3.033,3.033,0,0,1-.242,1.315,2.906,2.906,0,0,1-.78,1.065,3.021,3.021,0,0,1-1.92.676H37.053v2.926H46.34a5.275,5.275,0,0,0,3.592-1.318l.216-.193v1.512h3.559a11.92,11.92,0,0,0,2.6-.193,3.833,3.833,0,0,0,1.827-1.157,3.9,3.9,0,0,0,1.084-2.025,12.783,12.783,0,0,0,.185-2.67V25.664H56.619Z" transform="translate(22.7 15.911)" fill="#fff"/>
        <path id="Path_85" data-name="Path 85" d="M50.715,21.865a1.747,1.747,0,0,0-1,.315,1.853,1.853,0,0,0-.662.835,1.923,1.923,0,0,0-.1,1.078,1.9,1.9,0,0,0,.491.956,1.8,1.8,0,0,0,.92.51,1.735,1.735,0,0,0,1.037-.107,1.815,1.815,0,0,0,.806-.686,1.926,1.926,0,0,0,.3-1.037h0a1.9,1.9,0,0,0-.525-1.318A1.765,1.765,0,0,0,50.715,21.865Z" transform="translate(30.12 13.536)" fill="#fff"/>
        <path id="Path_86" data-name="Path 86" d="M50.37,47.647H49.224v7.686H50.37Z" transform="translate(30.311 29.658)" fill="#fff"/>
        <path id="Path_87" data-name="Path 87" d="M9.266,39.673H8.122v7.686H9.266Z" transform="translate(4.609 24.671)" fill="#fff"/>
        <path id="Path_88" data-name="Path 88" d="M4.744,43.059a.682.682,0,0,0,.462-.219.727.727,0,0,0,.189-.489.686.686,0,0,0-.221-.416.667.667,0,0,0-.9.013.679.679,0,0,0-.151.211.7.7,0,0,0-.06.257h0a.728.728,0,0,0,.2.5.673.673,0,0,0,.483.206Zm1.7.063a.669.669,0,0,0,.481-.206.722.722,0,0,0,.2-.5.7.7,0,0,0-.177-.437.647.647,0,0,0-.411-.206.634.634,0,0,0-.468.176.654.654,0,0,0-.151.211.734.734,0,0,0-.062.257h0a.709.709,0,0,0,.231.439.664.664,0,0,0,.45.172Zm2.508.676v2.219a.8.8,0,0,1-.15.575.762.762,0,0,1-.223.2.715.715,0,0,1-.278.094H2.856a.715.715,0,0,1-.554-.156A.768.768,0,0,1,2.11,46.5a.822.822,0,0,1-.089-.289V43.8H.751v2.926a1.158,1.158,0,0,0,1.331,1.318H8.707c.928,0,1.362-.418,1.362-1.318V43.8Z" transform="translate(0 25.983)" fill="#fff"/>
        <path id="Path_89" data-name="Path 89" d="M43.893,40.708a.607.607,0,0,0-.252.039.661.661,0,0,0-.218.135.681.681,0,0,0-.15.213.692.692,0,0,0-.062.255h0a.676.676,0,0,0-.011.28.708.708,0,0,0,.1.26.671.671,0,0,0,.192.2.612.612,0,0,0,.25.1.661.661,0,0,0,.51-.1.71.71,0,0,0,.294-.445.468.468,0,0,0,0-.291.683.683,0,0,0-.19-.476.639.639,0,0,0-.46-.2h0Zm-1.734,1.351a.668.668,0,0,0,.483-.208.722.722,0,0,0,.2-.5h0a.73.73,0,0,0-.114-.393.7.7,0,0,0-.306-.26.667.667,0,0,0-.393-.041.677.677,0,0,0-.349.2.715.715,0,0,0-.187.361.749.749,0,0,0,.039.41.694.694,0,0,0,.252.317.658.658,0,0,0,.377.12Zm-6.191,4.952a.587.587,0,0,1-.018.226.576.576,0,0,1-.268.349.531.531,0,0,1-.21.068h-.99a.582.582,0,0,1-.231-.021.6.6,0,0,1-.2-.112.594.594,0,0,1-.146-.184.632.632,0,0,1-.068-.231v-.933a.64.64,0,0,1,.232-.384.592.592,0,0,1,.418-.13h.866a.519.519,0,0,1,.218.018.552.552,0,0,1,.2.1.571.571,0,0,1,.141.176.6.6,0,0,1,.065.216v.837Zm6.81-1.962a.833.833,0,0,1-.018.3.809.809,0,0,1-.132.271.756.756,0,0,1-.221.2.713.713,0,0,1-.28.094H37.052v-.933c0-.385-.434-.579-.991-.579h-2.2c-.712,0-1.022.289-1.022.933v.579H13.122v-1h-1.3v2.219a.892.892,0,0,1-.072.473.841.841,0,0,1-.3.362H10.026v1.191h1.611a1.233,1.233,0,0,0,1.393-1.416v-.74H32.841V48.04c0,.418.434.579.991.579h2.2c.681,0,1.022-.289,1.022-.933v-.675h5.572c.928,0,1.362-.418,1.362-1.351V42.766H42.778Z" transform="translate(5.8 25.278)" fill="#fff"/>
        <path id="Path_90" data-name="Path 90" d="M54.016,51.133a.325.325,0,0,1-.01.125.352.352,0,0,1-.059.112.291.291,0,0,1-.093.08.3.3,0,0,1-.117.037h-.465a.312.312,0,0,1-.228-.072.323.323,0,0,1-.078-.1.351.351,0,0,1-.034-.12V50.65a.325.325,0,0,1,.011-.125A.318.318,0,0,1,53,50.413a.3.3,0,0,1,.094-.08.29.29,0,0,1,.115-.036h.5a.245.245,0,0,1,.124.013.27.27,0,0,1,.106.068.288.288,0,0,1,.067.111.268.268,0,0,1,.013.128h0Zm.588-1.447H52.841c-.372,0-.557.192-.557.642v1.351a.564.564,0,0,0,.026.284.557.557,0,0,0,.159.231.64.64,0,0,0,.341,0h1.206v.224c0,.45,0,.709-.371.837H51.757v1.157H53.8a1.21,1.21,0,0,0,1.393-1.383V50.039c0-.224,0-.224-.588-.224" transform="translate(31.895 30.933)" fill="#fff"/>
        <path id="Path_91" data-name="Path 91" d="M49.831,47.511a.624.624,0,0,1-.15.442.579.579,0,0,1-.184.143.6.6,0,0,1-.223.059h-.961a.55.55,0,0,1-.218-.02.527.527,0,0,1-.2-.1.589.589,0,0,1-.141-.174.627.627,0,0,1-.065-.218v-.964a.63.63,0,0,1,.018-.228.6.6,0,0,1,.1-.2.553.553,0,0,1,.167-.146.54.54,0,0,1,.21-.068h.991a.549.549,0,0,1,.229.021.583.583,0,0,1,.2.111.631.631,0,0,1,.148.185.6.6,0,0,1,.067.229v.933ZM37.139,46.225a.3.3,0,0,1-.011.125.333.333,0,0,1-.057.112.31.31,0,0,1-.093.08.305.305,0,0,1-.117.036h-.5a.3.3,0,0,1-.12-.011.328.328,0,0,1-.107-.059.323.323,0,0,1-.078-.1.326.326,0,0,1-.034-.122v-.546a.307.307,0,0,1,.011-.127.311.311,0,0,1,.057-.111.341.341,0,0,1,.093-.081.337.337,0,0,1,.117-.036h.5a.3.3,0,0,1,.12.011.324.324,0,0,1,.185.158.31.31,0,0,1,.034.12ZM64.63,39.953v5.661a.825.825,0,0,1-.023.315.787.787,0,0,1-.369.488.763.763,0,0,1-.289.1H61.533V40.6H60.357v5.949H50.884V45.484c0-.385-.434-.579-.959-.579H47.572c-.681,0-1.021.289-1.021.965v.675H38.285V45.26a.492.492,0,0,0-.557-.546H35.933c-.372,0-.557.192-.557.611v1.382a.653.653,0,0,0,.044.262.621.621,0,0,0,.141.221.333.333,0,0,0,.171.047.327.327,0,0,0,.169-.047h1.208v.257a.879.879,0,0,1-.07.475.851.851,0,0,1-.3.362h-1.95V49.44h2.074a1.152,1.152,0,0,0,.471.015,1.18,1.18,0,0,0,.439-.18,1.208,1.208,0,0,0,.335-.345,1.233,1.233,0,0,0,.179-.453.96.96,0,0,0,0-.419v-.579h8.39v.933c0,.387.432.579.99.579h2.2c.712,0,1.021-.289,1.021-.964v-.548H64.475c.928,0,1.362-.418,1.362-1.318V39.792Z" transform="translate(21.283 24.746)" fill="#fff"/>
        <path id="Path_92" data-name="Path 92" d="M13.771,52.9V49.686H12.658V51.9c0,.45,0,.707-.4.835l-.835.161h-.65v1.19h1.609a1.222,1.222,0,0,0,1.393-1.382" transform="translate(6.264 30.933)" fill="#fff"/>
        <path id="Path_93" data-name="Path 93" d="M13.474,54.411H8.366V53h4.366a.7.7,0,0,1,.291.021.737.737,0,0,1,.263.135.8.8,0,0,1,.19.231.782.782,0,0,1,.091.289v.193Zm.185-2.54H8.366v-.515H7.127v4.117c0,.45-.154.74-.4.837H2.36c-.278,0-.4-.387-.4-.837V53.286H.751v2.893a1.21,1.21,0,0,0,1.393,1.383h4.8a1.21,1.21,0,0,0,1.393-1.383V55.7h6.347V52.965c0-.644-.341-.933-1.022-.933Zm-2.724-3.056a.651.651,0,0,0,.293-.063.669.669,0,0,0,.239-.187.719.719,0,0,0,.138-.275.742.742,0,0,0,.011-.31h0a.719.719,0,0,0-.2-.5.665.665,0,0,0-.481-.208h0a.665.665,0,0,0-.481.208.719.719,0,0,0-.2.5h0a.722.722,0,0,0,.2.5.669.669,0,0,0,.481.206h0" transform="translate(0 29.423)" fill="#fff"/>
        <path id="Path_94" data-name="Path 94" d="M59.487,55.136a.59.59,0,0,1-.018.226.567.567,0,0,1-.1.2.578.578,0,0,1-.167.146.566.566,0,0,1-.21.067H58a.554.554,0,0,1-.231-.021.6.6,0,0,1-.2-.111.582.582,0,0,1-.146-.185.634.634,0,0,1-.068-.229V54.3a.609.609,0,0,1,.033-.236.647.647,0,0,1,.117-.206.61.61,0,0,1,.185-.143.587.587,0,0,1,.223-.059h.959a.547.547,0,0,1,.413.124.565.565,0,0,1,.141.174.6.6,0,0,1,.065.218v.965Zm-25.23-1.544a.591.591,0,0,1-.14.388.56.56,0,0,1-.356.19h-.835a.543.543,0,0,1-.384-.124.585.585,0,0,1-.2-.359V52.82a.517.517,0,0,1,.588-.548H33.7a.494.494,0,0,1,.2.015.513.513,0,0,1,.176.089.533.533,0,0,1,.127.154.5.5,0,0,1,.06.192Zm32.5-5.885v5.659a.806.806,0,0,1-.249.559.769.769,0,0,1-.257.164.728.728,0,0,1-.3.049H60.571V53.077c0-.385-.434-.579-.991-.579h-2.2c-.712,0-1.022.289-1.022.965v.675H35.372v-2.09c0-.644-.31-.965-1.022-.965H32.276c-.712,0-1.021.322-1.021.965v2.09H16.8c-.835,0-.961-.546-.961-.9V47.707H14.693v6.431a1.158,1.158,0,0,0,1.331,1.318H56.267v.933c0,.387.434.579.961.579h2.228c.681,0,1.022-.289,1.022-.964v-.548h6.036c.928,0,1.331-.418,1.331-1.318V47.707Z" transform="translate(8.718 29.695)" fill="#fff"/>
        <path id="Path_95" data-name="Path 95" d="M36.487,41.349a.5.5,0,0,0-.216-.049.5.5,0,0,0-.216.049H36.3V40.8H34.01a.523.523,0,0,0-.185.258v.289a.641.641,0,0,0,.054.307.606.606,0,0,0,.193.239.507.507,0,0,0,.218.049.5.5,0,0,0,.216-.049H33.454v.483h3.095a.686.686,0,0,0,.154-.258.458.458,0,0,0,0-.288.692.692,0,0,0-.06-.3.676.676,0,0,0-.187-.244" transform="translate(20.45 25.377)" fill="#fff"/>
      </g>
    </g>
    <path id="Path_4365" data-name="Path 4365" d="M2.545-3.428V0H.939V-9.242H4.475a3.575,3.575,0,0,1,2.46.807A2.714,2.714,0,0,1,7.846-6.3a2.623,2.623,0,0,1-.892,2.116,3.748,3.748,0,0,1-2.5.756Zm0-1.295h1.93a1.9,1.9,0,0,0,1.308-.4,1.481,1.481,0,0,0,.451-1.165,1.6,1.6,0,0,0-.457-1.2,1.762,1.762,0,0,0-1.257-.46H2.545Zm14.469.343A5.67,5.67,0,0,1,16.545-2,3.552,3.552,0,0,1,15.2-.422a3.693,3.693,0,0,1-2.009.549,3.7,3.7,0,0,1-2-.549A3.606,3.606,0,0,1,9.832-1.987a5.493,5.493,0,0,1-.486-2.342V-4.85a5.622,5.622,0,0,1,.479-2.387A3.6,3.6,0,0,1,11.178-8.82a3.681,3.681,0,0,1,2-.549,3.714,3.714,0,0,1,2,.543,3.556,3.556,0,0,1,1.349,1.562,5.61,5.61,0,0,1,.482,2.371Zm-1.606-.482a4.04,4.04,0,0,0-.581-2.355,1.9,1.9,0,0,0-1.647-.819,1.894,1.894,0,0,0-1.628.816,3.962,3.962,0,0,0-.6,2.307v.533a4.009,4.009,0,0,0,.594,2.355,1.911,1.911,0,0,0,1.647.832,1.889,1.889,0,0,0,1.641-.812,4.1,4.1,0,0,0,.574-2.374ZM26.253-2.285l1.422-6.957h1.593L27.135,0H25.6L23.841-6.748,22.045,0H20.5L18.369-9.242h1.593L21.4-2.3l1.765-6.944h1.346Zm9.981-1.841h-3.8v2.844h4.437V0H30.833V-9.242h6v1.295H32.439V-5.4h3.8Zm5.735.571h-1.79V0H38.573V-9.242h3.25a3.781,3.781,0,0,1,2.469.718,2.54,2.54,0,0,1,.87,2.077,2.6,2.6,0,0,1-.448,1.553,2.848,2.848,0,0,1-1.247.962L45.543-.082V0h-1.72ZM40.179-4.85h1.65a1.836,1.836,0,0,0,1.27-.409,1.428,1.428,0,0,0,.457-1.12,1.52,1.52,0,0,0-.422-1.149,1.793,1.793,0,0,0-1.26-.419H40.179Zm12.3.724h-3.8v2.844h4.437V0H47.075V-9.242h6v1.295H48.681V-5.4h3.8ZM54.816,0V-9.242h2.729A4.281,4.281,0,0,1,59.72-8.7a3.722,3.722,0,0,1,1.469,1.549,4.916,4.916,0,0,1,.521,2.3v.463a4.9,4.9,0,0,1-.524,2.311A3.677,3.677,0,0,1,59.694-.54,4.48,4.48,0,0,1,57.476,0Zm1.606-7.947v6.665h1.047a2.412,2.412,0,0,0,1.939-.79A3.442,3.442,0,0,0,60.1-4.342v-.514a3.532,3.532,0,0,0-.654-2.3,2.318,2.318,0,0,0-1.9-.793ZM67.327,0V-9.242h3.167a3.867,3.867,0,0,1,2.387.628A2.213,2.213,0,0,1,73.7-6.741,2,2,0,0,1,73.357-5.6a2.206,2.206,0,0,1-1,.787,2.04,2.04,0,0,1,1.158.765A2.228,2.228,0,0,1,73.922-2.7a2.46,2.46,0,0,1-.835,2A3.629,3.629,0,0,1,70.7,0Zm1.606-4.17v2.888h1.784A1.726,1.726,0,0,0,71.9-1.657,1.315,1.315,0,0,0,72.322-2.7,1.319,1.319,0,0,0,70.849-4.17Zm0-1.181h1.574a1.821,1.821,0,0,0,1.171-.34,1.164,1.164,0,0,0,.422-.962,1.179,1.179,0,0,0-.39-.99,1.971,1.971,0,0,0-1.216-.3H68.933Zm9.651.489,2.126-4.38h1.777L79.39-3.4V0H77.778V-3.4l-3.1-5.84h1.784Zm6.077,3.237a.881.881,0,0,1,.667.244.849.849,0,0,1,.235.613.819.819,0,0,1-.235.6.894.894,0,0,1-.667.238.9.9,0,0,1-.654-.235.8.8,0,0,1-.241-.6A.849.849,0,0,1,84-1.381.873.873,0,0,1,84.661-1.625Zm0-5.389a.881.881,0,0,1,.667.244.849.849,0,0,1,.235.613.819.819,0,0,1-.235.6.894.894,0,0,1-.667.238.9.9,0,0,1-.654-.235.8.8,0,0,1-.241-.6A.849.849,0,0,1,84-6.77.873.873,0,0,1,84.661-7.014Z" transform="translate(1394 201)" fill="#fff"/>
  </g>
</svg>
