<svg xmlns="http://www.w3.org/2000/svg" width="40" height="40" viewBox="0 0 40 40"><g transform="translate(14404 2978)"><rect width="40" height="40" transform="translate(-14404 -2978)" fill="none"/><g transform="translate(-14693.7 -3313.34)"><path d="M315.347,347.257l-2.164,2.165.612.612L315.832,348h3.717v-.865h-3.9A.434.434,0,0,0,315.347,347.257Z" transform="translate(1.393 0.405)" fill="#1b1b1b"/><path d="M302.193,347.13h-3.9V348h3.718l2.038,2.038.612-.612-2.165-2.165A.432.432,0,0,0,302.193,347.13Z" transform="translate(0.135 0.405)" fill="#1b1b1b"/><path d="M298.3,348.727h3.464v.865H298.3Z" transform="translate(0.135 1.722)" fill="#1b1b1b"/><path d="M298.3,350.323h3.464v.867H298.3Z" transform="translate(0.135 1.857)" fill="#1b1b1b"/><path d="M298.3,351.92h3.464v.865H298.3Z" transform="translate(0.135 1.992)" fill="#1b1b1b"/><path d="M315.86,348.727h3.463v.865H315.86Z" transform="translate(1.619 1.722)" fill="#1b1b1b"/><path d="M315.86,350.323h3.463v.867H315.86Z" transform="translate(1.619 1.857)" fill="#1b1b1b"/><path d="M315.86,351.92h3.463v.865H315.86Z" transform="translate(1.619 1.992)" fill="#1b1b1b"/><path d="M321.374,342.34H298a1.3,1.3,0,0,0-1.3,1.3v16.017a1.3,1.3,0,0,0,1.3,1.3h3.9v-.865H298a.433.433,0,0,1-.433-.433V346.669h24.242v12.987a.433.433,0,0,1-.433.433h-3.9v.865h3.9a1.3,1.3,0,0,0,1.3-1.3V343.639A1.3,1.3,0,0,0,321.374,342.34Zm.433,3.463H297.565v-2.164a.433.433,0,0,1,.433-.434h23.376a.433.433,0,0,1,.433.434Z" transform="translate(0 0)" fill="#1b1b1b"/><path d="M317.074,358.681v1.135a1.3,1.3,0,0,1-1.087,1.281l-.745.126a.4.4,0,0,0-.324.252l-.069.168a.435.435,0,0,0,.039.429l.441.614a1.291,1.291,0,0,1-.143,1.676l-.792.8a1.29,1.29,0,0,1-1.676.138l-.615-.441a.414.414,0,0,0-.411-.043l-.186.074a.4.4,0,0,0-.251.321l-.126.753a1.3,1.3,0,0,1-1.281,1.082h-1.134a1.3,1.3,0,0,1-1.282-1.087l-.125-.744a.4.4,0,0,0-.252-.325l-.169-.069a.433.433,0,0,0-.428.039l-.615.441a1.289,1.289,0,0,1-1.674-.142l-.8-.793a1.3,1.3,0,0,1-.139-1.676l.443-.614a.417.417,0,0,0,.042-.412l-.073-.185a.405.405,0,0,0-.321-.252l-.753-.126a1.3,1.3,0,0,1-1.082-1.28v-1.135a1.3,1.3,0,0,1,1.087-1.281.3.3,0,0,1,.336.215l.073.264a.3.3,0,0,1-.239.373l-.028.005a.436.436,0,0,0-.363.424v1.134a.435.435,0,0,0,.359.424l.754.126a1.281,1.281,0,0,1,.983.8l.069.169a1.274,1.274,0,0,1-.143,1.243l-.441.614a.433.433,0,0,0,.048.559l.8.8a.431.431,0,0,0,.559.052l.615-.441a1.29,1.29,0,0,1,1.26-.139l.151.065a1.279,1.279,0,0,1,.8.987l.126.744a.436.436,0,0,0,.424.364h1.134a.436.436,0,0,0,.424-.36l.126-.753a1.28,1.28,0,0,1,.8-.983l.169-.069a1.275,1.275,0,0,1,1.242.143l.615.441a.435.435,0,0,0,.559-.048l.8-.8a.43.43,0,0,0,.051-.559l-.441-.614a1.29,1.29,0,0,1-.138-1.26l.064-.152a1.283,1.283,0,0,1,.988-.8l.744-.126a.435.435,0,0,0,.363-.424v-1.134a.435.435,0,0,0-.359-.424l-.088-.015a.212.212,0,0,1-.163-.283l.162-.425a.212.212,0,0,1,.2-.137.186.186,0,0,1,.035,0A1.3,1.3,0,0,1,317.074,358.681Z" transform="translate(0.405 1.272)" fill="#1b1b1b"/><path d="M306.121,355.4l-.446.743,2.165,1.3a.433.433,0,0,0,.544-.081l3.9-4.329-.643-.579-3.657,4.065Z" transform="translate(0.758 0.854)" fill="#1b1b1b"/><path d="M298.3,343.937h.867v.865H298.3Z" transform="translate(0.135 0.135)" fill="#1b1b1b"/><path d="M299.893,343.937h.865v.865h-.865Z" transform="translate(0.27 0.135)" fill="#1b1b1b"/><path d="M301.49,343.937h.865v.865h-.865Z" transform="translate(0.405 0.135)" fill="#1b1b1b"/><path d="M303.193,358.094" transform="translate(0.549 1.331)" fill="#1b1b1b"/><g transform="translate(303.45 348.833)"><path d="M315.16,351.358a.436.436,0,0,0-.253-.4l-5.821-2.6a.393.393,0,0,0-.324,0l-5.82,2.6a.435.435,0,0,0-.254.4v4.2a9.375,9.375,0,0,0,.346,2.511l.27.831a9.117,9.117,0,0,0,3.039,4.056l2.34,1.736a.4.4,0,0,0,.482,0l2.341-1.736a8.732,8.732,0,0,0,1.8-1.813,9.2,9.2,0,0,0,1.23-2.243l.275-.831a9.417,9.417,0,0,0,.345-2.511Zm-.831,4.2a8.347,8.347,0,0,1-3.309,6.693l-2.1,1.558-2.1-1.558a8.347,8.347,0,0,1-3.309-6.693v-3.918l5.4-2.411,5.4,2.411Z" transform="translate(-302.687 -348.327)" fill="#1b1b1b"/></g></g></g></svg>