<svg xmlns="http://www.w3.org/2000/svg" xmlns:xlink="http://www.w3.org/1999/xlink" width="20.291" height="22.587" viewBox="0 0 20.291 22.587"><defs><clipPath id="a"><rect width="20.291" height="22.587" transform="translate(0 0)" fill="#fff"/></clipPath></defs><g clip-path="url(#a)"><path d="M20.218,16.078a2.818,2.818,0,0,0-.747-1.252,8.26,8.26,0,0,1-1.912-3.206,8.132,8.132,0,0,1-.376-1.995c-.023-.406-.032-.809-.032-1.213,0-.422,0-.842,0-1.264A7.034,7.034,0,0,0,12.264.337c-.1-.031-.519-.161-.629-.184A7.046,7.046,0,0,0,10.167,0a7.126,7.126,0,0,0-1.8.231A.328.328,0,0,1,8.29.256a6.889,6.889,0,0,0-3.2,1.9A6.81,6.81,0,0,0,3.148,6.766c-.014.45-.012.9-.012,1.356,0,.2,0,.406,0,.609A11.416,11.416,0,0,1,3,10.458a8.281,8.281,0,0,1-1.453,3.487c-.281.4-.62.745-.939,1.112A2.393,2.393,0,0,0,2.26,19.049c1.363.018,2.726.007,4.086.009H6.6a3.547,3.547,0,0,0,7.094.016.7.7,0,0,1,.249-.014q1.892,0,3.78,0a3.345,3.345,0,0,0,.71-.058,2.407,2.407,0,0,0,1.79-2.922m-9.974,4.758a1.774,1.774,0,0,1-1.88-1.764H11.9a1.729,1.729,0,0,1-1.658,1.764m7.686-3.519c-.085.007-.171,0-.254,0H2.43a.637.637,0,0,1-.632-.39.645.645,0,0,1,.122-.731,15.95,15.95,0,0,0,1.052-1.25,10.11,10.11,0,0,0,1.6-3.462v0a11.221,11.221,0,0,0,.3-2.569c.012-.63,0-1.259,0-1.891a5.266,5.266,0,0,1,9.446-3.212,5.182,5.182,0,0,1,1.091,3.242c0,.553,0,1.107,0,1.658a11.477,11.477,0,0,0,.307,2.823c.032.134.069.268.108.4a10.025,10.025,0,0,0,1.384,2.873A12.129,12.129,0,0,0,18.3,16.125a.759.759,0,0,1,.24.438.652.652,0,0,1-.609.754" transform="translate(0 0)" fill="#fff"/></g></svg>