<svg xmlns="http://www.w3.org/2000/svg" width="120.562" height="106.046" viewBox="0 0 120.562 106.046"><g transform="translate(-392 -695)"><g transform="translate(-0.037 314.912)"><circle cx="5.85" cy="5.85" r="5.85" transform="translate(400.687 466.234)" fill="none" stroke="#058a0e" stroke-miterlimit="10" stroke-width="1"/><circle cx="4" cy="4" r="4" transform="translate(504.099 443.489)" fill="none" stroke="#1aac23" stroke-miterlimit="10" stroke-width="1"/><g transform="translate(500.049 473.784)"><line y2="8.3" transform="translate(4.1)" fill="none" stroke="#999" stroke-miterlimit="10" stroke-width="1"/><line x2="8.1" transform="translate(0 4)" fill="none" stroke="#999" stroke-miterlimit="10" stroke-width="1"/></g><g transform="translate(392.037 385.088)"><line y2="5.4" transform="translate(7.3)" fill="none" stroke="#058a0e" stroke-miterlimit="10" stroke-width="1"/><line y2="5.8" transform="translate(7.3 8.6)" fill="none" stroke="#058a0e" stroke-miterlimit="10" stroke-width="1"/><line x1="5.5" transform="translate(9 7.2)" fill="none" stroke="#058a0e" stroke-miterlimit="10" stroke-width="1"/><line x1="5.5" transform="translate(0 7.2)" fill="none" stroke="#058a0e" stroke-miterlimit="10" stroke-width="1"/></g><circle cx="3" cy="3" r="3" transform="translate(495.777 380.088)" fill="#9a9a9a"/><circle cx="1.4" cy="1.4" r="1.4" transform="translate(392.037 436.611)" fill="#058a0e"/></g><g transform="translate(-1305.854 2176.909)"><path d="M1768.657-1291.182a6.5,6.5,0,0,1-1.655-1.454q-14.7-16.885-29.41-33.757l-9.092-10.432a2.138,2.138,0,0,1-.209-3.083q2.245-3.375,4.5-6.746,3.208-4.808,6.407-9.622a2.415,2.415,0,0,1,2.211-1.147q13.943.007,27.884.008,13.872,0,27.746-.011a2.466,2.466,0,0,1,2.263,1.231q3.093,4.663,6.2,9.316,2.324,3.485,4.645,6.972a2.135,2.135,0,0,1-.211,3.084q-15.016,17.236-30.036,34.464l-.647.742q-1.133,1.3-2.269,2.6c-1.885,2.157-3.835,4.388-5.734,6.6a6.174,6.174,0,0,1-1.49,1.234Zm.563-8.128,13.887-37.028H1755.33Zm17.295-34.357q-1.732,4.611-3.458,9.219-2.231,5.972-4.454,11.946l-1.685,4.521-.006.021a.94.94,0,0,0,.116.872.891.891,0,0,0,.741.356,1.308,1.308,0,0,0,.23-.021l.2-.035.155-.131a1.377,1.377,0,0,0,.22-.194l23.207-26.636c.268-.308.531-.615.821-.952l1.444-1.68h-16.513Zm-51.046-1.452c.279.322.476.549.675.775l1.756,2.017q3.832,4.4,7.669,8.8,4.563,5.229,9.13,10.451l5.483,6.275.265.045a1.288,1.288,0,0,0,.217.019.9.9,0,0,0,.732-.344.94.94,0,0,0,.141-.85c-.016-.057-.027-.1-.038-.141a3.4,3.4,0,0,0-.117-.384q-1.837-4.9-3.683-9.82-1.54-4.1-3.079-8.206-1.227-3.268-2.446-6.524l-1.259-3.36H1734.39Zm22.217-5.433h23.1l-1.28-1.282c-2.132-2.137-4.275-4.283-6.384-6.394l-3.875-3.881Zm33.109-1.216-.778,1.169h14.711l-7.357-11.035S1792.551-1344.4,1790.794-1341.767Zm-57.083,1.166h14.716l-2.425-3.633c-1.436-2.152-2.857-4.281-4.311-6.456l-.625-.936Zm52.18-1.253,7.589-11.4h-18.994Zm-33.4-.081,3.841-3.839c2.092-2.09,4.166-4.163,6.2-6.2l1.286-1.284h-18.871Z" transform="translate(-11.15 -84.682)" fill="#30a729"/><path d="M1887.067-1460.679a2.057,2.057,0,0,1-2.056-2.065c-.018-.63-.014-1.277-.009-1.9,0-.3,0-.59,0-.885s0-.586,0-.88c0-.629-.008-1.279.007-1.912a2.077,2.077,0,0,1,2.024-2.1h.036a2.053,2.053,0,0,1,2.054,2.1c.03,2.038.03,3.868,0,5.594A2.06,2.06,0,0,1,1887.067-1460.679Z" transform="translate(-128.999 0)"/><path d="M1794.223-1440.209a1.8,1.8,0,0,1-1.474-1.118c-.9-1.842-1.68-3.524-2.393-5.14a2.042,2.042,0,0,1,.975-2.735,2.111,2.111,0,0,1,.9-.206,2.037,2.037,0,0,1,1.835,1.193c1.008,2.041,1.744,3.623,2.386,5.128a1.977,1.977,0,0,1-.129,1.9,2.4,2.4,0,0,1-2.07.983Z" transform="translate(-57.931 -15.752)"/><path d="M1972.461-1440.2a2.1,2.1,0,0,1-1.72-.914,1.722,1.722,0,0,1-.2-1.613,55.421,55.421,0,0,1,2.661-5.769,1.805,1.805,0,0,1,1.637-.907,2.175,2.175,0,0,1,.9.2,1.944,1.944,0,0,1,1.11,2.327,40.879,40.879,0,0,1-2.742,5.9,1.667,1.667,0,0,1-1.593.784Z" transform="translate(-193.013 -15.757)"/><path d="M1719.18-1381.777a1.678,1.678,0,0,1-1.053-.377c-1.745-1.367-3.279-2.654-4.687-3.935a1.944,1.944,0,0,1-.085-2.7,2.091,2.091,0,0,1,1.588-.78,1.748,1.748,0,0,1,1.073.368c1.664,1.279,3.243,2.658,4.771,3.992a1.644,1.644,0,0,1,.511,1.357,1.909,1.909,0,0,1-1.069,1.786A2.263,2.263,0,0,1,1719.18-1381.777Z" transform="translate(0 -60.596)"/><path d="M2042.049-1381.723a2.2,2.2,0,0,1-.942-.23,1.857,1.857,0,0,1-1.149-1.778,2.026,2.026,0,0,1,.746-1.645q.494-.417.985-.835c1.055-.9,2.146-1.822,3.234-2.707a2.286,2.286,0,0,1,1.439-.553,2,2,0,0,1,1.526.741,2.038,2.038,0,0,1-.3,2.948c-1.516,1.312-3.049,2.579-4.215,3.537A2.071,2.071,0,0,1,2042.049-1381.723Z" transform="translate(-245.122 -60.667)"/></g></g></svg>