<svg xmlns="http://www.w3.org/2000/svg" width="40" height="40" viewBox="0 0 40 40"><g transform="translate(14404 3022)"><rect width="40" height="40" transform="translate(-14404 -3022)" fill="none"/><g transform="translate(-8312 1428)"><g transform="translate(-6077.1 -4428.925)"><path d="M227.043,356.388c.025.033.05.066.075.1C227.093,356.454,227.068,356.421,227.043,356.388Z" transform="translate(-223.396 -355.061)" fill="#1b1b1b"/><path d="M226.8,356.1c.019.018.034.037.052.057C226.83,356.141,226.815,356.122,226.8,356.1Z" transform="translate(-223.42 -355.088)" fill="#1b1b1b"/><path d="M227.273,356.726c.015.026.033.053.048.08C227.306,356.779,227.288,356.753,227.273,356.726Z" transform="translate(-223.374 -355.028)" fill="#1b1b1b"/><path d="M227.479,357.137c.012.03.022.06.034.088C227.5,357.2,227.491,357.167,227.479,357.137Z" transform="translate(-223.354 -354.988)" fill="#1b1b1b"/><path d="M226.444,355.8l.083.062C226.5,355.839,226.471,355.819,226.444,355.8Z" transform="translate(-223.454 -355.117)" fill="#1b1b1b"/><path d="M226.111,355.577c.036.021.07.045.105.065C226.181,355.62,226.147,355.6,226.111,355.577Z" transform="translate(-223.486 -355.139)" fill="#1b1b1b"/><path d="M226.324,361.172a4.868,4.868,0,0,0,.727-.559,1,1,0,0,0,.161-.2,4.313,4.313,0,0,0,.527-1.254A3.509,3.509,0,0,1,226.324,361.172Z" transform="translate(-223.465 -354.794)" fill="#1b1b1b"/><path d="M224.913,355.177l.124.019C225,355.191,224.955,355.182,224.913,355.177Z" transform="translate(-223.601 -355.177)" fill="#1b1b1b"/><path d="M225.773,355.406c.015.007.03.015.044.022C225.8,355.421,225.788,355.413,225.773,355.406Z" transform="translate(-223.518 -355.155)" fill="#1b1b1b"/><path d="M227.6,357.5c.012.041.022.082.033.124C227.624,357.586,227.614,357.545,227.6,357.5Z" transform="translate(-223.342 -354.953)" fill="#1b1b1b"/><path d="M224.528,361.558c-.1,0-.2-.01-.295-.019C224.331,361.547,224.428,361.558,224.528,361.558Z" transform="translate(-223.666 -354.565)" fill="#1b1b1b"/><path d="M225.332,361.449l-.053.013Z" transform="translate(-223.566 -354.574)" fill="#1b1b1b"/><path d="M227.689,357.934c0,.025.009.05.012.077C227.7,357.984,227.693,357.959,227.689,357.934Z" transform="translate(-223.334 -354.912)" fill="#1b1b1b"/><path d="M224.138,361.536a3.7,3.7,0,0,1-.422-.08A3.7,3.7,0,0,0,224.138,361.536Z" transform="translate(-223.716 -354.573)" fill="#1b1b1b"/><path d="M224.936,361.527l-.06.009Z" transform="translate(-223.604 -354.566)" fill="#1b1b1b"/><path d="M226.289,361.031c-.062.041-.126.079-.191.116C226.164,361.112,226.225,361.07,226.289,361.031Z" transform="translate(-223.487 -354.614)" fill="#1b1b1b"/><path d="M227.717,358.4c0,.038,0,.076-.005.113C227.714,358.477,227.717,358.436,227.717,358.4Z" transform="translate(-223.332 -354.867)" fill="#1b1b1b"/><path d="M227.686,358.809c-.008.052-.014.1-.024.155C227.671,358.912,227.678,358.861,227.686,358.809Z" transform="translate(-223.337 -354.828)" fill="#1b1b1b"/><path d="M225.313,355.254c.037.009.076.018.113.028C225.389,355.272,225.35,355.263,225.313,355.254Z" transform="translate(-223.562 -355.17)" fill="#1b1b1b"/></g><path d="M217.787,360.841h.482a.873.873,0,0,1,.818.566c.049.132.1.261.161.389a.873.873,0,0,1-.175.981l-.342.346a.877.877,0,0,0,0,1.24l1.24,1.241a.879.879,0,0,0,1.241,0l.344-.343a.873.873,0,0,1,.981-.175c.127.058.258.112.389.161a.875.875,0,0,1,.567.818v.482a.878.878,0,0,0,.878.878h1.755a.878.878,0,0,0,.878-.878v-.482a.874.874,0,0,1,.567-.818c.132-.05.261-.1.388-.162a.875.875,0,0,1,.981.175l.345.343a.877.877,0,0,0,1.24,0l1.241-1.24a.879.879,0,0,0,0-1.241l-.343-.344a.875.875,0,0,1-.176-.981c.059-.127.113-.257.162-.389a.874.874,0,0,1,.819-.567h.482a.878.878,0,0,0,.878-.878v-1.756a.878.878,0,0,0-.878-.878h-.482a.873.873,0,0,1-.818-.566q-.074-.2-.161-.388a.875.875,0,0,1,.175-.982l.343-.344a.879.879,0,0,0,0-1.241l-1.241-1.24a.877.877,0,0,0-1.24,0l-.345.343a.873.873,0,0,1-.981.175c-.127-.058-.257-.112-.388-.162a.872.872,0,0,1-.568-.818v-.483a.878.878,0,0,0-.878-.878h-1.755a.878.878,0,0,0-.878.878v.483a.872.872,0,0,1-.567.817c-.132.05-.261.1-.388.162a.873.873,0,0,1-.981-.175l-.346-.343a.879.879,0,0,0-1.241,0l-1.239,1.241a.879.879,0,0,0,0,1.241l.343.344a.873.873,0,0,1,.176.982c-.059.127-.113.256-.162.388a.873.873,0,0,1-.819.566h-.482a.878.878,0,0,0-.878.878v1.756A.878.878,0,0,0,217.787,360.841Zm6.584-5.158a3.441,3.441,0,0,1,1.312-.08l.124.019c.106.018.212.039.315.066.037.009.076.018.113.029a3.449,3.449,0,0,1,.391.138c.015.007.03.015.044.022a3.654,3.654,0,0,1,.327.166c.035.021.07.045.105.065.088.055.175.115.259.178.029.021.057.041.084.062a3.758,3.758,0,0,1,.3.273c.018.018.034.037.052.057.077.081.15.166.219.254.025.033.05.066.075.1a3,3,0,0,1,.175.271c.016.026.034.053.049.08a3.278,3.278,0,0,1,.178.37c.012.03.022.06.033.088a3.058,3.058,0,0,1,.1.312c.012.042.022.083.033.125.026.114.047.23.063.346,0,.026.009.052.012.077a3.773,3.773,0,0,1,.023.385.283.283,0,0,1,0,.053c0,.037,0,.076-.005.113-.005.113-.015.225-.031.334-.008.052-.014.1-.024.155-.014.079-.034.156-.054.232a4.33,4.33,0,0,1-.527,1.255.927.927,0,0,1-.161.2,4.846,4.846,0,0,1-.725.558l-.057.037c-.064.04-.127.081-.191.116a3.532,3.532,0,0,1-.845.342l-.053.013a3.478,3.478,0,0,1-.381.071l-.06.009a3.379,3.379,0,0,1-.394.025h-.016c-.1,0-.2-.01-.295-.019-.047,0-.1,0-.145-.01a3.712,3.712,0,0,1-.422-.081,3.513,3.513,0,0,1,0-6.8Z" transform="translate(-6301.47 -4784.528)" fill="none"/><g transform="translate(-6076.678 -4428.955)"><path d="M227.317,356.8a3.489,3.489,0,0,1,.179.37A3.489,3.489,0,0,0,227.317,356.8Z" transform="translate(-223.792 -354.991)" fill="#1b1b1b"/><path d="M227.51,357.219c.038.1.072.206.1.312C227.582,357.425,227.548,357.321,227.51,357.219Z" transform="translate(-223.773 -354.951)" fill="#1b1b1b"/><path d="M227.722,358.387A3.729,3.729,0,0,0,227.7,358a3.384,3.384,0,0,1,.019.435A.282.282,0,0,0,227.722,358.387Z" transform="translate(-223.755 -354.876)" fill="#1b1b1b"/><path d="M227.632,357.617c.026.115.047.23.063.347C227.679,357.847,227.658,357.732,227.632,357.617Z" transform="translate(-223.761 -354.913)" fill="#1b1b1b"/><path d="M225.026,355.194c.106.018.21.039.315.066C225.236,355.234,225.132,355.212,225.026,355.194Z" transform="translate(-224.012 -355.146)" fill="#1b1b1b"/><path d="M224.517,355.15a3.6,3.6,0,0,1,.434.03A3.6,3.6,0,0,0,224.517,355.15Z" transform="translate(-224.061 -355.15)" fill="#1b1b1b"/><path d="M225.814,355.426a3.24,3.24,0,0,1,.326.166A3.489,3.489,0,0,0,225.814,355.426Z" transform="translate(-223.936 -355.123)" fill="#1b1b1b"/><path d="M225.416,355.28a3.444,3.444,0,0,1,.391.138A3.444,3.444,0,0,0,225.416,355.28Z" transform="translate(-223.975 -355.138)" fill="#1b1b1b"/><path d="M227.111,356.479a3.01,3.01,0,0,1,.175.271A3.175,3.175,0,0,0,227.111,356.479Z" transform="translate(-223.812 -355.022)" fill="#1b1b1b"/><path d="M226.843,356.156c.077.081.15.166.219.254A3.012,3.012,0,0,0,226.843,356.156Z" transform="translate(-223.837 -355.053)" fill="#1b1b1b"/><path d="M226.207,355.636c.089.055.177.115.26.178C226.382,355.751,226.3,355.691,226.207,355.636Z" transform="translate(-223.898 -355.103)" fill="#1b1b1b"/><path d="M226.519,355.855a3.747,3.747,0,0,1,.3.273A3.747,3.747,0,0,0,226.519,355.855Z" transform="translate(-223.868 -355.082)" fill="#1b1b1b"/><path d="M226.172,361.137a3.742,3.742,0,0,1-.845.342A3.533,3.533,0,0,0,226.172,361.137Z" transform="translate(-223.983 -354.574)" fill="#1b1b1b"/><path d="M225.31,361.461a3.761,3.761,0,0,1-.381.072A3.761,3.761,0,0,0,225.31,361.461Z" transform="translate(-224.021 -354.543)" fill="#1b1b1b"/><path d="M224.518,361.558a3.4,3.4,0,0,0,.395-.023,3.429,3.429,0,0,1-.411.022Z" transform="translate(-224.062 -354.536)" fill="#1b1b1b"/><path d="M224.246,361.539c-.047,0-.1,0-.145-.01C224.149,361.536,224.2,361.534,224.246,361.539Z" transform="translate(-224.101 -354.536)" fill="#1b1b1b"/><path d="M227.715,358.5c0,.111-.015.222-.031.334C227.7,358.729,227.709,358.617,227.715,358.5Z" transform="translate(-223.756 -354.827)" fill="#1b1b1b"/><path d="M226.329,361l-.057.037Z" transform="translate(-223.892 -354.588)" fill="#1b1b1b"/><path d="M227.667,358.95c-.014.078-.035.155-.054.232C227.633,359.106,227.651,359.029,227.667,358.95Z" transform="translate(-223.763 -354.785)" fill="#1b1b1b"/></g><g transform="translate(-6085 -4443)"><path d="M232.748,356.929h-.482a.431.431,0,0,1-.407-.284c-.054-.14-.111-.277-.173-.413a.434.434,0,0,1,.088-.49l.344-.344a1.32,1.32,0,0,0,0-1.861l-1.24-1.24a1.32,1.32,0,0,0-1.861,0l-.344.343a.434.434,0,0,1-.49.088c-.136-.061-.273-.118-.414-.175a.43.43,0,0,1-.284-.407v-.483a1.317,1.317,0,0,0-1.318-1.316h-1.755a1.316,1.316,0,0,0-1.316,1.316v.483a.432.432,0,0,1-.284.407c-.14.053-.278.111-.414.172a.434.434,0,0,1-.49-.088l-.344-.344a1.321,1.321,0,0,0-1.86,0l-1.241,1.244a1.32,1.32,0,0,0,0,1.861l.344.344a.434.434,0,0,1,.088.49c-.062.136-.12.273-.173.414a.432.432,0,0,1-.41.283h-.482a1.316,1.316,0,0,0-1.316,1.316V360a1.316,1.316,0,0,0,1.316,1.317h.482a.432.432,0,0,1,.407.284c.054.14.111.277.173.413a.434.434,0,0,1-.088.49l-.344.345a1.319,1.319,0,0,0,0,1.86l1.24,1.24a1.32,1.32,0,0,0,1.861,0l.344-.343a.434.434,0,0,1,.49-.088c.136.061.273.12.414.175a.428.428,0,0,1,.286.407v.483a1.317,1.317,0,0,0,1.318,1.316h1.755a1.316,1.316,0,0,0,1.317-1.316V366.1a.432.432,0,0,1,.284-.406c.14-.054.278-.112.414-.173a.434.434,0,0,1,.49.088l.344.344a1.32,1.32,0,0,0,1.86,0l1.241-1.241a1.319,1.319,0,0,0,0-1.86l-.344-.344a.434.434,0,0,1-.088-.49c.062-.136.119-.274.175-.414a.433.433,0,0,1,.408-.285h.482A1.316,1.316,0,0,0,234.064,360v-1.756A1.316,1.316,0,0,0,232.748,356.929Zm.44,3.073a.439.439,0,0,1-.44.438h-.482a1.322,1.322,0,0,0-1.229.85c-.047.123-.1.243-.151.363a1.32,1.32,0,0,0,.263,1.472l.343.344a.438.438,0,0,1,0,.62h0l-1.24,1.24a.439.439,0,0,1-.62,0l-.344-.343a1.32,1.32,0,0,0-1.473-.264c-.118.055-.24.105-.362.151a1.32,1.32,0,0,0-.848,1.228v.483a.439.439,0,0,1-.44.438h-1.755a.439.439,0,0,1-.44-.438V366.1a1.322,1.322,0,0,0-.848-1.229c-.123-.046-.244-.1-.363-.15a1.32,1.32,0,0,0-1.473.263l-.343.343a.441.441,0,0,1-.622,0h0l-1.241-1.239a.441.441,0,0,1,0-.622l.344-.344a1.318,1.318,0,0,0,.263-1.472c-.054-.119-.1-.24-.15-.363a1.323,1.323,0,0,0-1.229-.85h-.482a.439.439,0,0,1-.44-.438v-1.756a.439.439,0,0,1,.44-.438h.482a1.321,1.321,0,0,0,1.229-.848c.047-.124.1-.244.151-.364a1.318,1.318,0,0,0-.263-1.472l-.345-.344a.437.437,0,0,1,0-.62h0l1.241-1.241a.439.439,0,0,1,.62,0l.344.344a1.32,1.32,0,0,0,1.472.263c.12-.054.24-.105.363-.151a1.32,1.32,0,0,0,.85-1.228v-.483a.439.439,0,0,1,.44-.438h1.755a.439.439,0,0,1,.44.438v.483a1.321,1.321,0,0,0,.848,1.229c.123.046.244.1.363.151a1.32,1.32,0,0,0,1.473-.264l.343-.343a.443.443,0,0,1,.622,0l1.241,1.241a.439.439,0,0,1,0,.62l-.344.344a1.32,1.32,0,0,0-.263,1.473c.054.118.1.24.15.362a1.322,1.322,0,0,0,1.229.848h.482a.439.439,0,0,1,.44.438V360Z" transform="translate(-216.509 -341.567)" fill="#1b1b1b"/><path d="M228.8,358.524c0-.105-.012-.21-.024-.315s-.031-.224-.055-.333c-.015-.071-.035-.143-.055-.214-.024-.09-.052-.179-.082-.267-.022-.06-.044-.121-.067-.181a4.022,4.022,0,0,0-.194-.411c-.005-.01-.009-.021-.014-.031a3.77,3.77,0,0,0-.4-.576c-.012-.016-.027-.031-.041-.046q-.09-.109-.187-.207c-.035-.036-.07-.069-.106-.1s-.088-.081-.132-.119-.107-.091-.163-.134l-.072-.054a3.916,3.916,0,0,0-2.352-.783c-.045,0-.089.007-.133.008-.093,0-.187.008-.282.018-.049.005-.1.011-.149.019a4.02,4.02,0,0,0-.425.079,3.953,3.953,0,0,0,0,7.655l.022,0a3.836,3.836,0,0,0,.46.088c.1.013.2.015.307.021.068,0,.132.013.2.013.125,0,.255-.008.388-.021a.355.355,0,0,0,.044-.007c.106-.011.215-.027.324-.049.044-.008.084-.019.127-.029.077-.019.153-.037.233-.06.061-.019.121-.041.181-.061s.123-.044.184-.067.115-.052.172-.078c.073-.034.147-.067.219-.106h0a5.169,5.169,0,0,0,1.125-.812,1.386,1.386,0,0,0,.236-.288,4.671,4.671,0,0,0,.661-1.8c.012-.084.023-.169.03-.255s.011-.159.012-.238c0-.025,0-.048,0-.073C228.813,358.64,228.808,358.583,228.8,358.524Zm-4.712-2.8a3.213,3.213,0,0,1,.772-.1,3.078,3.078,0,0,1,.375.026c.033,0,.066.01.1.014.1.015.19.034.282.058.031.008.06.014.091.023a3.064,3.064,0,0,1,.669.282l.1.06c.07.044.137.089.2.138.036.026.072.052.106.079.086.069.169.142.247.219.032.032.06.067.09.1.05.055.1.111.147.17.033.042.064.083.094.126.044.064.088.129.127.2.022.037.044.072.067.11a2.872,2.872,0,0,1,.151.322c.018.044.032.088.048.132.028.08.053.162.075.244.011.044.023.083.032.126a2.845,2.845,0,0,1,.056.36c0,.032,0,.065.005.1.005.1.008.2,0,.3,0,.036,0,.073-.005.11q-.011.158-.039.319a3.077,3.077,0,0,1-1.542,2.151q-.081.043-.161.079l-.036.018a3.151,3.151,0,0,1-.8.242l-.059.01c-.055.008-.109.014-.162.019-.071.007-.143.01-.215.011h-.091a2.949,2.949,0,0,1-.311-.019l-.053-.007a3.322,3.322,0,0,1-.358-.067,3.073,3.073,0,0,1,0-5.952Z" transform="translate(-216.086 -341.143)" fill="#1b1b1b"/><path d="M241.106,351.554h-1.38a.428.428,0,0,1-.409-.287,9.016,9.016,0,0,0-.493-1.19.431.431,0,0,1,.084-.5l.979-.98a1.318,1.318,0,0,0,0-1.861l-1.867-1.863a1.318,1.318,0,0,0-1.861,0l-.978.979a.431.431,0,0,1-.5.084,9.05,9.05,0,0,0-1.19-.5.43.43,0,0,1-.289-.409v-1.381a1.317,1.317,0,0,0-1.316-1.316h-2.633a1.317,1.317,0,0,0-1.318,1.316v1.381a.429.429,0,0,1-.287.409,9.327,9.327,0,0,0-1.19.494.429.429,0,0,1-.5-.083l-.98-.979a1.318,1.318,0,0,0-1.861,0l-1.862,1.862a1.316,1.316,0,0,0,0,1.861l1.439,1.443a.439.439,0,0,0,.622-.62l-1.44-1.441a.439.439,0,0,1,0-.62l1.862-1.862a.439.439,0,0,1,.62,0l.981.979a1.306,1.306,0,0,0,1.508.248,8.3,8.3,0,0,1,1.075-.447,1.306,1.306,0,0,0,.887-1.242v-1.381a.438.438,0,0,1,.439-.438h2.634a.438.438,0,0,1,.438.438v1.381a1.3,1.3,0,0,0,.887,1.241,8.252,8.252,0,0,1,1.076.448,1.308,1.308,0,0,0,1.508-.249l.98-.978a.439.439,0,0,1,.62,0l1.863,1.864a.438.438,0,0,1,0,.619l-.979.981a1.306,1.306,0,0,0-.248,1.508,8.3,8.3,0,0,1,.447,1.075,1.3,1.3,0,0,0,1.242.887h1.38a.44.44,0,0,1,.44.44V355.5a.439.439,0,0,1-.44.438h-1.38a1.307,1.307,0,0,0-1.242.888,8.292,8.292,0,0,1-.447,1.075,1.307,1.307,0,0,0,.248,1.508l.979.98a.439.439,0,0,1,0,.62l-1.863,1.863a.439.439,0,0,1-.62,0l-1.443-1.439a.439.439,0,1,0-.63.611l.011.01,1.441,1.439a1.316,1.316,0,0,0,1.861,0l1.863-1.862a1.316,1.316,0,0,0,0-1.861l-.978-.979a.431.431,0,0,1-.084-.5,9.1,9.1,0,0,0,.5-1.189.428.428,0,0,1,.409-.29h1.38a1.316,1.316,0,0,0,1.318-1.316v-2.633A1.317,1.317,0,0,0,241.106,351.554Z" transform="translate(-216.089 -342.337)" fill="#1b1b1b"/><path d="M234.121,349.613a5.713,5.713,0,0,0-8.069,0,.439.439,0,0,0,.62.622,4.828,4.828,0,1,1,6.874,6.782l-.046.045a.439.439,0,0,0,.611.631l.01-.011A5.711,5.711,0,0,0,234.121,349.613Z" transform="translate(-215.603 -341.798)" fill="#1b1b1b"/></g></g></g></svg>