<svg xmlns="http://www.w3.org/2000/svg" width="119.641" height="102.256" viewBox="0 0 119.641 102.256"><g transform="translate(-391.5 -387.5)"><g transform="translate(277.997 181.815)"><path d="M251.414,358.9c-.215,2.887-.472,3.418-1.647,3.41-1.236-.009-1.526-.624-1.583-3.417H232.446v9.446c1.335,0,2.736,0,4.136,0s1.85.383,2.135,1.768a1.528,1.528,0,0,0,1.645,1.388,1.481,1.481,0,0,0,1.51-1.509c.145-1.2.672-1.637,1.906-1.645,1.443-.009,2.886,0,4.419,0,0-1.045-.012-2.026,0-3.007.018-1.123.587-1.743,1.569-1.747s1.568.616,1.588,1.73q.026,1.486,0,2.973a3.259,3.259,0,0,1-3.355,3.39c-1.053.031-2.108.006-3.147.006-3,4.262-6.85,4.276-9.044,0-.993,0-2.013.009-3.032,0a3.293,3.293,0,0,1-3.568-3.577c-.01-3.005,0-6.011,0-9.071-.293-.083-.575-.152-.849-.244a3.2,3.2,0,0,1-2.308-3.006,6.158,6.158,0,0,0-2.791-5.277,33.183,33.183,0,0,1-7.681-7.779c-.766-1.074-.744-1.921.053-2.525.9-.681,1.749-.462,2.554.689a26,26,0,0,0,6.456,6.5,9.854,9.854,0,0,1,4.583,8.214h22.279c-.013-3.708,1.879-6.2,4.729-8.314a26.934,26.934,0,0,0-.578-43.793c-.425-.3-.932-.54-1.115-1.082a1.615,1.615,0,0,1,.5-1.88,1.578,1.578,0,0,1,2.086.076,31.349,31.349,0,0,1,7.259,6.949,30.109,30.109,0,0,1-6.147,42.175,12.49,12.49,0,0,0-1.961,1.656,5.756,5.756,0,0,0-1.561,3.548C254.577,357.378,253.74,358.381,251.414,358.9Z" transform="translate(-66.231 -66.945)" fill="#999"/><path d="M196.887,324.23a30.4,30.4,0,0,1,13.207-24.147,1.6,1.6,0,0,1,2.365.181,1.633,1.633,0,0,1-.558,2.454,27.11,27.11,0,0,0-11.851,21.905c-.03,1.457-.548,2.115-1.64,2.086s-1.548-.7-1.524-2.182C196.888,324.428,196.887,324.329,196.887,324.23Z" transform="translate(-52.888 -66.561)" fill="#999"/><path d="M267.6,264.291a7.559,7.559,0,0,0-4.965-.88,7.826,7.826,0,0,0-5.462,3.533,8.461,8.461,0,0,0-7.555,1.075V265.6c1.173-1.747,3.845-2.584,3.076-5.391a3.681,3.681,0,0,0,3.245-4.1,1.856,1.856,0,0,1,2.323,1.038,18.357,18.357,0,0,1,.838,1.786c.378.819.933,1.411,1.91,1.194s1.239-.951,1.234-1.876q-.028-4.412,0-8.823a1.83,1.83,0,0,0-.618-1.482c-2.037-1.834-4.053-3.691-5.729-5.224,0-4.059.026-7.43-.011-10.8a29.484,29.484,0,0,0-1.282-8.287c-.37-1.223-1.107-1.707-2.08-1.4s-1.342,1.12-.97,2.309a19.26,19.26,0,0,1,.988,4.836c.433,9.148.1,18.3.182,27.452,0,.024-.042.048-.1.108H236.92v-.608c0-8-.008-15.994.011-23.99a26.933,26.933,0,0,1,2.035-10.123,27.236,27.236,0,0,1,5.869-8.987,24.666,24.666,0,0,1,3.723,4.814c.7,1.12,1.54,1.411,2.442.856.856-.526.975-1.393.309-2.5a33.7,33.7,0,0,0-5.24-6.553c-.891-.883-1.562-.88-2.476.013a31.171,31.171,0,0,0-9.65,19.636c-.423,4.151-.066,8.324-.219,12.623-1.823,1.823-3.668,3.665-5.512,5.507-.351.351-.761.695-.764,1.229-.016,3.3-.037,6.609.011,9.912.011.827.674,1.255,1.437,1.414a1.3,1.3,0,0,0,1.493-.859c.359-.74.695-1.5,1.1-2.209a1.724,1.724,0,0,1,2.2-.959c.272,2.6.83,3.308,3.292,4.1-.758,2.756,2.011,3.427,3.055,5.206v2.566a8.469,8.469,0,0,0-7.555-1.091,7.932,7.932,0,0,0-10.181-2.782,1.658,1.658,0,0,0-.912,2.288,1.618,1.618,0,0,0,2.37.61,4.624,4.624,0,0,1,6.688,3.041,6.148,6.148,0,0,1-.5,3.847c-.275.721-.27,1.469.563,1.868a1.616,1.616,0,0,0,2.238-.78,8.387,8.387,0,0,0,.761-4.87,4.6,4.6,0,0,1,6.574,3.911c.108,1.4.626,2,1.686,1.945,1.015-.053,1.488-.692,1.49-2.035,0-2.468,0-4.936,0-7.436h3.057c.055.069.092.092.092.119.008,2.545,0,5.087.021,7.631a1.511,1.511,0,0,0,1.5,1.72c1.038.045,1.58-.563,1.667-1.86a4.639,4.639,0,0,1,6.5-4.064,6.576,6.576,0,0,0,.307,3.95c.536,1.551,1.245,2.074,2.283,1.757s1.192-.975.684-2.7c-.608-2.061-.37-3.982,1.329-5.428a4.479,4.479,0,0,1,5.414-.528,1.491,1.491,0,0,0,2.122-.639A1.546,1.546,0,0,0,267.6,264.291ZM255.953,246.8c.959.972,1.934,1.963,3.081,3.123V253.4a6.273,6.273,0,0,0-3.081-.576ZM233.7,252.826a5.707,5.707,0,0,0-3.068.61v-3.662c1.054-1.052,2.045-2.04,3.068-3.057Z" transform="translate(-70.778)" fill="#1b1b1b"/><path d="M297.452,258.008a4.764,4.764,0,0,1,.6,9.483c-1.235.166-2.042-.3-2.2-1.265-.174-1.061.4-1.687,1.721-1.883a1.476,1.476,0,0,0,1.408-1.694,1.409,1.409,0,0,0-1.44-1.455,1.47,1.47,0,0,0-1.7,1.4c-.2,1.338-.815,1.908-1.868,1.741-.971-.154-1.436-.954-1.277-2.2A4.686,4.686,0,0,1,297.452,258.008Z" transform="translate(-123.357 -35.921)" fill="#1b1b1b"/><path d="M307.8,336.429c0,1.518.013,3.036,0,4.554-.012,1.121-.588,1.743-1.568,1.749a1.517,1.517,0,0,1-1.587-1.726q-.021-4.6,0-9.207c0-1.122.584-1.741,1.565-1.747s1.576.613,1.59,1.724C307.813,333.327,307.8,334.878,307.8,336.429Z" transform="translate(-132.162 -88.929)" fill="#1b1b1b"/><path d="M131.319,390.053c1.514,0,3.029-.01,4.543,0,1.185.011,1.814.595,1.791,1.623-.022.978-.641,1.538-1.773,1.542q-4.543.017-9.087,0c-1.179,0-1.812-.6-1.79-1.624.021-.979.638-1.53,1.772-1.541C128.29,390.043,129.8,390.053,131.319,390.053Z" transform="translate(0 -133.073)" fill="#1b1b1b"/><path d="M454.622,393.223c-1.482,0-2.963.011-4.445,0-1.175-.011-1.809-.606-1.783-1.631.025-.978.641-1.53,1.779-1.534q4.543-.017,9.087,0c1.172,0,1.811.608,1.784,1.629-.025.977-.644,1.526-1.78,1.536C457.717,393.234,456.169,393.223,454.622,393.223Z" transform="translate(-237.938 -133.07)" fill="#1b1b1b"/><path d="M187.4,270.971a1.609,1.609,0,0,1-.887,1.432,1.478,1.478,0,0,1-1.747-.272c-2.307-2.257-4.592-4.539-6.828-6.867a1.359,1.359,0,0,1,.155-2.038,1.449,1.449,0,0,1,2.2.034c1.42,1.375,2.8,2.788,4.2,4.186q1.118,1.119,2.234,2.239A1.98,1.98,0,0,1,187.4,270.971Z" transform="translate(-38.658 -39.402)" fill="#1b1b1b"/><path d="M416.26,500.293a1.5,1.5,0,0,1-.9,1.42,1.716,1.716,0,0,1-1.978-.463q-2.96-2.978-5.931-5.945c-.139-.14-.284-.275-.417-.421a1.533,1.533,0,0,1-.068-2.35,1.5,1.5,0,0,1,2.274.118c1.613,1.6,3.215,3.212,4.821,4.82q.837.839,1.672,1.681A1.81,1.81,0,0,1,416.26,500.293Z" transform="translate(-207.078 -208.13)" fill="#1b1b1b"/><path d="M179.212,501.767a1.384,1.384,0,0,1-1.366-.8,1.36,1.36,0,0,1,.167-1.66c2.283-2.327,4.576-4.644,6.908-6.92a1.358,1.358,0,0,1,2.037.091,1.391,1.391,0,0,1,.1,2.117c-2.224,2.292-4.493,4.54-6.756,6.794A1.45,1.45,0,0,1,179.212,501.767Z" transform="translate(-38.73 -208.061)" fill="#1b1b1b"/><path d="M416.419,264.4a1.979,1.979,0,0,1-.654,1.307c-2.075,2.073-4.137,4.159-6.219,6.226-.85.844-1.766.969-2.346.376a1.732,1.732,0,0,1,.148-2.621q3.133-3.159,6.285-6.3a1.544,1.544,0,0,1,1.884-.4A1.576,1.576,0,0,1,416.419,264.4Z" transform="translate(-207.239 -39.464)" fill="#1b1b1b"/><path d="M297.537,534.123c1.02,0,2.041-.019,3.06.006a1.577,1.577,0,1,1,0,3.154q-3.159.043-6.318,0a1.577,1.577,0,1,1,0-3.154C295.364,534.1,296.451,534.123,297.537,534.123Z" transform="translate(-123.383 -239.071)" fill="#1b1b1b"/><path d="M201.5,420.192a1.475,1.475,0,0,1-1.348-1.087c-.343-1.026-.671-2.061-.938-3.108a1.653,1.653,0,0,1,1.251-1.942,1.481,1.481,0,0,1,1.886,1.13c.261.982.567,1.954.811,2.94A1.676,1.676,0,0,1,201.5,420.192Z" transform="translate(-54.572 -150.711)" fill="#1b1b1b"/><path d="M294.929,405.317l-2.173-2.174v-.931h9.411v.96l-2.15,2.145Z" transform="translate(-123.426 -142.022)" fill="#fefefe"/></g><g transform="translate(-0.037)"><circle cx="5.8" cy="5.8" r="5.8" transform="translate(392.037 466.744)" fill="none" stroke="#1b1b1b" stroke-miterlimit="10" stroke-width="1"/><circle cx="4" cy="4" r="4" transform="translate(502.231 392.889)" fill="none" stroke="#999" stroke-miterlimit="10" stroke-width="1"/><g transform="translate(503.078 462.844)"><line y2="8.3" transform="translate(4.1)" fill="none" stroke="#999" stroke-miterlimit="10" stroke-width="1"/><line x2="8.1" transform="translate(0 4)" fill="none" stroke="#999" stroke-miterlimit="10" stroke-width="1"/></g><g transform="translate(396.387 388.489)"><line y2="5.4" transform="translate(7.3)" fill="none" stroke="#1b1b1b" stroke-miterlimit="10" stroke-width="1"/><line y2="5.8" transform="translate(7.3 8.6)" fill="none" stroke="#1b1b1b" stroke-miterlimit="10" stroke-width="1"/><line x1="5.5" transform="translate(9 7.2)" fill="none" stroke="#1b1b1b" stroke-miterlimit="10" stroke-width="1"/><line x1="5.5" transform="translate(0 7.2)" fill="none" stroke="#1b1b1b" stroke-miterlimit="10" stroke-width="1"/></g><circle cx="3.5" cy="3.5" r="3.5" transform="translate(480.352 387.5)" fill="#dedede"/><circle cx="1.4" cy="1.4" r="1.4" transform="translate(392.037 431.744)" fill="#1b1b1b"/></g></g></svg>