<svg xmlns="http://www.w3.org/2000/svg" width="52.125" height="16.078" viewBox="0 0 52.125 16.078"><g transform="translate(0 0)"><path d="M-458.528-850.106c-.1-.16-.146-.233-.189-.291a12.406,12.406,0,0,0-6.144-6.1,16.649,16.649,0,0,0-3.334-1.208.5.5,0,0,0-.2-.015v-.306a3.42,3.42,0,0,1,.539-.073h5.81a4.2,4.2,0,0,1,.859.087,1.473,1.473,0,0,1,1.238,1.136c.175.757.335,1.514.5,2.271C-459.154-853.149-458.863-851.693-458.528-850.106Z" transform="translate(468.4 858.23)" fill="#f99d31"/><path d="M-431.251-857.979c-1.281,0-2.519-.015-3.757.015a1.786,1.786,0,0,0-1.412.7,3.636,3.636,0,0,0-.451.8q-2.992,6.771-5.984,13.556c-.058.131-.1.276-.175.451h4.426c.306-.757.6-1.529.888-2.286h5.416q.262,1.158.524,2.271a23.123,23.123,0,0,0,3.931-.044C-428.979-847.67-430.115-852.81-431.251-857.979Zm-5.2,9.959c.7-1.864,1.427-3.7,2.14-5.547h.1c.393,1.834.8,3.669,1.208,5.547Z" transform="translate(479.969 858.284)" fill="#2394bc"/><path d="M-444.535-854.39a.907.907,0,0,0-.087,1.514,6.339,6.339,0,0,0,1.048.713c.451.248.917.437,1.369.684a16.131,16.131,0,0,1,1.587.99,3.856,3.856,0,0,1,1.223,4.819,5.015,5.015,0,0,1-2.941,2.8,10.833,10.833,0,0,1-4.994.728,13.963,13.963,0,0,1-3.189-.568l-.641-.248c.2-1.15.393-2.271.582-3.436.146.044.277.073.393.116a9.265,9.265,0,0,0,2.4.772,6.6,6.6,0,0,0,2.97-.058,2.692,2.692,0,0,0,.772-.364,1.091,1.091,0,0,0,.116-1.82,6.732,6.732,0,0,0-1.223-.786c-.568-.32-1.165-.568-1.718-.9a9.158,9.158,0,0,1-1.238-.888,3.648,3.648,0,0,1-.888-4.528,5.113,5.113,0,0,1,2.635-2.49,9.724,9.724,0,0,1,5.212-.772c.757.087,1.5.277,2.242.437a2.947,2.947,0,0,1,.466.16c-.189,1.107-.364,2.213-.568,3.363a3.767,3.767,0,0,0-.393-.16,7.6,7.6,0,0,0-4.019-.524A2.379,2.379,0,0,0-444.535-854.39Z" transform="translate(476.262 858.189)" fill="#2394bc"/><path d="M-450.557-857.97q-3.342,7.753-6.669,15.477h-4.514c-1.238-4.266-2.49-8.518-3.771-12.886.2.1.291.131.379.189a17.579,17.579,0,0,1,4.892,5.052,5.8,5.8,0,0,1,.8,1.849c.058.248.146.495.247.859,1.4-3.582,2.766-7.062,4.121-10.542Z" transform="translate(469.718 858.29)" fill="#2394bc"/><path d="M-448.988-857.98c-.888,5.183-1.762,10.338-2.65,15.521h-4.252c.888-5.183,1.762-10.338,2.635-15.521Z" transform="translate(474.105 858.285)" fill="#2394bc"/></g></svg>