<svg xmlns="http://www.w3.org/2000/svg" width="256.46" height="281.271" viewBox="0 0 256.46 281.271"><g opacity="0.6"><g transform="matrix(0.966, -0.259, 0.259, 0.966, 0, 101.405)"><path d="M116.435,23.2C91.48-6.165,42.02-15.725,34.376,43.455c-3.031,23.466-8.411,41.116-20.646,58.231-33.74,47.2.412,92.452,40.88,83.348,34.248-7.706,53.485-26.4,102.068-11.836,25.393,7.614,52.319,6.453,58.068-21.4,6.393-30.969-23.895-45.978-48.625-66.464C134.367,59.033,137.844,48.388,116.435,23.2Z" fill="rgba(0,159,227,0.15)"/></g><g transform="translate(8.571 109.01) rotate(-22)"><path d="M69.4,160.563C38.713,149.72.365,110.292,0,54.9S42.286-12.39,65.306,12.12s44.81,30.044,69.919,27.93S190,55.72,185.811,94.278,136.745,184.358,69.4,160.563Z" fill="rgba(0,159,227,0.15)"/></g><g transform="translate(1.717)" opacity="0.1"><path d="M765.478,650l0,1.04c10.095,0,18.911,4.677,26.207,13.9a64.628,64.628,0,0,1,11.164,22.687,101.182,101.182,0,0,1,2.63,29.06,140.946,140.946,0,0,1-7.116,38.433,172.569,172.569,0,0,1-50.485,75.91A117.129,117.129,0,0,1,718.8,849.768c-10.694,4.729-21.076,7.127-30.856,7.127-21.766,0-35.352-14.251-44.051-46.209-7.909-29.056-27.663-39.266-48.576-50.075l-.608-.314c-10.406-5.38-18.5-13.275-22.794-22.232-4.476-9.341-4.531-18.956-.157-27.807,3.921-7.934,10.377-13.94,19.189-17.85,8.684-3.854,19.938-5.808,33.449-5.808,3.055,0,6.28.1,9.585.3,6.183.369,11.65.548,16.713.548,31.915,0,56.19-7.611,89.565-28.081,9.006-5.523,17.489-8.324,25.215-8.324V650Zm0,0c-7.369,0-15.915,2.438-25.763,8.478C704.3,680.2,680.391,686.4,650.7,686.4c-5.331,0-10.846-.2-16.651-.546q-4.992-.3-9.647-.3c-27.093,0-45.371,7.647-53.57,24.237-9.423,19.068,2.025,40.37,23.4,51.423s40.795,20.85,48.659,49.739,20.529,46.975,45.054,46.975c20.46,0,42.737-10.534,60.618-26.126a173.86,173.86,0,0,0,50.788-76.367c9.175-27.8,8.438-52.753,4.505-68.077-3-11.712-14.484-37.363-38.378-37.366Z" transform="translate(-567.5 -650)" fill="#1b1b1b" opacity="0.75"/><path d="M803.179,700l0,1.04c9.051,0,16.96,4.2,23.5,12.468a58.047,58.047,0,0,1,10.029,20.38,90.962,90.962,0,0,1,2.364,26.123,126.756,126.756,0,0,1-6.4,34.562,155.207,155.207,0,0,1-45.406,68.273A105.293,105.293,0,0,1,761.13,879.7c-9.612,4.25-18.941,6.406-27.728,6.406-19.534,0-31.731-12.8-39.546-41.512-7.131-26.194-24.929-35.393-43.772-45.133l-.547-.282c-9.345-4.832-16.615-11.921-20.468-19.961-4.014-8.377-4.064-17-.142-24.935,3.517-7.118,9.311-12.507,17.219-16.016,7.8-3.463,17.917-5.218,30.062-5.218,2.748,0,5.649.089,8.621.267,5.566.332,10.488.492,15.047.492,28.745,0,50.607-6.853,80.663-25.287,8.088-4.961,15.705-7.477,22.639-7.477V700Zm0,0c-6.633,0-14.323,2.194-23.187,7.63-31.876,19.55-53.4,25.134-80.119,25.134-4.8,0-9.761-.18-14.986-.491q-4.493-.268-8.682-.269c-24.383,0-40.834,6.882-48.213,21.814-8.48,17.16,1.823,36.333,21.065,46.281s36.715,18.765,43.793,44.765,18.475,42.278,40.549,42.278c18.413,0,38.464-9.481,54.557-23.513a156.489,156.489,0,0,0,45.709-68.73c8.257-25.02,7.593-47.478,4.055-61.269-2.7-10.541-13.036-33.627-34.54-33.63Z" transform="translate(-613.043 -689.603)" fill="#1b1b1b" opacity="0.75"/><path d="M840.882,750l0,1.04c8.009,0,15.008,3.715,20.8,11.039a51.465,51.465,0,0,1,8.893,18.073,80.74,80.74,0,0,1,2.1,23.187A112.59,112.59,0,0,1,867,834.029a137.854,137.854,0,0,1-40.327,60.635c-15.046,13.12-32.473,20.644-47.812,20.644-17.3,0-28.109-11.354-35.04-36.814-6.352-23.332-22.194-31.521-38.967-40.19l-.486-.251c-8.285-4.283-14.729-10.566-18.143-17.691-3.553-7.413-3.6-15.042-.127-22.063a29.9,29.9,0,0,1,15.249-14.183c6.921-3.071,15.9-4.629,26.674-4.629,2.441,0,5.017.08,7.656.238,4.951.3,9.328.439,13.383.439,25.575,0,45.023-6.1,71.76-22.5,7.172-4.4,13.922-6.629,20.064-6.629V750Zm0,0c-5.9,0-12.733,1.951-20.611,6.782-28.334,17.378-47.462,22.342-71.217,22.342-4.265,0-8.677-.161-13.321-.437q-3.994-.238-7.718-.24c-21.674,0-36.3,6.118-42.856,19.391-7.538,15.254,1.62,32.3,18.724,41.138s32.636,16.681,38.927,39.791,16.422,37.581,36.043,37.581c16.368,0,34.191-8.427,48.495-20.9a139.1,139.1,0,0,0,40.631-61.093c7.34-22.24,6.75-42.2,3.6-54.462C869.183,770.523,860,750,840.885,750Z" transform="translate(-658.588 -729.206)" fill="#1b1b1b" opacity="0.75"/><path d="M878.583,800l0,1.04c15.272,0,23.44,15.952,25.858,25.375,1.272,4.959,4.806,23.008-3.134,47.07a120.485,120.485,0,0,1-35.248,53c-13.142,11.46-28.359,18.032-41.75,18.032-15.071,0-24.488-9.905-30.534-32.116-5.573-20.471-19.459-27.649-34.161-35.248l-.425-.22c-7.224-3.735-12.842-9.211-15.817-15.42a21.248,21.248,0,0,1-.112-19.192,26.036,26.036,0,0,1,13.28-12.348c6.039-2.68,13.874-4.039,23.287-4.039,2.133,0,4.384.069,6.692.207,4.334.258,8.166.384,11.717.384,22.405,0,39.441-5.34,62.859-19.7,6.255-3.836,12.138-5.781,17.487-5.781V800Zm0,0c-5.158,0-11.141,1.707-18.034,5.935-24.792,15.205-41.53,19.549-62.315,19.549-3.732,0-7.592-.14-11.655-.382q-3.5-.209-6.753-.209c-18.965,0-31.76,5.353-37.5,16.966-6.6,13.347,1.418,28.259,16.384,36s28.556,14.595,34.061,34.817,14.37,32.883,31.537,32.883c14.321,0,29.917-7.374,42.433-18.288A121.708,121.708,0,0,0,902.3,873.81c6.422-19.46,5.906-36.927,3.153-47.654-2.1-8.2-10.139-26.154-26.864-26.156Z" transform="translate(-704.131 -768.81)" fill="#1b1b1b" opacity="0.75"/><path d="M916.286,850l0,1.04c13,0,19.957,13.6,22.02,21.638,1.088,4.241,4.11,19.676-2.683,40.262A103.12,103.12,0,0,1,905.456,958.3c-11.238,9.8-24.246,15.419-35.688,15.419-12.84,0-20.867-8.456-26.029-27.418-4.794-17.61-16.725-23.777-29.357-30.306l-.364-.188c-6.164-3.187-10.955-7.856-13.492-13.15a18.07,18.07,0,0,1-.1-16.32,22.175,22.175,0,0,1,11.309-10.514c5.157-2.289,11.853-3.449,19.9-3.449,1.826,0,3.752.06,5.726.177,3.718.222,7.006.329,10.053.329,19.234,0,33.858-4.583,53.957-16.909,5.337-3.274,10.354-4.933,14.911-4.933V850Zm0,0c-4.421,0-9.549,1.463-15.458,5.087-21.251,13.034-35.6,16.756-53.413,16.756-3.2,0-6.508-.12-9.991-.327q-3-.178-5.788-.179c-16.256,0-27.222,4.589-32.142,14.543-5.654,11.44,1.215,24.222,14.043,30.853s24.477,12.511,29.195,29.844,12.317,28.186,27.033,28.186c12.276,0,25.643-6.321,36.371-15.676a104.32,104.32,0,0,0,30.473-45.82c5.5-16.68,5.063-31.652,2.7-40.846-1.8-7.027-8.69-22.418-23.027-22.42Z" transform="translate(-749.675 -808.413)" fill="#1b1b1b" opacity="0.75"/><path d="M953.988,900l0,1.04c10.727,0,16.476,11.254,18.182,17.9.9,3.522,3.413,16.344-2.233,33.454a85.769,85.769,0,0,1-25.091,37.726c-9.334,8.139-20.132,12.806-29.626,12.806-10.608,0-17.246-7.008-21.524-22.721-4.014-14.748-13.99-19.9-24.551-25.363l-.3-.157c-10.74-5.552-15.47-15.783-11.248-24.327,3.837-7.765,12.294-11.54,25.853-11.54,1.518,0,3.12.05,4.762.147,3.1.185,5.845.275,8.388.275,16.064,0,28.275-3.826,45.054-14.117,4.42-2.711,8.57-4.086,12.336-4.086V900Zm0,0c-3.685,0-7.958,1.219-12.881,4.239C923.4,915.1,911.445,918.2,896.6,918.2c-2.666,0-5.423-.1-8.326-.273q-2.5-.149-4.823-.149c-13.547,0-22.685,3.823-26.785,12.119-4.711,9.534,1.013,20.185,11.7,25.712s20.4,10.425,24.329,24.869,10.264,23.488,22.527,23.488c10.23,0,21.369-5.267,30.309-13.063a86.931,86.931,0,0,0,25.394-38.183c4.587-13.9,4.218-26.376,2.252-34.038-1.5-5.856-7.242-18.682-19.189-18.683Z" transform="translate(-795.218 -848.016)" fill="#1b1b1b" opacity="0.75"/><path d="M991.691,950l0,1.04c10.588,0,14.2,13.587,14.344,14.166.72,2.8,2.717,13.012-1.782,26.646a68.408,68.408,0,0,1-20.012,30.089c-7.43,6.479-16.018,10.194-23.564,10.194-8.377,0-13.625-5.559-17.018-18.024-3.236-11.887-11.256-16.032-19.746-20.42l-.243-.125c-8.486-4.388-12.232-12.456-8.907-19.185,3.031-6.134,9.736-9.115,20.5-9.115,1.21,0,2.487.04,3.8.117,2.485.148,4.685.22,6.722.22,12.895,0,22.692-3.069,36.152-11.324a19.04,19.04,0,0,1,9.76-3.238V950Zm0,0c-2.948,0-6.367.975-10.305,3.391-14.167,8.689-23.731,11.171-35.609,11.171-2.133,0-4.338-.08-6.66-.218q-2-.119-3.859-.119c-10.838,0-18.149,3.059-21.428,9.695-3.769,7.627.81,16.148,9.362,20.569s16.318,8.34,19.464,19.9,8.211,18.79,18.022,18.79c8.184,0,17.095-4.214,24.247-10.45a69.551,69.551,0,0,0,20.316-30.547c3.67-11.12,3.375-21.1,1.8-27.231-1.2-4.685-5.794-14.945-15.351-14.946Z" transform="translate(-840.762 -887.619)" fill="#1b1b1b" opacity="0.75"/></g></g></svg>